  0
SECTION
  2
HEADER
  9
$ANGBASE
  50
0.0
  9
$ANGDIR
  70
1
  9
$MEASUREMENT
  70
0
  0
ENDSEC
  0
SECTION
  2
TABLES
  0
TABLE
  2
LTYPE
  70
4
  0
LTYPE
  5
40F
  2
CONTINUOUS
  70
0
  3
Solid line
  72
65
  73
0
  40
0.0
  0
LTYPE
  5
410
  2
DASHDOT
 70
0
  3
Dash Dot ____ _ ____ _
 72
65
 73
4
 40
2.0
 49
1.25
 49
-0.25
 49
0.25
 49
-0.25
  0
LTYPE
  5
411
  2
DASHED
 70
0
  3
Dashed __ __ __ __ __
 72
65
 73
2
 40
0.75
 49
0.5
 49
-0.25
  0
LTYPE
  5
43B
  2
DOTTED
 70
0
  3
Dotted .  .  .  .
 72
65
 73
2
 40
0.2
 49
0.0
 49
-0.2
  0
ENDTAB
  0
TABLE
  2
STYLE
  70
4
  0
STYLE
  2
KICAD
  70
0
  40
0
  41
1
  42
1
  50
0
  71
0
  3
isocp.shx
  0
STYLE
  2
KICADB
  70
0
  40
0
  41
1
  42
1
  50
0
  71
0
  3
isocp.shx
  0
STYLE
  2
KICADI
  70
0
  40
0
  41
1
  42
1
  50
15
  71
0
  3
isocp.shx
  0
STYLE
  2
KICADBI
  70
0
  40
0
  41
1
  42
1
  50
15
  71
0
  3
isocp.shx
  0
ENDTAB
  0
TABLE
  2
LAYER
  70
1
  0
LAYER
  2
BLACK
  70
0
  62
7
  6
CONTINUOUS
  0
ENDTAB
  0
ENDSEC
  0
SECTION
  2
ENTITIES
0
LINE
8
BLACK
6
CONTINUOUS
10
9.13477
20
-1.12602
11
9.13485
21
-1.12602
0
LINE
8
BLACK
6
CONTINUOUS
10
9.13485
20
-1.12602
11
9.13493
21
-1.12602
0
LINE
8
BLACK
6
CONTINUOUS
10
9.13493
20
-1.12602
11
9.13495
21
-1.12603
0
LINE
8
BLACK
6
CONTINUOUS
10
9.13495
20
-1.12603
11
9.15739
21
-1.12639
0
LINE
8
BLACK
6
CONTINUOUS
10
9.15739
20
-1.12639
11
9.15739
21
-1.12639
0
LINE
8
BLACK
6
CONTINUOUS
10
9.15739
20
-1.12639
11
9.15744
21
-1.12638
0
LINE
8
BLACK
6
CONTINUOUS
10
9.15744
20
-1.12638
11
9.15749
21
-1.12639
0
LINE
8
BLACK
6
CONTINUOUS
10
9.15749
20
-1.12639
11
9.15753
21
-1.12639
0
LINE
8
BLACK
6
CONTINUOUS
10
9.15753
20
-1.12639
11
9.15758
21
-1.12639
0
LINE
8
BLACK
6
CONTINUOUS
10
9.15758
20
-1.12639
11
9.17901
21
-1.12747
0
LINE
8
BLACK
6
CONTINUOUS
10
9.17901
20
-1.12747
11
9.17903
21
-1.12746
0
LINE
8
BLACK
6
CONTINUOUS
10
9.17903
20
-1.12746
11
9.1792
21
-1.12748
0
LINE
8
BLACK
6
CONTINUOUS
10
9.1792
20
-1.12748
11
9.17922
21
-1.12748
0
LINE
8
BLACK
6
CONTINUOUS
10
9.17922
20
-1.12748
11
9.17923
21
-1.12748
0
LINE
8
BLACK
6
CONTINUOUS
10
9.17923
20
-1.12748
11
9.17925
21
-1.12748
0
LINE
8
BLACK
6
CONTINUOUS
10
9.17925
20
-1.12748
11
9.17929
21
-1.12748
0
LINE
8
BLACK
6
CONTINUOUS
10
9.17929
20
-1.12748
11
9.1793
21
-1.12748
0
LINE
8
BLACK
6
CONTINUOUS
10
9.1793
20
-1.12748
11
9.17932
21
-1.12748
0
LINE
8
BLACK
6
CONTINUOUS
10
9.17932
20
-1.12748
11
9.17937
21
-1.12749
0
LINE
8
BLACK
6
CONTINUOUS
10
9.17937
20
-1.12749
11
9.17946
21
-1.1275
0
LINE
8
BLACK
6
CONTINUOUS
10
9.17946
20
-1.1275
11
9.20009
21
-1.1293
0
LINE
8
BLACK
6
CONTINUOUS
10
9.20009
20
-1.1293
11
9.2001
21
-1.1293
0
LINE
8
BLACK
6
CONTINUOUS
10
9.2001
20
-1.1293
11
9.20015
21
-1.1293
0
LINE
8
BLACK
6
CONTINUOUS
10
9.20015
20
-1.1293
11
9.20019
21
-1.12931
0
LINE
8
BLACK
6
CONTINUOUS
10
9.20019
20
-1.12931
11
9.20024
21
-1.12931
0
LINE
8
BLACK
6
CONTINUOUS
10
9.20024
20
-1.12931
11
9.20039
21
-1.12933
0
LINE
8
BLACK
6
CONTINUOUS
10
9.20039
20
-1.12933
11
9.20042
21
-1.12934
0
LINE
8
BLACK
6
CONTINUOUS
10
9.20042
20
-1.12934
11
9.22008
21
-1.13185
0
LINE
8
BLACK
6
CONTINUOUS
10
9.22008
20
-1.13185
11
9.22013
21
-1.13185
0
LINE
8
BLACK
6
CONTINUOUS
10
9.22013
20
-1.13185
11
9.22027
21
-1.13187
0
LINE
8
BLACK
6
CONTINUOUS
10
9.22027
20
-1.13187
11
9.22027
21
-1.13187
0
LINE
8
BLACK
6
CONTINUOUS
10
9.22027
20
-1.13187
11
9.22029
21
-1.13187
0
LINE
8
BLACK
6
CONTINUOUS
10
9.22029
20
-1.13187
11
9.2203
21
-1.13188
0
LINE
8
BLACK
6
CONTINUOUS
10
9.2203
20
-1.13188
11
9.22041
21
-1.13189
0
LINE
8
BLACK
6
CONTINUOUS
10
9.22041
20
-1.13189
11
9.22048
21
-1.13191
0
LINE
8
BLACK
6
CONTINUOUS
10
9.22048
20
-1.13191
11
9.23937
21
-1.13515
0
LINE
8
BLACK
6
CONTINUOUS
10
9.23937
20
-1.13515
11
9.23937
21
-1.13515
0
LINE
8
BLACK
6
CONTINUOUS
10
9.23937
20
-1.13515
11
9.23938
21
-1.13516
0
LINE
8
BLACK
6
CONTINUOUS
10
9.23938
20
-1.13516
11
9.23947
21
-1.13516
0
LINE
8
BLACK
6
CONTINUOUS
10
9.23947
20
-1.13516
11
9.23953
21
-1.13518
0
LINE
8
BLACK
6
CONTINUOUS
10
9.23953
20
-1.13518
11
9.23959
21
-1.13519
0
LINE
8
BLACK
6
CONTINUOUS
10
9.23959
20
-1.13519
11
9.23973
21
-1.13523
0
LINE
8
BLACK
6
CONTINUOUS
10
9.23973
20
-1.13523
11
9.25777
21
-1.1392
0
LINE
8
BLACK
6
CONTINUOUS
10
9.25777
20
-1.1392
11
9.25782
21
-1.13921
0
LINE
8
BLACK
6
CONTINUOUS
10
9.25782
20
-1.13921
11
9.25796
21
-1.13924
0
LINE
8
BLACK
6
CONTINUOUS
10
9.25796
20
-1.13924
11
9.25798
21
-1.13925
0
LINE
8
BLACK
6
CONTINUOUS
10
9.25798
20
-1.13925
11
9.25801
21
-1.13925
0
LINE
8
BLACK
6
CONTINUOUS
10
9.25801
20
-1.13925
11
9.25804
21
-1.13926
0
LINE
8
BLACK
6
CONTINUOUS
10
9.25804
20
-1.13926
11
9.25816
21
-1.13929
0
LINE
8
BLACK
6
CONTINUOUS
10
9.25816
20
-1.13929
11
9.25822
21
-1.13931
0
LINE
8
BLACK
6
CONTINUOUS
10
9.25822
20
-1.13931
11
9.27541
21
-1.14401
0
LINE
8
BLACK
6
CONTINUOUS
10
9.27541
20
-1.14401
11
9.27546
21
-1.14402
0
LINE
8
BLACK
6
CONTINUOUS
10
9.27546
20
-1.14402
11
9.27559
21
-1.14406
0
LINE
8
BLACK
6
CONTINUOUS
10
9.27559
20
-1.14406
11
9.27564
21
-1.14407
0
LINE
8
BLACK
6
CONTINUOUS
10
9.27564
20
-1.14407
11
9.27565
21
-1.14408
0
LINE
8
BLACK
6
CONTINUOUS
10
9.27565
20
-1.14408
11
9.27565
21
-1.14408
0
LINE
8
BLACK
6
CONTINUOUS
10
9.27565
20
-1.14408
11
9.27571
21
-1.1441
0
LINE
8
BLACK
6
CONTINUOUS
10
9.27571
20
-1.1441
11
9.27576
21
-1.14411
0
LINE
8
BLACK
6
CONTINUOUS
10
9.27576
20
-1.14411
11
9.27578
21
-1.14412
0
LINE
8
BLACK
6
CONTINUOUS
10
9.27578
20
-1.14412
11
9.27586
21
-1.14414
0
LINE
8
BLACK
6
CONTINUOUS
10
9.27586
20
-1.14414
11
9.27587
21
-1.14415
0
LINE
8
BLACK
6
CONTINUOUS
10
9.27587
20
-1.14415
11
9.29222
21
-1.14957
0
LINE
8
BLACK
6
CONTINUOUS
10
9.29222
20
-1.14957
11
9.29227
21
-1.14958
0
LINE
8
BLACK
6
CONTINUOUS
10
9.29227
20
-1.14958
11
9.29241
21
-1.14963
0
LINE
8
BLACK
6
CONTINUOUS
10
9.29241
20
-1.14963
11
9.29246
21
-1.14965
0
LINE
8
BLACK
6
CONTINUOUS
10
9.29246
20
-1.14965
11
9.29246
21
-1.14965
0
LINE
8
BLACK
6
CONTINUOUS
10
9.29246
20
-1.14965
11
9.29258
21
-1.14969
0
LINE
8
BLACK
6
CONTINUOUS
10
9.29258
20
-1.14969
11
9.29266
21
-1.14973
0
LINE
8
BLACK
6
CONTINUOUS
10
9.29266
20
-1.14973
11
9.30839
21
-1.15596
0
LINE
8
BLACK
6
CONTINUOUS
10
9.30839
20
-1.15596
11
9.30846
21
-1.15599
0
LINE
8
BLACK
6
CONTINUOUS
10
9.30846
20
-1.15599
11
9.30847
21
-1.15599
0
LINE
8
BLACK
6
CONTINUOUS
10
9.30847
20
-1.15599
11
9.30848
21
-1.156
0
LINE
8
BLACK
6
CONTINUOUS
10
9.30848
20
-1.156
11
9.30849
21
-1.156
0
LINE
8
BLACK
6
CONTINUOUS
10
9.30849
20
-1.156
11
9.30852
21
-1.15601
0
LINE
8
BLACK
6
CONTINUOUS
10
9.30852
20
-1.15601
11
9.30853
21
-1.15602
0
LINE
8
BLACK
6
CONTINUOUS
10
9.30853
20
-1.15602
11
9.30855
21
-1.15602
0
LINE
8
BLACK
6
CONTINUOUS
10
9.30855
20
-1.15602
11
9.30862
21
-1.15606
0
LINE
8
BLACK
6
CONTINUOUS
10
9.30862
20
-1.15606
11
9.30865
21
-1.15608
0
LINE
8
BLACK
6
CONTINUOUS
10
9.30865
20
-1.15608
11
9.32359
21
-1.16305
0
LINE
8
BLACK
6
CONTINUOUS
10
9.32359
20
-1.16305
11
9.32364
21
-1.16307
0
LINE
8
BLACK
6
CONTINUOUS
10
9.32364
20
-1.16307
11
9.32378
21
-1.16314
0
LINE
8
BLACK
6
CONTINUOUS
10
9.32378
20
-1.16314
11
9.32392
21
-1.1632
0
LINE
8
BLACK
6
CONTINUOUS
10
9.32392
20
-1.1632
11
9.32397
21
-1.16324
0
LINE
8
BLACK
6
CONTINUOUS
10
9.32397
20
-1.16324
11
9.33795
21
-1.17087
0
LINE
8
BLACK
6
CONTINUOUS
10
9.33795
20
-1.17087
11
9.33796
21
-1.17087
0
LINE
8
BLACK
6
CONTINUOUS
10
9.33796
20
-1.17087
11
9.33811
21
-1.17096
0
LINE
8
BLACK
6
CONTINUOUS
10
9.33811
20
-1.17096
11
9.33819
21
-1.171
0
LINE
8
BLACK
6
CONTINUOUS
10
9.33819
20
-1.171
11
9.3382
21
-1.17101
0
LINE
8
BLACK
6
CONTINUOUS
10
9.3382
20
-1.17101
11
9.33821
21
-1.17101
0
LINE
8
BLACK
6
CONTINUOUS
10
9.33821
20
-1.17101
11
9.33821
21
-1.17101
0
LINE
8
BLACK
6
CONTINUOUS
10
9.33821
20
-1.17101
11
9.33824
21
-1.17103
0
LINE
8
BLACK
6
CONTINUOUS
10
9.33824
20
-1.17103
11
9.33826
21
-1.17104
0
LINE
8
BLACK
6
CONTINUOUS
10
9.33826
20
-1.17104
11
9.33832
21
-1.17108
0
LINE
8
BLACK
6
CONTINUOUS
10
9.33832
20
-1.17108
11
9.33846
21
-1.17117
0
LINE
8
BLACK
6
CONTINUOUS
10
9.33846
20
-1.17117
11
9.33847
21
-1.17117
0
LINE
8
BLACK
6
CONTINUOUS
10
9.33847
20
-1.17117
11
9.35165
21
-1.17953
0
LINE
8
BLACK
6
CONTINUOUS
10
9.35165
20
-1.17953
11
9.35167
21
-1.17953
0
LINE
8
BLACK
6
CONTINUOUS
10
9.35167
20
-1.17953
11
9.35182
21
-1.17963
0
LINE
8
BLACK
6
CONTINUOUS
10
9.35182
20
-1.17963
11
9.35188
21
-1.17967
0
LINE
8
BLACK
6
CONTINUOUS
10
9.35188
20
-1.17967
11
9.3519
21
-1.17968
0
LINE
8
BLACK
6
CONTINUOUS
10
9.3519
20
-1.17968
11
9.35192
21
-1.17969
0
LINE
8
BLACK
6
CONTINUOUS
10
9.35192
20
-1.17969
11
9.35192
21
-1.1797
0
LINE
8
BLACK
6
CONTINUOUS
10
9.35192
20
-1.1797
11
9.35194
21
-1.17971
0
LINE
8
BLACK
6
CONTINUOUS
10
9.35194
20
-1.17971
11
9.35198
21
-1.17974
0
LINE
8
BLACK
6
CONTINUOUS
10
9.35198
20
-1.17974
11
9.35203
21
-1.17977
0
LINE
8
BLACK
6
CONTINUOUS
10
9.35203
20
-1.17977
11
9.35204
21
-1.17978
0
LINE
8
BLACK
6
CONTINUOUS
10
9.35204
20
-1.17978
11
9.3521
21
-1.17982
0
LINE
8
BLACK
6
CONTINUOUS
10
9.3521
20
-1.17982
11
9.35212
21
-1.17984
0
LINE
8
BLACK
6
CONTINUOUS
10
9.35212
20
-1.17984
11
9.36458
21
-1.18895
0
LINE
8
BLACK
6
CONTINUOUS
10
9.36458
20
-1.18895
11
9.36458
21
-1.18895
0
LINE
8
BLACK
6
CONTINUOUS
10
9.36458
20
-1.18895
11
9.36471
21
-1.18905
0
LINE
8
BLACK
6
CONTINUOUS
10
9.36471
20
-1.18905
11
9.36481
21
-1.18912
0
LINE
8
BLACK
6
CONTINUOUS
10
9.36481
20
-1.18912
11
9.36481
21
-1.18912
0
LINE
8
BLACK
6
CONTINUOUS
10
9.36481
20
-1.18912
11
9.36481
21
-1.18913
0
LINE
8
BLACK
6
CONTINUOUS
10
9.36481
20
-1.18913
11
9.36482
21
-1.18913
0
LINE
8
BLACK
6
CONTINUOUS
10
9.36482
20
-1.18913
11
9.36483
21
-1.18914
0
LINE
8
BLACK
6
CONTINUOUS
10
9.36483
20
-1.18914
11
9.36485
21
-1.18916
0
LINE
8
BLACK
6
CONTINUOUS
10
9.36485
20
-1.18916
11
9.36487
21
-1.18917
0
LINE
8
BLACK
6
CONTINUOUS
10
9.36487
20
-1.18917
11
9.36492
21
-1.18921
0
LINE
8
BLACK
6
CONTINUOUS
10
9.36492
20
-1.18921
11
9.36498
21
-1.18926
0
LINE
8
BLACK
6
CONTINUOUS
10
9.36498
20
-1.18926
11
9.36499
21
-1.18927
0
LINE
8
BLACK
6
CONTINUOUS
10
9.36499
20
-1.18927
11
9.36505
21
-1.18932
0
LINE
8
BLACK
6
CONTINUOUS
10
9.36505
20
-1.18932
11
9.36506
21
-1.18933
0
LINE
8
BLACK
6
CONTINUOUS
10
9.36506
20
-1.18933
11
9.3769
21
-1.19929
0
LINE
8
BLACK
6
CONTINUOUS
10
9.3769
20
-1.19929
11
9.37696
21
-1.19934
0
LINE
8
BLACK
6
CONTINUOUS
10
9.37696
20
-1.19934
11
9.37697
21
-1.19935
0
LINE
8
BLACK
6
CONTINUOUS
10
9.37697
20
-1.19935
11
9.37698
21
-1.19936
0
LINE
8
BLACK
6
CONTINUOUS
10
9.37698
20
-1.19936
11
9.377
21
-1.19938
0
LINE
8
BLACK
6
CONTINUOUS
10
9.377
20
-1.19938
11
9.37702
21
-1.1994
0
LINE
8
BLACK
6
CONTINUOUS
10
9.37702
20
-1.1994
11
9.37703
21
-1.19941
0
LINE
8
BLACK
6
CONTINUOUS
10
9.37703
20
-1.19941
11
9.37704
21
-1.19941
0
LINE
8
BLACK
6
CONTINUOUS
10
9.37704
20
-1.19941
11
9.3771
21
-1.19948
0
LINE
8
BLACK
6
CONTINUOUS
10
9.3771
20
-1.19948
11
9.37715
21
-1.19952
0
LINE
8
BLACK
6
CONTINUOUS
10
9.37715
20
-1.19952
11
9.3883
21
-1.21028
0
LINE
8
BLACK
6
CONTINUOUS
10
9.3883
20
-1.21028
11
9.38831
21
-1.2103
0
LINE
8
BLACK
6
CONTINUOUS
10
9.38831
20
-1.2103
11
9.38835
21
-1.21033
0
LINE
8
BLACK
6
CONTINUOUS
10
9.38835
20
-1.21033
11
9.38836
21
-1.21034
0
LINE
8
BLACK
6
CONTINUOUS
10
9.38836
20
-1.21034
11
9.38838
21
-1.21036
0
LINE
8
BLACK
6
CONTINUOUS
10
9.38838
20
-1.21036
11
9.38839
21
-1.21037
0
LINE
8
BLACK
6
CONTINUOUS
10
9.38839
20
-1.21037
11
9.3884
21
-1.21038
0
LINE
8
BLACK
6
CONTINUOUS
10
9.3884
20
-1.21038
11
9.38841
21
-1.21039
0
LINE
8
BLACK
6
CONTINUOUS
10
9.38841
20
-1.21039
11
9.38843
21
-1.21041
0
LINE
8
BLACK
6
CONTINUOUS
10
9.38843
20
-1.21041
11
9.38847
21
-1.21046
0
LINE
8
BLACK
6
CONTINUOUS
10
9.38847
20
-1.21046
11
9.38852
21
-1.2105
0
LINE
8
BLACK
6
CONTINUOUS
10
9.38852
20
-1.2105
11
9.38854
21
-1.21053
0
LINE
8
BLACK
6
CONTINUOUS
10
9.38854
20
-1.21053
11
9.38862
21
-1.21062
0
LINE
8
BLACK
6
CONTINUOUS
10
9.38862
20
-1.21062
11
9.38863
21
-1.21063
0
LINE
8
BLACK
6
CONTINUOUS
10
9.38863
20
-1.21063
11
9.39899
21
-1.22209
0
LINE
8
BLACK
6
CONTINUOUS
10
9.39899
20
-1.22209
11
9.39903
21
-1.22214
0
LINE
8
BLACK
6
CONTINUOUS
10
9.39903
20
-1.22214
11
9.39905
21
-1.22216
0
LINE
8
BLACK
6
CONTINUOUS
10
9.39905
20
-1.22216
11
9.39908
21
-1.22219
0
LINE
8
BLACK
6
CONTINUOUS
10
9.39908
20
-1.22219
11
9.39909
21
-1.2222
0
LINE
8
BLACK
6
CONTINUOUS
10
9.39909
20
-1.2222
11
9.3991
21
-1.22222
0
LINE
8
BLACK
6
CONTINUOUS
10
9.3991
20
-1.22222
11
9.39912
21
-1.22224
0
LINE
8
BLACK
6
CONTINUOUS
10
9.39912
20
-1.22224
11
9.39912
21
-1.22224
0
LINE
8
BLACK
6
CONTINUOUS
10
9.39912
20
-1.22224
11
9.39913
21
-1.22225
0
LINE
8
BLACK
6
CONTINUOUS
10
9.39913
20
-1.22225
11
9.39915
21
-1.22227
0
LINE
8
BLACK
6
CONTINUOUS
10
9.39915
20
-1.22227
11
9.39918
21
-1.22232
0
LINE
8
BLACK
6
CONTINUOUS
10
9.39918
20
-1.22232
11
9.39924
21
-1.22239
0
LINE
8
BLACK
6
CONTINUOUS
10
9.39924
20
-1.22239
11
9.39924
21
-1.22239
0
LINE
8
BLACK
6
CONTINUOUS
10
9.39924
20
-1.22239
11
9.40894
21
-1.23468
0
LINE
8
BLACK
6
CONTINUOUS
10
9.40894
20
-1.23468
11
9.40898
21
-1.23473
0
LINE
8
BLACK
6
CONTINUOUS
10
9.40898
20
-1.23473
11
9.40899
21
-1.23475
0
LINE
8
BLACK
6
CONTINUOUS
10
9.40899
20
-1.23475
11
9.40901
21
-1.23477
0
LINE
8
BLACK
6
CONTINUOUS
10
9.40901
20
-1.23477
11
9.40904
21
-1.2348
0
LINE
8
BLACK
6
CONTINUOUS
10
9.40904
20
-1.2348
11
9.40906
21
-1.23484
0
LINE
8
BLACK
6
CONTINUOUS
10
9.40906
20
-1.23484
11
9.40909
21
-1.23488
0
LINE
8
BLACK
6
CONTINUOUS
10
9.40909
20
-1.23488
11
9.40918
21
-1.235
0
LINE
8
BLACK
6
CONTINUOUS
10
9.40918
20
-1.235
11
9.40919
21
-1.23503
0
LINE
8
BLACK
6
CONTINUOUS
10
9.40919
20
-1.23503
11
9.41817
21
-1.24806
0
LINE
8
BLACK
6
CONTINUOUS
10
9.41817
20
-1.24806
11
9.4182
21
-1.24811
0
LINE
8
BLACK
6
CONTINUOUS
10
9.4182
20
-1.24811
11
9.41822
21
-1.24814
0
LINE
8
BLACK
6
CONTINUOUS
10
9.41822
20
-1.24814
11
9.41824
21
-1.24817
0
LINE
8
BLACK
6
CONTINUOUS
10
9.41824
20
-1.24817
11
9.41825
21
-1.24819
0
LINE
8
BLACK
6
CONTINUOUS
10
9.41825
20
-1.24819
11
9.41827
21
-1.24822
0
LINE
8
BLACK
6
CONTINUOUS
10
9.41827
20
-1.24822
11
9.41828
21
-1.24823
0
LINE
8
BLACK
6
CONTINUOUS
10
9.41828
20
-1.24823
11
9.41829
21
-1.24824
0
LINE
8
BLACK
6
CONTINUOUS
10
9.41829
20
-1.24824
11
9.4183
21
-1.24826
0
LINE
8
BLACK
6
CONTINUOUS
10
9.4183
20
-1.24826
11
9.4183
21
-1.24826
0
LINE
8
BLACK
6
CONTINUOUS
10
9.4183
20
-1.24826
11
9.41833
21
-1.2483
0
LINE
8
BLACK
6
CONTINUOUS
10
9.41833
20
-1.2483
11
9.41835
21
-1.24834
0
LINE
8
BLACK
6
CONTINUOUS
10
9.41835
20
-1.24834
11
9.42669
21
-1.26224
0
LINE
8
BLACK
6
CONTINUOUS
10
9.42669
20
-1.26224
11
9.42673
21
-1.2623
0
LINE
8
BLACK
6
CONTINUOUS
10
9.42673
20
-1.2623
11
9.42673
21
-1.26232
0
LINE
8
BLACK
6
CONTINUOUS
10
9.42673
20
-1.26232
11
9.42675
21
-1.26234
0
LINE
8
BLACK
6
CONTINUOUS
10
9.42675
20
-1.26234
11
9.42675
21
-1.26235
0
LINE
8
BLACK
6
CONTINUOUS
10
9.42675
20
-1.26235
11
9.42676
21
-1.26236
0
LINE
8
BLACK
6
CONTINUOUS
10
9.42676
20
-1.26236
11
9.42676
21
-1.26237
0
LINE
8
BLACK
6
CONTINUOUS
10
9.42676
20
-1.26237
11
9.42677
21
-1.26238
0
LINE
8
BLACK
6
CONTINUOUS
10
9.42677
20
-1.26238
11
9.42681
21
-1.26246
0
LINE
8
BLACK
6
CONTINUOUS
10
9.42681
20
-1.26246
11
9.4269
21
-1.26262
0
LINE
8
BLACK
6
CONTINUOUS
10
9.4269
20
-1.26262
11
9.4269
21
-1.26263
0
LINE
8
BLACK
6
CONTINUOUS
10
9.4269
20
-1.26263
11
9.43441
21
-1.27704
0
LINE
8
BLACK
6
CONTINUOUS
10
9.43441
20
-1.27704
11
9.43441
21
-1.27704
0
LINE
8
BLACK
6
CONTINUOUS
10
9.43441
20
-1.27704
11
9.43449
21
-1.2772
0
LINE
8
BLACK
6
CONTINUOUS
10
9.43449
20
-1.2772
11
9.43455
21
-1.2773
0
LINE
8
BLACK
6
CONTINUOUS
10
9.43455
20
-1.2773
11
9.43455
21
-1.2773
0
LINE
8
BLACK
6
CONTINUOUS
10
9.43455
20
-1.2773
11
9.43455
21
-1.2773
0
LINE
8
BLACK
6
CONTINUOUS
10
9.43455
20
-1.2773
11
9.43455
21
-1.27731
0
LINE
8
BLACK
6
CONTINUOUS
10
9.43455
20
-1.27731
11
9.43456
21
-1.27732
0
LINE
8
BLACK
6
CONTINUOUS
10
9.43456
20
-1.27732
11
9.43456
21
-1.27732
0
LINE
8
BLACK
6
CONTINUOUS
10
9.43456
20
-1.27732
11
9.43456
21
-1.27732
0
LINE
8
BLACK
6
CONTINUOUS
10
9.43456
20
-1.27732
11
9.43456
21
-1.27733
0
LINE
8
BLACK
6
CONTINUOUS
10
9.43456
20
-1.27733
11
9.43456
21
-1.27733
0
LINE
8
BLACK
6
CONTINUOUS
10
9.43456
20
-1.27733
11
9.43458
21
-1.27738
0
LINE
8
BLACK
6
CONTINUOUS
10
9.43458
20
-1.27738
11
9.43461
21
-1.27743
0
LINE
8
BLACK
6
CONTINUOUS
10
9.43461
20
-1.27743
11
9.43462
21
-1.27746
0
LINE
8
BLACK
6
CONTINUOUS
10
9.43462
20
-1.27746
11
9.44153
21
-1.29278
0
LINE
8
BLACK
6
CONTINUOUS
10
9.44153
20
-1.29278
11
9.44153
21
-1.29278
0
LINE
8
BLACK
6
CONTINUOUS
10
9.44153
20
-1.29278
11
9.44161
21
-1.29295
0
LINE
8
BLACK
6
CONTINUOUS
10
9.44161
20
-1.29295
11
9.44161
21
-1.29296
0
LINE
8
BLACK
6
CONTINUOUS
10
9.44161
20
-1.29296
11
9.44161
21
-1.29296
0
LINE
8
BLACK
6
CONTINUOUS
10
9.44161
20
-1.29296
11
9.44163
21
-1.293
0
LINE
8
BLACK
6
CONTINUOUS
10
9.44163
20
-1.293
11
9.44166
21
-1.29306
0
LINE
8
BLACK
6
CONTINUOUS
10
9.44166
20
-1.29306
11
9.44166
21
-1.29306
0
LINE
8
BLACK
6
CONTINUOUS
10
9.44166
20
-1.29306
11
9.44166
21
-1.29306
0
LINE
8
BLACK
6
CONTINUOUS
10
9.44166
20
-1.29306
11
9.44169
21
-1.29314
0
LINE
8
BLACK
6
CONTINUOUS
10
9.44169
20
-1.29314
11
9.44169
21
-1.29315
0
LINE
8
BLACK
6
CONTINUOUS
10
9.44169
20
-1.29315
11
9.44173
21
-1.29323
0
LINE
8
BLACK
6
CONTINUOUS
10
9.44173
20
-1.29323
11
9.44173
21
-1.29325
0
LINE
8
BLACK
6
CONTINUOUS
10
9.44173
20
-1.29325
11
9.44798
21
-1.30933
0
LINE
8
BLACK
6
CONTINUOUS
10
9.44798
20
-1.30933
11
9.44799
21
-1.30935
0
LINE
8
BLACK
6
CONTINUOUS
10
9.44799
20
-1.30935
11
9.44805
21
-1.30951
0
LINE
8
BLACK
6
CONTINUOUS
10
9.44805
20
-1.30951
11
9.44807
21
-1.30957
0
LINE
8
BLACK
6
CONTINUOUS
10
9.44807
20
-1.30957
11
9.44808
21
-1.30958
0
LINE
8
BLACK
6
CONTINUOUS
10
9.44808
20
-1.30958
11
9.44809
21
-1.30963
0
LINE
8
BLACK
6
CONTINUOUS
10
9.44809
20
-1.30963
11
9.4481
21
-1.30964
0
LINE
8
BLACK
6
CONTINUOUS
10
9.4481
20
-1.30964
11
9.44814
21
-1.30974
0
LINE
8
BLACK
6
CONTINUOUS
10
9.44814
20
-1.30974
11
9.44814
21
-1.30979
0
LINE
8
BLACK
6
CONTINUOUS
10
9.44814
20
-1.30979
11
9.45379
21
-1.32678
0
LINE
8
BLACK
6
CONTINUOUS
10
9.45379
20
-1.32678
11
9.4538
21
-1.3268
0
LINE
8
BLACK
6
CONTINUOUS
10
9.4538
20
-1.3268
11
9.4538
21
-1.32682
0
LINE
8
BLACK
6
CONTINUOUS
10
9.4538
20
-1.32682
11
9.45381
21
-1.32683
0
LINE
8
BLACK
6
CONTINUOUS
10
9.45381
20
-1.32683
11
9.45382
21
-1.32685
0
LINE
8
BLACK
6
CONTINUOUS
10
9.45382
20
-1.32685
11
9.45382
21
-1.32688
0
LINE
8
BLACK
6
CONTINUOUS
10
9.45382
20
-1.32688
11
9.45383
21
-1.32689
0
LINE
8
BLACK
6
CONTINUOUS
10
9.45383
20
-1.32689
11
9.45384
21
-1.32692
0
LINE
8
BLACK
6
CONTINUOUS
10
9.45384
20
-1.32692
11
9.45388
21
-1.32707
0
LINE
8
BLACK
6
CONTINUOUS
10
9.45388
20
-1.32707
11
9.45389
21
-1.32711
0
LINE
8
BLACK
6
CONTINUOUS
10
9.45389
20
-1.32711
11
9.45886
21
-1.34477
0
LINE
8
BLACK
6
CONTINUOUS
10
9.45886
20
-1.34477
11
9.45887
21
-1.3448
0
LINE
8
BLACK
6
CONTINUOUS
10
9.45887
20
-1.3448
11
9.45891
21
-1.34495
0
LINE
8
BLACK
6
CONTINUOUS
10
9.45891
20
-1.34495
11
9.45893
21
-1.34501
0
LINE
8
BLACK
6
CONTINUOUS
10
9.45893
20
-1.34501
11
9.45893
21
-1.34503
0
LINE
8
BLACK
6
CONTINUOUS
10
9.45893
20
-1.34503
11
9.45895
21
-1.34509
0
LINE
8
BLACK
6
CONTINUOUS
10
9.45895
20
-1.34509
11
9.46335
21
-1.36377
0
LINE
8
BLACK
6
CONTINUOUS
10
9.46335
20
-1.36377
11
9.46338
21
-1.36389
0
LINE
8
BLACK
6
CONTINUOUS
10
9.46338
20
-1.36389
11
9.46339
21
-1.36399
0
LINE
8
BLACK
6
CONTINUOUS
10
9.46339
20
-1.36399
11
9.4634
21
-1.364
0
LINE
8
BLACK
6
CONTINUOUS
10
9.4634
20
-1.364
11
9.46342
21
-1.36408
0
LINE
8
BLACK
6
CONTINUOUS
10
9.46342
20
-1.36408
11
9.46342
21
-1.3641
0
LINE
8
BLACK
6
CONTINUOUS
10
9.46342
20
-1.3641
11
9.46717
21
-1.38347
0
LINE
8
BLACK
6
CONTINUOUS
10
9.46717
20
-1.38347
11
9.46718
21
-1.38349
0
LINE
8
BLACK
6
CONTINUOUS
10
9.46718
20
-1.38349
11
9.46719
21
-1.38355
0
LINE
8
BLACK
6
CONTINUOUS
10
9.46719
20
-1.38355
11
9.46719
21
-1.38358
0
LINE
8
BLACK
6
CONTINUOUS
10
9.46719
20
-1.38358
11
9.4672
21
-1.38362
0
LINE
8
BLACK
6
CONTINUOUS
10
9.4672
20
-1.38362
11
9.4672
21
-1.38363
0
LINE
8
BLACK
6
CONTINUOUS
10
9.4672
20
-1.38363
11
9.4672
21
-1.38363
0
LINE
8
BLACK
6
CONTINUOUS
10
9.4672
20
-1.38363
11
9.46721
21
-1.38367
0
LINE
8
BLACK
6
CONTINUOUS
10
9.46721
20
-1.38367
11
9.46721
21
-1.38371
0
LINE
8
BLACK
6
CONTINUOUS
10
9.46721
20
-1.38371
11
9.46721
21
-1.38371
0
LINE
8
BLACK
6
CONTINUOUS
10
9.46721
20
-1.38371
11
9.46721
21
-1.38371
0
LINE
8
BLACK
6
CONTINUOUS
10
9.46721
20
-1.38371
11
9.46721
21
-1.38371
0
LINE
8
BLACK
6
CONTINUOUS
10
9.46721
20
-1.38371
11
9.47037
21
-1.40391
0
LINE
8
BLACK
6
CONTINUOUS
10
9.47037
20
-1.40391
11
9.47038
21
-1.40397
0
LINE
8
BLACK
6
CONTINUOUS
10
9.47038
20
-1.40397
11
9.4704
21
-1.40411
0
LINE
8
BLACK
6
CONTINUOUS
10
9.4704
20
-1.40411
11
9.4704
21
-1.40415
0
LINE
8
BLACK
6
CONTINUOUS
10
9.4704
20
-1.40415
11
9.47041
21
-1.40418
0
LINE
8
BLACK
6
CONTINUOUS
10
9.47041
20
-1.40418
11
9.47042
21
-1.40424
0
LINE
8
BLACK
6
CONTINUOUS
10
9.47042
20
-1.40424
11
9.47042
21
-1.40426
0
LINE
8
BLACK
6
CONTINUOUS
10
9.47042
20
-1.40426
11
9.47296
21
-1.4252
0
LINE
8
BLACK
6
CONTINUOUS
10
9.47296
20
-1.4252
11
9.47297
21
-1.42522
0
LINE
8
BLACK
6
CONTINUOUS
10
9.47297
20
-1.42522
11
9.47298
21
-1.42535
0
LINE
8
BLACK
6
CONTINUOUS
10
9.47298
20
-1.42535
11
9.47298
21
-1.42535
0
LINE
8
BLACK
6
CONTINUOUS
10
9.47298
20
-1.42535
11
9.47299
21
-1.42538
0
LINE
8
BLACK
6
CONTINUOUS
10
9.47299
20
-1.42538
11
9.47299
21
-1.4254
0
LINE
8
BLACK
6
CONTINUOUS
10
9.47299
20
-1.4254
11
9.473
21
-1.42545
0
LINE
8
BLACK
6
CONTINUOUS
10
9.473
20
-1.42545
11
9.473
21
-1.42549
0
LINE
8
BLACK
6
CONTINUOUS
10
9.473
20
-1.42549
11
9.473
21
-1.42554
0
LINE
8
BLACK
6
CONTINUOUS
10
9.473
20
-1.42554
11
9.47301
21
-1.42562
0
LINE
8
BLACK
6
CONTINUOUS
10
9.47301
20
-1.42562
11
9.47301
21
-1.42564
0
LINE
8
BLACK
6
CONTINUOUS
10
9.47301
20
-1.42564
11
9.47301
21
-1.42564
0
LINE
8
BLACK
6
CONTINUOUS
10
9.47301
20
-1.42564
11
9.47497
21
-1.44735
0
LINE
8
BLACK
6
CONTINUOUS
10
9.47497
20
-1.44735
11
9.47497
21
-1.44739
0
LINE
8
BLACK
6
CONTINUOUS
10
9.47497
20
-1.44739
11
9.47499
21
-1.44746
0
LINE
8
BLACK
6
CONTINUOUS
10
9.47499
20
-1.44746
11
9.47499
21
-1.44758
0
LINE
8
BLACK
6
CONTINUOUS
10
9.47499
20
-1.44758
11
9.475
21
-1.44761
0
LINE
8
BLACK
6
CONTINUOUS
10
9.475
20
-1.44761
11
9.475
21
-1.44768
0
LINE
8
BLACK
6
CONTINUOUS
10
9.475
20
-1.44768
11
9.4764
21
-1.47041
0
LINE
8
BLACK
6
CONTINUOUS
10
9.4764
20
-1.47041
11
9.47641
21
-1.47047
0
LINE
8
BLACK
6
CONTINUOUS
10
9.47641
20
-1.47047
11
9.47641
21
-1.47051
0
LINE
8
BLACK
6
CONTINUOUS
10
9.47641
20
-1.47051
11
9.47641
21
-1.47055
0
LINE
8
BLACK
6
CONTINUOUS
10
9.47641
20
-1.47055
11
9.47641
21
-1.4706
0
LINE
8
BLACK
6
CONTINUOUS
10
9.47641
20
-1.4706
11
9.47724
21
-1.49403
0
LINE
8
BLACK
6
CONTINUOUS
10
9.47724
20
-1.49403
11
9.47724
21
-1.49404
0
LINE
8
BLACK
6
CONTINUOUS
10
9.47724
20
-1.49404
11
9.47724
21
-1.49419
0
LINE
8
BLACK
6
CONTINUOUS
10
9.47724
20
-1.49419
11
9.47724
21
-1.49421
0
LINE
8
BLACK
6
CONTINUOUS
10
9.47724
20
-1.49421
11
9.47724
21
-1.49425
0
LINE
8
BLACK
6
CONTINUOUS
10
9.47724
20
-1.49425
11
9.47725
21
-1.49431
0
LINE
8
BLACK
6
CONTINUOUS
10
9.47725
20
-1.49431
11
9.47725
21
-1.49432
0
LINE
8
BLACK
6
CONTINUOUS
10
9.47725
20
-1.49432
11
9.47725
21
-1.49443
0
LINE
8
BLACK
6
CONTINUOUS
10
9.47725
20
-1.49443
11
9.47725
21
-1.49443
0
LINE
8
BLACK
6
CONTINUOUS
10
9.47725
20
-1.49443
11
9.47725
21
-1.49445
0
LINE
8
BLACK
6
CONTINUOUS
10
9.47725
20
-1.49445
11
9.47725
21
-1.49446
0
LINE
8
BLACK
6
CONTINUOUS
10
9.47725
20
-1.49446
11
9.47752
21
-1.51864
0
LINE
8
BLACK
6
CONTINUOUS
10
9.47752
20
-1.51864
11
9.47752
21
-1.51865
0
LINE
8
BLACK
6
CONTINUOUS
10
9.47752
20
-1.51865
11
9.47752
21
-1.51867
0
LINE
8
BLACK
6
CONTINUOUS
10
9.47752
20
-1.51867
11
9.47752
21
-1.51867
0
LINE
8
BLACK
6
CONTINUOUS
10
9.47752
20
-1.51867
11
9.47752
21
-1.51874
0
LINE
8
BLACK
6
CONTINUOUS
10
9.47752
20
-1.51874
11
9.47752
21
-1.51882
0
LINE
8
BLACK
6
CONTINUOUS
10
9.47752
20
-1.51882
11
9.47752
21
-1.51883
0
LINE
8
BLACK
6
CONTINUOUS
10
9.47752
20
-1.51883
11
9.47752
21
-1.51886
0
LINE
8
BLACK
6
CONTINUOUS
10
9.47752
20
-1.51886
11
9.47752
21
-1.51886
0
LINE
8
BLACK
6
CONTINUOUS
10
9.47752
20
-1.51886
11
9.47307
21
-3.14
0
LINE
8
BLACK
6
CONTINUOUS
10
9.47307
20
-3.14
11
9.47307
21
-3.14001
0
LINE
8
BLACK
6
CONTINUOUS
10
9.47307
20
-3.14001
11
9.47307
21
-3.14009
0
LINE
8
BLACK
6
CONTINUOUS
10
9.47307
20
-3.14009
11
9.47307
21
-3.14017
0
LINE
8
BLACK
6
CONTINUOUS
10
9.47307
20
-3.14017
11
9.47307
21
-3.14019
0
LINE
8
BLACK
6
CONTINUOUS
10
9.47307
20
-3.14019
11
9.47271
21
-3.16244
0
LINE
8
BLACK
6
CONTINUOUS
10
9.47271
20
-3.16244
11
9.47272
21
-3.16253
0
LINE
8
BLACK
6
CONTINUOUS
10
9.47272
20
-3.16253
11
9.47271
21
-3.16264
0
LINE
8
BLACK
6
CONTINUOUS
10
9.47271
20
-3.16264
11
9.47271
21
-3.16265
0
LINE
8
BLACK
6
CONTINUOUS
10
9.47271
20
-3.16265
11
9.47271
21
-3.16267
0
LINE
8
BLACK
6
CONTINUOUS
10
9.47271
20
-3.16267
11
9.47271
21
-3.16269
0
LINE
8
BLACK
6
CONTINUOUS
10
9.47271
20
-3.16269
11
9.4727
21
-3.16274
0
LINE
8
BLACK
6
CONTINUOUS
10
9.4727
20
-3.16274
11
9.47164
21
-3.18417
0
LINE
8
BLACK
6
CONTINUOUS
10
9.47164
20
-3.18417
11
9.47165
21
-3.18419
0
LINE
8
BLACK
6
CONTINUOUS
10
9.47165
20
-3.18419
11
9.47163
21
-3.18436
0
LINE
8
BLACK
6
CONTINUOUS
10
9.47163
20
-3.18436
11
9.47163
21
-3.18436
0
LINE
8
BLACK
6
CONTINUOUS
10
9.47163
20
-3.18436
11
9.47163
21
-3.18439
0
LINE
8
BLACK
6
CONTINUOUS
10
9.47163
20
-3.18439
11
9.47163
21
-3.1844
0
LINE
8
BLACK
6
CONTINUOUS
10
9.47163
20
-3.1844
11
9.47163
21
-3.18442
0
LINE
8
BLACK
6
CONTINUOUS
10
9.47163
20
-3.18442
11
9.47163
21
-3.1845
0
LINE
8
BLACK
6
CONTINUOUS
10
9.47163
20
-3.1845
11
9.46986
21
-3.20526
0
LINE
8
BLACK
6
CONTINUOUS
10
9.46986
20
-3.20526
11
9.46985
21
-3.20534
0
LINE
8
BLACK
6
CONTINUOUS
10
9.46985
20
-3.20534
11
9.46985
21
-3.20536
0
LINE
8
BLACK
6
CONTINUOUS
10
9.46985
20
-3.20536
11
9.46985
21
-3.20537
0
LINE
8
BLACK
6
CONTINUOUS
10
9.46985
20
-3.20537
11
9.46984
21
-3.20539
0
LINE
8
BLACK
6
CONTINUOUS
10
9.46984
20
-3.20539
11
9.46984
21
-3.2054
0
LINE
8
BLACK
6
CONTINUOUS
10
9.46984
20
-3.2054
11
9.46983
21
-3.20557
0
LINE
8
BLACK
6
CONTINUOUS
10
9.46983
20
-3.20557
11
9.46982
21
-3.20559
0
LINE
8
BLACK
6
CONTINUOUS
10
9.46982
20
-3.20559
11
9.46739
21
-3.22523
0
LINE
8
BLACK
6
CONTINUOUS
10
9.46739
20
-3.22523
11
9.46739
21
-3.22528
0
LINE
8
BLACK
6
CONTINUOUS
10
9.46739
20
-3.22528
11
9.46737
21
-3.22542
0
LINE
8
BLACK
6
CONTINUOUS
10
9.46737
20
-3.22542
11
9.46737
21
-3.22542
0
LINE
8
BLACK
6
CONTINUOUS
10
9.46737
20
-3.22542
11
9.46737
21
-3.22543
0
LINE
8
BLACK
6
CONTINUOUS
10
9.46737
20
-3.22543
11
9.46737
21
-3.22543
0
LINE
8
BLACK
6
CONTINUOUS
10
9.46737
20
-3.22543
11
9.46736
21
-3.22545
0
LINE
8
BLACK
6
CONTINUOUS
10
9.46736
20
-3.22545
11
9.46735
21
-3.22556
0
LINE
8
BLACK
6
CONTINUOUS
10
9.46735
20
-3.22556
11
9.46734
21
-3.22562
0
LINE
8
BLACK
6
CONTINUOUS
10
9.46734
20
-3.22562
11
9.46423
21
-3.24444
0
LINE
8
BLACK
6
CONTINUOUS
10
9.46423
20
-3.24444
11
9.46423
21
-3.24446
0
LINE
8
BLACK
6
CONTINUOUS
10
9.46423
20
-3.24446
11
9.46422
21
-3.2445
0
LINE
8
BLACK
6
CONTINUOUS
10
9.46422
20
-3.2445
11
9.46422
21
-3.24451
0
LINE
8
BLACK
6
CONTINUOUS
10
9.46422
20
-3.24451
11
9.4642
21
-3.24462
0
LINE
8
BLACK
6
CONTINUOUS
10
9.4642
20
-3.24462
11
9.46419
21
-3.24474
0
LINE
8
BLACK
6
CONTINUOUS
10
9.46419
20
-3.24474
11
9.46415
21
-3.24486
0
LINE
8
BLACK
6
CONTINUOUS
10
9.46415
20
-3.24486
11
9.46038
21
-3.26292
0
LINE
8
BLACK
6
CONTINUOUS
10
9.46038
20
-3.26292
11
9.46038
21
-3.26295
0
LINE
8
BLACK
6
CONTINUOUS
10
9.46038
20
-3.26295
11
9.46033
21
-3.26314
0
LINE
8
BLACK
6
CONTINUOUS
10
9.46033
20
-3.26314
11
9.46029
21
-3.26332
0
LINE
8
BLACK
6
CONTINUOUS
10
9.46029
20
-3.26332
11
9.46027
21
-3.26336
0
LINE
8
BLACK
6
CONTINUOUS
10
9.46027
20
-3.26336
11
9.45588
21
-3.28048
0
LINE
8
BLACK
6
CONTINUOUS
10
9.45588
20
-3.28048
11
9.45588
21
-3.28049
0
LINE
8
BLACK
6
CONTINUOUS
10
9.45588
20
-3.28049
11
9.45583
21
-3.28066
0
LINE
8
BLACK
6
CONTINUOUS
10
9.45583
20
-3.28066
11
9.45581
21
-3.28075
0
LINE
8
BLACK
6
CONTINUOUS
10
9.45581
20
-3.28075
11
9.4558
21
-3.28076
0
LINE
8
BLACK
6
CONTINUOUS
10
9.4558
20
-3.28076
11
9.4558
21
-3.28077
0
LINE
8
BLACK
6
CONTINUOUS
10
9.4558
20
-3.28077
11
9.4558
21
-3.28078
0
LINE
8
BLACK
6
CONTINUOUS
10
9.4558
20
-3.28078
11
9.45579
21
-3.2808
0
LINE
8
BLACK
6
CONTINUOUS
10
9.45579
20
-3.2808
11
9.45578
21
-3.28083
0
LINE
8
BLACK
6
CONTINUOUS
10
9.45578
20
-3.28083
11
9.45576
21
-3.28089
0
LINE
8
BLACK
6
CONTINUOUS
10
9.45576
20
-3.28089
11
9.45576
21
-3.28091
0
LINE
8
BLACK
6
CONTINUOUS
10
9.45576
20
-3.28091
11
9.45067
21
-3.29739
0
LINE
8
BLACK
6
CONTINUOUS
10
9.45067
20
-3.29739
11
9.45066
21
-3.2974
0
LINE
8
BLACK
6
CONTINUOUS
10
9.45066
20
-3.2974
11
9.45065
21
-3.29748
0
LINE
8
BLACK
6
CONTINUOUS
10
9.45065
20
-3.29748
11
9.4506
21
-3.29761
0
LINE
8
BLACK
6
CONTINUOUS
10
9.4506
20
-3.29761
11
9.45055
21
-3.29775
0
LINE
8
BLACK
6
CONTINUOUS
10
9.45055
20
-3.29775
11
9.45053
21
-3.29779
0
LINE
8
BLACK
6
CONTINUOUS
10
9.45053
20
-3.29779
11
9.44482
21
-3.31345
0
LINE
8
BLACK
6
CONTINUOUS
10
9.44482
20
-3.31345
11
9.44479
21
-3.31351
0
LINE
8
BLACK
6
CONTINUOUS
10
9.44479
20
-3.31351
11
9.44478
21
-3.31354
0
LINE
8
BLACK
6
CONTINUOUS
10
9.44478
20
-3.31354
11
9.44478
21
-3.31354
0
LINE
8
BLACK
6
CONTINUOUS
10
9.44478
20
-3.31354
11
9.44478
21
-3.31356
0
LINE
8
BLACK
6
CONTINUOUS
10
9.44478
20
-3.31356
11
9.44477
21
-3.31357
0
LINE
8
BLACK
6
CONTINUOUS
10
9.44477
20
-3.31357
11
9.44477
21
-3.31359
0
LINE
8
BLACK
6
CONTINUOUS
10
9.44477
20
-3.31359
11
9.44473
21
-3.31366
0
LINE
8
BLACK
6
CONTINUOUS
10
9.44473
20
-3.31366
11
9.44473
21
-3.31367
0
LINE
8
BLACK
6
CONTINUOUS
10
9.44473
20
-3.31367
11
9.4384
21
-3.32854
0
LINE
8
BLACK
6
CONTINUOUS
10
9.4384
20
-3.32854
11
9.4384
21
-3.32854
0
LINE
8
BLACK
6
CONTINUOUS
10
9.4384
20
-3.32854
11
9.43832
21
-3.32871
0
LINE
8
BLACK
6
CONTINUOUS
10
9.43832
20
-3.32871
11
9.43829
21
-3.3288
0
LINE
8
BLACK
6
CONTINUOUS
10
9.43829
20
-3.3288
11
9.43828
21
-3.3288
0
LINE
8
BLACK
6
CONTINUOUS
10
9.43828
20
-3.3288
11
9.43828
21
-3.32881
0
LINE
8
BLACK
6
CONTINUOUS
10
9.43828
20
-3.32881
11
9.43827
21
-3.32882
0
LINE
8
BLACK
6
CONTINUOUS
10
9.43827
20
-3.32882
11
9.43827
21
-3.32883
0
LINE
8
BLACK
6
CONTINUOUS
10
9.43827
20
-3.32883
11
9.43823
21
-3.3289
0
LINE
8
BLACK
6
CONTINUOUS
10
9.43823
20
-3.3289
11
9.43823
21
-3.32891
0
LINE
8
BLACK
6
CONTINUOUS
10
9.43823
20
-3.32891
11
9.43127
21
-3.34302
0
LINE
8
BLACK
6
CONTINUOUS
10
9.43127
20
-3.34302
11
9.43126
21
-3.34305
0
LINE
8
BLACK
6
CONTINUOUS
10
9.43126
20
-3.34305
11
9.43119
21
-3.34319
0
LINE
8
BLACK
6
CONTINUOUS
10
9.43119
20
-3.34319
11
9.43116
21
-3.34325
0
LINE
8
BLACK
6
CONTINUOUS
10
9.43116
20
-3.34325
11
9.43115
21
-3.34326
0
LINE
8
BLACK
6
CONTINUOUS
10
9.43115
20
-3.34326
11
9.43114
21
-3.34328
0
LINE
8
BLACK
6
CONTINUOUS
10
9.43114
20
-3.34328
11
9.43112
21
-3.34332
0
LINE
8
BLACK
6
CONTINUOUS
10
9.43112
20
-3.34332
11
9.4311
21
-3.34336
0
LINE
8
BLACK
6
CONTINUOUS
10
9.4311
20
-3.34336
11
9.43109
21
-3.34338
0
LINE
8
BLACK
6
CONTINUOUS
10
9.43109
20
-3.34338
11
9.43105
21
-3.34345
0
LINE
8
BLACK
6
CONTINUOUS
10
9.43105
20
-3.34345
11
9.43103
21
-3.34347
0
LINE
8
BLACK
6
CONTINUOUS
10
9.43103
20
-3.34347
11
9.42344
21
-3.35686
0
LINE
8
BLACK
6
CONTINUOUS
10
9.42344
20
-3.35686
11
9.4234
21
-3.35693
0
LINE
8
BLACK
6
CONTINUOUS
10
9.4234
20
-3.35693
11
9.42339
21
-3.35695
0
LINE
8
BLACK
6
CONTINUOUS
10
9.42339
20
-3.35695
11
9.42339
21
-3.35696
0
LINE
8
BLACK
6
CONTINUOUS
10
9.42339
20
-3.35696
11
9.42338
21
-3.35697
0
LINE
8
BLACK
6
CONTINUOUS
10
9.42338
20
-3.35697
11
9.42333
21
-3.35705
0
LINE
8
BLACK
6
CONTINUOUS
10
9.42333
20
-3.35705
11
9.42324
21
-3.3572
0
LINE
8
BLACK
6
CONTINUOUS
10
9.42324
20
-3.3572
11
9.42323
21
-3.35721
0
LINE
8
BLACK
6
CONTINUOUS
10
9.42323
20
-3.35721
11
9.41516
21
-3.36967
0
LINE
8
BLACK
6
CONTINUOUS
10
9.41516
20
-3.36967
11
9.41514
21
-3.36972
0
LINE
8
BLACK
6
CONTINUOUS
10
9.41514
20
-3.36972
11
9.41505
21
-3.36983
0
LINE
8
BLACK
6
CONTINUOUS
10
9.41505
20
-3.36983
11
9.41503
21
-3.36987
0
LINE
8
BLACK
6
CONTINUOUS
10
9.41503
20
-3.36987
11
9.41502
21
-3.36988
0
LINE
8
BLACK
6
CONTINUOUS
10
9.41502
20
-3.36988
11
9.41494
21
-3.37
0
LINE
8
BLACK
6
CONTINUOUS
10
9.41494
20
-3.37
11
9.41488
21
-3.37007
0
LINE
8
BLACK
6
CONTINUOUS
10
9.41488
20
-3.37007
11
9.40611
21
-3.38196
0
LINE
8
BLACK
6
CONTINUOUS
10
9.40611
20
-3.38196
11
9.40605
21
-3.38203
0
LINE
8
BLACK
6
CONTINUOUS
10
9.40605
20
-3.38203
11
9.40605
21
-3.38204
0
LINE
8
BLACK
6
CONTINUOUS
10
9.40605
20
-3.38204
11
9.40605
21
-3.38205
0
LINE
8
BLACK
6
CONTINUOUS
10
9.40605
20
-3.38205
11
9.40603
21
-3.38206
0
LINE
8
BLACK
6
CONTINUOUS
10
9.40603
20
-3.38206
11
9.40602
21
-3.38208
0
LINE
8
BLACK
6
CONTINUOUS
10
9.40602
20
-3.38208
11
9.406
21
-3.3821
0
LINE
8
BLACK
6
CONTINUOUS
10
9.406
20
-3.3821
11
9.40597
21
-3.38214
0
LINE
8
BLACK
6
CONTINUOUS
10
9.40597
20
-3.38214
11
9.40592
21
-3.3822
0
LINE
8
BLACK
6
CONTINUOUS
10
9.40592
20
-3.3822
11
9.40591
21
-3.38221
0
LINE
8
BLACK
6
CONTINUOUS
10
9.40591
20
-3.38221
11
9.39657
21
-3.39335
0
LINE
8
BLACK
6
CONTINUOUS
10
9.39657
20
-3.39335
11
9.39655
21
-3.39338
0
LINE
8
BLACK
6
CONTINUOUS
10
9.39655
20
-3.39338
11
9.39651
21
-3.39343
0
LINE
8
BLACK
6
CONTINUOUS
10
9.39651
20
-3.39343
11
9.39648
21
-3.39347
0
LINE
8
BLACK
6
CONTINUOUS
10
9.39648
20
-3.39347
11
9.39643
21
-3.39352
0
LINE
8
BLACK
6
CONTINUOUS
10
9.39643
20
-3.39352
11
9.39643
21
-3.39353
0
LINE
8
BLACK
6
CONTINUOUS
10
9.39643
20
-3.39353
11
9.39642
21
-3.39354
0
LINE
8
BLACK
6
CONTINUOUS
10
9.39642
20
-3.39354
11
9.39636
21
-3.3936
0
LINE
8
BLACK
6
CONTINUOUS
10
9.39636
20
-3.3936
11
9.38638
21
-3.40411
0
LINE
8
BLACK
6
CONTINUOUS
10
9.38638
20
-3.40411
11
9.38632
21
-3.40417
0
LINE
8
BLACK
6
CONTINUOUS
10
9.38632
20
-3.40417
11
9.38631
21
-3.40418
0
LINE
8
BLACK
6
CONTINUOUS
10
9.38631
20
-3.40418
11
9.3863
21
-3.40419
0
LINE
8
BLACK
6
CONTINUOUS
10
9.3863
20
-3.40419
11
9.38629
21
-3.40419
0
LINE
8
BLACK
6
CONTINUOUS
10
9.38629
20
-3.40419
11
9.38628
21
-3.40421
0
LINE
8
BLACK
6
CONTINUOUS
10
9.38628
20
-3.40421
11
9.38627
21
-3.40422
0
LINE
8
BLACK
6
CONTINUOUS
10
9.38627
20
-3.40422
11
9.38626
21
-3.40422
0
LINE
8
BLACK
6
CONTINUOUS
10
9.38626
20
-3.40422
11
9.38622
21
-3.40426
0
LINE
8
BLACK
6
CONTINUOUS
10
9.38622
20
-3.40426
11
9.38618
21
-3.40431
0
LINE
8
BLACK
6
CONTINUOUS
10
9.38618
20
-3.40431
11
9.38615
21
-3.40433
0
LINE
8
BLACK
6
CONTINUOUS
10
9.38615
20
-3.40433
11
9.37575
21
-3.41399
0
LINE
8
BLACK
6
CONTINUOUS
10
9.37575
20
-3.41399
11
9.37572
21
-3.41403
0
LINE
8
BLACK
6
CONTINUOUS
10
9.37572
20
-3.41403
11
9.37561
21
-3.41413
0
LINE
8
BLACK
6
CONTINUOUS
10
9.37561
20
-3.41413
11
9.37556
21
-3.41417
0
LINE
8
BLACK
6
CONTINUOUS
10
9.37556
20
-3.41417
11
9.37555
21
-3.41417
0
LINE
8
BLACK
6
CONTINUOUS
10
9.37555
20
-3.41417
11
9.37553
21
-3.4142
0
LINE
8
BLACK
6
CONTINUOUS
10
9.37553
20
-3.4142
11
9.37551
21
-3.41421
0
LINE
8
BLACK
6
CONTINUOUS
10
9.37551
20
-3.41421
11
9.37542
21
-3.4143
0
LINE
8
BLACK
6
CONTINUOUS
10
9.37542
20
-3.4143
11
9.37537
21
-3.41433
0
LINE
8
BLACK
6
CONTINUOUS
10
9.37537
20
-3.41433
11
9.36445
21
-3.42327
0
LINE
8
BLACK
6
CONTINUOUS
10
9.36445
20
-3.42327
11
9.36442
21
-3.42331
0
LINE
8
BLACK
6
CONTINUOUS
10
9.36442
20
-3.42331
11
9.3643
21
-3.42339
0
LINE
8
BLACK
6
CONTINUOUS
10
9.3643
20
-3.42339
11
9.36426
21
-3.42343
0
LINE
8
BLACK
6
CONTINUOUS
10
9.36426
20
-3.42343
11
9.36425
21
-3.42343
0
LINE
8
BLACK
6
CONTINUOUS
10
9.36425
20
-3.42343
11
9.36423
21
-3.42346
0
LINE
8
BLACK
6
CONTINUOUS
10
9.36423
20
-3.42346
11
9.3642
21
-3.42348
0
LINE
8
BLACK
6
CONTINUOUS
10
9.3642
20
-3.42348
11
9.36409
21
-3.42356
0
LINE
8
BLACK
6
CONTINUOUS
10
9.36409
20
-3.42356
11
9.36404
21
-3.42359
0
LINE
8
BLACK
6
CONTINUOUS
10
9.36404
20
-3.42359
11
9.3526
21
-3.43185
0
LINE
8
BLACK
6
CONTINUOUS
10
9.3526
20
-3.43185
11
9.35255
21
-3.43189
0
LINE
8
BLACK
6
CONTINUOUS
10
9.35255
20
-3.43189
11
9.35249
21
-3.43193
0
LINE
8
BLACK
6
CONTINUOUS
10
9.35249
20
-3.43193
11
9.35248
21
-3.43194
0
LINE
8
BLACK
6
CONTINUOUS
10
9.35248
20
-3.43194
11
9.35237
21
-3.43201
0
LINE
8
BLACK
6
CONTINUOUS
10
9.35237
20
-3.43201
11
9.35226
21
-3.43209
0
LINE
8
BLACK
6
CONTINUOUS
10
9.35226
20
-3.43209
11
9.35219
21
-3.43212
0
LINE
8
BLACK
6
CONTINUOUS
10
9.35219
20
-3.43212
11
9.34027
21
-3.43969
0
LINE
8
BLACK
6
CONTINUOUS
10
9.34027
20
-3.43969
11
9.34026
21
-3.43969
0
LINE
8
BLACK
6
CONTINUOUS
10
9.34026
20
-3.43969
11
9.34014
21
-3.43977
0
LINE
8
BLACK
6
CONTINUOUS
10
9.34014
20
-3.43977
11
9.3401
21
-3.4398
0
LINE
8
BLACK
6
CONTINUOUS
10
9.3401
20
-3.4398
11
9.33998
21
-3.43987
0
LINE
8
BLACK
6
CONTINUOUS
10
9.33998
20
-3.43987
11
9.33986
21
-3.43994
0
LINE
8
BLACK
6
CONTINUOUS
10
9.33986
20
-3.43994
11
9.33979
21
-3.43997
0
LINE
8
BLACK
6
CONTINUOUS
10
9.33979
20
-3.43997
11
9.32734
21
-3.44688
0
LINE
8
BLACK
6
CONTINUOUS
10
9.32734
20
-3.44688
11
9.32732
21
-3.4469
0
LINE
8
BLACK
6
CONTINUOUS
10
9.32732
20
-3.4469
11
9.32717
21
-3.44698
0
LINE
8
BLACK
6
CONTINUOUS
10
9.32717
20
-3.44698
11
9.32713
21
-3.447
0
LINE
8
BLACK
6
CONTINUOUS
10
9.32713
20
-3.447
11
9.32713
21
-3.447
0
LINE
8
BLACK
6
CONTINUOUS
10
9.32713
20
-3.447
11
9.32712
21
-3.44701
0
LINE
8
BLACK
6
CONTINUOUS
10
9.32712
20
-3.44701
11
9.32711
21
-3.44701
0
LINE
8
BLACK
6
CONTINUOUS
10
9.32711
20
-3.44701
11
9.3271
21
-3.44702
0
LINE
8
BLACK
6
CONTINUOUS
10
9.3271
20
-3.44702
11
9.32709
21
-3.44702
0
LINE
8
BLACK
6
CONTINUOUS
10
9.32709
20
-3.44702
11
9.32708
21
-3.44703
0
LINE
8
BLACK
6
CONTINUOUS
10
9.32708
20
-3.44703
11
9.32704
21
-3.44704
0
LINE
8
BLACK
6
CONTINUOUS
10
9.32704
20
-3.44704
11
9.32692
21
-3.44711
0
LINE
8
BLACK
6
CONTINUOUS
10
9.32692
20
-3.44711
11
9.32688
21
-3.44712
0
LINE
8
BLACK
6
CONTINUOUS
10
9.32688
20
-3.44712
11
9.31391
21
-3.4534
0
LINE
8
BLACK
6
CONTINUOUS
10
9.31391
20
-3.4534
11
9.31389
21
-3.45342
0
LINE
8
BLACK
6
CONTINUOUS
10
9.31389
20
-3.45342
11
9.31374
21
-3.45348
0
LINE
8
BLACK
6
CONTINUOUS
10
9.31374
20
-3.45348
11
9.31368
21
-3.45351
0
LINE
8
BLACK
6
CONTINUOUS
10
9.31368
20
-3.45351
11
9.31368
21
-3.45351
0
LINE
8
BLACK
6
CONTINUOUS
10
9.31368
20
-3.45351
11
9.31366
21
-3.45352
0
LINE
8
BLACK
6
CONTINUOUS
10
9.31366
20
-3.45352
11
9.31364
21
-3.45353
0
LINE
8
BLACK
6
CONTINUOUS
10
9.31364
20
-3.45353
11
9.31361
21
-3.45354
0
LINE
8
BLACK
6
CONTINUOUS
10
9.31361
20
-3.45354
11
9.31355
21
-3.45357
0
LINE
8
BLACK
6
CONTINUOUS
10
9.31355
20
-3.45357
11
9.31348
21
-3.4536
0
LINE
8
BLACK
6
CONTINUOUS
10
9.31348
20
-3.4536
11
9.31344
21
-3.45361
0
LINE
8
BLACK
6
CONTINUOUS
10
9.31344
20
-3.45361
11
9.31344
21
-3.45361
0
LINE
8
BLACK
6
CONTINUOUS
10
9.31344
20
-3.45361
11
9.29986
21
-3.4593
0
LINE
8
BLACK
6
CONTINUOUS
10
9.29986
20
-3.4593
11
9.2998
21
-3.45933
0
LINE
8
BLACK
6
CONTINUOUS
10
9.2998
20
-3.45933
11
9.29977
21
-3.45933
0
LINE
8
BLACK
6
CONTINUOUS
10
9.29977
20
-3.45933
11
9.29975
21
-3.45934
0
LINE
8
BLACK
6
CONTINUOUS
10
9.29975
20
-3.45934
11
9.29975
21
-3.45934
0
LINE
8
BLACK
6
CONTINUOUS
10
9.29975
20
-3.45934
11
9.29973
21
-3.45935
0
LINE
8
BLACK
6
CONTINUOUS
10
9.29973
20
-3.45935
11
9.29972
21
-3.45935
0
LINE
8
BLACK
6
CONTINUOUS
10
9.29972
20
-3.45935
11
9.29972
21
-3.45935
0
LINE
8
BLACK
6
CONTINUOUS
10
9.29972
20
-3.45935
11
9.29967
21
-3.45937
0
LINE
8
BLACK
6
CONTINUOUS
10
9.29967
20
-3.45937
11
9.29963
21
-3.45938
0
LINE
8
BLACK
6
CONTINUOUS
10
9.29963
20
-3.45938
11
9.28561
21
-3.46443
0
LINE
8
BLACK
6
CONTINUOUS
10
9.28561
20
-3.46443
11
9.2856
21
-3.46443
0
LINE
8
BLACK
6
CONTINUOUS
10
9.2856
20
-3.46443
11
9.28542
21
-3.46449
0
LINE
8
BLACK
6
CONTINUOUS
10
9.28542
20
-3.46449
11
9.28533
21
-3.46452
0
LINE
8
BLACK
6
CONTINUOUS
10
9.28533
20
-3.46452
11
9.28533
21
-3.46452
0
LINE
8
BLACK
6
CONTINUOUS
10
9.28533
20
-3.46452
11
9.28533
21
-3.46452
0
LINE
8
BLACK
6
CONTINUOUS
10
9.28533
20
-3.46452
11
9.28532
21
-3.46453
0
LINE
8
BLACK
6
CONTINUOUS
10
9.28532
20
-3.46453
11
9.28531
21
-3.46453
0
LINE
8
BLACK
6
CONTINUOUS
10
9.28531
20
-3.46453
11
9.2853
21
-3.46453
0
LINE
8
BLACK
6
CONTINUOUS
10
9.2853
20
-3.46453
11
9.28522
21
-3.46455
0
LINE
8
BLACK
6
CONTINUOUS
10
9.28522
20
-3.46455
11
9.27058
21
-3.46902
0
LINE
8
BLACK
6
CONTINUOUS
10
9.27058
20
-3.46902
11
9.27053
21
-3.46904
0
LINE
8
BLACK
6
CONTINUOUS
10
9.27053
20
-3.46904
11
9.2705
21
-3.46904
0
LINE
8
BLACK
6
CONTINUOUS
10
9.2705
20
-3.46904
11
9.2705
21
-3.46904
0
LINE
8
BLACK
6
CONTINUOUS
10
9.2705
20
-3.46904
11
9.27049
21
-3.46905
0
LINE
8
BLACK
6
CONTINUOUS
10
9.27049
20
-3.46905
11
9.27044
21
-3.46906
0
LINE
8
BLACK
6
CONTINUOUS
10
9.27044
20
-3.46906
11
9.27041
21
-3.46907
0
LINE
8
BLACK
6
CONTINUOUS
10
9.27041
20
-3.46907
11
9.27038
21
-3.46907
0
LINE
8
BLACK
6
CONTINUOUS
10
9.27038
20
-3.46907
11
9.27032
21
-3.46909
0
LINE
8
BLACK
6
CONTINUOUS
10
9.27032
20
-3.46909
11
9.27029
21
-3.4691
0
LINE
8
BLACK
6
CONTINUOUS
10
9.27029
20
-3.4691
11
9.25535
21
-3.4729
0
LINE
8
BLACK
6
CONTINUOUS
10
9.25535
20
-3.4729
11
9.25534
21
-3.47291
0
LINE
8
BLACK
6
CONTINUOUS
10
9.25534
20
-3.47291
11
9.25517
21
-3.47295
0
LINE
8
BLACK
6
CONTINUOUS
10
9.25517
20
-3.47295
11
9.25512
21
-3.47296
0
LINE
8
BLACK
6
CONTINUOUS
10
9.25512
20
-3.47296
11
9.2551
21
-3.47297
0
LINE
8
BLACK
6
CONTINUOUS
10
9.2551
20
-3.47297
11
9.25507
21
-3.47297
0
LINE
8
BLACK
6
CONTINUOUS
10
9.25507
20
-3.47297
11
9.25505
21
-3.47298
0
LINE
8
BLACK
6
CONTINUOUS
10
9.25505
20
-3.47298
11
9.25498
21
-3.47299
0
LINE
8
BLACK
6
CONTINUOUS
10
9.25498
20
-3.47299
11
9.23944
21
-3.47623
0
LINE
8
BLACK
6
CONTINUOUS
10
9.23944
20
-3.47623
11
9.23934
21
-3.47626
0
LINE
8
BLACK
6
CONTINUOUS
10
9.23934
20
-3.47626
11
9.23924
21
-3.47627
0
LINE
8
BLACK
6
CONTINUOUS
10
9.23924
20
-3.47627
11
9.23915
21
-3.47629
0
LINE
8
BLACK
6
CONTINUOUS
10
9.23915
20
-3.47629
11
9.23909
21
-3.47629
0
LINE
8
BLACK
6
CONTINUOUS
10
9.23909
20
-3.47629
11
9.22322
21
-3.47892
0
LINE
8
BLACK
6
CONTINUOUS
10
9.22322
20
-3.47892
11
9.22316
21
-3.47894
0
LINE
8
BLACK
6
CONTINUOUS
10
9.22316
20
-3.47894
11
9.22312
21
-3.47894
0
LINE
8
BLACK
6
CONTINUOUS
10
9.22312
20
-3.47894
11
9.22311
21
-3.47894
0
LINE
8
BLACK
6
CONTINUOUS
10
9.22311
20
-3.47894
11
9.22299
21
-3.47896
0
LINE
8
BLACK
6
CONTINUOUS
10
9.22299
20
-3.47896
11
9.22288
21
-3.47898
0
LINE
8
BLACK
6
CONTINUOUS
10
9.22288
20
-3.47898
11
9.22281
21
-3.47897
0
LINE
8
BLACK
6
CONTINUOUS
10
9.22281
20
-3.47897
11
9.20656
21
-3.48101
0
LINE
8
BLACK
6
CONTINUOUS
10
9.20656
20
-3.48101
11
9.20653
21
-3.48102
0
LINE
8
BLACK
6
CONTINUOUS
10
9.20653
20
-3.48102
11
9.20637
21
-3.48104
0
LINE
8
BLACK
6
CONTINUOUS
10
9.20637
20
-3.48104
11
9.20636
21
-3.48104
0
LINE
8
BLACK
6
CONTINUOUS
10
9.20636
20
-3.48104
11
9.20634
21
-3.48104
0
LINE
8
BLACK
6
CONTINUOUS
10
9.20634
20
-3.48104
11
9.20633
21
-3.48104
0
LINE
8
BLACK
6
CONTINUOUS
10
9.20633
20
-3.48104
11
9.20633
21
-3.48104
0
LINE
8
BLACK
6
CONTINUOUS
10
9.20633
20
-3.48104
11
9.20633
21
-3.48104
0
LINE
8
BLACK
6
CONTINUOUS
10
9.20633
20
-3.48104
11
9.20631
21
-3.48105
0
LINE
8
BLACK
6
CONTINUOUS
10
9.20631
20
-3.48105
11
9.2063
21
-3.48105
0
LINE
8
BLACK
6
CONTINUOUS
10
9.2063
20
-3.48105
11
9.20629
21
-3.48105
0
LINE
8
BLACK
6
CONTINUOUS
10
9.20629
20
-3.48105
11
9.20626
21
-3.48105
0
LINE
8
BLACK
6
CONTINUOUS
10
9.20626
20
-3.48105
11
9.20621
21
-3.48106
0
LINE
8
BLACK
6
CONTINUOUS
10
9.20621
20
-3.48106
11
9.18928
21
-3.48255
0
LINE
8
BLACK
6
CONTINUOUS
10
9.18928
20
-3.48255
11
9.18924
21
-3.48256
0
LINE
8
BLACK
6
CONTINUOUS
10
9.18924
20
-3.48256
11
9.18906
21
-3.48258
0
LINE
8
BLACK
6
CONTINUOUS
10
9.18906
20
-3.48258
11
9.189
21
-3.48257
0
LINE
8
BLACK
6
CONTINUOUS
10
9.189
20
-3.48257
11
9.17177
21
-3.4835
0
LINE
8
BLACK
6
CONTINUOUS
10
9.17177
20
-3.4835
11
9.17174
21
-3.48351
0
LINE
8
BLACK
6
CONTINUOUS
10
9.17174
20
-3.48351
11
9.17174
21
-3.48351
0
LINE
8
BLACK
6
CONTINUOUS
10
9.17174
20
-3.48351
11
9.17174
21
-3.48351
0
LINE
8
BLACK
6
CONTINUOUS
10
9.17174
20
-3.48351
11
9.17171
21
-3.48351
0
LINE
8
BLACK
6
CONTINUOUS
10
9.17171
20
-3.48351
11
9.17171
21
-3.48351
0
LINE
8
BLACK
6
CONTINUOUS
10
9.17171
20
-3.48351
11
9.17169
21
-3.48351
0
LINE
8
BLACK
6
CONTINUOUS
10
9.17169
20
-3.48351
11
9.17162
21
-3.48351
0
LINE
8
BLACK
6
CONTINUOUS
10
9.17162
20
-3.48351
11
9.17145
21
-3.48352
0
LINE
8
BLACK
6
CONTINUOUS
10
9.17145
20
-3.48352
11
9.17143
21
-3.48352
0
LINE
8
BLACK
6
CONTINUOUS
10
9.17143
20
-3.48352
11
9.15395
21
-3.48389
0
LINE
8
BLACK
6
CONTINUOUS
10
9.15395
20
-3.48389
11
9.15388
21
-3.4839
0
LINE
8
BLACK
6
CONTINUOUS
10
9.15388
20
-3.4839
11
9.15385
21
-3.4839
0
LINE
8
BLACK
6
CONTINUOUS
10
9.15385
20
-3.4839
11
9.15373
21
-3.48391
0
LINE
8
BLACK
6
CONTINUOUS
10
9.15373
20
-3.48391
11
9.15366
21
-3.4839
0
LINE
8
BLACK
6
CONTINUOUS
10
9.15366
20
-3.4839
11
9.03559
21
-3.4839
0
LINE
8
BLACK
6
CONTINUOUS
10
9.03559
20
-3.4839
11
9.02182
21
-3.48399
0
LINE
8
BLACK
6
CONTINUOUS
10
9.02182
20
-3.48399
11
9.00837
21
-3.48428
0
LINE
8
BLACK
6
CONTINUOUS
10
9.00837
20
-3.48428
11
8.99523
21
-3.48479
0
LINE
8
BLACK
6
CONTINUOUS
10
8.99523
20
-3.48479
11
8.98242
21
-3.48555
0
LINE
8
BLACK
6
CONTINUOUS
10
8.98242
20
-3.48555
11
8.96994
21
-3.48657
0
LINE
8
BLACK
6
CONTINUOUS
10
8.96994
20
-3.48657
11
8.95781
21
-3.48789
0
LINE
8
BLACK
6
CONTINUOUS
10
8.95781
20
-3.48789
11
8.94603
21
-3.48952
0
LINE
8
BLACK
6
CONTINUOUS
10
8.94603
20
-3.48952
11
8.93462
21
-3.49148
0
LINE
8
BLACK
6
CONTINUOUS
10
8.93462
20
-3.49148
11
8.92358
21
-3.49381
0
LINE
8
BLACK
6
CONTINUOUS
10
8.92358
20
-3.49381
11
8.91293
21
-3.49651
0
LINE
8
BLACK
6
CONTINUOUS
10
8.91293
20
-3.49651
11
8.90268
21
-3.49961
0
LINE
8
BLACK
6
CONTINUOUS
10
8.90268
20
-3.49961
11
8.89282
21
-3.50314
0
LINE
8
BLACK
6
CONTINUOUS
10
8.89282
20
-3.50314
11
8.88338
21
-3.50711
0
LINE
8
BLACK
6
CONTINUOUS
10
8.88338
20
-3.50711
11
8.87436
21
-3.51155
0
LINE
8
BLACK
6
CONTINUOUS
10
8.87436
20
-3.51155
11
8.86576
21
-3.51647
0
LINE
8
BLACK
6
CONTINUOUS
10
8.86576
20
-3.51647
11
8.85759
21
-3.52191
0
LINE
8
BLACK
6
CONTINUOUS
10
8.85759
20
-3.52191
11
8.84985
21
-3.52788
0
LINE
8
BLACK
6
CONTINUOUS
10
8.84985
20
-3.52788
11
8.84256
21
-3.53441
0
LINE
8
BLACK
6
CONTINUOUS
10
8.84256
20
-3.53441
11
8.8357
21
-3.54153
0
LINE
8
BLACK
6
CONTINUOUS
10
8.8357
20
-3.54153
11
8.82929
21
-3.54926
0
LINE
8
BLACK
6
CONTINUOUS
10
8.82929
20
-3.54926
11
8.82333
21
-3.55763
0
LINE
8
BLACK
6
CONTINUOUS
10
8.82333
20
-3.55763
11
8.81784
21
-3.56667
0
LINE
8
BLACK
6
CONTINUOUS
10
8.81784
20
-3.56667
11
8.81282
21
-3.57641
0
LINE
8
BLACK
6
CONTINUOUS
10
8.81282
20
-3.57641
11
8.80827
21
-3.58688
0
LINE
8
BLACK
6
CONTINUOUS
10
8.80827
20
-3.58688
11
8.80422
21
-3.59811
0
LINE
8
BLACK
6
CONTINUOUS
10
8.80422
20
-3.59811
11
8.80067
21
-3.61012
0
LINE
8
BLACK
6
CONTINUOUS
10
8.80067
20
-3.61012
11
8.79763
21
-3.62293
0
LINE
8
BLACK
6
CONTINUOUS
10
8.79763
20
-3.62293
11
8.79512
21
-3.63658
0
LINE
8
BLACK
6
CONTINUOUS
10
8.79512
20
-3.63658
11
8.79314
21
-3.65108
0
LINE
8
BLACK
6
CONTINUOUS
10
8.79314
20
-3.65108
11
8.79172
21
-3.66647
0
LINE
8
BLACK
6
CONTINUOUS
10
8.79172
20
-3.66647
11
8.79085
21
-3.68275
0
LINE
8
BLACK
6
CONTINUOUS
10
8.79085
20
-3.68275
11
8.79055
21
-3.7
0
LINE
8
BLACK
6
CONTINUOUS
10
8.79055
20
-3.7
11
8.79055
21
-4.68872
0
LINE
8
BLACK
6
CONTINUOUS
10
8.79055
20
-4.68872
11
8.79056
21
-4.68882
0
LINE
8
BLACK
6
CONTINUOUS
10
8.79056
20
-4.68882
11
8.79055
21
-4.68891
0
LINE
8
BLACK
6
CONTINUOUS
10
8.79055
20
-4.68891
11
8.79055
21
-4.68895
0
LINE
8
BLACK
6
CONTINUOUS
10
8.79055
20
-4.68895
11
8.79055
21
-4.68903
0
LINE
8
BLACK
6
CONTINUOUS
10
8.79055
20
-4.68903
11
8.79055
21
-4.68905
0
LINE
8
BLACK
6
CONTINUOUS
10
8.79055
20
-4.68905
11
8.79019
21
-4.71133
0
LINE
8
BLACK
6
CONTINUOUS
10
8.79019
20
-4.71133
11
8.7902
21
-4.71142
0
LINE
8
BLACK
6
CONTINUOUS
10
8.7902
20
-4.71142
11
8.79019
21
-4.71151
0
LINE
8
BLACK
6
CONTINUOUS
10
8.79019
20
-4.71151
11
8.79019
21
-4.71155
0
LINE
8
BLACK
6
CONTINUOUS
10
8.79019
20
-4.71155
11
8.79018
21
-4.7116
0
LINE
8
BLACK
6
CONTINUOUS
10
8.79018
20
-4.7116
11
8.7891
21
-4.73312
0
LINE
8
BLACK
6
CONTINUOUS
10
8.7891
20
-4.73312
11
8.78911
21
-4.73315
0
LINE
8
BLACK
6
CONTINUOUS
10
8.78911
20
-4.73315
11
8.7891
21
-4.73321
0
LINE
8
BLACK
6
CONTINUOUS
10
8.7891
20
-4.73321
11
8.7891
21
-4.73321
0
LINE
8
BLACK
6
CONTINUOUS
10
8.7891
20
-4.73321
11
8.7891
21
-4.73325
0
LINE
8
BLACK
6
CONTINUOUS
10
8.7891
20
-4.73325
11
8.7891
21
-4.73326
0
LINE
8
BLACK
6
CONTINUOUS
10
8.7891
20
-4.73326
11
8.7891
21
-4.73331
0
LINE
8
BLACK
6
CONTINUOUS
10
8.7891
20
-4.73331
11
8.78909
21
-4.73335
0
LINE
8
BLACK
6
CONTINUOUS
10
8.78909
20
-4.73335
11
8.78909
21
-4.73338
0
LINE
8
BLACK
6
CONTINUOUS
10
8.78909
20
-4.73338
11
8.78728
21
-4.75401
0
LINE
8
BLACK
6
CONTINUOUS
10
8.78728
20
-4.75401
11
8.78729
21
-4.75402
0
LINE
8
BLACK
6
CONTINUOUS
10
8.78729
20
-4.75402
11
8.78728
21
-4.75407
0
LINE
8
BLACK
6
CONTINUOUS
10
8.78728
20
-4.75407
11
8.78728
21
-4.75408
0
LINE
8
BLACK
6
CONTINUOUS
10
8.78728
20
-4.75408
11
8.78728
21
-4.75412
0
LINE
8
BLACK
6
CONTINUOUS
10
8.78728
20
-4.75412
11
8.78727
21
-4.75416
0
LINE
8
BLACK
6
CONTINUOUS
10
8.78727
20
-4.75416
11
8.78727
21
-4.75419
0
LINE
8
BLACK
6
CONTINUOUS
10
8.78727
20
-4.75419
11
8.78727
21
-4.75421
0
LINE
8
BLACK
6
CONTINUOUS
10
8.78727
20
-4.75421
11
8.78726
21
-4.75424
0
LINE
8
BLACK
6
CONTINUOUS
10
8.78726
20
-4.75424
11
8.78726
21
-4.75424
0
LINE
8
BLACK
6
CONTINUOUS
10
8.78726
20
-4.75424
11
8.78726
21
-4.75425
0
LINE
8
BLACK
6
CONTINUOUS
10
8.78726
20
-4.75425
11
8.78726
21
-4.75427
0
LINE
8
BLACK
6
CONTINUOUS
10
8.78726
20
-4.75427
11
8.78725
21
-4.7544
0
LINE
8
BLACK
6
CONTINUOUS
10
8.78725
20
-4.7544
11
8.78724
21
-4.75442
0
LINE
8
BLACK
6
CONTINUOUS
10
8.78724
20
-4.75442
11
8.78471
21
-4.7742
0
LINE
8
BLACK
6
CONTINUOUS
10
8.78471
20
-4.7742
11
8.78471
21
-4.77427
0
LINE
8
BLACK
6
CONTINUOUS
10
8.78471
20
-4.77427
11
8.78469
21
-4.77444
0
LINE
8
BLACK
6
CONTINUOUS
10
8.78469
20
-4.77444
11
8.78466
21
-4.77454
0
LINE
8
BLACK
6
CONTINUOUS
10
8.78466
20
-4.77454
11
8.78143
21
-4.79331
0
LINE
8
BLACK
6
CONTINUOUS
10
8.78143
20
-4.79331
11
8.78143
21
-4.79334
0
LINE
8
BLACK
6
CONTINUOUS
10
8.78143
20
-4.79334
11
8.7814
21
-4.79348
0
LINE
8
BLACK
6
CONTINUOUS
10
8.7814
20
-4.79348
11
8.78139
21
-4.79361
0
LINE
8
BLACK
6
CONTINUOUS
10
8.78139
20
-4.79361
11
8.78136
21
-4.79371
0
LINE
8
BLACK
6
CONTINUOUS
10
8.78136
20
-4.79371
11
8.78135
21
-4.79375
0
LINE
8
BLACK
6
CONTINUOUS
10
8.78135
20
-4.79375
11
8.78135
21
-4.79377
0
LINE
8
BLACK
6
CONTINUOUS
10
8.78135
20
-4.79377
11
8.77734
21
-4.8119
0
LINE
8
BLACK
6
CONTINUOUS
10
8.77734
20
-4.8119
11
8.77733
21
-4.81197
0
LINE
8
BLACK
6
CONTINUOUS
10
8.77733
20
-4.81197
11
8.77733
21
-4.81197
0
LINE
8
BLACK
6
CONTINUOUS
10
8.77733
20
-4.81197
11
8.77732
21
-4.81204
0
LINE
8
BLACK
6
CONTINUOUS
10
8.77732
20
-4.81204
11
8.77731
21
-4.81207
0
LINE
8
BLACK
6
CONTINUOUS
10
8.77731
20
-4.81207
11
8.77731
21
-4.81209
0
LINE
8
BLACK
6
CONTINUOUS
10
8.77731
20
-4.81209
11
8.7773
21
-4.8121
0
LINE
8
BLACK
6
CONTINUOUS
10
8.7773
20
-4.8121
11
8.77729
21
-4.81215
0
LINE
8
BLACK
6
CONTINUOUS
10
8.77729
20
-4.81215
11
8.77728
21
-4.81219
0
LINE
8
BLACK
6
CONTINUOUS
10
8.77728
20
-4.81219
11
8.77258
21
-4.8294
0
LINE
8
BLACK
6
CONTINUOUS
10
8.77258
20
-4.8294
11
8.77257
21
-4.82942
0
LINE
8
BLACK
6
CONTINUOUS
10
8.77257
20
-4.82942
11
8.77253
21
-4.82959
0
LINE
8
BLACK
6
CONTINUOUS
10
8.77253
20
-4.82959
11
8.7725
21
-4.82967
0
LINE
8
BLACK
6
CONTINUOUS
10
8.7725
20
-4.82967
11
8.7725
21
-4.82968
0
LINE
8
BLACK
6
CONTINUOUS
10
8.7725
20
-4.82968
11
8.77249
21
-4.8297
0
LINE
8
BLACK
6
CONTINUOUS
10
8.77249
20
-4.8297
11
8.77247
21
-4.82975
0
LINE
8
BLACK
6
CONTINUOUS
10
8.77247
20
-4.82975
11
8.77244
21
-4.82985
0
LINE
8
BLACK
6
CONTINUOUS
10
8.77244
20
-4.82985
11
8.77243
21
-4.82987
0
LINE
8
BLACK
6
CONTINUOUS
10
8.77243
20
-4.82987
11
8.77243
21
-4.82989
0
LINE
8
BLACK
6
CONTINUOUS
10
8.77243
20
-4.82989
11
8.77241
21
-4.82991
0
LINE
8
BLACK
6
CONTINUOUS
10
8.77241
20
-4.82991
11
8.767
21
-4.84623
0
LINE
8
BLACK
6
CONTINUOUS
10
8.767
20
-4.84623
11
8.76699
21
-4.84627
0
LINE
8
BLACK
6
CONTINUOUS
10
8.76699
20
-4.84627
11
8.76694
21
-4.84641
0
LINE
8
BLACK
6
CONTINUOUS
10
8.76694
20
-4.84641
11
8.76693
21
-4.84645
0
LINE
8
BLACK
6
CONTINUOUS
10
8.76693
20
-4.84645
11
8.76691
21
-4.8465
0
LINE
8
BLACK
6
CONTINUOUS
10
8.76691
20
-4.8465
11
8.76691
21
-4.84651
0
LINE
8
BLACK
6
CONTINUOUS
10
8.76691
20
-4.84651
11
8.7669
21
-4.84652
0
LINE
8
BLACK
6
CONTINUOUS
10
8.7669
20
-4.84652
11
8.7669
21
-4.84653
0
LINE
8
BLACK
6
CONTINUOUS
10
8.7669
20
-4.84653
11
8.76689
21
-4.84659
0
LINE
8
BLACK
6
CONTINUOUS
10
8.76689
20
-4.84659
11
8.76686
21
-4.84663
0
LINE
8
BLACK
6
CONTINUOUS
10
8.76686
20
-4.84663
11
8.76062
21
-4.86241
0
LINE
8
BLACK
6
CONTINUOUS
10
8.76062
20
-4.86241
11
8.76061
21
-4.86243
0
LINE
8
BLACK
6
CONTINUOUS
10
8.76061
20
-4.86243
11
8.76057
21
-4.86257
0
LINE
8
BLACK
6
CONTINUOUS
10
8.76057
20
-4.86257
11
8.7605
21
-4.86269
0
LINE
8
BLACK
6
CONTINUOUS
10
8.7605
20
-4.86269
11
8.75358
21
-4.87747
0
LINE
8
BLACK
6
CONTINUOUS
10
8.75358
20
-4.87747
11
8.75358
21
-4.87748
0
LINE
8
BLACK
6
CONTINUOUS
10
8.75358
20
-4.87748
11
8.7535
21
-4.87764
0
LINE
8
BLACK
6
CONTINUOUS
10
8.7535
20
-4.87764
11
8.75347
21
-4.87772
0
LINE
8
BLACK
6
CONTINUOUS
10
8.75347
20
-4.87772
11
8.75341
21
-4.87786
0
LINE
8
BLACK
6
CONTINUOUS
10
8.75341
20
-4.87786
11
8.75335
21
-4.87795
0
LINE
8
BLACK
6
CONTINUOUS
10
8.75335
20
-4.87795
11
8.74571
21
-4.89196
0
LINE
8
BLACK
6
CONTINUOUS
10
8.74571
20
-4.89196
11
8.7457
21
-4.89198
0
LINE
8
BLACK
6
CONTINUOUS
10
8.7457
20
-4.89198
11
8.74562
21
-4.89213
0
LINE
8
BLACK
6
CONTINUOUS
10
8.74562
20
-4.89213
11
8.74558
21
-4.89221
0
LINE
8
BLACK
6
CONTINUOUS
10
8.74558
20
-4.89221
11
8.74557
21
-4.89222
0
LINE
8
BLACK
6
CONTINUOUS
10
8.74557
20
-4.89222
11
8.74556
21
-4.89223
0
LINE
8
BLACK
6
CONTINUOUS
10
8.74556
20
-4.89223
11
8.74556
21
-4.89223
0
LINE
8
BLACK
6
CONTINUOUS
10
8.74556
20
-4.89223
11
8.74554
21
-4.89227
0
LINE
8
BLACK
6
CONTINUOUS
10
8.74554
20
-4.89227
11
8.74553
21
-4.89228
0
LINE
8
BLACK
6
CONTINUOUS
10
8.74553
20
-4.89228
11
8.74548
21
-4.89238
0
LINE
8
BLACK
6
CONTINUOUS
10
8.74548
20
-4.89238
11
8.74543
21
-4.89244
0
LINE
8
BLACK
6
CONTINUOUS
10
8.74543
20
-4.89244
11
8.73702
21
-4.90571
0
LINE
8
BLACK
6
CONTINUOUS
10
8.73702
20
-4.90571
11
8.737
21
-4.90577
0
LINE
8
BLACK
6
CONTINUOUS
10
8.737
20
-4.90577
11
8.73693
21
-4.90587
0
LINE
8
BLACK
6
CONTINUOUS
10
8.73693
20
-4.90587
11
8.73688
21
-4.90596
0
LINE
8
BLACK
6
CONTINUOUS
10
8.73688
20
-4.90596
11
8.73678
21
-4.90608
0
LINE
8
BLACK
6
CONTINUOUS
10
8.73678
20
-4.90608
11
8.72762
21
-4.91861
0
LINE
8
BLACK
6
CONTINUOUS
10
8.72762
20
-4.91861
11
8.72762
21
-4.91861
0
LINE
8
BLACK
6
CONTINUOUS
10
8.72762
20
-4.91861
11
8.72751
21
-4.91876
0
LINE
8
BLACK
6
CONTINUOUS
10
8.72751
20
-4.91876
11
8.7275
21
-4.91877
0
LINE
8
BLACK
6
CONTINUOUS
10
8.7275
20
-4.91877
11
8.7275
21
-4.91878
0
LINE
8
BLACK
6
CONTINUOUS
10
8.7275
20
-4.91878
11
8.7275
21
-4.91878
0
LINE
8
BLACK
6
CONTINUOUS
10
8.7275
20
-4.91878
11
8.72745
21
-4.91884
0
LINE
8
BLACK
6
CONTINUOUS
10
8.72745
20
-4.91884
11
8.72745
21
-4.91884
0
LINE
8
BLACK
6
CONTINUOUS
10
8.72745
20
-4.91884
11
8.72745
21
-4.91884
0
LINE
8
BLACK
6
CONTINUOUS
10
8.72745
20
-4.91884
11
8.72739
21
-4.91891
0
LINE
8
BLACK
6
CONTINUOUS
10
8.72739
20
-4.91891
11
8.72738
21
-4.91892
0
LINE
8
BLACK
6
CONTINUOUS
10
8.72738
20
-4.91892
11
8.72733
21
-4.91898
0
LINE
8
BLACK
6
CONTINUOUS
10
8.72733
20
-4.91898
11
8.72732
21
-4.91899
0
LINE
8
BLACK
6
CONTINUOUS
10
8.72732
20
-4.91899
11
8.72725
21
-4.91908
0
LINE
8
BLACK
6
CONTINUOUS
10
8.72725
20
-4.91908
11
8.72719
21
-4.91913
0
LINE
8
BLACK
6
CONTINUOUS
10
8.72719
20
-4.91913
11
8.71734
21
-4.93083
0
LINE
8
BLACK
6
CONTINUOUS
10
8.71734
20
-4.93083
11
8.71734
21
-4.93083
0
LINE
8
BLACK
6
CONTINUOUS
10
8.71734
20
-4.93083
11
8.71729
21
-4.9309
0
LINE
8
BLACK
6
CONTINUOUS
10
8.71729
20
-4.9309
11
8.71724
21
-4.93098
0
LINE
8
BLACK
6
CONTINUOUS
10
8.71724
20
-4.93098
11
8.71717
21
-4.93105
0
LINE
8
BLACK
6
CONTINUOUS
10
8.71717
20
-4.93105
11
8.71716
21
-4.93106
0
LINE
8
BLACK
6
CONTINUOUS
10
8.71716
20
-4.93106
11
8.7171
21
-4.93113
0
LINE
8
BLACK
6
CONTINUOUS
10
8.7171
20
-4.93113
11
8.71698
21
-4.93126
0
LINE
8
BLACK
6
CONTINUOUS
10
8.71698
20
-4.93126
11
8.71697
21
-4.93126
0
LINE
8
BLACK
6
CONTINUOUS
10
8.71697
20
-4.93126
11
8.70631
21
-4.94229
0
LINE
8
BLACK
6
CONTINUOUS
10
8.70631
20
-4.94229
11
8.7063
21
-4.94231
0
LINE
8
BLACK
6
CONTINUOUS
10
8.7063
20
-4.94231
11
8.70625
21
-4.94236
0
LINE
8
BLACK
6
CONTINUOUS
10
8.70625
20
-4.94236
11
8.70617
21
-4.94246
0
LINE
8
BLACK
6
CONTINUOUS
10
8.70617
20
-4.94246
11
8.70606
21
-4.94255
0
LINE
8
BLACK
6
CONTINUOUS
10
8.70606
20
-4.94255
11
8.70595
21
-4.94265
0
LINE
8
BLACK
6
CONTINUOUS
10
8.70595
20
-4.94265
11
8.70591
21
-4.94267
0
LINE
8
BLACK
6
CONTINUOUS
10
8.70591
20
-4.94267
11
8.70587
21
-4.94271
0
LINE
8
BLACK
6
CONTINUOUS
10
8.70587
20
-4.94271
11
8.70586
21
-4.94271
0
LINE
8
BLACK
6
CONTINUOUS
10
8.70586
20
-4.94271
11
8.69451
21
-4.95299
0
LINE
8
BLACK
6
CONTINUOUS
10
8.69451
20
-4.95299
11
8.69445
21
-4.95305
0
LINE
8
BLACK
6
CONTINUOUS
10
8.69445
20
-4.95305
11
8.69415
21
-4.9533
0
LINE
8
BLACK
6
CONTINUOUS
10
8.69415
20
-4.9533
11
8.69408
21
-4.95334
0
LINE
8
BLACK
6
CONTINUOUS
10
8.69408
20
-4.95334
11
8.68199
21
-4.96286
0
LINE
8
BLACK
6
CONTINUOUS
10
8.68199
20
-4.96286
11
8.68196
21
-4.96289
0
LINE
8
BLACK
6
CONTINUOUS
10
8.68196
20
-4.96289
11
8.68166
21
-4.96314
0
LINE
8
BLACK
6
CONTINUOUS
10
8.68166
20
-4.96314
11
8.68149
21
-4.96324
0
LINE
8
BLACK
6
CONTINUOUS
10
8.68149
20
-4.96324
11
8.66855
21
-4.97216
0
LINE
8
BLACK
6
CONTINUOUS
10
8.66855
20
-4.97216
11
8.66847
21
-4.97224
0
LINE
8
BLACK
6
CONTINUOUS
10
8.66847
20
-4.97224
11
8.66831
21
-4.97232
0
LINE
8
BLACK
6
CONTINUOUS
10
8.66831
20
-4.97232
11
8.66815
21
-4.97241
0
LINE
8
BLACK
6
CONTINUOUS
10
8.66815
20
-4.97241
11
8.66814
21
-4.97241
0
LINE
8
BLACK
6
CONTINUOUS
10
8.66814
20
-4.97241
11
8.66812
21
-4.97242
0
LINE
8
BLACK
6
CONTINUOUS
10
8.66812
20
-4.97242
11
8.66811
21
-4.97242
0
LINE
8
BLACK
6
CONTINUOUS
10
8.66811
20
-4.97242
11
8.66805
21
-4.97246
0
LINE
8
BLACK
6
CONTINUOUS
10
8.66805
20
-4.97246
11
8.65447
21
-4.98061
0
LINE
8
BLACK
6
CONTINUOUS
10
8.65447
20
-4.98061
11
8.65436
21
-4.9807
0
LINE
8
BLACK
6
CONTINUOUS
10
8.65436
20
-4.9807
11
8.65426
21
-4.98076
0
LINE
8
BLACK
6
CONTINUOUS
10
8.65426
20
-4.98076
11
8.65425
21
-4.98076
0
LINE
8
BLACK
6
CONTINUOUS
10
8.65425
20
-4.98076
11
8.6542
21
-4.9808
0
LINE
8
BLACK
6
CONTINUOUS
10
8.6542
20
-4.9808
11
8.65416
21
-4.98081
0
LINE
8
BLACK
6
CONTINUOUS
10
8.65416
20
-4.98081
11
8.65405
21
-4.98088
0
LINE
8
BLACK
6
CONTINUOUS
10
8.65405
20
-4.98088
11
8.65399
21
-4.9809
0
LINE
8
BLACK
6
CONTINUOUS
10
8.65399
20
-4.9809
11
8.63937
21
-4.98851
0
LINE
8
BLACK
6
CONTINUOUS
10
8.63937
20
-4.98851
11
8.63934
21
-4.98853
0
LINE
8
BLACK
6
CONTINUOUS
10
8.63934
20
-4.98853
11
8.63923
21
-4.9886
0
LINE
8
BLACK
6
CONTINUOUS
10
8.63923
20
-4.9886
11
8.63918
21
-4.98861
0
LINE
8
BLACK
6
CONTINUOUS
10
8.63918
20
-4.98861
11
8.63913
21
-4.98864
0
LINE
8
BLACK
6
CONTINUOUS
10
8.63913
20
-4.98864
11
8.639
21
-4.98868
0
LINE
8
BLACK
6
CONTINUOUS
10
8.639
20
-4.98868
11
8.62388
21
-4.9955
0
LINE
8
BLACK
6
CONTINUOUS
10
8.62388
20
-4.9955
11
8.62387
21
-4.9955
0
LINE
8
BLACK
6
CONTINUOUS
10
8.62387
20
-4.9955
11
8.62387
21
-4.9955
0
LINE
8
BLACK
6
CONTINUOUS
10
8.62387
20
-4.9955
11
8.62387
21
-4.9955
0
LINE
8
BLACK
6
CONTINUOUS
10
8.62387
20
-4.9955
11
8.62372
21
-4.99559
0
LINE
8
BLACK
6
CONTINUOUS
10
8.62372
20
-4.99559
11
8.62353
21
-4.99569
0
LINE
8
BLACK
6
CONTINUOUS
10
8.62353
20
-4.99569
11
8.62353
21
-4.99569
0
LINE
8
BLACK
6
CONTINUOUS
10
8.62353
20
-4.99569
11
8.62353
21
-4.99569
0
LINE
8
BLACK
6
CONTINUOUS
10
8.62353
20
-4.99569
11
8.6234
21
-4.99573
0
LINE
8
BLACK
6
CONTINUOUS
10
8.6234
20
-4.99573
11
8.62316
21
-4.9958
0
LINE
8
BLACK
6
CONTINUOUS
10
8.62316
20
-4.9958
11
8.62316
21
-4.9958
0
LINE
8
BLACK
6
CONTINUOUS
10
8.62316
20
-4.9958
11
8.62316
21
-4.9958
0
LINE
8
BLACK
6
CONTINUOUS
10
8.62316
20
-4.9958
11
8.62316
21
-4.9958
0
LINE
8
BLACK
6
CONTINUOUS
10
8.62316
20
-4.9958
11
8.6072
21
-5.00203
0
LINE
8
BLACK
6
CONTINUOUS
10
8.6072
20
-5.00203
11
8.60713
21
-5.00206
0
LINE
8
BLACK
6
CONTINUOUS
10
8.60713
20
-5.00206
11
8.60702
21
-5.0021
0
LINE
8
BLACK
6
CONTINUOUS
10
8.60702
20
-5.0021
11
8.607
21
-5.00211
0
LINE
8
BLACK
6
CONTINUOUS
10
8.607
20
-5.00211
11
8.60693
21
-5.00213
0
LINE
8
BLACK
6
CONTINUOUS
10
8.60693
20
-5.00213
11
8.60676
21
-5.00218
0
LINE
8
BLACK
6
CONTINUOUS
10
8.60676
20
-5.00218
11
8.60674
21
-5.00218
0
LINE
8
BLACK
6
CONTINUOUS
10
8.60674
20
-5.00218
11
8.60672
21
-5.00218
0
LINE
8
BLACK
6
CONTINUOUS
10
8.60672
20
-5.00218
11
8.60665
21
-5.00219
0
LINE
8
BLACK
6
CONTINUOUS
10
8.60665
20
-5.00219
11
8.58997
21
-5.00775
0
LINE
8
BLACK
6
CONTINUOUS
10
8.58997
20
-5.00775
11
8.58985
21
-5.00781
0
LINE
8
BLACK
6
CONTINUOUS
10
8.58985
20
-5.00781
11
8.58983
21
-5.00782
0
LINE
8
BLACK
6
CONTINUOUS
10
8.58983
20
-5.00782
11
8.58981
21
-5.00783
0
LINE
8
BLACK
6
CONTINUOUS
10
8.58981
20
-5.00783
11
8.58964
21
-5.00787
0
LINE
8
BLACK
6
CONTINUOUS
10
8.58964
20
-5.00787
11
8.58948
21
-5.00792
0
LINE
8
BLACK
6
CONTINUOUS
10
8.58948
20
-5.00792
11
8.58946
21
-5.00793
0
LINE
8
BLACK
6
CONTINUOUS
10
8.58946
20
-5.00793
11
8.58944
21
-5.00793
0
LINE
8
BLACK
6
CONTINUOUS
10
8.58944
20
-5.00793
11
8.5894
21
-5.00793
0
LINE
8
BLACK
6
CONTINUOUS
10
8.5894
20
-5.00793
11
8.57167
21
-5.01291
0
LINE
8
BLACK
6
CONTINUOUS
10
8.57167
20
-5.01291
11
8.57151
21
-5.01296
0
LINE
8
BLACK
6
CONTINUOUS
10
8.57151
20
-5.01296
11
8.57139
21
-5.01298
0
LINE
8
BLACK
6
CONTINUOUS
10
8.57139
20
-5.01298
11
8.57128
21
-5.013
0
LINE
8
BLACK
6
CONTINUOUS
10
8.57128
20
-5.013
11
8.57126
21
-5.013
0
LINE
8
BLACK
6
CONTINUOUS
10
8.57126
20
-5.013
11
8.55281
21
-5.01737
0
LINE
8
BLACK
6
CONTINUOUS
10
8.55281
20
-5.01737
11
8.55268
21
-5.01741
0
LINE
8
BLACK
6
CONTINUOUS
10
8.55268
20
-5.01741
11
8.55252
21
-5.01743
0
LINE
8
BLACK
6
CONTINUOUS
10
8.55252
20
-5.01743
11
8.55237
21
-5.01745
0
LINE
8
BLACK
6
CONTINUOUS
10
8.55237
20
-5.01745
11
8.55236
21
-5.01745
0
LINE
8
BLACK
6
CONTINUOUS
10
8.55236
20
-5.01745
11
8.53337
21
-5.02112
0
LINE
8
BLACK
6
CONTINUOUS
10
8.53337
20
-5.02112
11
8.53331
21
-5.02114
0
LINE
8
BLACK
6
CONTINUOUS
10
8.53331
20
-5.02114
11
8.53324
21
-5.02117
0
LINE
8
BLACK
6
CONTINUOUS
10
8.53324
20
-5.02117
11
8.53312
21
-5.0212
0
LINE
8
BLACK
6
CONTINUOUS
10
8.53312
20
-5.0212
11
8.533
21
-5.02123
0
LINE
8
BLACK
6
CONTINUOUS
10
8.533
20
-5.02123
11
8.53293
21
-5.02124
0
LINE
8
BLACK
6
CONTINUOUS
10
8.53293
20
-5.02124
11
8.53286
21
-5.02125
0
LINE
8
BLACK
6
CONTINUOUS
10
8.53286
20
-5.02125
11
8.53276
21
-5.02126
0
LINE
8
BLACK
6
CONTINUOUS
10
8.53276
20
-5.02126
11
8.51289
21
-5.02433
0
LINE
8
BLACK
6
CONTINUOUS
10
8.51289
20
-5.02433
11
8.51283
21
-5.02436
0
LINE
8
BLACK
6
CONTINUOUS
10
8.51283
20
-5.02436
11
8.51271
21
-5.02438
0
LINE
8
BLACK
6
CONTINUOUS
10
8.51271
20
-5.02438
11
8.51259
21
-5.02442
0
LINE
8
BLACK
6
CONTINUOUS
10
8.51259
20
-5.02442
11
8.51252
21
-5.02443
0
LINE
8
BLACK
6
CONTINUOUS
10
8.51252
20
-5.02443
11
8.51245
21
-5.02444
0
LINE
8
BLACK
6
CONTINUOUS
10
8.51245
20
-5.02444
11
8.51232
21
-5.02445
0
LINE
8
BLACK
6
CONTINUOUS
10
8.51232
20
-5.02445
11
8.5123
21
-5.02445
0
LINE
8
BLACK
6
CONTINUOUS
10
8.5123
20
-5.02445
11
8.51227
21
-5.02445
0
LINE
8
BLACK
6
CONTINUOUS
10
8.51227
20
-5.02445
11
8.49137
21
-5.02697
0
LINE
8
BLACK
6
CONTINUOUS
10
8.49137
20
-5.02697
11
8.49135
21
-5.02698
0
LINE
8
BLACK
6
CONTINUOUS
10
8.49135
20
-5.02698
11
8.49118
21
-5.027
0
LINE
8
BLACK
6
CONTINUOUS
10
8.49118
20
-5.027
11
8.4911
21
-5.02701
0
LINE
8
BLACK
6
CONTINUOUS
10
8.4911
20
-5.02701
11
8.49108
21
-5.02701
0
LINE
8
BLACK
6
CONTINUOUS
10
8.49108
20
-5.02701
11
8.49106
21
-5.02701
0
LINE
8
BLACK
6
CONTINUOUS
10
8.49106
20
-5.02701
11
8.49099
21
-5.02701
0
LINE
8
BLACK
6
CONTINUOUS
10
8.49099
20
-5.02701
11
8.46908
21
-5.02901
0
LINE
8
BLACK
6
CONTINUOUS
10
8.46908
20
-5.02901
11
8.46899
21
-5.02902
0
LINE
8
BLACK
6
CONTINUOUS
10
8.46899
20
-5.02902
11
8.46898
21
-5.02902
0
LINE
8
BLACK
6
CONTINUOUS
10
8.46898
20
-5.02902
11
8.46898
21
-5.02902
0
LINE
8
BLACK
6
CONTINUOUS
10
8.46898
20
-5.02902
11
8.4689
21
-5.02902
0
LINE
8
BLACK
6
CONTINUOUS
10
8.4689
20
-5.02902
11
8.44616
21
-5.03043
0
LINE
8
BLACK
6
CONTINUOUS
10
8.44616
20
-5.03043
11
8.4461
21
-5.03043
0
LINE
8
BLACK
6
CONTINUOUS
10
8.4461
20
-5.03043
11
8.44606
21
-5.03043
0
LINE
8
BLACK
6
CONTINUOUS
10
8.44606
20
-5.03043
11
8.44603
21
-5.03044
0
LINE
8
BLACK
6
CONTINUOUS
10
8.44603
20
-5.03044
11
8.44598
21
-5.03043
0
LINE
8
BLACK
6
CONTINUOUS
10
8.44598
20
-5.03043
11
8.42242
21
-5.03126
0
LINE
8
BLACK
6
CONTINUOUS
10
8.42242
20
-5.03126
11
8.42238
21
-5.03126
0
LINE
8
BLACK
6
CONTINUOUS
10
8.42238
20
-5.03126
11
8.42232
21
-5.03126
0
LINE
8
BLACK
6
CONTINUOUS
10
8.42232
20
-5.03126
11
8.42226
21
-5.03126
0
LINE
8
BLACK
6
CONTINUOUS
10
8.42226
20
-5.03126
11
8.42223
21
-5.03126
0
LINE
8
BLACK
6
CONTINUOUS
10
8.42223
20
-5.03126
11
8.39794
21
-5.03153
0
LINE
8
BLACK
6
CONTINUOUS
10
8.39794
20
-5.03153
11
8.39793
21
-5.03154
0
LINE
8
BLACK
6
CONTINUOUS
10
8.39793
20
-5.03154
11
8.39784
21
-5.03154
0
LINE
8
BLACK
6
CONTINUOUS
10
8.39784
20
-5.03154
11
8.39776
21
-5.03154
0
LINE
8
BLACK
6
CONTINUOUS
10
8.39776
20
-5.03154
11
8.39775
21
-5.03154
0
LINE
8
BLACK
6
CONTINUOUS
10
8.39775
20
-5.03154
11
5.96679
21
-5.0339
0
LINE
8
BLACK
6
CONTINUOUS
10
5.96679
20
-5.0339
11
5.89476
21
-5.03791
0
LINE
8
BLACK
6
CONTINUOUS
10
5.89476
20
-5.03791
11
5.8234
21
-5.04816
0
LINE
8
BLACK
6
CONTINUOUS
10
5.8234
20
-5.04816
11
5.75317
21
-5.06461
0
LINE
8
BLACK
6
CONTINUOUS
10
5.75317
20
-5.06461
11
5.68467
21
-5.08712
0
LINE
8
BLACK
6
CONTINUOUS
10
5.68467
20
-5.08712
11
5.61841
21
-5.11548
0
LINE
8
BLACK
6
CONTINUOUS
10
5.61841
20
-5.11548
11
5.55479
21
-5.14959
0
LINE
8
BLACK
6
CONTINUOUS
10
5.55479
20
-5.14959
11
5.54893
21
-5.15311
0
LINE
8
BLACK
6
CONTINUOUS
10
5.54893
20
-5.15311
11
5.54889
21
-5.15314
0
LINE
8
BLACK
6
CONTINUOUS
10
5.54889
20
-5.15314
11
5.54877
21
-5.15321
0
LINE
8
BLACK
6
CONTINUOUS
10
5.54877
20
-5.15321
11
5.54873
21
-5.15323
0
LINE
8
BLACK
6
CONTINUOUS
10
5.54873
20
-5.15323
11
5.54868
21
-5.15325
0
LINE
8
BLACK
6
CONTINUOUS
10
5.54868
20
-5.15325
11
5.54855
21
-5.15332
0
LINE
8
BLACK
6
CONTINUOUS
10
5.54855
20
-5.15332
11
5.54851
21
-5.15334
0
LINE
8
BLACK
6
CONTINUOUS
10
5.54851
20
-5.15334
11
3.63361
21
-6.27334
0
LINE
8
BLACK
6
CONTINUOUS
10
3.63361
20
-6.27334
11
3.61437
21
-6.28519
0
LINE
8
BLACK
6
CONTINUOUS
10
3.61437
20
-6.28519
11
3.61433
21
-6.28523
0
LINE
8
BLACK
6
CONTINUOUS
10
3.61433
20
-6.28523
11
3.61424
21
-6.28527
0
LINE
8
BLACK
6
CONTINUOUS
10
3.61424
20
-6.28527
11
3.6142
21
-6.2853
0
LINE
8
BLACK
6
CONTINUOUS
10
3.6142
20
-6.2853
11
3.61412
21
-6.28535
0
LINE
8
BLACK
6
CONTINUOUS
10
3.61412
20
-6.28535
11
3.61412
21
-6.28536
0
LINE
8
BLACK
6
CONTINUOUS
10
3.61412
20
-6.28536
11
3.61411
21
-6.28536
0
LINE
8
BLACK
6
CONTINUOUS
10
3.61411
20
-6.28536
11
3.61402
21
-6.28541
0
LINE
8
BLACK
6
CONTINUOUS
10
3.61402
20
-6.28541
11
3.61387
21
-6.28549
0
LINE
8
BLACK
6
CONTINUOUS
10
3.61387
20
-6.28549
11
3.61386
21
-6.28549
0
LINE
8
BLACK
6
CONTINUOUS
10
3.61386
20
-6.28549
11
3.55883
21
-6.31443
0
LINE
8
BLACK
6
CONTINUOUS
10
3.55883
20
-6.31443
11
3.55878
21
-6.31448
0
LINE
8
BLACK
6
CONTINUOUS
10
3.55878
20
-6.31448
11
3.55843
21
-6.31466
0
LINE
8
BLACK
6
CONTINUOUS
10
3.55843
20
-6.31466
11
3.5581
21
-6.31476
0
LINE
8
BLACK
6
CONTINUOUS
10
3.5581
20
-6.31476
11
3.50032
21
-6.3382
0
LINE
8
BLACK
6
CONTINUOUS
10
3.50032
20
-6.3382
11
3.50025
21
-6.33824
0
LINE
8
BLACK
6
CONTINUOUS
10
3.50025
20
-6.33824
11
3.50023
21
-6.33825
0
LINE
8
BLACK
6
CONTINUOUS
10
3.50023
20
-6.33825
11
3.50017
21
-6.33828
0
LINE
8
BLACK
6
CONTINUOUS
10
3.50017
20
-6.33828
11
3.4998
21
-6.3384
0
LINE
8
BLACK
6
CONTINUOUS
10
3.4998
20
-6.3384
11
3.49961
21
-6.33842
0
LINE
8
BLACK
6
CONTINUOUS
10
3.49961
20
-6.33842
11
3.44004
21
-6.3559
0
LINE
8
BLACK
6
CONTINUOUS
10
3.44004
20
-6.3559
11
3.43993
21
-6.35596
0
LINE
8
BLACK
6
CONTINUOUS
10
3.43993
20
-6.35596
11
3.43982
21
-6.356
0
LINE
8
BLACK
6
CONTINUOUS
10
3.43982
20
-6.356
11
3.43979
21
-6.35601
0
LINE
8
BLACK
6
CONTINUOUS
10
3.43979
20
-6.35601
11
3.43968
21
-6.35604
0
LINE
8
BLACK
6
CONTINUOUS
10
3.43968
20
-6.35604
11
3.43958
21
-6.35608
0
LINE
8
BLACK
6
CONTINUOUS
10
3.43958
20
-6.35608
11
3.43941
21
-6.35611
0
LINE
8
BLACK
6
CONTINUOUS
10
3.43941
20
-6.35611
11
3.37799
21
-6.36766
0
LINE
8
BLACK
6
CONTINUOUS
10
3.37799
20
-6.36766
11
3.37791
21
-6.36769
0
LINE
8
BLACK
6
CONTINUOUS
10
3.37791
20
-6.36769
11
3.3778
21
-6.3677
0
LINE
8
BLACK
6
CONTINUOUS
10
3.3778
20
-6.3677
11
3.37779
21
-6.3677
0
LINE
8
BLACK
6
CONTINUOUS
10
3.37779
20
-6.3677
11
3.37771
21
-6.36771
0
LINE
8
BLACK
6
CONTINUOUS
10
3.37771
20
-6.36771
11
3.37762
21
-6.36772
0
LINE
8
BLACK
6
CONTINUOUS
10
3.37762
20
-6.36772
11
3.37761
21
-6.36772
0
LINE
8
BLACK
6
CONTINUOUS
10
3.37761
20
-6.36772
11
3.3775
21
-6.36773
0
LINE
8
BLACK
6
CONTINUOUS
10
3.3775
20
-6.36773
11
3.37741
21
-6.36772
0
LINE
8
BLACK
6
CONTINUOUS
10
3.37741
20
-6.36772
11
3.37741
21
-6.36772
0
LINE
8
BLACK
6
CONTINUOUS
10
3.37741
20
-6.36772
11
3.3151
21
-6.37314
0
LINE
8
BLACK
6
CONTINUOUS
10
3.3151
20
-6.37314
11
3.31502
21
-6.37315
0
LINE
8
BLACK
6
CONTINUOUS
10
3.31502
20
-6.37315
11
3.31501
21
-6.37315
0
LINE
8
BLACK
6
CONTINUOUS
10
3.31501
20
-6.37315
11
3.315
21
-6.37315
0
LINE
8
BLACK
6
CONTINUOUS
10
3.315
20
-6.37315
11
3.31492
21
-6.37315
0
LINE
8
BLACK
6
CONTINUOUS
10
3.31492
20
-6.37315
11
3.31481
21
-6.37315
0
LINE
8
BLACK
6
CONTINUOUS
10
3.31481
20
-6.37315
11
3.3148
21
-6.37315
0
LINE
8
BLACK
6
CONTINUOUS
10
3.3148
20
-6.37315
11
3.31471
21
-6.37315
0
LINE
8
BLACK
6
CONTINUOUS
10
3.31471
20
-6.37315
11
3.31463
21
-6.37315
0
LINE
8
BLACK
6
CONTINUOUS
10
3.31463
20
-6.37315
11
3.31462
21
-6.37315
0
LINE
8
BLACK
6
CONTINUOUS
10
3.31462
20
-6.37315
11
3.25221
21
-6.37236
0
LINE
8
BLACK
6
CONTINUOUS
10
3.25221
20
-6.37236
11
3.25219
21
-6.37237
0
LINE
8
BLACK
6
CONTINUOUS
10
3.25219
20
-6.37237
11
3.25202
21
-6.37236
0
LINE
8
BLACK
6
CONTINUOUS
10
3.25202
20
-6.37236
11
3.25195
21
-6.37236
0
LINE
8
BLACK
6
CONTINUOUS
10
3.25195
20
-6.37236
11
3.25192
21
-6.37236
0
LINE
8
BLACK
6
CONTINUOUS
10
3.25192
20
-6.37236
11
3.2518
21
-6.37236
0
LINE
8
BLACK
6
CONTINUOUS
10
3.2518
20
-6.37236
11
3.25173
21
-6.37234
0
LINE
8
BLACK
6
CONTINUOUS
10
3.25173
20
-6.37234
11
3.25166
21
-6.37233
0
LINE
8
BLACK
6
CONTINUOUS
10
3.25166
20
-6.37233
11
3.25154
21
-6.3723
0
LINE
8
BLACK
6
CONTINUOUS
10
3.25154
20
-6.3723
11
3.25152
21
-6.37229
0
LINE
8
BLACK
6
CONTINUOUS
10
3.25152
20
-6.37229
11
3.2515
21
-6.37229
0
LINE
8
BLACK
6
CONTINUOUS
10
3.2515
20
-6.37229
11
3.18957
21
-6.36531
0
LINE
8
BLACK
6
CONTINUOUS
10
3.18957
20
-6.36531
11
3.18951
21
-6.36531
0
LINE
8
BLACK
6
CONTINUOUS
10
3.18951
20
-6.36531
11
3.18948
21
-6.36531
0
LINE
8
BLACK
6
CONTINUOUS
10
3.18948
20
-6.36531
11
3.18936
21
-6.36531
0
LINE
8
BLACK
6
CONTINUOUS
10
3.18936
20
-6.36531
11
3.18929
21
-6.36529
0
LINE
8
BLACK
6
CONTINUOUS
10
3.18929
20
-6.36529
11
3.18922
21
-6.36529
0
LINE
8
BLACK
6
CONTINUOUS
10
3.18922
20
-6.36529
11
3.1891
21
-6.36525
0
LINE
8
BLACK
6
CONTINUOUS
10
3.1891
20
-6.36525
11
3.18908
21
-6.36524
0
LINE
8
BLACK
6
CONTINUOUS
10
3.18908
20
-6.36524
11
3.18901
21
-6.36522
0
LINE
8
BLACK
6
CONTINUOUS
10
3.18901
20
-6.36522
11
3.18896
21
-6.36521
0
LINE
8
BLACK
6
CONTINUOUS
10
3.18896
20
-6.36521
11
3.12793
21
-6.35209
0
LINE
8
BLACK
6
CONTINUOUS
10
3.12793
20
-6.35209
11
3.12778
21
-6.35207
0
LINE
8
BLACK
6
CONTINUOUS
10
3.12778
20
-6.35207
11
3.12769
21
-6.35203
0
LINE
8
BLACK
6
CONTINUOUS
10
3.12769
20
-6.35203
11
3.12767
21
-6.35203
0
LINE
8
BLACK
6
CONTINUOUS
10
3.12767
20
-6.35203
11
3.12756
21
-6.35199
0
LINE
8
BLACK
6
CONTINUOUS
10
3.12756
20
-6.35199
11
3.12752
21
-6.35197
0
LINE
8
BLACK
6
CONTINUOUS
10
3.12752
20
-6.35197
11
3.12752
21
-6.35197
0
LINE
8
BLACK
6
CONTINUOUS
10
3.12752
20
-6.35197
11
3.12743
21
-6.35195
0
LINE
8
BLACK
6
CONTINUOUS
10
3.12743
20
-6.35195
11
3.12735
21
-6.3519
0
LINE
8
BLACK
6
CONTINUOUS
10
3.12735
20
-6.3519
11
3.06812
21
-6.33285
0
LINE
8
BLACK
6
CONTINUOUS
10
3.06812
20
-6.33285
11
3.06808
21
-6.33285
0
LINE
8
BLACK
6
CONTINUOUS
10
3.06808
20
-6.33285
11
3.06771
21
-6.33273
0
LINE
8
BLACK
6
CONTINUOUS
10
3.06771
20
-6.33273
11
3.0675
21
-6.33262
0
LINE
8
BLACK
6
CONTINUOUS
10
3.0675
20
-6.33262
11
3.01031
21
-6.30772
0
LINE
8
BLACK
6
CONTINUOUS
10
3.01031
20
-6.30772
11
3.01011
21
-6.30765
0
LINE
8
BLACK
6
CONTINUOUS
10
3.01011
20
-6.30765
11
3.0099
21
-6.30755
0
LINE
8
BLACK
6
CONTINUOUS
10
3.0099
20
-6.30755
11
3.00983
21
-6.30751
0
LINE
8
BLACK
6
CONTINUOUS
10
3.00983
20
-6.30751
11
3.00982
21
-6.30751
0
LINE
8
BLACK
6
CONTINUOUS
10
3.00982
20
-6.30751
11
3.00973
21
-6.30747
0
LINE
8
BLACK
6
CONTINUOUS
10
3.00973
20
-6.30747
11
3.00966
21
-6.30741
0
LINE
8
BLACK
6
CONTINUOUS
10
3.00966
20
-6.30741
11
2.95526
21
-6.27694
0
LINE
8
BLACK
6
CONTINUOUS
10
2.95526
20
-6.27694
11
2.95507
21
-6.27684
0
LINE
8
BLACK
6
CONTINUOUS
10
2.95507
20
-6.27684
11
2.95501
21
-6.27681
0
LINE
8
BLACK
6
CONTINUOUS
10
2.95501
20
-6.27681
11
2.95501
21
-6.27681
0
LINE
8
BLACK
6
CONTINUOUS
10
2.95501
20
-6.27681
11
2.95492
21
-6.27676
0
LINE
8
BLACK
6
CONTINUOUS
10
2.95492
20
-6.27676
11
2.95486
21
-6.27671
0
LINE
8
BLACK
6
CONTINUOUS
10
2.95486
20
-6.27671
11
2.95486
21
-6.27671
0
LINE
8
BLACK
6
CONTINUOUS
10
2.95486
20
-6.27671
11
2.95479
21
-6.27666
0
LINE
8
BLACK
6
CONTINUOUS
10
2.95479
20
-6.27666
11
2.95473
21
-6.27662
0
LINE
8
BLACK
6
CONTINUOUS
10
2.95473
20
-6.27662
11
2.95472
21
-6.27661
0
LINE
8
BLACK
6
CONTINUOUS
10
2.95472
20
-6.27661
11
2.9037
21
-6.24094
0
LINE
8
BLACK
6
CONTINUOUS
10
2.9037
20
-6.24094
11
2.90347
21
-6.24082
0
LINE
8
BLACK
6
CONTINUOUS
10
2.90347
20
-6.24082
11
2.90317
21
-6.24057
0
LINE
8
BLACK
6
CONTINUOUS
10
2.90317
20
-6.24057
11
2.90311
21
-6.2405
0
LINE
8
BLACK
6
CONTINUOUS
10
2.90311
20
-6.2405
11
2.85588
21
-6.19996
0
LINE
8
BLACK
6
CONTINUOUS
10
2.85588
20
-6.19996
11
2.85579
21
-6.19991
0
LINE
8
BLACK
6
CONTINUOUS
10
2.85579
20
-6.19991
11
2.85549
21
-6.19967
0
LINE
8
BLACK
6
CONTINUOUS
10
2.85549
20
-6.19967
11
2.85543
21
-6.19959
0
LINE
8
BLACK
6
CONTINUOUS
10
2.85543
20
-6.19959
11
2.85541
21
-6.19958
0
LINE
8
BLACK
6
CONTINUOUS
10
2.85541
20
-6.19958
11
2.85536
21
-6.19952
0
LINE
8
BLACK
6
CONTINUOUS
10
2.85536
20
-6.19952
11
2.85531
21
-6.19947
0
LINE
8
BLACK
6
CONTINUOUS
10
2.85531
20
-6.19947
11
2.8553
21
-6.19946
0
LINE
8
BLACK
6
CONTINUOUS
10
2.8553
20
-6.19946
11
2.8122
21
-6.15428
0
LINE
8
BLACK
6
CONTINUOUS
10
2.8122
20
-6.15428
11
2.81214
21
-6.15423
0
LINE
8
BLACK
6
CONTINUOUS
10
2.81214
20
-6.15423
11
2.8121
21
-6.15418
0
LINE
8
BLACK
6
CONTINUOUS
10
2.8121
20
-6.15418
11
2.81208
21
-6.15416
0
LINE
8
BLACK
6
CONTINUOUS
10
2.81208
20
-6.15416
11
2.81203
21
-6.15412
0
LINE
8
BLACK
6
CONTINUOUS
10
2.81203
20
-6.15412
11
2.81195
21
-6.15402
0
LINE
8
BLACK
6
CONTINUOUS
10
2.81195
20
-6.15402
11
2.81193
21
-6.154
0
LINE
8
BLACK
6
CONTINUOUS
10
2.81193
20
-6.154
11
2.81189
21
-6.15395
0
LINE
8
BLACK
6
CONTINUOUS
10
2.81189
20
-6.15395
11
2.81178
21
-6.15382
0
LINE
8
BLACK
6
CONTINUOUS
10
2.81178
20
-6.15382
11
2.81177
21
-6.15379
0
LINE
8
BLACK
6
CONTINUOUS
10
2.81177
20
-6.15379
11
2.77345
21
-6.10466
0
LINE
8
BLACK
6
CONTINUOUS
10
2.77345
20
-6.10466
11
2.77343
21
-6.10464
0
LINE
8
BLACK
6
CONTINUOUS
10
2.77343
20
-6.10464
11
2.77338
21
-6.10459
0
LINE
8
BLACK
6
CONTINUOUS
10
2.77338
20
-6.10459
11
2.77337
21
-6.10457
0
LINE
8
BLACK
6
CONTINUOUS
10
2.77337
20
-6.10457
11
2.77328
21
-6.10448
0
LINE
8
BLACK
6
CONTINUOUS
10
2.77328
20
-6.10448
11
2.77324
21
-6.10442
0
LINE
8
BLACK
6
CONTINUOUS
10
2.77324
20
-6.10442
11
2.7732
21
-6.10437
0
LINE
8
BLACK
6
CONTINUOUS
10
2.7732
20
-6.10437
11
2.77314
21
-6.10426
0
LINE
8
BLACK
6
CONTINUOUS
10
2.77314
20
-6.10426
11
2.77312
21
-6.10423
0
LINE
8
BLACK
6
CONTINUOUS
10
2.77312
20
-6.10423
11
2.77309
21
-6.10417
0
LINE
8
BLACK
6
CONTINUOUS
10
2.77309
20
-6.10417
11
2.77308
21
-6.10415
0
LINE
8
BLACK
6
CONTINUOUS
10
2.77308
20
-6.10415
11
2.7398
21
-6.05143
0
LINE
8
BLACK
6
CONTINUOUS
10
2.7398
20
-6.05143
11
2.73969
21
-6.0513
0
LINE
8
BLACK
6
CONTINUOUS
10
2.73969
20
-6.0513
11
2.73951
21
-6.05095
0
LINE
8
BLACK
6
CONTINUOUS
10
2.73951
20
-6.05095
11
2.7395
21
-6.05093
0
LINE
8
BLACK
6
CONTINUOUS
10
2.7395
20
-6.05093
11
2.73943
21
-6.05079
0
LINE
8
BLACK
6
CONTINUOUS
10
2.73943
20
-6.05079
11
2.73942
21
-6.05077
0
LINE
8
BLACK
6
CONTINUOUS
10
2.73942
20
-6.05077
11
2.71153
21
-5.99499
0
LINE
8
BLACK
6
CONTINUOUS
10
2.71153
20
-5.99499
11
2.71151
21
-5.99496
0
LINE
8
BLACK
6
CONTINUOUS
10
2.71151
20
-5.99496
11
2.71147
21
-5.99487
0
LINE
8
BLACK
6
CONTINUOUS
10
2.71147
20
-5.99487
11
2.71144
21
-5.99481
0
LINE
8
BLACK
6
CONTINUOUS
10
2.71144
20
-5.99481
11
2.71144
21
-5.9948
0
LINE
8
BLACK
6
CONTINUOUS
10
2.71144
20
-5.9948
11
2.7114
21
-5.99473
0
LINE
8
BLACK
6
CONTINUOUS
10
2.7114
20
-5.99473
11
2.71135
21
-5.99458
0
LINE
8
BLACK
6
CONTINUOUS
10
2.71135
20
-5.99458
11
2.71133
21
-5.99452
0
LINE
8
BLACK
6
CONTINUOUS
10
2.71133
20
-5.99452
11
2.68911
21
-5.93617
0
LINE
8
BLACK
6
CONTINUOUS
10
2.68911
20
-5.93617
11
2.68908
21
-5.93611
0
LINE
8
BLACK
6
CONTINUOUS
10
2.68908
20
-5.93611
11
2.68907
21
-5.9361
0
LINE
8
BLACK
6
CONTINUOUS
10
2.68907
20
-5.9361
11
2.68904
21
-5.93603
0
LINE
8
BLACK
6
CONTINUOUS
10
2.68904
20
-5.93603
11
2.68899
21
-5.93587
0
LINE
8
BLACK
6
CONTINUOUS
10
2.68899
20
-5.93587
11
2.68897
21
-5.93582
0
LINE
8
BLACK
6
CONTINUOUS
10
2.68897
20
-5.93582
11
2.68895
21
-5.93577
0
LINE
8
BLACK
6
CONTINUOUS
10
2.68895
20
-5.93577
11
2.68894
21
-5.93573
0
LINE
8
BLACK
6
CONTINUOUS
10
2.68894
20
-5.93573
11
2.68893
21
-5.93569
0
LINE
8
BLACK
6
CONTINUOUS
10
2.68893
20
-5.93569
11
2.68892
21
-5.93563
0
LINE
8
BLACK
6
CONTINUOUS
10
2.68892
20
-5.93563
11
2.67256
21
-5.87527
0
LINE
8
BLACK
6
CONTINUOUS
10
2.67256
20
-5.87527
11
2.67251
21
-5.87511
0
LINE
8
BLACK
6
CONTINUOUS
10
2.67251
20
-5.87511
11
2.6725
21
-5.875
0
LINE
8
BLACK
6
CONTINUOUS
10
2.6725
20
-5.875
11
2.67248
21
-5.87495
0
LINE
8
BLACK
6
CONTINUOUS
10
2.67248
20
-5.87495
11
2.67248
21
-5.87491
0
LINE
8
BLACK
6
CONTINUOUS
10
2.67248
20
-5.87491
11
2.67245
21
-5.87477
0
LINE
8
BLACK
6
CONTINUOUS
10
2.67245
20
-5.87477
11
2.67245
21
-5.87472
0
LINE
8
BLACK
6
CONTINUOUS
10
2.67245
20
-5.87472
11
2.66221
21
-5.81321
0
LINE
8
BLACK
6
CONTINUOUS
10
2.66221
20
-5.81321
11
2.66219
21
-5.81314
0
LINE
8
BLACK
6
CONTINUOUS
10
2.66219
20
-5.81314
11
2.66219
21
-5.81308
0
LINE
8
BLACK
6
CONTINUOUS
10
2.66219
20
-5.81308
11
2.66218
21
-5.81307
0
LINE
8
BLACK
6
CONTINUOUS
10
2.66218
20
-5.81307
11
2.66217
21
-5.81301
0
LINE
8
BLACK
6
CONTINUOUS
10
2.66217
20
-5.81301
11
2.66215
21
-5.81294
0
LINE
8
BLACK
6
CONTINUOUS
10
2.66215
20
-5.81294
11
2.66215
21
-5.81287
0
LINE
8
BLACK
6
CONTINUOUS
10
2.66215
20
-5.81287
11
2.66213
21
-5.81281
0
LINE
8
BLACK
6
CONTINUOUS
10
2.66213
20
-5.81281
11
2.66213
21
-5.81268
0
LINE
8
BLACK
6
CONTINUOUS
10
2.66213
20
-5.81268
11
2.66212
21
-5.81256
0
LINE
8
BLACK
6
CONTINUOUS
10
2.66212
20
-5.81256
11
2.66212
21
-5.81253
0
LINE
8
BLACK
6
CONTINUOUS
10
2.66212
20
-5.81253
11
2.65804
21
-5.75024
0
LINE
8
BLACK
6
CONTINUOUS
10
2.65804
20
-5.75024
11
2.65803
21
-5.75018
0
LINE
8
BLACK
6
CONTINUOUS
10
2.65803
20
-5.75018
11
2.65803
21
-5.75014
0
LINE
8
BLACK
6
CONTINUOUS
10
2.65803
20
-5.75014
11
2.65803
21
-5.75011
0
LINE
8
BLACK
6
CONTINUOUS
10
2.65803
20
-5.75011
11
2.65803
21
-5.75008
0
LINE
8
BLACK
6
CONTINUOUS
10
2.65803
20
-5.75008
11
2.65802
21
-5.75
0
LINE
8
BLACK
6
CONTINUOUS
10
2.65802
20
-5.75
11
2.65803
21
-5.7499
0
LINE
8
BLACK
6
CONTINUOUS
10
2.65803
20
-5.7499
11
2.65803
21
-5.74986
0
LINE
8
BLACK
6
CONTINUOUS
10
2.65803
20
-5.74986
11
2.65803
21
-5.74986
0
LINE
8
BLACK
6
CONTINUOUS
10
2.65803
20
-5.74986
11
2.65803
21
-1.52369
0
LINE
8
BLACK
6
CONTINUOUS
10
2.65803
20
-1.52369
11
2.65803
21
-1.52367
0
LINE
8
BLACK
6
CONTINUOUS
10
2.65803
20
-1.52367
11
2.65803
21
-1.5236
0
LINE
8
BLACK
6
CONTINUOUS
10
2.65803
20
-1.5236
11
2.65803
21
-1.52352
0
LINE
8
BLACK
6
CONTINUOUS
10
2.65803
20
-1.52352
11
2.65803
21
-1.5235
0
LINE
8
BLACK
6
CONTINUOUS
10
2.65803
20
-1.5235
11
2.6585
21
-1.5017
0
LINE
8
BLACK
6
CONTINUOUS
10
2.6585
20
-1.5017
11
2.6585
21
-1.50166
0
LINE
8
BLACK
6
CONTINUOUS
10
2.6585
20
-1.50166
11
2.6585
21
-1.5016
0
LINE
8
BLACK
6
CONTINUOUS
10
2.6585
20
-1.5016
11
2.6585
21
-1.50157
0
LINE
8
BLACK
6
CONTINUOUS
10
2.6585
20
-1.50157
11
2.6585
21
-1.50153
0
LINE
8
BLACK
6
CONTINUOUS
10
2.6585
20
-1.50153
11
2.65851
21
-1.50147
0
LINE
8
BLACK
6
CONTINUOUS
10
2.65851
20
-1.50147
11
2.65992
21
-1.48014
0
LINE
8
BLACK
6
CONTINUOUS
10
2.65992
20
-1.48014
11
2.65992
21
-1.4801
0
LINE
8
BLACK
6
CONTINUOUS
10
2.65992
20
-1.4801
11
2.65992
21
-1.48002
0
LINE
8
BLACK
6
CONTINUOUS
10
2.65992
20
-1.48002
11
2.65992
21
-1.48001
0
LINE
8
BLACK
6
CONTINUOUS
10
2.65992
20
-1.48001
11
2.65992
21
-1.47999
0
LINE
8
BLACK
6
CONTINUOUS
10
2.65992
20
-1.47999
11
2.65993
21
-1.47991
0
LINE
8
BLACK
6
CONTINUOUS
10
2.65993
20
-1.47991
11
2.65995
21
-1.47973
0
LINE
8
BLACK
6
CONTINUOUS
10
2.65995
20
-1.47973
11
2.65995
21
-1.47972
0
LINE
8
BLACK
6
CONTINUOUS
10
2.65995
20
-1.47972
11
2.66224
21
-1.45911
0
LINE
8
BLACK
6
CONTINUOUS
10
2.66224
20
-1.45911
11
2.66224
21
-1.45902
0
LINE
8
BLACK
6
CONTINUOUS
10
2.66224
20
-1.45902
11
2.66224
21
-1.45899
0
LINE
8
BLACK
6
CONTINUOUS
10
2.66224
20
-1.45899
11
2.66225
21
-1.45893
0
LINE
8
BLACK
6
CONTINUOUS
10
2.66225
20
-1.45893
11
2.66225
21
-1.45887
0
LINE
8
BLACK
6
CONTINUOUS
10
2.66225
20
-1.45887
11
2.66226
21
-1.45883
0
LINE
8
BLACK
6
CONTINUOUS
10
2.66226
20
-1.45883
11
2.66227
21
-1.4587
0
LINE
8
BLACK
6
CONTINUOUS
10
2.66227
20
-1.4587
11
2.66229
21
-1.45864
0
LINE
8
BLACK
6
CONTINUOUS
10
2.66229
20
-1.45864
11
2.6655
21
-1.43854
0
LINE
8
BLACK
6
CONTINUOUS
10
2.6655
20
-1.43854
11
2.6655
21
-1.43854
0
LINE
8
BLACK
6
CONTINUOUS
10
2.6655
20
-1.43854
11
2.66552
21
-1.43835
0
LINE
8
BLACK
6
CONTINUOUS
10
2.66552
20
-1.43835
11
2.66554
21
-1.43817
0
LINE
8
BLACK
6
CONTINUOUS
10
2.66554
20
-1.43817
11
2.66557
21
-1.43807
0
LINE
8
BLACK
6
CONTINUOUS
10
2.66557
20
-1.43807
11
2.66968
21
-1.41845
0
LINE
8
BLACK
6
CONTINUOUS
10
2.66968
20
-1.41845
11
2.66968
21
-1.41843
0
LINE
8
BLACK
6
CONTINUOUS
10
2.66968
20
-1.41843
11
2.6697
21
-1.41829
0
LINE
8
BLACK
6
CONTINUOUS
10
2.6697
20
-1.41829
11
2.66971
21
-1.41816
0
LINE
8
BLACK
6
CONTINUOUS
10
2.66971
20
-1.41816
11
2.66976
21
-1.41801
0
LINE
8
BLACK
6
CONTINUOUS
10
2.66976
20
-1.41801
11
2.67474
21
-1.39883
0
LINE
8
BLACK
6
CONTINUOUS
10
2.67474
20
-1.39883
11
2.67475
21
-1.39874
0
LINE
8
BLACK
6
CONTINUOUS
10
2.67475
20
-1.39874
11
2.67477
21
-1.39869
0
LINE
8
BLACK
6
CONTINUOUS
10
2.67477
20
-1.39869
11
2.67478
21
-1.39863
0
LINE
8
BLACK
6
CONTINUOUS
10
2.67478
20
-1.39863
11
2.67482
21
-1.3985
0
LINE
8
BLACK
6
CONTINUOUS
10
2.67482
20
-1.3985
11
2.67487
21
-1.39837
0
LINE
8
BLACK
6
CONTINUOUS
10
2.67487
20
-1.39837
11
2.67489
21
-1.39832
0
LINE
8
BLACK
6
CONTINUOUS
10
2.67489
20
-1.39832
11
2.67491
21
-1.39827
0
LINE
8
BLACK
6
CONTINUOUS
10
2.67491
20
-1.39827
11
2.67493
21
-1.39824
0
LINE
8
BLACK
6
CONTINUOUS
10
2.67493
20
-1.39824
11
2.68069
21
-1.37985
0
LINE
8
BLACK
6
CONTINUOUS
10
2.68069
20
-1.37985
11
2.6807
21
-1.3798
0
LINE
8
BLACK
6
CONTINUOUS
10
2.6807
20
-1.3798
11
2.68071
21
-1.37975
0
LINE
8
BLACK
6
CONTINUOUS
10
2.68071
20
-1.37975
11
2.68072
21
-1.3797
0
LINE
8
BLACK
6
CONTINUOUS
10
2.68072
20
-1.3797
11
2.68077
21
-1.37957
0
LINE
8
BLACK
6
CONTINUOUS
10
2.68077
20
-1.37957
11
2.68081
21
-1.37943
0
LINE
8
BLACK
6
CONTINUOUS
10
2.68081
20
-1.37943
11
2.68084
21
-1.37939
0
LINE
8
BLACK
6
CONTINUOUS
10
2.68084
20
-1.37939
11
2.68085
21
-1.37934
0
LINE
8
BLACK
6
CONTINUOUS
10
2.68085
20
-1.37934
11
2.6809
21
-1.37926
0
LINE
8
BLACK
6
CONTINUOUS
10
2.6809
20
-1.37926
11
2.68755
21
-1.3613
0
LINE
8
BLACK
6
CONTINUOUS
10
2.68755
20
-1.3613
11
2.68756
21
-1.36125
0
LINE
8
BLACK
6
CONTINUOUS
10
2.68756
20
-1.36125
11
2.68762
21
-1.36112
0
LINE
8
BLACK
6
CONTINUOUS
10
2.68762
20
-1.36112
11
2.68764
21
-1.36108
0
LINE
8
BLACK
6
CONTINUOUS
10
2.68764
20
-1.36108
11
2.68764
21
-1.36107
0
LINE
8
BLACK
6
CONTINUOUS
10
2.68764
20
-1.36107
11
2.68766
21
-1.361
0
LINE
8
BLACK
6
CONTINUOUS
10
2.68766
20
-1.361
11
2.68771
21
-1.3609
0
LINE
8
BLACK
6
CONTINUOUS
10
2.68771
20
-1.3609
11
2.69524
21
-1.34355
0
LINE
8
BLACK
6
CONTINUOUS
10
2.69524
20
-1.34355
11
2.69525
21
-1.3435
0
LINE
8
BLACK
6
CONTINUOUS
10
2.69525
20
-1.3435
11
2.6953
21
-1.34337
0
LINE
8
BLACK
6
CONTINUOUS
10
2.6953
20
-1.34337
11
2.69534
21
-1.34323
0
LINE
8
BLACK
6
CONTINUOUS
10
2.69534
20
-1.34323
11
2.69536
21
-1.34318
0
LINE
8
BLACK
6
CONTINUOUS
10
2.69536
20
-1.34318
11
2.69538
21
-1.34314
0
LINE
8
BLACK
6
CONTINUOUS
10
2.69538
20
-1.34314
11
2.69545
21
-1.34301
0
LINE
8
BLACK
6
CONTINUOUS
10
2.69545
20
-1.34301
11
2.69552
21
-1.34289
0
LINE
8
BLACK
6
CONTINUOUS
10
2.69552
20
-1.34289
11
2.69555
21
-1.34285
0
LINE
8
BLACK
6
CONTINUOUS
10
2.69555
20
-1.34285
11
2.69558
21
-1.34281
0
LINE
8
BLACK
6
CONTINUOUS
10
2.69558
20
-1.34281
11
2.69558
21
-1.3428
0
LINE
8
BLACK
6
CONTINUOUS
10
2.69558
20
-1.3428
11
2.7038
21
-1.32626
0
LINE
8
BLACK
6
CONTINUOUS
10
2.7038
20
-1.32626
11
2.70384
21
-1.32616
0
LINE
8
BLACK
6
CONTINUOUS
10
2.70384
20
-1.32616
11
2.70388
21
-1.32602
0
LINE
8
BLACK
6
CONTINUOUS
10
2.70388
20
-1.32602
11
2.7039
21
-1.32598
0
LINE
8
BLACK
6
CONTINUOUS
10
2.7039
20
-1.32598
11
2.70392
21
-1.32593
0
LINE
8
BLACK
6
CONTINUOUS
10
2.70392
20
-1.32593
11
2.704
21
-1.32581
0
LINE
8
BLACK
6
CONTINUOUS
10
2.704
20
-1.32581
11
2.70406
21
-1.32568
0
LINE
8
BLACK
6
CONTINUOUS
10
2.70406
20
-1.32568
11
2.70409
21
-1.32564
0
LINE
8
BLACK
6
CONTINUOUS
10
2.70409
20
-1.32564
11
2.70412
21
-1.3256
0
LINE
8
BLACK
6
CONTINUOUS
10
2.70412
20
-1.3256
11
2.70417
21
-1.32554
0
LINE
8
BLACK
6
CONTINUOUS
10
2.70417
20
-1.32554
11
2.71324
21
-1.3095
0
LINE
8
BLACK
6
CONTINUOUS
10
2.71324
20
-1.3095
11
2.71325
21
-1.30946
0
LINE
8
BLACK
6
CONTINUOUS
10
2.71325
20
-1.30946
11
2.71328
21
-1.30941
0
LINE
8
BLACK
6
CONTINUOUS
10
2.71328
20
-1.30941
11
2.71329
21
-1.30936
0
LINE
8
BLACK
6
CONTINUOUS
10
2.71329
20
-1.30936
11
2.71337
21
-1.30924
0
LINE
8
BLACK
6
CONTINUOUS
10
2.71337
20
-1.30924
11
2.71343
21
-1.30912
0
LINE
8
BLACK
6
CONTINUOUS
10
2.71343
20
-1.30912
11
2.71346
21
-1.30909
0
LINE
8
BLACK
6
CONTINUOUS
10
2.71346
20
-1.30909
11
2.71347
21
-1.30906
0
LINE
8
BLACK
6
CONTINUOUS
10
2.71347
20
-1.30906
11
2.71349
21
-1.30904
0
LINE
8
BLACK
6
CONTINUOUS
10
2.71349
20
-1.30904
11
2.71349
21
-1.30903
0
LINE
8
BLACK
6
CONTINUOUS
10
2.71349
20
-1.30903
11
2.7135
21
-1.30903
0
LINE
8
BLACK
6
CONTINUOUS
10
2.7135
20
-1.30903
11
2.71352
21
-1.309
0
LINE
8
BLACK
6
CONTINUOUS
10
2.71352
20
-1.309
11
2.72353
21
-1.29335
0
LINE
8
BLACK
6
CONTINUOUS
10
2.72353
20
-1.29335
11
2.72354
21
-1.29332
0
LINE
8
BLACK
6
CONTINUOUS
10
2.72354
20
-1.29332
11
2.72363
21
-1.29319
0
LINE
8
BLACK
6
CONTINUOUS
10
2.72363
20
-1.29319
11
2.72367
21
-1.29313
0
LINE
8
BLACK
6
CONTINUOUS
10
2.72367
20
-1.29313
11
2.72369
21
-1.2931
0
LINE
8
BLACK
6
CONTINUOUS
10
2.72369
20
-1.2931
11
2.72376
21
-1.293
0
LINE
8
BLACK
6
CONTINUOUS
10
2.72376
20
-1.293
11
2.72381
21
-1.29295
0
LINE
8
BLACK
6
CONTINUOUS
10
2.72381
20
-1.29295
11
2.72385
21
-1.2929
0
LINE
8
BLACK
6
CONTINUOUS
10
2.72385
20
-1.2929
11
2.72385
21
-1.2929
0
LINE
8
BLACK
6
CONTINUOUS
10
2.72385
20
-1.2929
11
2.73458
21
-1.278
0
LINE
8
BLACK
6
CONTINUOUS
10
2.73458
20
-1.278
11
2.73461
21
-1.27794
0
LINE
8
BLACK
6
CONTINUOUS
10
2.73461
20
-1.27794
11
2.73465
21
-1.27787
0
LINE
8
BLACK
6
CONTINUOUS
10
2.73465
20
-1.27787
11
2.73469
21
-1.2778
0
LINE
8
BLACK
6
CONTINUOUS
10
2.73469
20
-1.2778
11
2.73472
21
-1.27776
0
LINE
8
BLACK
6
CONTINUOUS
10
2.73472
20
-1.27776
11
2.73473
21
-1.27774
0
LINE
8
BLACK
6
CONTINUOUS
10
2.73473
20
-1.27774
11
2.73479
21
-1.27767
0
LINE
8
BLACK
6
CONTINUOUS
10
2.73479
20
-1.27767
11
2.73483
21
-1.27762
0
LINE
8
BLACK
6
CONTINUOUS
10
2.73483
20
-1.27762
11
2.73486
21
-1.27759
0
LINE
8
BLACK
6
CONTINUOUS
10
2.73486
20
-1.27759
11
2.74647
21
-1.26324
0
LINE
8
BLACK
6
CONTINUOUS
10
2.74647
20
-1.26324
11
2.7465
21
-1.26318
0
LINE
8
BLACK
6
CONTINUOUS
10
2.7465
20
-1.26318
11
2.74654
21
-1.26311
0
LINE
8
BLACK
6
CONTINUOUS
10
2.74654
20
-1.26311
11
2.74661
21
-1.26303
0
LINE
8
BLACK
6
CONTINUOUS
10
2.74661
20
-1.26303
11
2.74668
21
-1.26293
0
LINE
8
BLACK
6
CONTINUOUS
10
2.74668
20
-1.26293
11
2.74674
21
-1.26288
0
LINE
8
BLACK
6
CONTINUOUS
10
2.74674
20
-1.26288
11
2.74679
21
-1.26281
0
LINE
8
BLACK
6
CONTINUOUS
10
2.74679
20
-1.26281
11
2.74688
21
-1.26274
0
LINE
8
BLACK
6
CONTINUOUS
10
2.74688
20
-1.26274
11
2.74688
21
-1.26273
0
LINE
8
BLACK
6
CONTINUOUS
10
2.74688
20
-1.26273
11
2.74693
21
-1.26269
0
LINE
8
BLACK
6
CONTINUOUS
10
2.74693
20
-1.26269
11
2.74697
21
-1.26266
0
LINE
8
BLACK
6
CONTINUOUS
10
2.74697
20
-1.26266
11
2.75923
21
-1.24904
0
LINE
8
BLACK
6
CONTINUOUS
10
2.75923
20
-1.24904
11
2.7593
21
-1.24896
0
LINE
8
BLACK
6
CONTINUOUS
10
2.7593
20
-1.24896
11
2.75937
21
-1.24886
0
LINE
8
BLACK
6
CONTINUOUS
10
2.75937
20
-1.24886
11
2.75942
21
-1.24881
0
LINE
8
BLACK
6
CONTINUOUS
10
2.75942
20
-1.24881
11
2.75947
21
-1.24876
0
LINE
8
BLACK
6
CONTINUOUS
10
2.75947
20
-1.24876
11
2.75956
21
-1.24868
0
LINE
8
BLACK
6
CONTINUOUS
10
2.75956
20
-1.24868
11
2.75965
21
-1.24859
0
LINE
8
BLACK
6
CONTINUOUS
10
2.75965
20
-1.24859
11
2.75969
21
-1.24857
0
LINE
8
BLACK
6
CONTINUOUS
10
2.75969
20
-1.24857
11
2.77278
21
-1.23556
0
LINE
8
BLACK
6
CONTINUOUS
10
2.77278
20
-1.23556
11
2.77282
21
-1.23551
0
LINE
8
BLACK
6
CONTINUOUS
10
2.77282
20
-1.23551
11
2.7729
21
-1.23544
0
LINE
8
BLACK
6
CONTINUOUS
10
2.7729
20
-1.23544
11
2.77293
21
-1.2354
0
LINE
8
BLACK
6
CONTINUOUS
10
2.77293
20
-1.2354
11
2.77305
21
-1.2353
0
LINE
8
BLACK
6
CONTINUOUS
10
2.77305
20
-1.2353
11
2.78708
21
-1.22282
0
LINE
8
BLACK
6
CONTINUOUS
10
2.78708
20
-1.22282
11
2.78714
21
-1.22276
0
LINE
8
BLACK
6
CONTINUOUS
10
2.78714
20
-1.22276
11
2.78722
21
-1.2227
0
LINE
8
BLACK
6
CONTINUOUS
10
2.78722
20
-1.2227
11
2.78723
21
-1.22269
0
LINE
8
BLACK
6
CONTINUOUS
10
2.78723
20
-1.22269
11
2.78723
21
-1.22269
0
LINE
8
BLACK
6
CONTINUOUS
10
2.78723
20
-1.22269
11
2.78724
21
-1.22268
0
LINE
8
BLACK
6
CONTINUOUS
10
2.78724
20
-1.22268
11
2.78731
21
-1.22263
0
LINE
8
BLACK
6
CONTINUOUS
10
2.78731
20
-1.22263
11
2.78744
21
-1.22251
0
LINE
8
BLACK
6
CONTINUOUS
10
2.78744
20
-1.22251
11
2.78746
21
-1.22251
0
LINE
8
BLACK
6
CONTINUOUS
10
2.78746
20
-1.22251
11
2.80208
21
-1.21088
0
LINE
8
BLACK
6
CONTINUOUS
10
2.80208
20
-1.21088
11
2.80211
21
-1.21085
0
LINE
8
BLACK
6
CONTINUOUS
10
2.80211
20
-1.21085
11
2.80211
21
-1.21084
0
LINE
8
BLACK
6
CONTINUOUS
10
2.80211
20
-1.21084
11
2.80212
21
-1.21083
0
LINE
8
BLACK
6
CONTINUOUS
10
2.80212
20
-1.21083
11
2.80226
21
-1.21072
0
LINE
8
BLACK
6
CONTINUOUS
10
2.80226
20
-1.21072
11
2.80241
21
-1.2106
0
LINE
8
BLACK
6
CONTINUOUS
10
2.80241
20
-1.2106
11
2.80242
21
-1.21059
0
LINE
8
BLACK
6
CONTINUOUS
10
2.80242
20
-1.21059
11
2.80242
21
-1.21059
0
LINE
8
BLACK
6
CONTINUOUS
10
2.80242
20
-1.21059
11
2.80254
21
-1.21053
0
LINE
8
BLACK
6
CONTINUOUS
10
2.80254
20
-1.21053
11
2.81792
21
-1.19956
0
LINE
8
BLACK
6
CONTINUOUS
10
2.81792
20
-1.19956
11
2.81796
21
-1.19952
0
LINE
8
BLACK
6
CONTINUOUS
10
2.81796
20
-1.19952
11
2.81808
21
-1.19945
0
LINE
8
BLACK
6
CONTINUOUS
10
2.81808
20
-1.19945
11
2.81811
21
-1.19942
0
LINE
8
BLACK
6
CONTINUOUS
10
2.81811
20
-1.19942
11
2.81815
21
-1.1994
0
LINE
8
BLACK
6
CONTINUOUS
10
2.81815
20
-1.1994
11
2.81817
21
-1.19938
0
LINE
8
BLACK
6
CONTINUOUS
10
2.81817
20
-1.19938
11
2.81827
21
-1.19933
0
LINE
8
BLACK
6
CONTINUOUS
10
2.81827
20
-1.19933
11
2.81836
21
-1.19928
0
LINE
8
BLACK
6
CONTINUOUS
10
2.81836
20
-1.19928
11
2.81837
21
-1.19928
0
LINE
8
BLACK
6
CONTINUOUS
10
2.81837
20
-1.19928
11
2.83445
21
-1.18905
0
LINE
8
BLACK
6
CONTINUOUS
10
2.83445
20
-1.18905
11
2.83446
21
-1.18905
0
LINE
8
BLACK
6
CONTINUOUS
10
2.83446
20
-1.18905
11
2.83457
21
-1.18898
0
LINE
8
BLACK
6
CONTINUOUS
10
2.83457
20
-1.18898
11
2.83465
21
-1.18891
0
LINE
8
BLACK
6
CONTINUOUS
10
2.83465
20
-1.18891
11
2.8348
21
-1.18883
0
LINE
8
BLACK
6
CONTINUOUS
10
2.8348
20
-1.18883
11
2.85183
21
-1.17923
0
LINE
8
BLACK
6
CONTINUOUS
10
2.85183
20
-1.17923
11
2.85185
21
-1.17921
0
LINE
8
BLACK
6
CONTINUOUS
10
2.85185
20
-1.17921
11
2.8519
21
-1.17918
0
LINE
8
BLACK
6
CONTINUOUS
10
2.8519
20
-1.17918
11
2.85195
21
-1.17915
0
LINE
8
BLACK
6
CONTINUOUS
10
2.85195
20
-1.17915
11
2.85198
21
-1.17914
0
LINE
8
BLACK
6
CONTINUOUS
10
2.85198
20
-1.17914
11
2.85199
21
-1.17913
0
LINE
8
BLACK
6
CONTINUOUS
10
2.85199
20
-1.17913
11
2.85205
21
-1.1791
0
LINE
8
BLACK
6
CONTINUOUS
10
2.85205
20
-1.1791
11
2.8522
21
-1.17902
0
LINE
8
BLACK
6
CONTINUOUS
10
2.8522
20
-1.17902
11
2.85222
21
-1.17901
0
LINE
8
BLACK
6
CONTINUOUS
10
2.85222
20
-1.17901
11
2.8699
21
-1.1702
0
LINE
8
BLACK
6
CONTINUOUS
10
2.8699
20
-1.1702
11
2.86993
21
-1.17018
0
LINE
8
BLACK
6
CONTINUOUS
10
2.86993
20
-1.17018
11
2.86994
21
-1.17018
0
LINE
8
BLACK
6
CONTINUOUS
10
2.86994
20
-1.17018
11
2.86995
21
-1.17017
0
LINE
8
BLACK
6
CONTINUOUS
10
2.86995
20
-1.17017
11
2.86997
21
-1.17016
0
LINE
8
BLACK
6
CONTINUOUS
10
2.86997
20
-1.17016
11
2.86998
21
-1.17016
0
LINE
8
BLACK
6
CONTINUOUS
10
2.86998
20
-1.17016
11
2.87
21
-1.17015
0
LINE
8
BLACK
6
CONTINUOUS
10
2.87
20
-1.17015
11
2.87007
21
-1.17012
0
LINE
8
BLACK
6
CONTINUOUS
10
2.87007
20
-1.17012
11
2.87013
21
-1.1701
0
LINE
8
BLACK
6
CONTINUOUS
10
2.87013
20
-1.1701
11
2.87021
21
-1.17007
0
LINE
8
BLACK
6
CONTINUOUS
10
2.87021
20
-1.17007
11
2.87022
21
-1.17006
0
LINE
8
BLACK
6
CONTINUOUS
10
2.87022
20
-1.17006
11
2.87022
21
-1.17006
0
LINE
8
BLACK
6
CONTINUOUS
10
2.87022
20
-1.17006
11
2.87023
21
-1.17006
0
LINE
8
BLACK
6
CONTINUOUS
10
2.87023
20
-1.17006
11
2.8885
21
-1.16206
0
LINE
8
BLACK
6
CONTINUOUS
10
2.8885
20
-1.16206
11
2.88852
21
-1.16205
0
LINE
8
BLACK
6
CONTINUOUS
10
2.88852
20
-1.16205
11
2.88856
21
-1.16203
0
LINE
8
BLACK
6
CONTINUOUS
10
2.88856
20
-1.16203
11
2.88857
21
-1.16203
0
LINE
8
BLACK
6
CONTINUOUS
10
2.88857
20
-1.16203
11
2.88873
21
-1.16194
0
LINE
8
BLACK
6
CONTINUOUS
10
2.88873
20
-1.16194
11
2.88873
21
-1.16194
0
LINE
8
BLACK
6
CONTINUOUS
10
2.88873
20
-1.16194
11
2.88873
21
-1.16194
0
LINE
8
BLACK
6
CONTINUOUS
10
2.88873
20
-1.16194
11
2.88894
21
-1.16188
0
LINE
8
BLACK
6
CONTINUOUS
10
2.88894
20
-1.16188
11
2.90795
21
-1.15464
0
LINE
8
BLACK
6
CONTINUOUS
10
2.90795
20
-1.15464
11
2.90806
21
-1.15458
0
LINE
8
BLACK
6
CONTINUOUS
10
2.90806
20
-1.15458
11
2.90806
21
-1.15458
0
LINE
8
BLACK
6
CONTINUOUS
10
2.90806
20
-1.15458
11
2.90806
21
-1.15458
0
LINE
8
BLACK
6
CONTINUOUS
10
2.90806
20
-1.15458
11
2.90829
21
-1.15451
0
LINE
8
BLACK
6
CONTINUOUS
10
2.90829
20
-1.15451
11
2.90834
21
-1.1545
0
LINE
8
BLACK
6
CONTINUOUS
10
2.90834
20
-1.1545
11
2.90834
21
-1.1545
0
LINE
8
BLACK
6
CONTINUOUS
10
2.90834
20
-1.1545
11
2.90843
21
-1.15447
0
LINE
8
BLACK
6
CONTINUOUS
10
2.90843
20
-1.15447
11
2.90843
21
-1.15447
0
LINE
8
BLACK
6
CONTINUOUS
10
2.90843
20
-1.15447
11
2.928
21
-1.14807
0
LINE
8
BLACK
6
CONTINUOUS
10
2.928
20
-1.14807
11
2.92802
21
-1.14806
0
LINE
8
BLACK
6
CONTINUOUS
10
2.92802
20
-1.14806
11
2.92808
21
-1.14804
0
LINE
8
BLACK
6
CONTINUOUS
10
2.92808
20
-1.14804
11
2.9281
21
-1.14803
0
LINE
8
BLACK
6
CONTINUOUS
10
2.9281
20
-1.14803
11
2.92822
21
-1.148
0
LINE
8
BLACK
6
CONTINUOUS
10
2.92822
20
-1.148
11
2.92824
21
-1.14799
0
LINE
8
BLACK
6
CONTINUOUS
10
2.92824
20
-1.14799
11
2.92831
21
-1.14797
0
LINE
8
BLACK
6
CONTINUOUS
10
2.92831
20
-1.14797
11
2.92847
21
-1.14792
0
LINE
8
BLACK
6
CONTINUOUS
10
2.92847
20
-1.14792
11
2.9285
21
-1.14792
0
LINE
8
BLACK
6
CONTINUOUS
10
2.9285
20
-1.14792
11
2.9488
21
-1.14231
0
LINE
8
BLACK
6
CONTINUOUS
10
2.9488
20
-1.14231
11
2.94886
21
-1.14229
0
LINE
8
BLACK
6
CONTINUOUS
10
2.94886
20
-1.14229
11
2.94891
21
-1.14227
0
LINE
8
BLACK
6
CONTINUOUS
10
2.94891
20
-1.14227
11
2.94891
21
-1.14227
0
LINE
8
BLACK
6
CONTINUOUS
10
2.94891
20
-1.14227
11
2.94895
21
-1.14225
0
LINE
8
BLACK
6
CONTINUOUS
10
2.94895
20
-1.14225
11
2.94905
21
-1.14223
0
LINE
8
BLACK
6
CONTINUOUS
10
2.94905
20
-1.14223
11
2.94914
21
-1.14221
0
LINE
8
BLACK
6
CONTINUOUS
10
2.94914
20
-1.14221
11
2.94925
21
-1.1422
0
LINE
8
BLACK
6
CONTINUOUS
10
2.94925
20
-1.1422
11
2.97023
21
-1.1374
0
LINE
8
BLACK
6
CONTINUOUS
10
2.97023
20
-1.1374
11
2.97025
21
-1.13739
0
LINE
8
BLACK
6
CONTINUOUS
10
2.97025
20
-1.13739
11
2.97041
21
-1.13736
0
LINE
8
BLACK
6
CONTINUOUS
10
2.97041
20
-1.13736
11
2.97048
21
-1.13734
0
LINE
8
BLACK
6
CONTINUOUS
10
2.97048
20
-1.13734
11
2.97051
21
-1.13734
0
LINE
8
BLACK
6
CONTINUOUS
10
2.97051
20
-1.13734
11
2.97053
21
-1.13733
0
LINE
8
BLACK
6
CONTINUOUS
10
2.97053
20
-1.13733
11
2.97057
21
-1.13733
0
LINE
8
BLACK
6
CONTINUOUS
10
2.97057
20
-1.13733
11
2.97058
21
-1.13733
0
LINE
8
BLACK
6
CONTINUOUS
10
2.97058
20
-1.13733
11
2.97061
21
-1.13732
0
LINE
8
BLACK
6
CONTINUOUS
10
2.97061
20
-1.13732
11
2.97061
21
-1.13732
0
LINE
8
BLACK
6
CONTINUOUS
10
2.97061
20
-1.13732
11
2.97065
21
-1.13731
0
LINE
8
BLACK
6
CONTINUOUS
10
2.97065
20
-1.13731
11
2.97067
21
-1.13731
0
LINE
8
BLACK
6
CONTINUOUS
10
2.97067
20
-1.13731
11
2.99241
21
-1.13334
0
LINE
8
BLACK
6
CONTINUOUS
10
2.99241
20
-1.13334
11
2.99249
21
-1.13332
0
LINE
8
BLACK
6
CONTINUOUS
10
2.99249
20
-1.13332
11
2.99258
21
-1.13331
0
LINE
8
BLACK
6
CONTINUOUS
10
2.99258
20
-1.13331
11
2.99261
21
-1.1333
0
LINE
8
BLACK
6
CONTINUOUS
10
2.99261
20
-1.1333
11
2.99262
21
-1.1333
0
LINE
8
BLACK
6
CONTINUOUS
10
2.99262
20
-1.1333
11
2.99262
21
-1.1333
0
LINE
8
BLACK
6
CONTINUOUS
10
2.99262
20
-1.1333
11
2.99262
21
-1.1333
0
LINE
8
BLACK
6
CONTINUOUS
10
2.99262
20
-1.1333
11
2.99266
21
-1.1333
0
LINE
8
BLACK
6
CONTINUOUS
10
2.99266
20
-1.1333
11
2.99272
21
-1.13329
0
LINE
8
BLACK
6
CONTINUOUS
10
2.99272
20
-1.13329
11
3.01511
21
-1.13017
0
LINE
8
BLACK
6
CONTINUOUS
10
3.01511
20
-1.13017
11
3.01517
21
-1.13015
0
LINE
8
BLACK
6
CONTINUOUS
10
3.01517
20
-1.13015
11
3.0153
21
-1.13014
0
LINE
8
BLACK
6
CONTINUOUS
10
3.0153
20
-1.13014
11
3.0153
21
-1.13014
0
LINE
8
BLACK
6
CONTINUOUS
10
3.0153
20
-1.13014
11
3.01539
21
-1.13013
0
LINE
8
BLACK
6
CONTINUOUS
10
3.01539
20
-1.13013
11
3.01549
21
-1.13012
0
LINE
8
BLACK
6
CONTINUOUS
10
3.01549
20
-1.13012
11
3.01549
21
-1.13012
0
LINE
8
BLACK
6
CONTINUOUS
10
3.01549
20
-1.13012
11
3.01555
21
-1.13012
0
LINE
8
BLACK
6
CONTINUOUS
10
3.01555
20
-1.13012
11
3.01555
21
-1.13012
0
LINE
8
BLACK
6
CONTINUOUS
10
3.01555
20
-1.13012
11
3.03847
21
-1.12788
0
LINE
8
BLACK
6
CONTINUOUS
10
3.03847
20
-1.12788
11
3.03861
21
-1.12787
0
LINE
8
BLACK
6
CONTINUOUS
10
3.03861
20
-1.12787
11
3.03865
21
-1.12786
0
LINE
8
BLACK
6
CONTINUOUS
10
3.03865
20
-1.12786
11
3.0387
21
-1.12786
0
LINE
8
BLACK
6
CONTINUOUS
10
3.0387
20
-1.12786
11
3.03886
21
-1.12784
0
LINE
8
BLACK
6
CONTINUOUS
10
3.03886
20
-1.12784
11
3.0389
21
-1.12785
0
LINE
8
BLACK
6
CONTINUOUS
10
3.0389
20
-1.12785
11
3.06256
21
-1.12649
0
LINE
8
BLACK
6
CONTINUOUS
10
3.06256
20
-1.12649
11
3.06272
21
-1.12647
0
LINE
8
BLACK
6
CONTINUOUS
10
3.06272
20
-1.12647
11
3.0628
21
-1.12648
0
LINE
8
BLACK
6
CONTINUOUS
10
3.0628
20
-1.12648
11
3.08709
21
-1.12603
0
LINE
8
BLACK
6
CONTINUOUS
10
3.08709
20
-1.12603
11
3.08711
21
-1.12602
0
LINE
8
BLACK
6
CONTINUOUS
10
3.08711
20
-1.12602
11
3.08719
21
-1.12602
0
LINE
8
BLACK
6
CONTINUOUS
10
3.08719
20
-1.12602
11
3.08726
21
-1.12602
0
LINE
8
BLACK
6
CONTINUOUS
10
3.08726
20
-1.12602
11
3.08728
21
-1.12602
0
LINE
8
BLACK
6
CONTINUOUS
10
3.08728
20
-1.12602
11
9.13475
21
-1.12602
0
LINE
8
BLACK
6
CONTINUOUS
10
9.13475
20
-1.12602
11
9.13477
21
-1.12602
0
LINE
8
BLACK
6
CONTINUOUS
10
3.33368
20
-6.36757
11
3.31505
21
-6.36919
0
LINE
8
BLACK
6
CONTINUOUS
10
3.31505
20
-6.36919
11
3.31505
21
-6.36919
0
LINE
8
BLACK
6
CONTINUOUS
10
3.31505
20
-6.36919
11
3.3149
21
-6.3692
0
LINE
8
BLACK
6
CONTINUOUS
10
3.3149
20
-6.3692
11
3.31477
21
-6.36921
0
LINE
8
BLACK
6
CONTINUOUS
10
3.31477
20
-6.36921
11
3.31484
21
-6.36921
0
LINE
8
BLACK
6
CONTINUOUS
10
3.31484
20
-6.36921
11
3.33368
21
-6.36757
0
LINE
8
BLACK
6
CONTINUOUS
10
3.25236
20
-6.36843
11
3.29542
21
-6.36897
0
LINE
8
BLACK
6
CONTINUOUS
10
3.29542
20
-6.36897
11
3.25245
21
-6.36843
0
LINE
8
BLACK
6
CONTINUOUS
10
3.25245
20
-6.36843
11
3.25245
21
-6.36843
0
LINE
8
BLACK
6
CONTINUOUS
10
3.25245
20
-6.36843
11
3.25235
21
-6.36843
0
LINE
8
BLACK
6
CONTINUOUS
10
3.25235
20
-6.36843
11
3.25236
21
-6.36843
0
LINE
8
BLACK
6
CONTINUOUS
10
8.78268
20
-3.69973
11
8.78297
21
-3.68267
0
LINE
8
BLACK
6
CONTINUOUS
10
8.78297
20
-3.68267
11
8.78297
21
-3.68264
0
LINE
8
BLACK
6
CONTINUOUS
10
8.78297
20
-3.68264
11
8.78297
21
-3.68262
0
LINE
8
BLACK
6
CONTINUOUS
10
8.78297
20
-3.68262
11
8.78297
21
-3.68258
0
LINE
8
BLACK
6
CONTINUOUS
10
8.78297
20
-3.68258
11
8.78297
21
-3.68253
0
LINE
8
BLACK
6
CONTINUOUS
10
8.78297
20
-3.68253
11
8.78297
21
-3.68247
0
LINE
8
BLACK
6
CONTINUOUS
10
8.78297
20
-3.68247
11
8.78298
21
-3.68237
0
LINE
8
BLACK
6
CONTINUOUS
10
8.78298
20
-3.68237
11
8.78298
21
-3.68235
0
LINE
8
BLACK
6
CONTINUOUS
10
8.78298
20
-3.68235
11
8.78299
21
-3.68232
0
LINE
8
BLACK
6
CONTINUOUS
10
8.78299
20
-3.68232
11
8.78385
21
-3.66615
0
LINE
8
BLACK
6
CONTINUOUS
10
8.78385
20
-3.66615
11
8.78385
21
-3.66614
0
LINE
8
BLACK
6
CONTINUOUS
10
8.78385
20
-3.66614
11
8.78386
21
-3.66596
0
LINE
8
BLACK
6
CONTINUOUS
10
8.78386
20
-3.66596
11
8.78386
21
-3.66595
0
LINE
8
BLACK
6
CONTINUOUS
10
8.78386
20
-3.66595
11
8.78386
21
-3.66591
0
LINE
8
BLACK
6
CONTINUOUS
10
8.78386
20
-3.66591
11
8.78386
21
-3.66591
0
LINE
8
BLACK
6
CONTINUOUS
10
8.78386
20
-3.66591
11
8.78386
21
-3.6659
0
LINE
8
BLACK
6
CONTINUOUS
10
8.78386
20
-3.6659
11
8.78387
21
-3.66581
0
LINE
8
BLACK
6
CONTINUOUS
10
8.78387
20
-3.66581
11
8.7853
21
-3.65038
0
LINE
8
BLACK
6
CONTINUOUS
10
8.7853
20
-3.65038
11
8.7853
21
-3.65029
0
LINE
8
BLACK
6
CONTINUOUS
10
8.7853
20
-3.65029
11
8.78532
21
-3.65019
0
LINE
8
BLACK
6
CONTINUOUS
10
8.78532
20
-3.65019
11
8.78532
21
-3.65018
0
LINE
8
BLACK
6
CONTINUOUS
10
8.78532
20
-3.65018
11
8.78532
21
-3.65014
0
LINE
8
BLACK
6
CONTINUOUS
10
8.78532
20
-3.65014
11
8.78534
21
-3.65001
0
LINE
8
BLACK
6
CONTINUOUS
10
8.78534
20
-3.65001
11
8.78535
21
-3.64998
0
LINE
8
BLACK
6
CONTINUOUS
10
8.78535
20
-3.64998
11
8.7873
21
-3.63561
0
LINE
8
BLACK
6
CONTINUOUS
10
8.7873
20
-3.63561
11
8.7873
21
-3.6356
0
LINE
8
BLACK
6
CONTINUOUS
10
8.7873
20
-3.6356
11
8.78733
21
-3.63542
0
LINE
8
BLACK
6
CONTINUOUS
10
8.78733
20
-3.63542
11
8.78734
21
-3.63533
0
LINE
8
BLACK
6
CONTINUOUS
10
8.78734
20
-3.63533
11
8.78734
21
-3.63532
0
LINE
8
BLACK
6
CONTINUOUS
10
8.78734
20
-3.63532
11
8.78734
21
-3.63531
0
LINE
8
BLACK
6
CONTINUOUS
10
8.78734
20
-3.63531
11
8.78735
21
-3.63529
0
LINE
8
BLACK
6
CONTINUOUS
10
8.78735
20
-3.63529
11
8.78735
21
-3.63528
0
LINE
8
BLACK
6
CONTINUOUS
10
8.78735
20
-3.63528
11
8.78736
21
-3.63522
0
LINE
8
BLACK
6
CONTINUOUS
10
8.78736
20
-3.63522
11
8.78737
21
-3.63519
0
LINE
8
BLACK
6
CONTINUOUS
10
8.78737
20
-3.63519
11
8.78988
21
-3.62156
0
LINE
8
BLACK
6
CONTINUOUS
10
8.78988
20
-3.62156
11
8.78988
21
-3.62152
0
LINE
8
BLACK
6
CONTINUOUS
10
8.78988
20
-3.62152
11
8.78991
21
-3.62137
0
LINE
8
BLACK
6
CONTINUOUS
10
8.78991
20
-3.62137
11
8.78992
21
-3.62132
0
LINE
8
BLACK
6
CONTINUOUS
10
8.78992
20
-3.62132
11
8.78992
21
-3.6213
0
LINE
8
BLACK
6
CONTINUOUS
10
8.78992
20
-3.6213
11
8.78992
21
-3.6213
0
LINE
8
BLACK
6
CONTINUOUS
10
8.78992
20
-3.6213
11
8.78992
21
-3.62129
0
LINE
8
BLACK
6
CONTINUOUS
10
8.78992
20
-3.62129
11
8.78994
21
-3.62121
0
LINE
8
BLACK
6
CONTINUOUS
10
8.78994
20
-3.62121
11
8.78996
21
-3.62116
0
LINE
8
BLACK
6
CONTINUOUS
10
8.78996
20
-3.62116
11
8.78997
21
-3.6211
0
LINE
8
BLACK
6
CONTINUOUS
10
8.78997
20
-3.6211
11
8.78997
21
-3.62109
0
LINE
8
BLACK
6
CONTINUOUS
10
8.78997
20
-3.62109
11
8.79302
21
-3.60823
0
LINE
8
BLACK
6
CONTINUOUS
10
8.79302
20
-3.60823
11
8.79303
21
-3.60818
0
LINE
8
BLACK
6
CONTINUOUS
10
8.79303
20
-3.60818
11
8.79304
21
-3.60814
0
LINE
8
BLACK
6
CONTINUOUS
10
8.79304
20
-3.60814
11
8.79305
21
-3.60812
0
LINE
8
BLACK
6
CONTINUOUS
10
8.79305
20
-3.60812
11
8.79305
21
-3.60809
0
LINE
8
BLACK
6
CONTINUOUS
10
8.79305
20
-3.60809
11
8.79306
21
-3.60807
0
LINE
8
BLACK
6
CONTINUOUS
10
8.79306
20
-3.60807
11
8.79307
21
-3.60804
0
LINE
8
BLACK
6
CONTINUOUS
10
8.79307
20
-3.60804
11
8.79309
21
-3.60797
0
LINE
8
BLACK
6
CONTINUOUS
10
8.79309
20
-3.60797
11
8.79311
21
-3.60791
0
LINE
8
BLACK
6
CONTINUOUS
10
8.79311
20
-3.60791
11
8.79666
21
-3.59591
0
LINE
8
BLACK
6
CONTINUOUS
10
8.79666
20
-3.59591
11
8.79666
21
-3.59587
0
LINE
8
BLACK
6
CONTINUOUS
10
8.79666
20
-3.59587
11
8.79671
21
-3.59573
0
LINE
8
BLACK
6
CONTINUOUS
10
8.79671
20
-3.59573
11
8.79673
21
-3.59567
0
LINE
8
BLACK
6
CONTINUOUS
10
8.79673
20
-3.59567
11
8.79674
21
-3.59564
0
LINE
8
BLACK
6
CONTINUOUS
10
8.79674
20
-3.59564
11
8.79679
21
-3.59548
0
LINE
8
BLACK
6
CONTINUOUS
10
8.79679
20
-3.59548
11
8.79682
21
-3.59543
0
LINE
8
BLACK
6
CONTINUOUS
10
8.79682
20
-3.59543
11
8.80089
21
-3.58415
0
LINE
8
BLACK
6
CONTINUOUS
10
8.80089
20
-3.58415
11
8.80089
21
-3.58415
0
LINE
8
BLACK
6
CONTINUOUS
10
8.80089
20
-3.58415
11
8.8009
21
-3.58411
0
LINE
8
BLACK
6
CONTINUOUS
10
8.8009
20
-3.58411
11
8.8009
21
-3.58411
0
LINE
8
BLACK
6
CONTINUOUS
10
8.8009
20
-3.58411
11
8.80093
21
-3.58403
0
LINE
8
BLACK
6
CONTINUOUS
10
8.80093
20
-3.58403
11
8.80093
21
-3.58402
0
LINE
8
BLACK
6
CONTINUOUS
10
8.80093
20
-3.58402
11
8.80094
21
-3.584
0
LINE
8
BLACK
6
CONTINUOUS
10
8.80094
20
-3.584
11
8.80095
21
-3.58399
0
LINE
8
BLACK
6
CONTINUOUS
10
8.80095
20
-3.58399
11
8.80096
21
-3.58396
0
LINE
8
BLACK
6
CONTINUOUS
10
8.80096
20
-3.58396
11
8.80098
21
-3.58392
0
LINE
8
BLACK
6
CONTINUOUS
10
8.80098
20
-3.58392
11
8.80099
21
-3.58388
0
LINE
8
BLACK
6
CONTINUOUS
10
8.80099
20
-3.58388
11
8.80102
21
-3.58383
0
LINE
8
BLACK
6
CONTINUOUS
10
8.80102
20
-3.58383
11
8.80105
21
-3.58375
0
LINE
8
BLACK
6
CONTINUOUS
10
8.80105
20
-3.58375
11
8.80563
21
-3.5732
0
LINE
8
BLACK
6
CONTINUOUS
10
8.80563
20
-3.5732
11
8.80565
21
-3.57315
0
LINE
8
BLACK
6
CONTINUOUS
10
8.80565
20
-3.57315
11
8.80567
21
-3.57311
0
LINE
8
BLACK
6
CONTINUOUS
10
8.80567
20
-3.57311
11
8.80569
21
-3.57307
0
LINE
8
BLACK
6
CONTINUOUS
10
8.80569
20
-3.57307
11
8.80569
21
-3.57307
0
LINE
8
BLACK
6
CONTINUOUS
10
8.80569
20
-3.57307
11
8.80569
21
-3.57305
0
LINE
8
BLACK
6
CONTINUOUS
10
8.80569
20
-3.57305
11
8.80571
21
-3.57303
0
LINE
8
BLACK
6
CONTINUOUS
10
8.80571
20
-3.57303
11
8.80572
21
-3.573
0
LINE
8
BLACK
6
CONTINUOUS
10
8.80572
20
-3.573
11
8.80574
21
-3.57295
0
LINE
8
BLACK
6
CONTINUOUS
10
8.80574
20
-3.57295
11
8.80575
21
-3.57293
0
LINE
8
BLACK
6
CONTINUOUS
10
8.80575
20
-3.57293
11
8.80579
21
-3.57286
0
LINE
8
BLACK
6
CONTINUOUS
10
8.80579
20
-3.57286
11
8.8058
21
-3.57285
0
LINE
8
BLACK
6
CONTINUOUS
10
8.8058
20
-3.57285
11
8.81082
21
-3.5631
0
LINE
8
BLACK
6
CONTINUOUS
10
8.81082
20
-3.5631
11
8.81083
21
-3.56309
0
LINE
8
BLACK
6
CONTINUOUS
10
8.81083
20
-3.56309
11
8.81091
21
-3.56293
0
LINE
8
BLACK
6
CONTINUOUS
10
8.81091
20
-3.56293
11
8.81095
21
-3.56285
0
LINE
8
BLACK
6
CONTINUOUS
10
8.81095
20
-3.56285
11
8.81096
21
-3.56284
0
LINE
8
BLACK
6
CONTINUOUS
10
8.81096
20
-3.56284
11
8.81096
21
-3.56283
0
LINE
8
BLACK
6
CONTINUOUS
10
8.81096
20
-3.56283
11
8.81096
21
-3.56283
0
LINE
8
BLACK
6
CONTINUOUS
10
8.81096
20
-3.56283
11
8.81097
21
-3.56281
0
LINE
8
BLACK
6
CONTINUOUS
10
8.81097
20
-3.56281
11
8.81099
21
-3.56278
0
LINE
8
BLACK
6
CONTINUOUS
10
8.81099
20
-3.56278
11
8.811
21
-3.56277
0
LINE
8
BLACK
6
CONTINUOUS
10
8.811
20
-3.56277
11
8.811
21
-3.56275
0
LINE
8
BLACK
6
CONTINUOUS
10
8.811
20
-3.56275
11
8.81105
21
-3.56269
0
LINE
8
BLACK
6
CONTINUOUS
10
8.81105
20
-3.56269
11
8.81109
21
-3.56261
0
LINE
8
BLACK
6
CONTINUOUS
10
8.81109
20
-3.56261
11
8.81111
21
-3.56258
0
LINE
8
BLACK
6
CONTINUOUS
10
8.81111
20
-3.56258
11
8.81111
21
-3.56258
0
LINE
8
BLACK
6
CONTINUOUS
10
8.81111
20
-3.56258
11
8.81671
21
-3.55337
0
LINE
8
BLACK
6
CONTINUOUS
10
8.81671
20
-3.55337
11
8.81673
21
-3.55334
0
LINE
8
BLACK
6
CONTINUOUS
10
8.81673
20
-3.55334
11
8.81673
21
-3.55334
0
LINE
8
BLACK
6
CONTINUOUS
10
8.81673
20
-3.55334
11
8.81673
21
-3.55334
0
LINE
8
BLACK
6
CONTINUOUS
10
8.81673
20
-3.55334
11
8.81673
21
-3.55333
0
LINE
8
BLACK
6
CONTINUOUS
10
8.81673
20
-3.55333
11
8.81673
21
-3.55333
0
LINE
8
BLACK
6
CONTINUOUS
10
8.81673
20
-3.55333
11
8.81674
21
-3.55333
0
LINE
8
BLACK
6
CONTINUOUS
10
8.81674
20
-3.55333
11
8.81674
21
-3.55332
0
LINE
8
BLACK
6
CONTINUOUS
10
8.81674
20
-3.55332
11
8.81677
21
-3.55328
0
LINE
8
BLACK
6
CONTINUOUS
10
8.81677
20
-3.55328
11
8.81678
21
-3.55326
0
LINE
8
BLACK
6
CONTINUOUS
10
8.81678
20
-3.55326
11
8.81682
21
-3.5532
0
LINE
8
BLACK
6
CONTINUOUS
10
8.81682
20
-3.5532
11
8.81686
21
-3.55315
0
LINE
8
BLACK
6
CONTINUOUS
10
8.81686
20
-3.55315
11
8.81686
21
-3.55314
0
LINE
8
BLACK
6
CONTINUOUS
10
8.81686
20
-3.55314
11
8.8169
21
-3.55308
0
LINE
8
BLACK
6
CONTINUOUS
10
8.8169
20
-3.55308
11
8.81691
21
-3.55307
0
LINE
8
BLACK
6
CONTINUOUS
10
8.81691
20
-3.55307
11
8.82286
21
-3.54471
0
LINE
8
BLACK
6
CONTINUOUS
10
8.82286
20
-3.54471
11
8.82287
21
-3.54469
0
LINE
8
BLACK
6
CONTINUOUS
10
8.82287
20
-3.54469
11
8.82297
21
-3.54456
0
LINE
8
BLACK
6
CONTINUOUS
10
8.82297
20
-3.54456
11
8.82301
21
-3.54449
0
LINE
8
BLACK
6
CONTINUOUS
10
8.82301
20
-3.54449
11
8.82303
21
-3.54448
0
LINE
8
BLACK
6
CONTINUOUS
10
8.82303
20
-3.54448
11
8.82304
21
-3.54446
0
LINE
8
BLACK
6
CONTINUOUS
10
8.82304
20
-3.54446
11
8.82306
21
-3.54443
0
LINE
8
BLACK
6
CONTINUOUS
10
8.82306
20
-3.54443
11
8.82307
21
-3.54442
0
LINE
8
BLACK
6
CONTINUOUS
10
8.82307
20
-3.54442
11
8.8231
21
-3.54439
0
LINE
8
BLACK
6
CONTINUOUS
10
8.8231
20
-3.54439
11
8.82318
21
-3.54427
0
LINE
8
BLACK
6
CONTINUOUS
10
8.82318
20
-3.54427
11
8.82321
21
-3.54425
0
LINE
8
BLACK
6
CONTINUOUS
10
8.82321
20
-3.54425
11
8.82973
21
-3.53639
0
LINE
8
BLACK
6
CONTINUOUS
10
8.82973
20
-3.53639
11
8.82978
21
-3.53632
0
LINE
8
BLACK
6
CONTINUOUS
10
8.82978
20
-3.53632
11
8.82979
21
-3.53632
0
LINE
8
BLACK
6
CONTINUOUS
10
8.82979
20
-3.53632
11
8.82979
21
-3.53632
0
LINE
8
BLACK
6
CONTINUOUS
10
8.82979
20
-3.53632
11
8.82983
21
-3.53628
0
LINE
8
BLACK
6
CONTINUOUS
10
8.82983
20
-3.53628
11
8.82986
21
-3.53624
0
LINE
8
BLACK
6
CONTINUOUS
10
8.82986
20
-3.53624
11
8.82986
21
-3.53624
0
LINE
8
BLACK
6
CONTINUOUS
10
8.82986
20
-3.53624
11
8.82987
21
-3.53623
0
LINE
8
BLACK
6
CONTINUOUS
10
8.82987
20
-3.53623
11
8.82993
21
-3.53617
0
LINE
8
BLACK
6
CONTINUOUS
10
8.82993
20
-3.53617
11
8.83686
21
-3.52897
0
LINE
8
BLACK
6
CONTINUOUS
10
8.83686
20
-3.52897
11
8.83686
21
-3.52897
0
LINE
8
BLACK
6
CONTINUOUS
10
8.83686
20
-3.52897
11
8.83699
21
-3.52884
0
LINE
8
BLACK
6
CONTINUOUS
10
8.83699
20
-3.52884
11
8.83705
21
-3.52877
0
LINE
8
BLACK
6
CONTINUOUS
10
8.83705
20
-3.52877
11
8.83706
21
-3.52877
0
LINE
8
BLACK
6
CONTINUOUS
10
8.83706
20
-3.52877
11
8.83707
21
-3.52876
0
LINE
8
BLACK
6
CONTINUOUS
10
8.83707
20
-3.52876
11
8.83708
21
-3.52874
0
LINE
8
BLACK
6
CONTINUOUS
10
8.83708
20
-3.52874
11
8.8371
21
-3.52873
0
LINE
8
BLACK
6
CONTINUOUS
10
8.8371
20
-3.52873
11
8.83711
21
-3.52872
0
LINE
8
BLACK
6
CONTINUOUS
10
8.83711
20
-3.52872
11
8.83712
21
-3.5287
0
LINE
8
BLACK
6
CONTINUOUS
10
8.83712
20
-3.5287
11
8.83715
21
-3.52868
0
LINE
8
BLACK
6
CONTINUOUS
10
8.83715
20
-3.52868
11
8.83718
21
-3.52865
0
LINE
8
BLACK
6
CONTINUOUS
10
8.83718
20
-3.52865
11
8.83723
21
-3.52861
0
LINE
8
BLACK
6
CONTINUOUS
10
8.83723
20
-3.52861
11
8.84469
21
-3.52193
0
LINE
8
BLACK
6
CONTINUOUS
10
8.84469
20
-3.52193
11
8.84471
21
-3.52191
0
LINE
8
BLACK
6
CONTINUOUS
10
8.84471
20
-3.52191
11
8.84485
21
-3.5218
0
LINE
8
BLACK
6
CONTINUOUS
10
8.84485
20
-3.5218
11
8.84501
21
-3.52167
0
LINE
8
BLACK
6
CONTINUOUS
10
8.84501
20
-3.52167
11
8.84505
21
-3.52165
0
LINE
8
BLACK
6
CONTINUOUS
10
8.84505
20
-3.52165
11
8.85287
21
-3.51561
0
LINE
8
BLACK
6
CONTINUOUS
10
8.85287
20
-3.51561
11
8.85292
21
-3.51557
0
LINE
8
BLACK
6
CONTINUOUS
10
8.85292
20
-3.51557
11
8.85294
21
-3.51555
0
LINE
8
BLACK
6
CONTINUOUS
10
8.85294
20
-3.51555
11
8.85296
21
-3.51554
0
LINE
8
BLACK
6
CONTINUOUS
10
8.85296
20
-3.51554
11
8.85298
21
-3.51553
0
LINE
8
BLACK
6
CONTINUOUS
10
8.85298
20
-3.51553
11
8.85301
21
-3.5155
0
LINE
8
BLACK
6
CONTINUOUS
10
8.85301
20
-3.5155
11
8.85303
21
-3.51549
0
LINE
8
BLACK
6
CONTINUOUS
10
8.85303
20
-3.51549
11
8.85303
21
-3.51549
0
LINE
8
BLACK
6
CONTINUOUS
10
8.85303
20
-3.51549
11
8.85311
21
-3.51544
0
LINE
8
BLACK
6
CONTINUOUS
10
8.85311
20
-3.51544
11
8.85319
21
-3.51538
0
LINE
8
BLACK
6
CONTINUOUS
10
8.85319
20
-3.51538
11
8.85319
21
-3.51538
0
LINE
8
BLACK
6
CONTINUOUS
10
8.85319
20
-3.51538
11
8.85325
21
-3.51534
0
LINE
8
BLACK
6
CONTINUOUS
10
8.85325
20
-3.51534
11
8.85325
21
-3.51534
0
LINE
8
BLACK
6
CONTINUOUS
10
8.85325
20
-3.51534
11
8.86148
21
-3.50987
0
LINE
8
BLACK
6
CONTINUOUS
10
8.86148
20
-3.50987
11
8.86152
21
-3.50984
0
LINE
8
BLACK
6
CONTINUOUS
10
8.86152
20
-3.50984
11
8.86156
21
-3.50982
0
LINE
8
BLACK
6
CONTINUOUS
10
8.86156
20
-3.50982
11
8.86159
21
-3.5098
0
LINE
8
BLACK
6
CONTINUOUS
10
8.86159
20
-3.5098
11
8.86162
21
-3.50978
0
LINE
8
BLACK
6
CONTINUOUS
10
8.86162
20
-3.50978
11
8.86165
21
-3.50976
0
LINE
8
BLACK
6
CONTINUOUS
10
8.86165
20
-3.50976
11
8.86168
21
-3.50974
0
LINE
8
BLACK
6
CONTINUOUS
10
8.86168
20
-3.50974
11
8.8617
21
-3.50973
0
LINE
8
BLACK
6
CONTINUOUS
10
8.8617
20
-3.50973
11
8.86176
21
-3.50969
0
LINE
8
BLACK
6
CONTINUOUS
10
8.86176
20
-3.50969
11
8.87041
21
-3.50474
0
LINE
8
BLACK
6
CONTINUOUS
10
8.87041
20
-3.50474
11
8.87043
21
-3.50472
0
LINE
8
BLACK
6
CONTINUOUS
10
8.87043
20
-3.50472
11
8.87058
21
-3.50465
0
LINE
8
BLACK
6
CONTINUOUS
10
8.87058
20
-3.50465
11
8.87064
21
-3.50461
0
LINE
8
BLACK
6
CONTINUOUS
10
8.87064
20
-3.50461
11
8.87064
21
-3.50461
0
LINE
8
BLACK
6
CONTINUOUS
10
8.87064
20
-3.50461
11
8.87065
21
-3.5046
0
LINE
8
BLACK
6
CONTINUOUS
10
8.87065
20
-3.5046
11
8.87068
21
-3.50459
0
LINE
8
BLACK
6
CONTINUOUS
10
8.87068
20
-3.50459
11
8.87069
21
-3.50458
0
LINE
8
BLACK
6
CONTINUOUS
10
8.87069
20
-3.50458
11
8.8707
21
-3.50457
0
LINE
8
BLACK
6
CONTINUOUS
10
8.8707
20
-3.50457
11
8.87082
21
-3.50451
0
LINE
8
BLACK
6
CONTINUOUS
10
8.87082
20
-3.50451
11
8.87087
21
-3.50449
0
LINE
8
BLACK
6
CONTINUOUS
10
8.87087
20
-3.50449
11
8.87985
21
-3.50008
0
LINE
8
BLACK
6
CONTINUOUS
10
8.87985
20
-3.50008
11
8.87986
21
-3.50007
0
LINE
8
BLACK
6
CONTINUOUS
10
8.87986
20
-3.50007
11
8.88002
21
-3.49999
0
LINE
8
BLACK
6
CONTINUOUS
10
8.88002
20
-3.49999
11
8.8801
21
-3.49995
0
LINE
8
BLACK
6
CONTINUOUS
10
8.8801
20
-3.49995
11
8.88011
21
-3.49995
0
LINE
8
BLACK
6
CONTINUOUS
10
8.88011
20
-3.49995
11
8.88012
21
-3.49995
0
LINE
8
BLACK
6
CONTINUOUS
10
8.88012
20
-3.49995
11
8.88013
21
-3.49994
0
LINE
8
BLACK
6
CONTINUOUS
10
8.88013
20
-3.49994
11
8.88014
21
-3.49994
0
LINE
8
BLACK
6
CONTINUOUS
10
8.88014
20
-3.49994
11
8.88021
21
-3.49991
0
LINE
8
BLACK
6
CONTINUOUS
10
8.88021
20
-3.49991
11
8.88036
21
-3.49985
0
LINE
8
BLACK
6
CONTINUOUS
10
8.88036
20
-3.49985
11
8.88036
21
-3.49984
0
LINE
8
BLACK
6
CONTINUOUS
10
8.88036
20
-3.49984
11
8.8897
21
-3.49591
0
LINE
8
BLACK
6
CONTINUOUS
10
8.8897
20
-3.49591
11
8.88971
21
-3.49591
0
LINE
8
BLACK
6
CONTINUOUS
10
8.88971
20
-3.49591
11
8.88987
21
-3.49584
0
LINE
8
BLACK
6
CONTINUOUS
10
8.88987
20
-3.49584
11
8.88996
21
-3.49581
0
LINE
8
BLACK
6
CONTINUOUS
10
8.88996
20
-3.49581
11
8.88997
21
-3.4958
0
LINE
8
BLACK
6
CONTINUOUS
10
8.88997
20
-3.4958
11
8.88998
21
-3.4958
0
LINE
8
BLACK
6
CONTINUOUS
10
8.88998
20
-3.4958
11
8.88998
21
-3.4958
0
LINE
8
BLACK
6
CONTINUOUS
10
8.88998
20
-3.4958
11
8.88998
21
-3.4958
0
LINE
8
BLACK
6
CONTINUOUS
10
8.88998
20
-3.4958
11
8.89002
21
-3.49579
0
LINE
8
BLACK
6
CONTINUOUS
10
8.89002
20
-3.49579
11
8.89005
21
-3.49577
0
LINE
8
BLACK
6
CONTINUOUS
10
8.89005
20
-3.49577
11
8.89011
21
-3.49575
0
LINE
8
BLACK
6
CONTINUOUS
10
8.89011
20
-3.49575
11
8.89996
21
-3.49223
0
LINE
8
BLACK
6
CONTINUOUS
10
8.89996
20
-3.49223
11
8.89998
21
-3.49221
0
LINE
8
BLACK
6
CONTINUOUS
10
8.89998
20
-3.49221
11
8.90014
21
-3.49216
0
LINE
8
BLACK
6
CONTINUOUS
10
8.90014
20
-3.49216
11
8.90016
21
-3.49215
0
LINE
8
BLACK
6
CONTINUOUS
10
8.90016
20
-3.49215
11
8.90021
21
-3.49213
0
LINE
8
BLACK
6
CONTINUOUS
10
8.90021
20
-3.49213
11
8.90022
21
-3.49213
0
LINE
8
BLACK
6
CONTINUOUS
10
8.90022
20
-3.49213
11
8.90032
21
-3.49209
0
LINE
8
BLACK
6
CONTINUOUS
10
8.90032
20
-3.49209
11
8.9004
21
-3.49208
0
LINE
8
BLACK
6
CONTINUOUS
10
8.9004
20
-3.49208
11
8.91068
21
-3.48897
0
LINE
8
BLACK
6
CONTINUOUS
10
8.91068
20
-3.48897
11
8.91068
21
-3.48897
0
LINE
8
BLACK
6
CONTINUOUS
10
8.91068
20
-3.48897
11
8.9107
21
-3.48896
0
LINE
8
BLACK
6
CONTINUOUS
10
8.9107
20
-3.48896
11
8.91071
21
-3.48896
0
LINE
8
BLACK
6
CONTINUOUS
10
8.91071
20
-3.48896
11
8.91073
21
-3.48895
0
LINE
8
BLACK
6
CONTINUOUS
10
8.91073
20
-3.48895
11
8.91079
21
-3.48893
0
LINE
8
BLACK
6
CONTINUOUS
10
8.91079
20
-3.48893
11
8.91082
21
-3.48892
0
LINE
8
BLACK
6
CONTINUOUS
10
8.91082
20
-3.48892
11
8.91084
21
-3.48892
0
LINE
8
BLACK
6
CONTINUOUS
10
8.91084
20
-3.48892
11
8.91096
21
-3.48888
0
LINE
8
BLACK
6
CONTINUOUS
10
8.91096
20
-3.48888
11
8.91101
21
-3.48887
0
LINE
8
BLACK
6
CONTINUOUS
10
8.91101
20
-3.48887
11
8.92154
21
-3.4862
0
LINE
8
BLACK
6
CONTINUOUS
10
8.92154
20
-3.4862
11
8.92155
21
-3.4862
0
LINE
8
BLACK
6
CONTINUOUS
10
8.92155
20
-3.4862
11
8.92172
21
-3.48616
0
LINE
8
BLACK
6
CONTINUOUS
10
8.92172
20
-3.48616
11
8.92173
21
-3.48615
0
LINE
8
BLACK
6
CONTINUOUS
10
8.92173
20
-3.48615
11
8.92175
21
-3.48615
0
LINE
8
BLACK
6
CONTINUOUS
10
8.92175
20
-3.48615
11
8.92182
21
-3.48613
0
LINE
8
BLACK
6
CONTINUOUS
10
8.92182
20
-3.48613
11
8.92183
21
-3.48613
0
LINE
8
BLACK
6
CONTINUOUS
10
8.92183
20
-3.48613
11
8.92183
21
-3.48613
0
LINE
8
BLACK
6
CONTINUOUS
10
8.92183
20
-3.48613
11
8.92184
21
-3.48613
0
LINE
8
BLACK
6
CONTINUOUS
10
8.92184
20
-3.48613
11
8.92189
21
-3.48612
0
LINE
8
BLACK
6
CONTINUOUS
10
8.92189
20
-3.48612
11
8.9219
21
-3.48611
0
LINE
8
BLACK
6
CONTINUOUS
10
8.9219
20
-3.48611
11
8.92201
21
-3.48609
0
LINE
8
BLACK
6
CONTINUOUS
10
8.92201
20
-3.48609
11
8.92204
21
-3.48609
0
LINE
8
BLACK
6
CONTINUOUS
10
8.92204
20
-3.48609
11
8.93298
21
-3.48378
0
LINE
8
BLACK
6
CONTINUOUS
10
8.93298
20
-3.48378
11
8.93309
21
-3.48375
0
LINE
8
BLACK
6
CONTINUOUS
10
8.93309
20
-3.48375
11
8.93318
21
-3.48374
0
LINE
8
BLACK
6
CONTINUOUS
10
8.93318
20
-3.48374
11
8.93327
21
-3.48372
0
LINE
8
BLACK
6
CONTINUOUS
10
8.93327
20
-3.48372
11
8.93333
21
-3.48372
0
LINE
8
BLACK
6
CONTINUOUS
10
8.93333
20
-3.48372
11
8.94471
21
-3.48176
0
LINE
8
BLACK
6
CONTINUOUS
10
8.94471
20
-3.48176
11
8.94476
21
-3.48175
0
LINE
8
BLACK
6
CONTINUOUS
10
8.94476
20
-3.48175
11
8.94479
21
-3.48174
0
LINE
8
BLACK
6
CONTINUOUS
10
8.94479
20
-3.48174
11
8.94479
21
-3.48174
0
LINE
8
BLACK
6
CONTINUOUS
10
8.94479
20
-3.48174
11
8.9448
21
-3.48174
0
LINE
8
BLACK
6
CONTINUOUS
10
8.9448
20
-3.48174
11
8.94482
21
-3.48174
0
LINE
8
BLACK
6
CONTINUOUS
10
8.94482
20
-3.48174
11
8.94482
21
-3.48174
0
LINE
8
BLACK
6
CONTINUOUS
10
8.94482
20
-3.48174
11
8.94484
21
-3.48173
0
LINE
8
BLACK
6
CONTINUOUS
10
8.94484
20
-3.48173
11
8.94489
21
-3.48173
0
LINE
8
BLACK
6
CONTINUOUS
10
8.94489
20
-3.48173
11
8.94497
21
-3.48171
0
LINE
8
BLACK
6
CONTINUOUS
10
8.94497
20
-3.48171
11
8.94498
21
-3.48171
0
LINE
8
BLACK
6
CONTINUOUS
10
8.94498
20
-3.48171
11
8.95663
21
-3.4801
0
LINE
8
BLACK
6
CONTINUOUS
10
8.95663
20
-3.4801
11
8.95667
21
-3.48009
0
LINE
8
BLACK
6
CONTINUOUS
10
8.95667
20
-3.48009
11
8.95679
21
-3.48008
0
LINE
8
BLACK
6
CONTINUOUS
10
8.95679
20
-3.48008
11
8.9568
21
-3.48008
0
LINE
8
BLACK
6
CONTINUOUS
10
8.9568
20
-3.48008
11
8.95684
21
-3.48007
0
LINE
8
BLACK
6
CONTINUOUS
10
8.95684
20
-3.48007
11
8.95688
21
-3.48007
0
LINE
8
BLACK
6
CONTINUOUS
10
8.95688
20
-3.48007
11
8.95691
21
-3.48006
0
LINE
8
BLACK
6
CONTINUOUS
10
8.95691
20
-3.48006
11
8.95699
21
-3.48005
0
LINE
8
BLACK
6
CONTINUOUS
10
8.95699
20
-3.48005
11
8.95702
21
-3.48005
0
LINE
8
BLACK
6
CONTINUOUS
10
8.95702
20
-3.48005
11
8.96896
21
-3.47876
0
LINE
8
BLACK
6
CONTINUOUS
10
8.96896
20
-3.47876
11
8.96897
21
-3.47876
0
LINE
8
BLACK
6
CONTINUOUS
10
8.96897
20
-3.47876
11
8.96898
21
-3.47876
0
LINE
8
BLACK
6
CONTINUOUS
10
8.96898
20
-3.47876
11
8.96899
21
-3.47875
0
LINE
8
BLACK
6
CONTINUOUS
10
8.96899
20
-3.47875
11
8.96906
21
-3.47875
0
LINE
8
BLACK
6
CONTINUOUS
10
8.96906
20
-3.47875
11
8.96913
21
-3.47873
0
LINE
8
BLACK
6
CONTINUOUS
10
8.96913
20
-3.47873
11
8.96925
21
-3.47873
0
LINE
8
BLACK
6
CONTINUOUS
10
8.96925
20
-3.47873
11
8.96928
21
-3.47872
0
LINE
8
BLACK
6
CONTINUOUS
10
8.96928
20
-3.47872
11
8.96932
21
-3.47872
0
LINE
8
BLACK
6
CONTINUOUS
10
8.96932
20
-3.47872
11
8.9818
21
-3.4777
0
LINE
8
BLACK
6
CONTINUOUS
10
8.9818
20
-3.4777
11
8.98188
21
-3.47769
0
LINE
8
BLACK
6
CONTINUOUS
10
8.98188
20
-3.47769
11
8.9819
21
-3.47769
0
LINE
8
BLACK
6
CONTINUOUS
10
8.9819
20
-3.47769
11
8.98191
21
-3.47769
0
LINE
8
BLACK
6
CONTINUOUS
10
8.98191
20
-3.47769
11
8.98197
21
-3.47769
0
LINE
8
BLACK
6
CONTINUOUS
10
8.98197
20
-3.47769
11
8.99474
21
-3.47693
0
LINE
8
BLACK
6
CONTINUOUS
10
8.99474
20
-3.47693
11
8.99478
21
-3.47693
0
LINE
8
BLACK
6
CONTINUOUS
10
8.99478
20
-3.47693
11
8.99478
21
-3.47693
0
LINE
8
BLACK
6
CONTINUOUS
10
8.99478
20
-3.47693
11
8.99479
21
-3.47693
0
LINE
8
BLACK
6
CONTINUOUS
10
8.99479
20
-3.47693
11
8.99489
21
-3.47692
0
LINE
8
BLACK
6
CONTINUOUS
10
8.99489
20
-3.47692
11
8.99507
21
-3.47691
0
LINE
8
BLACK
6
CONTINUOUS
10
8.99507
20
-3.47691
11
8.99507
21
-3.47692
0
LINE
8
BLACK
6
CONTINUOUS
10
8.99507
20
-3.47692
11
9.00801
21
-3.47641
0
LINE
8
BLACK
6
CONTINUOUS
10
9.00801
20
-3.47641
11
9.00803
21
-3.47641
0
LINE
8
BLACK
6
CONTINUOUS
10
9.00803
20
-3.47641
11
9.00805
21
-3.47641
0
LINE
8
BLACK
6
CONTINUOUS
10
9.00805
20
-3.47641
11
9.00807
21
-3.47641
0
LINE
8
BLACK
6
CONTINUOUS
10
9.00807
20
-3.47641
11
9.00815
21
-3.47641
0
LINE
8
BLACK
6
CONTINUOUS
10
9.00815
20
-3.47641
11
9.00832
21
-3.4764
0
LINE
8
BLACK
6
CONTINUOUS
10
9.00832
20
-3.4764
11
9.00834
21
-3.4764
0
LINE
8
BLACK
6
CONTINUOUS
10
9.00834
20
-3.4764
11
9.02161
21
-3.47612
0
LINE
8
BLACK
6
CONTINUOUS
10
9.02161
20
-3.47612
11
9.02163
21
-3.47611
0
LINE
8
BLACK
6
CONTINUOUS
10
9.02163
20
-3.47611
11
9.0217
21
-3.47611
0
LINE
8
BLACK
6
CONTINUOUS
10
9.0217
20
-3.47611
11
9.02178
21
-3.47611
0
LINE
8
BLACK
6
CONTINUOUS
10
9.02178
20
-3.47611
11
9.0218
21
-3.47611
0
LINE
8
BLACK
6
CONTINUOUS
10
9.0218
20
-3.47611
11
9.03538
21
-3.47602
0
LINE
8
BLACK
6
CONTINUOUS
10
9.03538
20
-3.47602
11
9.03538
21
-3.47602
0
LINE
8
BLACK
6
CONTINUOUS
10
9.03538
20
-3.47602
11
9.03547
21
-3.47602
0
LINE
8
BLACK
6
CONTINUOUS
10
9.03547
20
-3.47602
11
9.03556
21
-3.47602
0
LINE
8
BLACK
6
CONTINUOUS
10
9.03556
20
-3.47602
11
9.03557
21
-3.47602
0
LINE
8
BLACK
6
CONTINUOUS
10
9.03557
20
-3.47602
11
9.15365
21
-3.47602
0
LINE
8
BLACK
6
CONTINUOUS
10
9.15365
20
-3.47602
11
9.17137
21
-3.47564
0
LINE
8
BLACK
6
CONTINUOUS
10
9.17137
20
-3.47564
11
9.18864
21
-3.47471
0
LINE
8
BLACK
6
CONTINUOUS
10
9.18864
20
-3.47471
11
9.20548
21
-3.47322
0
LINE
8
BLACK
6
CONTINUOUS
10
9.20548
20
-3.47322
11
9.22188
21
-3.47115
0
LINE
8
BLACK
6
CONTINUOUS
10
9.22188
20
-3.47115
11
9.23783
21
-3.46852
0
LINE
8
BLACK
6
CONTINUOUS
10
9.23783
20
-3.46852
11
9.25331
21
-3.46529
0
LINE
8
BLACK
6
CONTINUOUS
10
9.25331
20
-3.46529
11
9.26832
21
-3.46147
0
LINE
8
BLACK
6
CONTINUOUS
10
9.26832
20
-3.46147
11
9.28286
21
-3.45704
0
LINE
8
BLACK
6
CONTINUOUS
10
9.28286
20
-3.45704
11
9.29689
21
-3.452
0
LINE
8
BLACK
6
CONTINUOUS
10
9.29689
20
-3.452
11
9.31043
21
-3.44633
0
LINE
8
BLACK
6
CONTINUOUS
10
9.31043
20
-3.44633
11
9.32347
21
-3.44003
0
LINE
8
BLACK
6
CONTINUOUS
10
9.32347
20
-3.44003
11
9.33598
21
-3.43308
0
LINE
8
BLACK
6
CONTINUOUS
10
9.33598
20
-3.43308
11
9.34798
21
-3.42547
0
LINE
8
BLACK
6
CONTINUOUS
10
9.34798
20
-3.42547
11
9.35944
21
-3.4172
0
LINE
8
BLACK
6
CONTINUOUS
10
9.35944
20
-3.4172
11
9.37037
21
-3.40824
0
LINE
8
BLACK
6
CONTINUOUS
10
9.37037
20
-3.40824
11
9.38075
21
-3.3986
0
LINE
8
BLACK
6
CONTINUOUS
10
9.38075
20
-3.3986
11
9.39057
21
-3.38826
0
LINE
8
BLACK
6
CONTINUOUS
10
9.39057
20
-3.38826
11
9.39984
21
-3.3772
0
LINE
8
BLACK
6
CONTINUOUS
10
9.39984
20
-3.3772
11
9.40854
21
-3.3654
0
LINE
8
BLACK
6
CONTINUOUS
10
9.40854
20
-3.3654
11
9.41666
21
-3.35287
0
LINE
8
BLACK
6
CONTINUOUS
10
9.41666
20
-3.35287
11
9.42419
21
-3.33958
0
LINE
8
BLACK
6
CONTINUOUS
10
9.42419
20
-3.33958
11
9.43112
21
-3.32552
0
LINE
8
BLACK
6
CONTINUOUS
10
9.43112
20
-3.32552
11
9.43744
21
-3.31068
0
LINE
8
BLACK
6
CONTINUOUS
10
9.43744
20
-3.31068
11
9.44315
21
-3.29504
0
LINE
8
BLACK
6
CONTINUOUS
10
9.44315
20
-3.29504
11
9.44823
21
-3.2786
0
LINE
8
BLACK
6
CONTINUOUS
10
9.44823
20
-3.2786
11
9.45267
21
-3.26134
0
LINE
8
BLACK
6
CONTINUOUS
10
9.45267
20
-3.26134
11
9.45645
21
-3.24325
0
LINE
8
BLACK
6
CONTINUOUS
10
9.45645
20
-3.24325
11
9.45957
21
-3.22432
0
LINE
8
BLACK
6
CONTINUOUS
10
9.45957
20
-3.22432
11
9.46201
21
-3.20453
0
LINE
8
BLACK
6
CONTINUOUS
10
9.46201
20
-3.20453
11
9.46378
21
-3.18389
0
LINE
8
BLACK
6
CONTINUOUS
10
9.46378
20
-3.18389
11
9.46484
21
-3.16236
0
LINE
8
BLACK
6
CONTINUOUS
10
9.46484
20
-3.16236
11
9.4652
21
-3.13992
0
LINE
8
BLACK
6
CONTINUOUS
10
9.4652
20
-3.13992
11
9.46965
21
-1.51886
0
LINE
8
BLACK
6
CONTINUOUS
10
9.46965
20
-1.51886
11
9.46937
21
-1.49445
0
LINE
8
BLACK
6
CONTINUOUS
10
9.46937
20
-1.49445
11
9.46854
21
-1.47088
0
LINE
8
BLACK
6
CONTINUOUS
10
9.46854
20
-1.47088
11
9.46714
21
-1.44816
0
LINE
8
BLACK
6
CONTINUOUS
10
9.46714
20
-1.44816
11
9.46516
21
-1.42626
0
LINE
8
BLACK
6
CONTINUOUS
10
9.46516
20
-1.42626
11
9.4626
21
-1.4052
0
LINE
8
BLACK
6
CONTINUOUS
10
9.4626
20
-1.4052
11
9.45944
21
-1.38497
0
LINE
8
BLACK
6
CONTINUOUS
10
9.45944
20
-1.38497
11
9.45568
21
-1.36556
0
LINE
8
BLACK
6
CONTINUOUS
10
9.45568
20
-1.36556
11
9.4513
21
-1.34697
0
LINE
8
BLACK
6
CONTINUOUS
10
9.4513
20
-1.34697
11
9.4463
21
-1.3292
0
LINE
8
BLACK
6
CONTINUOUS
10
9.4463
20
-1.3292
11
9.44066
21
-1.31224
0
LINE
8
BLACK
6
CONTINUOUS
10
9.44066
20
-1.31224
11
9.43439
21
-1.29609
0
LINE
8
BLACK
6
CONTINUOUS
10
9.43439
20
-1.29609
11
9.42747
21
-1.28075
0
LINE
8
BLACK
6
CONTINUOUS
10
9.42747
20
-1.28075
11
9.41988
21
-1.26621
0
LINE
8
BLACK
6
CONTINUOUS
10
9.41988
20
-1.26621
11
9.41163
21
-1.25246
0
LINE
8
BLACK
6
CONTINUOUS
10
9.41163
20
-1.25246
11
9.4027
21
-1.23949
0
LINE
8
BLACK
6
CONTINUOUS
10
9.4027
20
-1.23949
11
9.39309
21
-1.2273
0
LINE
8
BLACK
6
CONTINUOUS
10
9.39309
20
-1.2273
11
9.38277
21
-1.21589
0
LINE
8
BLACK
6
CONTINUOUS
10
9.38277
20
-1.21589
11
9.37173
21
-1.20523
0
LINE
8
BLACK
6
CONTINUOUS
10
9.37173
20
-1.20523
11
9.35997
21
-1.19534
0
LINE
8
BLACK
6
CONTINUOUS
10
9.35997
20
-1.19534
11
9.34747
21
-1.1862
0
LINE
8
BLACK
6
CONTINUOUS
10
9.34747
20
-1.1862
11
9.33422
21
-1.1778
0
LINE
8
BLACK
6
CONTINUOUS
10
9.33422
20
-1.1778
11
9.32019
21
-1.17015
0
LINE
8
BLACK
6
CONTINUOUS
10
9.32019
20
-1.17015
11
9.30539
21
-1.16324
0
LINE
8
BLACK
6
CONTINUOUS
10
9.30539
20
-1.16324
11
9.28978
21
-1.15706
0
LINE
8
BLACK
6
CONTINUOUS
10
9.28978
20
-1.15706
11
9.27336
21
-1.15161
0
LINE
8
BLACK
6
CONTINUOUS
10
9.27336
20
-1.15161
11
9.25613
21
-1.1469
0
LINE
8
BLACK
6
CONTINUOUS
10
9.25613
20
-1.1469
11
9.23805
21
-1.14292
0
LINE
8
BLACK
6
CONTINUOUS
10
9.23805
20
-1.14292
11
9.21914
21
-1.13967
0
LINE
8
BLACK
6
CONTINUOUS
10
9.21914
20
-1.13967
11
9.19936
21
-1.13714
0
LINE
8
BLACK
6
CONTINUOUS
10
9.19936
20
-1.13714
11
9.17872
21
-1.13534
0
LINE
8
BLACK
6
CONTINUOUS
10
9.17872
20
-1.13534
11
9.15721
21
-1.13426
0
LINE
8
BLACK
6
CONTINUOUS
10
9.15721
20
-1.13426
11
9.13477
21
-1.1339
0
LINE
8
BLACK
6
CONTINUOUS
10
9.13477
20
-1.1339
11
3.0873
21
-1.1339
0
LINE
8
BLACK
6
CONTINUOUS
10
3.0873
20
-1.1339
11
3.06295
21
-1.13435
0
LINE
8
BLACK
6
CONTINUOUS
10
3.06295
20
-1.13435
11
3.03929
21
-1.13571
0
LINE
8
BLACK
6
CONTINUOUS
10
3.03929
20
-1.13571
11
3.01626
21
-1.13796
0
LINE
8
BLACK
6
CONTINUOUS
10
3.01626
20
-1.13796
11
2.99382
21
-1.14108
0
LINE
8
BLACK
6
CONTINUOUS
10
2.99382
20
-1.14108
11
2.97209
21
-1.14506
0
LINE
8
BLACK
6
CONTINUOUS
10
2.97209
20
-1.14506
11
2.95095
21
-1.14988
0
LINE
8
BLACK
6
CONTINUOUS
10
2.95095
20
-1.14988
11
2.93053
21
-1.15553
0
LINE
8
BLACK
6
CONTINUOUS
10
2.93053
20
-1.15553
11
2.91078
21
-1.16199
0
LINE
8
BLACK
6
CONTINUOUS
10
2.91078
20
-1.16199
11
2.89173
21
-1.16924
0
LINE
8
BLACK
6
CONTINUOUS
10
2.89173
20
-1.16924
11
2.87335
21
-1.17728
0
LINE
8
BLACK
6
CONTINUOUS
10
2.87335
20
-1.17728
11
2.85569
21
-1.18609
0
LINE
8
BLACK
6
CONTINUOUS
10
2.85569
20
-1.18609
11
2.83873
21
-1.19565
0
LINE
8
BLACK
6
CONTINUOUS
10
2.83873
20
-1.19565
11
2.82252
21
-1.20595
0
LINE
8
BLACK
6
CONTINUOUS
10
2.82252
20
-1.20595
11
2.80705
21
-1.21697
0
LINE
8
BLACK
6
CONTINUOUS
10
2.80705
20
-1.21697
11
2.79233
21
-1.22871
0
LINE
8
BLACK
6
CONTINUOUS
10
2.79233
20
-1.22871
11
2.77836
21
-1.24114
0
LINE
8
BLACK
6
CONTINUOUS
10
2.77836
20
-1.24114
11
2.76513
21
-1.25425
0
LINE
8
BLACK
6
CONTINUOUS
10
2.76513
20
-1.25425
11
2.75272
21
-1.26803
0
LINE
8
BLACK
6
CONTINUOUS
10
2.75272
20
-1.26803
11
2.74105
21
-1.28247
0
LINE
8
BLACK
6
CONTINUOUS
10
2.74105
20
-1.28247
11
2.73021
21
-1.29754
0
LINE
8
BLACK
6
CONTINUOUS
10
2.73021
20
-1.29754
11
2.72015
21
-1.31325
0
LINE
8
BLACK
6
CONTINUOUS
10
2.72015
20
-1.31325
11
2.71095
21
-1.32957
0
LINE
8
BLACK
6
CONTINUOUS
10
2.71095
20
-1.32957
11
2.70253
21
-1.34649
0
LINE
8
BLACK
6
CONTINUOUS
10
2.70253
20
-1.34649
11
2.69498
21
-1.36401
0
LINE
8
BLACK
6
CONTINUOUS
10
2.69498
20
-1.36401
11
2.68824
21
-1.38209
0
LINE
8
BLACK
6
CONTINUOUS
10
2.68824
20
-1.38209
11
2.6824
21
-1.40074
0
LINE
8
BLACK
6
CONTINUOUS
10
2.6824
20
-1.40074
11
2.67739
21
-1.41993
0
LINE
8
BLACK
6
CONTINUOUS
10
2.67739
20
-1.41993
11
2.67328
21
-1.43967
0
LINE
8
BLACK
6
CONTINUOUS
10
2.67328
20
-1.43967
11
2.67006
21
-1.45992
0
LINE
8
BLACK
6
CONTINUOUS
10
2.67006
20
-1.45992
11
2.66775
21
-1.48068
0
LINE
8
BLACK
6
CONTINUOUS
10
2.66775
20
-1.48068
11
2.66638
21
-1.50193
0
LINE
8
BLACK
6
CONTINUOUS
10
2.66638
20
-1.50193
11
2.66591
21
-1.5237
0
LINE
8
BLACK
6
CONTINUOUS
10
2.66591
20
-1.5237
11
2.66591
21
-5.74982
0
LINE
8
BLACK
6
CONTINUOUS
10
2.66591
20
-5.74982
11
2.66999
21
-5.81198
0
LINE
8
BLACK
6
CONTINUOUS
10
2.66999
20
-5.81198
11
2.68023
21
-5.87336
0
LINE
8
BLACK
6
CONTINUOUS
10
2.68023
20
-5.87336
11
2.69648
21
-5.93345
0
LINE
8
BLACK
6
CONTINUOUS
10
2.69648
20
-5.93345
11
2.71865
21
-5.99157
0
LINE
8
BLACK
6
CONTINUOUS
10
2.71865
20
-5.99157
11
2.74648
21
-6.04722
0
LINE
8
BLACK
6
CONTINUOUS
10
2.74648
20
-6.04722
11
2.77968
21
-6.09985
0
LINE
8
BLACK
6
CONTINUOUS
10
2.77968
20
-6.09985
11
2.81795
21
-6.14891
0
LINE
8
BLACK
6
CONTINUOUS
10
2.81795
20
-6.14891
11
2.86092
21
-6.19392
0
LINE
8
BLACK
6
CONTINUOUS
10
2.86092
20
-6.19392
11
2.90814
21
-6.23447
0
LINE
8
BLACK
6
CONTINUOUS
10
2.90814
20
-6.23447
11
2.95916
21
-6.2701
0
LINE
8
BLACK
6
CONTINUOUS
10
2.95916
20
-6.2701
11
3.01344
21
-6.30048
0
LINE
8
BLACK
6
CONTINUOUS
10
3.01344
20
-6.30048
11
3.0705
21
-6.32536
0
LINE
8
BLACK
6
CONTINUOUS
10
3.0705
20
-6.32536
11
3.12972
21
-6.3444
0
LINE
8
BLACK
6
CONTINUOUS
10
3.12972
20
-6.3444
11
3.19056
21
-6.3575
0
LINE
8
BLACK
6
CONTINUOUS
10
3.19056
20
-6.3575
11
3.25241
21
-6.36449
0
LINE
8
BLACK
6
CONTINUOUS
10
3.25241
20
-6.36449
11
3.31461
21
-6.36527
0
LINE
8
BLACK
6
CONTINUOUS
10
3.31461
20
-6.36527
11
3.37658
21
-6.3599
0
LINE
8
BLACK
6
CONTINUOUS
10
3.37658
20
-6.3599
11
3.43777
21
-6.3484
0
LINE
8
BLACK
6
CONTINUOUS
10
3.43777
20
-6.3484
11
3.49746
21
-6.33086
0
LINE
8
BLACK
6
CONTINUOUS
10
3.49746
20
-6.33086
11
3.55512
21
-6.3075
0
LINE
8
BLACK
6
CONTINUOUS
10
3.55512
20
-6.3075
11
3.61024
21
-6.27849
0
LINE
8
BLACK
6
CONTINUOUS
10
3.61024
20
-6.27849
11
3.62933
21
-6.2667
0
LINE
8
BLACK
6
CONTINUOUS
10
3.62933
20
-6.2667
11
3.62937
21
-6.26666
0
LINE
8
BLACK
6
CONTINUOUS
10
3.62937
20
-6.26666
11
3.62949
21
-6.2666
0
LINE
8
BLACK
6
CONTINUOUS
10
3.62949
20
-6.2666
11
3.62952
21
-6.26658
0
LINE
8
BLACK
6
CONTINUOUS
10
3.62952
20
-6.26658
11
3.62958
21
-6.26655
0
LINE
8
BLACK
6
CONTINUOUS
10
3.62958
20
-6.26655
11
3.62972
21
-6.26648
0
LINE
8
BLACK
6
CONTINUOUS
10
3.62972
20
-6.26648
11
3.62975
21
-6.26647
0
LINE
8
BLACK
6
CONTINUOUS
10
3.62975
20
-6.26647
11
3.62978
21
-6.26645
0
LINE
8
BLACK
6
CONTINUOUS
10
3.62978
20
-6.26645
11
3.62978
21
-6.26645
0
LINE
8
BLACK
6
CONTINUOUS
10
3.62978
20
-6.26645
11
5.54467
21
-5.14646
0
LINE
8
BLACK
6
CONTINUOUS
10
5.54467
20
-5.14646
11
5.55067
21
-5.14284
0
LINE
8
BLACK
6
CONTINUOUS
10
5.55067
20
-5.14284
11
5.55071
21
-5.1428
0
LINE
8
BLACK
6
CONTINUOUS
10
5.55071
20
-5.1428
11
5.55084
21
-5.14274
0
LINE
8
BLACK
6
CONTINUOUS
10
5.55084
20
-5.14274
11
5.55088
21
-5.14271
0
LINE
8
BLACK
6
CONTINUOUS
10
5.55088
20
-5.14271
11
5.55092
21
-5.14269
0
LINE
8
BLACK
6
CONTINUOUS
10
5.55092
20
-5.14269
11
5.55105
21
-5.14262
0
LINE
8
BLACK
6
CONTINUOUS
10
5.55105
20
-5.14262
11
5.55107
21
-5.14262
0
LINE
8
BLACK
6
CONTINUOUS
10
5.55107
20
-5.14262
11
5.61476
21
-5.10849
0
LINE
8
BLACK
6
CONTINUOUS
10
5.61476
20
-5.10849
11
5.61478
21
-5.10848
0
LINE
8
BLACK
6
CONTINUOUS
10
5.61478
20
-5.10848
11
5.61484
21
-5.10845
0
LINE
8
BLACK
6
CONTINUOUS
10
5.61484
20
-5.10845
11
5.6149
21
-5.10842
0
LINE
8
BLACK
6
CONTINUOUS
10
5.6149
20
-5.10842
11
5.61493
21
-5.10841
0
LINE
8
BLACK
6
CONTINUOUS
10
5.61493
20
-5.10841
11
5.61499
21
-5.10837
0
LINE
8
BLACK
6
CONTINUOUS
10
5.61499
20
-5.10837
11
5.61504
21
-5.10835
0
LINE
8
BLACK
6
CONTINUOUS
10
5.61504
20
-5.10835
11
5.61508
21
-5.10833
0
LINE
8
BLACK
6
CONTINUOUS
10
5.61508
20
-5.10833
11
5.61511
21
-5.10831
0
LINE
8
BLACK
6
CONTINUOUS
10
5.61511
20
-5.10831
11
5.61517
21
-5.10829
0
LINE
8
BLACK
6
CONTINUOUS
10
5.61517
20
-5.10829
11
5.68167
21
-5.07984
0
LINE
8
BLACK
6
CONTINUOUS
10
5.68167
20
-5.07984
11
5.68171
21
-5.07981
0
LINE
8
BLACK
6
CONTINUOUS
10
5.68171
20
-5.07981
11
5.68181
21
-5.07976
0
LINE
8
BLACK
6
CONTINUOUS
10
5.68181
20
-5.07976
11
5.68192
21
-5.07971
0
LINE
8
BLACK
6
CONTINUOUS
10
5.68192
20
-5.07971
11
5.68204
21
-5.07967
0
LINE
8
BLACK
6
CONTINUOUS
10
5.68204
20
-5.07967
11
5.68215
21
-5.07963
0
LINE
8
BLACK
6
CONTINUOUS
10
5.68215
20
-5.07963
11
5.6822
21
-5.07962
0
LINE
8
BLACK
6
CONTINUOUS
10
5.6822
20
-5.07962
11
5.75072
21
-5.05712
0
LINE
8
BLACK
6
CONTINUOUS
10
5.75072
20
-5.05712
11
5.75074
21
-5.05711
0
LINE
8
BLACK
6
CONTINUOUS
10
5.75074
20
-5.05711
11
5.7509
21
-5.05706
0
LINE
8
BLACK
6
CONTINUOUS
10
5.7509
20
-5.05706
11
5.75097
21
-5.05704
0
LINE
8
BLACK
6
CONTINUOUS
10
5.75097
20
-5.05704
11
5.751
21
-5.05703
0
LINE
8
BLACK
6
CONTINUOUS
10
5.751
20
-5.05703
11
5.75111
21
-5.057
0
LINE
8
BLACK
6
CONTINUOUS
10
5.75111
20
-5.057
11
5.75111
21
-5.057
0
LINE
8
BLACK
6
CONTINUOUS
10
5.75111
20
-5.057
11
5.75113
21
-5.05699
0
LINE
8
BLACK
6
CONTINUOUS
10
5.75113
20
-5.05699
11
5.7512
21
-5.05698
0
LINE
8
BLACK
6
CONTINUOUS
10
5.7512
20
-5.05698
11
5.75127
21
-5.05696
0
LINE
8
BLACK
6
CONTINUOUS
10
5.75127
20
-5.05696
11
5.75133
21
-5.05695
0
LINE
8
BLACK
6
CONTINUOUS
10
5.75133
20
-5.05695
11
5.82169
21
-5.04046
0
LINE
8
BLACK
6
CONTINUOUS
10
5.82169
20
-5.04046
11
5.82182
21
-5.04042
0
LINE
8
BLACK
6
CONTINUOUS
10
5.82182
20
-5.04042
11
5.82198
21
-5.04041
0
LINE
8
BLACK
6
CONTINUOUS
10
5.82198
20
-5.04041
11
5.82214
21
-5.04039
0
LINE
8
BLACK
6
CONTINUOUS
10
5.82214
20
-5.04039
11
5.82224
21
-5.04039
0
LINE
8
BLACK
6
CONTINUOUS
10
5.82224
20
-5.04039
11
5.89369
21
-5.03012
0
LINE
8
BLACK
6
CONTINUOUS
10
5.89369
20
-5.03012
11
5.89376
21
-5.03009
0
LINE
8
BLACK
6
CONTINUOUS
10
5.89376
20
-5.03009
11
5.89386
21
-5.03008
0
LINE
8
BLACK
6
CONTINUOUS
10
5.89386
20
-5.03008
11
5.89387
21
-5.03007
0
LINE
8
BLACK
6
CONTINUOUS
10
5.89387
20
-5.03007
11
5.89396
21
-5.03006
0
LINE
8
BLACK
6
CONTINUOUS
10
5.89396
20
-5.03006
11
5.89405
21
-5.03005
0
LINE
8
BLACK
6
CONTINUOUS
10
5.89405
20
-5.03005
11
5.89405
21
-5.03005
0
LINE
8
BLACK
6
CONTINUOUS
10
5.89405
20
-5.03005
11
5.89416
21
-5.03003
0
LINE
8
BLACK
6
CONTINUOUS
10
5.89416
20
-5.03003
11
5.89425
21
-5.03004
0
LINE
8
BLACK
6
CONTINUOUS
10
5.89425
20
-5.03004
11
5.96638
21
-5.02603
0
LINE
8
BLACK
6
CONTINUOUS
10
5.96638
20
-5.02603
11
5.96644
21
-5.02602
0
LINE
8
BLACK
6
CONTINUOUS
10
5.96644
20
-5.02602
11
5.96648
21
-5.02602
0
LINE
8
BLACK
6
CONTINUOUS
10
5.96648
20
-5.02602
11
5.96652
21
-5.02602
0
LINE
8
BLACK
6
CONTINUOUS
10
5.96652
20
-5.02602
11
5.96658
21
-5.02602
0
LINE
8
BLACK
6
CONTINUOUS
10
5.96658
20
-5.02602
11
5.96664
21
-5.02602
0
LINE
8
BLACK
6
CONTINUOUS
10
5.96664
20
-5.02602
11
8.3977
21
-5.02366
0
LINE
8
BLACK
6
CONTINUOUS
10
8.3977
20
-5.02366
11
8.42213
21
-5.02339
0
LINE
8
BLACK
6
CONTINUOUS
10
8.42213
20
-5.02339
11
8.44569
21
-5.02256
0
LINE
8
BLACK
6
CONTINUOUS
10
8.44569
20
-5.02256
11
8.46842
21
-5.02115
0
LINE
8
BLACK
6
CONTINUOUS
10
8.46842
20
-5.02115
11
8.49031
21
-5.01918
0
LINE
8
BLACK
6
CONTINUOUS
10
8.49031
20
-5.01918
11
8.51137
21
-5.01663
0
LINE
8
BLACK
6
CONTINUOUS
10
8.51137
20
-5.01663
11
8.53161
21
-5.01345
0
LINE
8
BLACK
6
CONTINUOUS
10
8.53161
20
-5.01345
11
8.55102
21
-5.00969
0
LINE
8
BLACK
6
CONTINUOUS
10
8.55102
20
-5.00969
11
8.56961
21
-5.0053
0
LINE
8
BLACK
6
CONTINUOUS
10
8.56961
20
-5.0053
11
8.58738
21
-5.00032
0
LINE
8
BLACK
6
CONTINUOUS
10
8.58738
20
-5.00032
11
8.60433
21
-4.99468
0
LINE
8
BLACK
6
CONTINUOUS
10
8.60433
20
-4.99468
11
8.62048
21
-4.98842
0
LINE
8
BLACK
6
CONTINUOUS
10
8.62048
20
-4.98842
11
8.63582
21
-4.9815
0
LINE
8
BLACK
6
CONTINUOUS
10
8.63582
20
-4.9815
11
8.65037
21
-4.97391
0
LINE
8
BLACK
6
CONTINUOUS
10
8.65037
20
-4.97391
11
8.66412
21
-4.96567
0
LINE
8
BLACK
6
CONTINUOUS
10
8.66412
20
-4.96567
11
8.67709
21
-4.95672
0
LINE
8
BLACK
6
CONTINUOUS
10
8.67709
20
-4.95672
11
8.68927
21
-4.94712
0
LINE
8
BLACK
6
CONTINUOUS
10
8.68927
20
-4.94712
11
8.70069
21
-4.93677
0
LINE
8
BLACK
6
CONTINUOUS
10
8.70069
20
-4.93677
11
8.71134
21
-4.92573
0
LINE
8
BLACK
6
CONTINUOUS
10
8.71134
20
-4.92573
11
8.72123
21
-4.91398
0
LINE
8
BLACK
6
CONTINUOUS
10
8.72123
20
-4.91398
11
8.73038
21
-4.90149
0
LINE
8
BLACK
6
CONTINUOUS
10
8.73038
20
-4.90149
11
8.73877
21
-4.88825
0
LINE
8
BLACK
6
CONTINUOUS
10
8.73877
20
-4.88825
11
8.74642
21
-4.87419
0
LINE
8
BLACK
6
CONTINUOUS
10
8.74642
20
-4.87419
11
8.75334
21
-4.85942
0
LINE
8
BLACK
6
CONTINUOUS
10
8.75334
20
-4.85942
11
8.75952
21
-4.84382
0
LINE
8
BLACK
6
CONTINUOUS
10
8.75952
20
-4.84382
11
8.76496
21
-4.82738
0
LINE
8
BLACK
6
CONTINUOUS
10
8.76496
20
-4.82738
11
8.76967
21
-4.81016
0
LINE
8
BLACK
6
CONTINUOUS
10
8.76967
20
-4.81016
11
8.77365
21
-4.79206
0
LINE
8
BLACK
6
CONTINUOUS
10
8.77365
20
-4.79206
11
8.77691
21
-4.77317
0
LINE
8
BLACK
6
CONTINUOUS
10
8.77691
20
-4.77317
11
8.77944
21
-4.75337
0
LINE
8
BLACK
6
CONTINUOUS
10
8.77944
20
-4.75337
11
8.78124
21
-4.73274
0
LINE
8
BLACK
6
CONTINUOUS
10
8.78124
20
-4.73274
11
8.78232
21
-4.71123
0
LINE
8
BLACK
6
CONTINUOUS
10
8.78232
20
-4.71123
11
8.78268
21
-4.6888
0
LINE
8
BLACK
6
CONTINUOUS
10
8.78268
20
-4.6888
11
8.78268
21
-3.69993
0
LINE
8
BLACK
6
CONTINUOUS
10
8.78268
20
-3.69993
11
8.78268
21
-3.69991
0
LINE
8
BLACK
6
CONTINUOUS
10
8.78268
20
-3.69991
11
8.78268
21
-3.69983
0
LINE
8
BLACK
6
CONTINUOUS
10
8.78268
20
-3.69983
11
8.78268
21
-3.69975
0
LINE
8
BLACK
6
CONTINUOUS
10
8.78268
20
-3.69975
11
8.78268
21
-3.69973
0
LINE
8
BLACK
6
CONTINUOUS
10
3.43841
20
-6.35229
11
3.4384
21
-6.35229
0
LINE
8
BLACK
6
CONTINUOUS
10
3.4384
20
-6.35229
11
3.3774
21
-6.36375
0
LINE
8
BLACK
6
CONTINUOUS
10
3.3774
20
-6.36375
11
3.3774
21
-6.36375
0
LINE
8
BLACK
6
CONTINUOUS
10
3.3774
20
-6.36375
11
3.37725
21
-6.36378
0
LINE
8
BLACK
6
CONTINUOUS
10
3.37725
20
-6.36378
11
3.37733
21
-6.36378
0
LINE
8
BLACK
6
CONTINUOUS
10
3.37733
20
-6.36378
11
3.37734
21
-6.36378
0
LINE
8
BLACK
6
CONTINUOUS
10
3.37734
20
-6.36378
11
3.43841
21
-6.35229
0
LINE
8
BLACK
6
CONTINUOUS
10
3.43841
20
-6.35229
11
3.43843
21
-6.35228
0
LINE
8
BLACK
6
CONTINUOUS
10
3.43843
20
-6.35228
11
3.43841
21
-6.35229
0
LINE
8
BLACK
6
CONTINUOUS
10
3.12887
20
-6.34825
11
3.12898
21
-6.34829
0
LINE
8
BLACK
6
CONTINUOUS
10
3.12898
20
-6.34829
11
3.17564
21
-6.35832
0
LINE
8
BLACK
6
CONTINUOUS
10
3.17564
20
-6.35832
11
3.12899
21
-6.34826
0
LINE
8
BLACK
6
CONTINUOUS
10
3.12899
20
-6.34826
11
3.12899
21
-6.34826
0
LINE
8
BLACK
6
CONTINUOUS
10
3.12899
20
-6.34826
11
3.12885
21
-6.34823
0
LINE
8
BLACK
6
CONTINUOUS
10
3.12885
20
-6.34823
11
3.12877
21
-6.34822
0
LINE
8
BLACK
6
CONTINUOUS
10
3.12877
20
-6.34822
11
3.12887
21
-6.34825
0
LINE
8
BLACK
6
CONTINUOUS
10
3.49903
20
-6.33447
11
3.49903
21
-6.33447
0
LINE
8
BLACK
6
CONTINUOUS
10
3.49903
20
-6.33447
11
3.49891
21
-6.33452
0
LINE
8
BLACK
6
CONTINUOUS
10
3.49891
20
-6.33452
11
3.49895
21
-6.33451
0
LINE
8
BLACK
6
CONTINUOUS
10
3.49895
20
-6.33451
11
3.49895
21
-6.33451
0
LINE
8
BLACK
6
CONTINUOUS
10
3.49895
20
-6.33451
11
3.51581
21
-6.32767
0
LINE
8
BLACK
6
CONTINUOUS
10
3.51581
20
-6.32767
11
3.49903
21
-6.33447
0
LINE
8
BLACK
6
CONTINUOUS
10
3.0115
20
-6.30393
11
3.01158
21
-6.30396
0
LINE
8
BLACK
6
CONTINUOUS
10
3.01158
20
-6.30396
11
3.01165
21
-6.304
0
LINE
8
BLACK
6
CONTINUOUS
10
3.01165
20
-6.304
11
3.01166
21
-6.304
0
LINE
8
BLACK
6
CONTINUOUS
10
3.01166
20
-6.304
11
3.01172
21
-6.30403
0
LINE
8
BLACK
6
CONTINUOUS
10
3.01172
20
-6.30403
11
3.01181
21
-6.30407
0
LINE
8
BLACK
6
CONTINUOUS
10
3.01181
20
-6.30407
11
3.01182
21
-6.30408
0
LINE
8
BLACK
6
CONTINUOUS
10
3.01182
20
-6.30408
11
3.02883
21
-6.31148
0
LINE
8
BLACK
6
CONTINUOUS
10
3.02883
20
-6.31148
11
3.01195
21
-6.30413
0
LINE
8
BLACK
6
CONTINUOUS
10
3.01195
20
-6.30413
11
3.01195
21
-6.30413
0
LINE
8
BLACK
6
CONTINUOUS
10
3.01195
20
-6.30413
11
3.01175
21
-6.30404
0
LINE
8
BLACK
6
CONTINUOUS
10
3.01175
20
-6.30404
11
3.01168
21
-6.30401
0
LINE
8
BLACK
6
CONTINUOUS
10
3.01168
20
-6.30401
11
3.01168
21
-6.30401
0
LINE
8
BLACK
6
CONTINUOUS
10
3.01168
20
-6.30401
11
3.01168
21
-6.30401
0
LINE
8
BLACK
6
CONTINUOUS
10
3.01168
20
-6.30401
11
3.01153
21
-6.30392
0
LINE
8
BLACK
6
CONTINUOUS
10
3.01153
20
-6.30392
11
3.01143
21
-6.30387
0
LINE
8
BLACK
6
CONTINUOUS
10
3.01143
20
-6.30387
11
3.01143
21
-6.30387
0
LINE
8
BLACK
6
CONTINUOUS
10
3.01143
20
-6.30387
11
2.96074
21
-6.2755
0
LINE
8
BLACK
6
CONTINUOUS
10
2.96074
20
-6.2755
11
3.0115
21
-6.30393
0
LINE
8
BLACK
6
CONTINUOUS
10
3.58744
20
-6.29494
11
3.61208
21
-6.28198
0
LINE
8
BLACK
6
CONTINUOUS
10
3.61208
20
-6.28198
11
3.61211
21
-6.28195
0
LINE
8
BLACK
6
CONTINUOUS
10
3.61211
20
-6.28195
11
3.58744
21
-6.29494
0
LINE
8
BLACK
6
CONTINUOUS
10
3.63147
20
-6.27003
11
3.63142
21
-6.27005
0
LINE
8
BLACK
6
CONTINUOUS
10
3.63142
20
-6.27005
11
3.63139
21
-6.27007
0
LINE
8
BLACK
6
CONTINUOUS
10
3.63139
20
-6.27007
11
3.63127
21
-6.27013
0
LINE
8
BLACK
6
CONTINUOUS
10
3.63127
20
-6.27013
11
3.63125
21
-6.27014
0
LINE
8
BLACK
6
CONTINUOUS
10
3.63125
20
-6.27014
11
3.61299
21
-6.28142
0
LINE
8
BLACK
6
CONTINUOUS
10
3.61299
20
-6.28142
11
3.6315
21
-6.27002
0
LINE
8
BLACK
6
CONTINUOUS
10
3.6315
20
-6.27002
11
3.63152
21
-6.27
0
LINE
8
BLACK
6
CONTINUOUS
10
3.63152
20
-6.27
11
3.63158
21
-6.26997
0
LINE
8
BLACK
6
CONTINUOUS
10
3.63158
20
-6.26997
11
3.63159
21
-6.26996
0
LINE
8
BLACK
6
CONTINUOUS
10
3.63159
20
-6.26996
11
3.63147
21
-6.27003
0
LINE
8
BLACK
6
CONTINUOUS
10
2.9569
20
-6.27334
11
2.95694
21
-6.27335
0
LINE
8
BLACK
6
CONTINUOUS
10
2.95694
20
-6.27335
11
2.95683
21
-6.27328
0
LINE
8
BLACK
6
CONTINUOUS
10
2.95683
20
-6.27328
11
2.95683
21
-6.27328
0
LINE
8
BLACK
6
CONTINUOUS
10
2.95683
20
-6.27328
11
2.94922
21
-6.26797
0
LINE
8
BLACK
6
CONTINUOUS
10
2.94922
20
-6.26797
11
2.9569
21
-6.27334
0
LINE
8
BLACK
6
CONTINUOUS
10
5.5466
20
-5.14989
11
5.54659
21
-5.14989
0
LINE
8
BLACK
6
CONTINUOUS
10
5.54659
20
-5.14989
11
3.63164
21
-6.26993
0
LINE
8
BLACK
6
CONTINUOUS
10
3.63164
20
-6.26993
11
3.63162
21
-6.26994
0
LINE
8
BLACK
6
CONTINUOUS
10
3.63162
20
-6.26994
11
3.63165
21
-6.26993
0
LINE
8
BLACK
6
CONTINUOUS
10
3.63165
20
-6.26993
11
3.63167
21
-6.26992
0
LINE
8
BLACK
6
CONTINUOUS
10
3.63167
20
-6.26992
11
5.54663
21
-5.14988
0
LINE
8
BLACK
6
CONTINUOUS
10
5.54663
20
-5.14988
11
5.54665
21
-5.14986
0
LINE
8
BLACK
6
CONTINUOUS
10
5.54665
20
-5.14986
11
5.5466
21
-5.14989
0
LINE
8
BLACK
6
CONTINUOUS
10
2.85806
20
-6.19665
11
2.85812
21
-6.1967
0
LINE
8
BLACK
6
CONTINUOUS
10
2.85812
20
-6.1967
11
2.85814
21
-6.19671
0
LINE
8
BLACK
6
CONTINUOUS
10
2.85814
20
-6.19671
11
2.85815
21
-6.19672
0
LINE
8
BLACK
6
CONTINUOUS
10
2.85815
20
-6.19672
11
2.8581
21
-6.19667
0
LINE
8
BLACK
6
CONTINUOUS
10
2.8581
20
-6.19667
11
2.85801
21
-6.19657
0
LINE
8
BLACK
6
CONTINUOUS
10
2.85801
20
-6.19657
11
2.85801
21
-6.19657
0
LINE
8
BLACK
6
CONTINUOUS
10
2.85801
20
-6.19657
11
2.83024
21
-6.16749
0
LINE
8
BLACK
6
CONTINUOUS
10
2.83024
20
-6.16749
11
2.85806
21
-6.19665
0
LINE
8
BLACK
6
CONTINUOUS
10
2.81489
20
-6.15139
11
2.8149
21
-6.1514
0
LINE
8
BLACK
6
CONTINUOUS
10
2.8149
20
-6.1514
11
2.81489
21
-6.15139
0
LINE
8
BLACK
6
CONTINUOUS
10
2.81489
20
-6.15139
11
2.81479
21
-6.15126
0
LINE
8
BLACK
6
CONTINUOUS
10
2.81479
20
-6.15126
11
2.81479
21
-6.15126
0
LINE
8
BLACK
6
CONTINUOUS
10
2.81479
20
-6.15126
11
2.78323
21
-6.1108
0
LINE
8
BLACK
6
CONTINUOUS
10
2.78323
20
-6.1108
11
2.81489
21
-6.15139
0
LINE
8
BLACK
6
CONTINUOUS
10
2.715
20
-5.99308
11
2.7151
21
-5.99326
0
LINE
8
BLACK
6
CONTINUOUS
10
2.7151
20
-5.99326
11
2.71513
21
-5.99338
0
LINE
8
BLACK
6
CONTINUOUS
10
2.71513
20
-5.99338
11
2.74295
21
-6.04902
0
LINE
8
BLACK
6
CONTINUOUS
10
2.74295
20
-6.04902
11
2.74298
21
-6.04906
0
LINE
8
BLACK
6
CONTINUOUS
10
2.74298
20
-6.04906
11
2.74303
21
-6.04915
0
LINE
8
BLACK
6
CONTINUOUS
10
2.74303
20
-6.04915
11
2.74303
21
-6.04915
0
LINE
8
BLACK
6
CONTINUOUS
10
2.74303
20
-6.04915
11
2.74306
21
-6.04921
0
LINE
8
BLACK
6
CONTINUOUS
10
2.74306
20
-6.04921
11
2.7431
21
-6.04927
0
LINE
8
BLACK
6
CONTINUOUS
10
2.7431
20
-6.04927
11
2.77637
21
-6.10198
0
LINE
8
BLACK
6
CONTINUOUS
10
2.77637
20
-6.10198
11
2.77637
21
-6.10198
0
LINE
8
BLACK
6
CONTINUOUS
10
2.77637
20
-6.10198
11
2.77644
21
-6.10209
0
LINE
8
BLACK
6
CONTINUOUS
10
2.77644
20
-6.10209
11
2.77645
21
-6.10211
0
LINE
8
BLACK
6
CONTINUOUS
10
2.77645
20
-6.10211
11
2.77639
21
-6.10201
0
LINE
8
BLACK
6
CONTINUOUS
10
2.77639
20
-6.10201
11
2.7763
21
-6.10187
0
LINE
8
BLACK
6
CONTINUOUS
10
2.7763
20
-6.10187
11
2.7763
21
-6.10187
0
LINE
8
BLACK
6
CONTINUOUS
10
2.7763
20
-6.10187
11
2.7432
21
-6.0494
0
LINE
8
BLACK
6
CONTINUOUS
10
2.7432
20
-6.0494
11
2.7432
21
-6.0494
0
LINE
8
BLACK
6
CONTINUOUS
10
2.7432
20
-6.0494
11
2.7431
21
-6.04924
0
LINE
8
BLACK
6
CONTINUOUS
10
2.7431
20
-6.04924
11
2.74305
21
-6.04916
0
LINE
8
BLACK
6
CONTINUOUS
10
2.74305
20
-6.04916
11
2.74305
21
-6.04916
0
LINE
8
BLACK
6
CONTINUOUS
10
2.74305
20
-6.04916
11
2.74305
21
-6.04916
0
LINE
8
BLACK
6
CONTINUOUS
10
2.74305
20
-6.04916
11
2.74297
21
-6.04901
0
LINE
8
BLACK
6
CONTINUOUS
10
2.74297
20
-6.04901
11
2.74292
21
-6.0489
0
LINE
8
BLACK
6
CONTINUOUS
10
2.74292
20
-6.0489
11
2.74292
21
-6.0489
0
LINE
8
BLACK
6
CONTINUOUS
10
2.74292
20
-6.0489
11
2.71518
21
-5.99342
0
LINE
8
BLACK
6
CONTINUOUS
10
2.71518
20
-5.99342
11
2.71518
21
-5.99341
0
LINE
8
BLACK
6
CONTINUOUS
10
2.71518
20
-5.99341
11
2.71509
21
-5.99325
0
LINE
8
BLACK
6
CONTINUOUS
10
2.71509
20
-5.99325
11
2.71505
21
-5.99316
0
LINE
8
BLACK
6
CONTINUOUS
10
2.71505
20
-5.99316
11
2.71505
21
-5.99316
0
LINE
8
BLACK
6
CONTINUOUS
10
2.71505
20
-5.99316
11
2.71505
21
-5.99315
0
LINE
8
BLACK
6
CONTINUOUS
10
2.71505
20
-5.99315
11
2.71499
21
-5.99301
0
LINE
8
BLACK
6
CONTINUOUS
10
2.71499
20
-5.99301
11
2.71494
21
-5.99288
0
LINE
8
BLACK
6
CONTINUOUS
10
2.71494
20
-5.99288
11
2.71494
21
-5.99288
0
LINE
8
BLACK
6
CONTINUOUS
10
2.71494
20
-5.99288
11
2.70355
21
-5.96302
0
LINE
8
BLACK
6
CONTINUOUS
10
2.70355
20
-5.96302
11
2.715
21
-5.99308
0
LINE
8
BLACK
6
CONTINUOUS
10
2.67633
20
-5.87405
11
2.67635
21
-5.87411
0
LINE
8
BLACK
6
CONTINUOUS
10
2.67635
20
-5.87411
11
2.67635
21
-5.87414
0
LINE
8
BLACK
6
CONTINUOUS
10
2.67635
20
-5.87414
11
2.67639
21
-5.87426
0
LINE
8
BLACK
6
CONTINUOUS
10
2.67639
20
-5.87426
11
2.6764
21
-5.87433
0
LINE
8
BLACK
6
CONTINUOUS
10
2.6764
20
-5.87433
11
2.67641
21
-5.8744
0
LINE
8
BLACK
6
CONTINUOUS
10
2.67641
20
-5.8744
11
2.67641
21
-5.87444
0
LINE
8
BLACK
6
CONTINUOUS
10
2.67641
20
-5.87444
11
2.69236
21
-5.93328
0
LINE
8
BLACK
6
CONTINUOUS
10
2.69236
20
-5.93328
11
2.67646
21
-5.87448
0
LINE
8
BLACK
6
CONTINUOUS
10
2.67646
20
-5.87448
11
2.67646
21
-5.87448
0
LINE
8
BLACK
6
CONTINUOUS
10
2.67646
20
-5.87448
11
2.67639
21
-5.87423
0
LINE
8
BLACK
6
CONTINUOUS
10
2.67639
20
-5.87423
11
2.67638
21
-5.8742
0
LINE
8
BLACK
6
CONTINUOUS
10
2.67638
20
-5.8742
11
2.67638
21
-5.8742
0
LINE
8
BLACK
6
CONTINUOUS
10
2.67638
20
-5.8742
11
2.67638
21
-5.8742
0
LINE
8
BLACK
6
CONTINUOUS
10
2.67638
20
-5.8742
11
2.67634
21
-5.87398
0
LINE
8
BLACK
6
CONTINUOUS
10
2.67634
20
-5.87398
11
2.67633
21
-5.87391
0
LINE
8
BLACK
6
CONTINUOUS
10
2.67633
20
-5.87391
11
2.67633
21
-5.87391
0
LINE
8
BLACK
6
CONTINUOUS
10
2.67633
20
-5.87391
11
2.66663
21
-5.81576
0
LINE
8
BLACK
6
CONTINUOUS
10
2.66663
20
-5.81576
11
2.67633
21
-5.87405
0
LINE
8
BLACK
6
CONTINUOUS
10
2.66197
20
-5.75006
11
2.66604
21
-5.81219
0
LINE
8
BLACK
6
CONTINUOUS
10
2.66604
20
-5.81219
11
2.66606
21
-5.81225
0
LINE
8
BLACK
6
CONTINUOUS
10
2.66606
20
-5.81225
11
2.66605
21
-5.81214
0
LINE
8
BLACK
6
CONTINUOUS
10
2.66605
20
-5.81214
11
2.66605
21
-5.81214
0
LINE
8
BLACK
6
CONTINUOUS
10
2.66605
20
-5.81214
11
2.66197
21
-5.75004
0
LINE
8
BLACK
6
CONTINUOUS
10
2.66197
20
-5.75004
11
2.66197
21
-5.75004
0
LINE
8
BLACK
6
CONTINUOUS
10
2.66197
20
-5.75004
11
2.66197
21
-5.75006
0
LINE
8
BLACK
6
CONTINUOUS
10
2.66197
20
-5.74985
11
2.66197
21
-1.52376
0
LINE
8
BLACK
6
CONTINUOUS
10
2.66197
20
-1.52376
11
2.66197
21
-1.52376
0
LINE
8
BLACK
6
CONTINUOUS
10
2.66197
20
-1.52376
11
2.66197
21
-5.74985
0
LINE
8
BLACK
6
CONTINUOUS
10
5.75187
20
-5.06089
11
5.68345
21
-5.08335
0
LINE
8
BLACK
6
CONTINUOUS
10
5.68345
20
-5.08335
11
5.68343
21
-5.08336
0
LINE
8
BLACK
6
CONTINUOUS
10
5.68343
20
-5.08336
11
5.68341
21
-5.08337
0
LINE
8
BLACK
6
CONTINUOUS
10
5.68341
20
-5.08337
11
5.68338
21
-5.08339
0
LINE
8
BLACK
6
CONTINUOUS
10
5.68338
20
-5.08339
11
5.68335
21
-5.0834
0
LINE
8
BLACK
6
CONTINUOUS
10
5.68335
20
-5.0834
11
5.68331
21
-5.08342
0
LINE
8
BLACK
6
CONTINUOUS
10
5.68331
20
-5.08342
11
5.68326
21
-5.08344
0
LINE
8
BLACK
6
CONTINUOUS
10
5.68326
20
-5.08344
11
5.61673
21
-5.1119
0
LINE
8
BLACK
6
CONTINUOUS
10
5.61673
20
-5.1119
11
5.61665
21
-5.11194
0
LINE
8
BLACK
6
CONTINUOUS
10
5.61665
20
-5.11194
11
5.55301
21
-5.14604
0
LINE
8
BLACK
6
CONTINUOUS
10
5.55301
20
-5.14604
11
5.55295
21
-5.14609
0
LINE
8
BLACK
6
CONTINUOUS
10
5.55295
20
-5.14609
11
5.55295
21
-5.14609
0
LINE
8
BLACK
6
CONTINUOUS
10
5.55295
20
-5.14609
11
5.55295
21
-5.14609
0
LINE
8
BLACK
6
CONTINUOUS
10
5.55295
20
-5.14609
11
5.5528
21
-5.14618
0
LINE
8
BLACK
6
CONTINUOUS
10
5.5528
20
-5.14618
11
5.55261
21
-5.14628
0
LINE
8
BLACK
6
CONTINUOUS
10
5.55261
20
-5.14628
11
5.55261
21
-5.14628
0
LINE
8
BLACK
6
CONTINUOUS
10
5.55261
20
-5.14628
11
5.55261
21
-5.14628
0
LINE
8
BLACK
6
CONTINUOUS
10
5.55261
20
-5.14628
11
5.55258
21
-5.14629
0
LINE
8
BLACK
6
CONTINUOUS
10
5.55258
20
-5.14629
11
5.54676
21
-5.14979
0
LINE
8
BLACK
6
CONTINUOUS
10
5.54676
20
-5.14979
11
5.54675
21
-5.1498
0
LINE
8
BLACK
6
CONTINUOUS
10
5.54675
20
-5.1498
11
5.54668
21
-5.14984
0
LINE
8
BLACK
6
CONTINUOUS
10
5.54668
20
-5.14984
11
5.54679
21
-5.14978
0
LINE
8
BLACK
6
CONTINUOUS
10
5.54679
20
-5.14978
11
5.54685
21
-5.14975
0
LINE
8
BLACK
6
CONTINUOUS
10
5.54685
20
-5.14975
11
5.54688
21
-5.14973
0
LINE
8
BLACK
6
CONTINUOUS
10
5.54688
20
-5.14973
11
5.547
21
-5.14967
0
LINE
8
BLACK
6
CONTINUOUS
10
5.547
20
-5.14967
11
5.54703
21
-5.14966
0
LINE
8
BLACK
6
CONTINUOUS
10
5.54703
20
-5.14966
11
5.55276
21
-5.14621
0
LINE
8
BLACK
6
CONTINUOUS
10
5.55276
20
-5.14621
11
5.5528
21
-5.14618
0
LINE
8
BLACK
6
CONTINUOUS
10
5.5528
20
-5.14618
11
5.55285
21
-5.14616
0
LINE
8
BLACK
6
CONTINUOUS
10
5.55285
20
-5.14616
11
5.55289
21
-5.14614
0
LINE
8
BLACK
6
CONTINUOUS
10
5.55289
20
-5.14614
11
5.55293
21
-5.14612
0
LINE
8
BLACK
6
CONTINUOUS
10
5.55293
20
-5.14612
11
5.61662
21
-5.11197
0
LINE
8
BLACK
6
CONTINUOUS
10
5.61662
20
-5.11197
11
5.6167
21
-5.11193
0
LINE
8
BLACK
6
CONTINUOUS
10
5.6167
20
-5.11193
11
5.6167
21
-5.11193
0
LINE
8
BLACK
6
CONTINUOUS
10
5.6167
20
-5.11193
11
5.61671
21
-5.11192
0
LINE
8
BLACK
6
CONTINUOUS
10
5.61671
20
-5.11192
11
5.61679
21
-5.11189
0
LINE
8
BLACK
6
CONTINUOUS
10
5.61679
20
-5.11189
11
5.6832
21
-5.08347
0
LINE
8
BLACK
6
CONTINUOUS
10
5.6832
20
-5.08347
11
5.68327
21
-5.08344
0
LINE
8
BLACK
6
CONTINUOUS
10
5.68327
20
-5.08344
11
5.68328
21
-5.08343
0
LINE
8
BLACK
6
CONTINUOUS
10
5.68328
20
-5.08343
11
5.68329
21
-5.08343
0
LINE
8
BLACK
6
CONTINUOUS
10
5.68329
20
-5.08343
11
5.68337
21
-5.0834
0
LINE
8
BLACK
6
CONTINUOUS
10
5.68337
20
-5.0834
11
5.75192
21
-5.06088
0
LINE
8
BLACK
6
CONTINUOUS
10
5.75192
20
-5.06088
11
5.75187
21
-5.06089
0
LINE
8
BLACK
6
CONTINUOUS
10
5.82246
20
-5.04433
11
5.82243
21
-5.04433
0
LINE
8
BLACK
6
CONTINUOUS
10
5.82243
20
-5.04433
11
5.75234
21
-5.06076
0
LINE
8
BLACK
6
CONTINUOUS
10
5.75234
20
-5.06076
11
5.75233
21
-5.06076
0
LINE
8
BLACK
6
CONTINUOUS
10
5.75233
20
-5.06076
11
5.7523
21
-5.06077
0
LINE
8
BLACK
6
CONTINUOUS
10
5.7523
20
-5.06077
11
5.82247
21
-5.04433
0
LINE
8
BLACK
6
CONTINUOUS
10
5.82247
20
-5.04433
11
5.82246
21
-5.04433
0
LINE
8
BLACK
6
CONTINUOUS
10
5.89455
20
-5.03396
11
5.89449
21
-5.03398
0
LINE
8
BLACK
6
CONTINUOUS
10
5.89449
20
-5.03398
11
5.96658
21
-5.02997
0
LINE
8
BLACK
6
CONTINUOUS
10
5.96658
20
-5.02997
11
5.96663
21
-5.02996
0
LINE
8
BLACK
6
CONTINUOUS
10
5.96663
20
-5.02996
11
5.96668
21
-5.02996
0
LINE
8
BLACK
6
CONTINUOUS
10
5.96668
20
-5.02996
11
5.96668
21
-5.02996
0
LINE
8
BLACK
6
CONTINUOUS
10
5.96668
20
-5.02996
11
5.96659
21
-5.02996
0
LINE
8
BLACK
6
CONTINUOUS
10
5.96659
20
-5.02996
11
5.89455
21
-5.03396
0
LINE
8
BLACK
6
CONTINUOUS
10
5.96677
20
-5.02996
11
5.96677
21
-5.02996
0
LINE
8
BLACK
6
CONTINUOUS
10
5.96677
20
-5.02996
11
8.39763
21
-5.0276
0
LINE
8
BLACK
6
CONTINUOUS
10
8.39763
20
-5.0276
11
8.39763
21
-5.0276
0
LINE
8
BLACK
6
CONTINUOUS
10
8.39763
20
-5.0276
11
5.96677
21
-5.02996
0
LINE
8
BLACK
6
CONTINUOUS
10
8.39782
20
-5.0276
11
8.39781
21
-5.0276
0
LINE
8
BLACK
6
CONTINUOUS
10
8.39781
20
-5.0276
11
8.39772
21
-5.0276
0
LINE
8
BLACK
6
CONTINUOUS
10
8.39772
20
-5.0276
11
8.39771
21
-5.0276
0
LINE
8
BLACK
6
CONTINUOUS
10
8.39771
20
-5.0276
11
8.39773
21
-5.0276
0
LINE
8
BLACK
6
CONTINUOUS
10
8.39773
20
-5.0276
11
8.39773
21
-5.0276
0
LINE
8
BLACK
6
CONTINUOUS
10
8.39773
20
-5.0276
11
8.39782
21
-5.0276
0
LINE
8
BLACK
6
CONTINUOUS
10
8.39782
20
-5.0276
11
8.42213
21
-5.02732
0
LINE
8
BLACK
6
CONTINUOUS
10
8.42213
20
-5.02732
11
8.42212
21
-5.02732
0
LINE
8
BLACK
6
CONTINUOUS
10
8.42212
20
-5.02732
11
8.39782
21
-5.0276
0
LINE
8
BLACK
6
CONTINUOUS
10
8.42222
20
-5.02732
11
8.42221
21
-5.02732
0
LINE
8
BLACK
6
CONTINUOUS
10
8.42221
20
-5.02732
11
8.42223
21
-5.02732
0
LINE
8
BLACK
6
CONTINUOUS
10
8.42223
20
-5.02732
11
8.42226
21
-5.02732
0
LINE
8
BLACK
6
CONTINUOUS
10
8.42226
20
-5.02732
11
8.42229
21
-5.02732
0
LINE
8
BLACK
6
CONTINUOUS
10
8.42229
20
-5.02732
11
8.42222
21
-5.02732
0
LINE
8
BLACK
6
CONTINUOUS
10
8.46881
20
-5.02506
11
8.46879
21
-5.02507
0
LINE
8
BLACK
6
CONTINUOUS
10
8.46879
20
-5.02507
11
8.46872
21
-5.02507
0
LINE
8
BLACK
6
CONTINUOUS
10
8.46872
20
-5.02507
11
8.46865
21
-5.02508
0
LINE
8
BLACK
6
CONTINUOUS
10
8.46865
20
-5.02508
11
8.46862
21
-5.02508
0
LINE
8
BLACK
6
CONTINUOUS
10
8.46862
20
-5.02508
11
8.44598
21
-5.02649
0
LINE
8
BLACK
6
CONTINUOUS
10
8.44598
20
-5.02649
11
8.44595
21
-5.02649
0
LINE
8
BLACK
6
CONTINUOUS
10
8.44595
20
-5.02649
11
8.44588
21
-5.02649
0
LINE
8
BLACK
6
CONTINUOUS
10
8.44588
20
-5.02649
11
8.44581
21
-5.0265
0
LINE
8
BLACK
6
CONTINUOUS
10
8.44581
20
-5.0265
11
8.44579
21
-5.0265
0
LINE
8
BLACK
6
CONTINUOUS
10
8.44579
20
-5.0265
11
8.42231
21
-5.02732
0
LINE
8
BLACK
6
CONTINUOUS
10
8.42231
20
-5.02732
11
8.42229
21
-5.02732
0
LINE
8
BLACK
6
CONTINUOUS
10
8.42229
20
-5.02732
11
8.44582
21
-5.0265
0
LINE
8
BLACK
6
CONTINUOUS
10
8.44582
20
-5.0265
11
8.44586
21
-5.0265
0
LINE
8
BLACK
6
CONTINUOUS
10
8.44586
20
-5.0265
11
8.44592
21
-5.0265
0
LINE
8
BLACK
6
CONTINUOUS
10
8.44592
20
-5.0265
11
8.44597
21
-5.02649
0
LINE
8
BLACK
6
CONTINUOUS
10
8.44597
20
-5.02649
11
8.46868
21
-5.02508
0
LINE
8
BLACK
6
CONTINUOUS
10
8.46868
20
-5.02508
11
8.46874
21
-5.02508
0
LINE
8
BLACK
6
CONTINUOUS
10
8.46874
20
-5.02508
11
8.46878
21
-5.02508
0
LINE
8
BLACK
6
CONTINUOUS
10
8.46878
20
-5.02508
11
8.46881
21
-5.02508
0
LINE
8
BLACK
6
CONTINUOUS
10
8.46881
20
-5.02508
11
8.46882
21
-5.02508
0
LINE
8
BLACK
6
CONTINUOUS
10
8.46882
20
-5.02508
11
8.47736
21
-5.0243
0
LINE
8
BLACK
6
CONTINUOUS
10
8.47736
20
-5.0243
11
8.46881
21
-5.02506
0
LINE
8
BLACK
6
CONTINUOUS
10
8.52673
20
-5.01821
11
8.53197
21
-5.0174
0
LINE
8
BLACK
6
CONTINUOUS
10
8.53197
20
-5.0174
11
8.53201
21
-5.01738
0
LINE
8
BLACK
6
CONTINUOUS
10
8.53201
20
-5.01738
11
8.52673
21
-5.01821
0
LINE
8
BLACK
6
CONTINUOUS
10
8.55091
20
-5.01372
11
8.55174
21
-5.01356
0
LINE
8
BLACK
6
CONTINUOUS
10
8.55174
20
-5.01356
11
8.55175
21
-5.01356
0
LINE
8
BLACK
6
CONTINUOUS
10
8.55175
20
-5.01356
11
8.55091
21
-5.01372
0
LINE
8
BLACK
6
CONTINUOUS
10
8.55194
20
-5.01352
11
8.55191
21
-5.01352
0
LINE
8
BLACK
6
CONTINUOUS
10
8.55191
20
-5.01352
11
8.55193
21
-5.01352
0
LINE
8
BLACK
6
CONTINUOUS
10
8.55193
20
-5.01352
11
8.55194
21
-5.01352
0
LINE
8
BLACK
6
CONTINUOUS
10
8.55194
20
-5.01352
11
8.55202
21
-5.01351
0
LINE
8
BLACK
6
CONTINUOUS
10
8.55202
20
-5.01351
11
8.55203
21
-5.01351
0
LINE
8
BLACK
6
CONTINUOUS
10
8.55203
20
-5.01351
11
8.56765
21
-5.0098
0
LINE
8
BLACK
6
CONTINUOUS
10
8.56765
20
-5.0098
11
8.55194
21
-5.01352
0
LINE
8
BLACK
6
CONTINUOUS
10
8.57071
20
-5.00908
11
8.5708
21
-5.00907
0
LINE
8
BLACK
6
CONTINUOUS
10
8.5708
20
-5.00907
11
8.58829
21
-5.00416
0
LINE
8
BLACK
6
CONTINUOUS
10
8.58829
20
-5.00416
11
8.58829
21
-5.00415
0
LINE
8
BLACK
6
CONTINUOUS
10
8.58829
20
-5.00415
11
8.57071
21
-5.00908
0
LINE
8
BLACK
6
CONTINUOUS
10
8.6059
20
-4.9983
11
8.60595
21
-4.99829
0
LINE
8
BLACK
6
CONTINUOUS
10
8.60595
20
-4.99829
11
8.61052
21
-4.99651
0
LINE
8
BLACK
6
CONTINUOUS
10
8.61052
20
-4.99651
11
8.6059
21
-4.9983
0
LINE
8
BLACK
6
CONTINUOUS
10
8.71433
20
-4.92829
11
8.71429
21
-4.92834
0
LINE
8
BLACK
6
CONTINUOUS
10
8.71429
20
-4.92834
11
8.71427
21
-4.92837
0
LINE
8
BLACK
6
CONTINUOUS
10
8.71427
20
-4.92837
11
8.71425
21
-4.92839
0
LINE
8
BLACK
6
CONTINUOUS
10
8.71425
20
-4.92839
11
8.7142
21
-4.92843
0
LINE
8
BLACK
6
CONTINUOUS
10
8.7142
20
-4.92843
11
8.7035
21
-4.93953
0
LINE
8
BLACK
6
CONTINUOUS
10
8.7035
20
-4.93953
11
8.70346
21
-4.93957
0
LINE
8
BLACK
6
CONTINUOUS
10
8.70346
20
-4.93957
11
8.7035
21
-4.93954
0
LINE
8
BLACK
6
CONTINUOUS
10
8.7035
20
-4.93954
11
8.70351
21
-4.93953
0
LINE
8
BLACK
6
CONTINUOUS
10
8.70351
20
-4.93953
11
8.71411
21
-4.92856
0
LINE
8
BLACK
6
CONTINUOUS
10
8.71411
20
-4.92856
11
8.71414
21
-4.92851
0
LINE
8
BLACK
6
CONTINUOUS
10
8.71414
20
-4.92851
11
8.71422
21
-4.92843
0
LINE
8
BLACK
6
CONTINUOUS
10
8.71422
20
-4.92843
11
8.71426
21
-4.92838
0
LINE
8
BLACK
6
CONTINUOUS
10
8.71426
20
-4.92838
11
8.71426
21
-4.92837
0
LINE
8
BLACK
6
CONTINUOUS
10
8.71426
20
-4.92837
11
8.71427
21
-4.92836
0
LINE
8
BLACK
6
CONTINUOUS
10
8.71427
20
-4.92836
11
8.71432
21
-4.92831
0
LINE
8
BLACK
6
CONTINUOUS
10
8.71432
20
-4.92831
11
8.72182
21
-4.91939
0
LINE
8
BLACK
6
CONTINUOUS
10
8.72182
20
-4.91939
11
8.71433
21
-4.92829
0
LINE
8
BLACK
6
CONTINUOUS
10
8.72439
20
-4.91634
11
8.72437
21
-4.91636
0
LINE
8
BLACK
6
CONTINUOUS
10
8.72437
20
-4.91636
11
8.72444
21
-4.91628
0
LINE
8
BLACK
6
CONTINUOUS
10
8.72444
20
-4.91628
11
8.72446
21
-4.91626
0
LINE
8
BLACK
6
CONTINUOUS
10
8.72446
20
-4.91626
11
8.73353
21
-4.90386
0
LINE
8
BLACK
6
CONTINUOUS
10
8.73353
20
-4.90386
11
8.73354
21
-4.90383
0
LINE
8
BLACK
6
CONTINUOUS
10
8.73354
20
-4.90383
11
8.72439
21
-4.91634
0
LINE
8
BLACK
6
CONTINUOUS
10
8.73369
20
-4.90362
11
8.73371
21
-4.90359
0
LINE
8
BLACK
6
CONTINUOUS
10
8.73371
20
-4.90359
11
8.73647
21
-4.89923
0
LINE
8
BLACK
6
CONTINUOUS
10
8.73647
20
-4.89923
11
8.73369
21
-4.90362
0
LINE
8
BLACK
6
CONTINUOUS
10
8.74989
20
-4.87605
11
8.74561
21
-4.88393
0
LINE
8
BLACK
6
CONTINUOUS
10
8.74561
20
-4.88393
11
8.74986
21
-4.87612
0
LINE
8
BLACK
6
CONTINUOUS
10
8.74986
20
-4.87612
11
8.74987
21
-4.8761
0
LINE
8
BLACK
6
CONTINUOUS
10
8.74987
20
-4.8761
11
8.74988
21
-4.87607
0
LINE
8
BLACK
6
CONTINUOUS
10
8.74988
20
-4.87607
11
8.74989
21
-4.87605
0
LINE
8
BLACK
6
CONTINUOUS
10
8.74989
20
-4.87605
11
8.74989
21
-4.87605
0
LINE
8
BLACK
6
CONTINUOUS
10
8.74998
20
-4.87588
11
8.74997
21
-4.8759
0
LINE
8
BLACK
6
CONTINUOUS
10
8.74997
20
-4.8759
11
8.74997
21
-4.8759
0
LINE
8
BLACK
6
CONTINUOUS
10
8.74997
20
-4.8759
11
8.74998
21
-4.87588
0
LINE
8
BLACK
6
CONTINUOUS
10
8.74998
20
-4.87588
11
8.74999
21
-4.87587
0
LINE
8
BLACK
6
CONTINUOUS
10
8.74999
20
-4.87587
11
8.75688
21
-4.86113
0
LINE
8
BLACK
6
CONTINUOUS
10
8.75688
20
-4.86113
11
8.75688
21
-4.86113
0
LINE
8
BLACK
6
CONTINUOUS
10
8.75688
20
-4.86113
11
8.75689
21
-4.86112
0
LINE
8
BLACK
6
CONTINUOUS
10
8.75689
20
-4.86112
11
8.75689
21
-4.86111
0
LINE
8
BLACK
6
CONTINUOUS
10
8.75689
20
-4.86111
11
8.74998
21
-4.87588
0
LINE
8
BLACK
6
CONTINUOUS
10
8.76879
20
-4.82832
11
8.76879
21
-4.82831
0
LINE
8
BLACK
6
CONTINUOUS
10
8.76879
20
-4.82831
11
8.7721
21
-4.81621
0
LINE
8
BLACK
6
CONTINUOUS
10
8.7721
20
-4.81621
11
8.76879
21
-4.82832
0
LINE
8
BLACK
6
CONTINUOUS
10
8.77567
20
-4.80123
11
8.77748
21
-4.79302
0
LINE
8
BLACK
6
CONTINUOUS
10
8.77748
20
-4.79302
11
8.77748
21
-4.793
0
LINE
8
BLACK
6
CONTINUOUS
10
8.77748
20
-4.793
11
8.77749
21
-4.79297
0
LINE
8
BLACK
6
CONTINUOUS
10
8.77749
20
-4.79297
11
8.77567
21
-4.80123
0
LINE
8
BLACK
6
CONTINUOUS
10
8.77754
20
-4.7927
11
8.77754
21
-4.7927
0
LINE
8
BLACK
6
CONTINUOUS
10
8.77754
20
-4.7927
11
8.77833
21
-4.7881
0
LINE
8
BLACK
6
CONTINUOUS
10
8.77833
20
-4.7881
11
8.77754
21
-4.7927
0
LINE
8
BLACK
6
CONTINUOUS
10
8.78334
20
-4.75389
11
8.78262
21
-4.75952
0
LINE
8
BLACK
6
CONTINUOUS
10
8.78262
20
-4.75952
11
8.78334
21
-4.75387
0
LINE
8
BLACK
6
CONTINUOUS
10
8.78334
20
-4.75387
11
8.78334
21
-4.75389
0
LINE
8
BLACK
6
CONTINUOUS
10
8.78378
20
-4.74884
11
8.78515
21
-4.73316
0
LINE
8
BLACK
6
CONTINUOUS
10
8.78515
20
-4.73316
11
8.78515
21
-4.73315
0
LINE
8
BLACK
6
CONTINUOUS
10
8.78515
20
-4.73315
11
8.78378
21
-4.74884
0
LINE
8
BLACK
6
CONTINUOUS
10
8.78625
20
-4.71146
11
8.78517
21
-4.73291
0
LINE
8
BLACK
6
CONTINUOUS
10
8.78517
20
-4.73291
11
8.78517
21
-4.73295
0
LINE
8
BLACK
6
CONTINUOUS
10
8.78517
20
-4.73295
11
8.78516
21
-4.73301
0
LINE
8
BLACK
6
CONTINUOUS
10
8.78516
20
-4.73301
11
8.78516
21
-4.73302
0
LINE
8
BLACK
6
CONTINUOUS
10
8.78516
20
-4.73302
11
8.78517
21
-4.733
0
LINE
8
BLACK
6
CONTINUOUS
10
8.78517
20
-4.733
11
8.78517
21
-4.73295
0
LINE
8
BLACK
6
CONTINUOUS
10
8.78517
20
-4.73295
11
8.78625
21
-4.71148
0
LINE
8
BLACK
6
CONTINUOUS
10
8.78625
20
-4.71148
11
8.78625
21
-4.71146
0
LINE
8
BLACK
6
CONTINUOUS
10
8.78625
20
-4.71146
11
8.78625
21
-4.71146
0
LINE
8
BLACK
6
CONTINUOUS
10
8.78625
20
-4.71127
11
8.78625
21
-4.71127
0
LINE
8
BLACK
6
CONTINUOUS
10
8.78625
20
-4.71127
11
8.78625
21
-4.71127
0
LINE
8
BLACK
6
CONTINUOUS
10
8.78625
20
-4.71127
11
8.78661
21
-4.68892
0
LINE
8
BLACK
6
CONTINUOUS
10
8.78661
20
-4.68892
11
8.78661
21
-4.68892
0
LINE
8
BLACK
6
CONTINUOUS
10
8.78661
20
-4.68892
11
8.78661
21
-4.68893
0
LINE
8
BLACK
6
CONTINUOUS
10
8.78661
20
-4.68893
11
8.78625
21
-4.71127
0
LINE
8
BLACK
6
CONTINUOUS
10
8.78661
20
-4.68872
11
8.78661
21
-3.70006
0
LINE
8
BLACK
6
CONTINUOUS
10
8.78661
20
-3.70006
11
8.78661
21
-3.70006
0
LINE
8
BLACK
6
CONTINUOUS
10
8.78661
20
-3.70006
11
8.78661
21
-4.68872
0
LINE
8
BLACK
6
CONTINUOUS
10
8.78691
20
-3.68274
11
8.78661
21
-3.69986
0
LINE
8
BLACK
6
CONTINUOUS
10
8.78661
20
-3.69986
11
8.78661
21
-3.69997
0
LINE
8
BLACK
6
CONTINUOUS
10
8.78661
20
-3.69997
11
8.78661
21
-3.69996
0
LINE
8
BLACK
6
CONTINUOUS
10
8.78661
20
-3.69996
11
8.78661
21
-3.69988
0
LINE
8
BLACK
6
CONTINUOUS
10
8.78661
20
-3.69988
11
8.78662
21
-3.69987
0
LINE
8
BLACK
6
CONTINUOUS
10
8.78662
20
-3.69987
11
8.78691
21
-3.68272
0
LINE
8
BLACK
6
CONTINUOUS
10
8.78691
20
-3.68272
11
8.78691
21
-3.68274
0
LINE
8
BLACK
6
CONTINUOUS
10
8.78921
20
-3.65083
11
8.7878
21
-3.66601
0
LINE
8
BLACK
6
CONTINUOUS
10
8.7878
20
-3.66601
11
8.7878
21
-3.66607
0
LINE
8
BLACK
6
CONTINUOUS
10
8.7878
20
-3.66607
11
8.78921
21
-3.65083
0
LINE
8
BLACK
6
CONTINUOUS
10
8.78921
20
-3.65083
11
8.78921
21
-3.65083
0
LINE
8
BLACK
6
CONTINUOUS
10
8.79121
20
-3.63607
11
8.7899
21
-3.64568
0
LINE
8
BLACK
6
CONTINUOUS
10
8.7899
20
-3.64568
11
8.79122
21
-3.63605
0
LINE
8
BLACK
6
CONTINUOUS
10
8.79122
20
-3.63605
11
8.79122
21
-3.63605
0
LINE
8
BLACK
6
CONTINUOUS
10
8.79122
20
-3.63605
11
8.79121
21
-3.63607
0
LINE
8
BLACK
6
CONTINUOUS
10
8.79124
20
-3.63588
11
8.79124
21
-3.63589
0
LINE
8
BLACK
6
CONTINUOUS
10
8.79124
20
-3.63589
11
8.79125
21
-3.63586
0
LINE
8
BLACK
6
CONTINUOUS
10
8.79125
20
-3.63586
11
8.79342
21
-3.62407
0
LINE
8
BLACK
6
CONTINUOUS
10
8.79342
20
-3.62407
11
8.79124
21
-3.63588
0
LINE
8
BLACK
6
CONTINUOUS
10
8.79381
20
-3.62195
11
8.79381
21
-3.62196
0
LINE
8
BLACK
6
CONTINUOUS
10
8.79381
20
-3.62196
11
8.79684
21
-3.6092
0
LINE
8
BLACK
6
CONTINUOUS
10
8.79684
20
-3.6092
11
8.79684
21
-3.60919
0
LINE
8
BLACK
6
CONTINUOUS
10
8.79684
20
-3.60919
11
8.79381
21
-3.62195
0
LINE
8
BLACK
6
CONTINUOUS
10
8.80042
20
-3.59706
11
8.79689
21
-3.60901
0
LINE
8
BLACK
6
CONTINUOUS
10
8.79689
20
-3.60901
11
8.79689
21
-3.60901
0
LINE
8
BLACK
6
CONTINUOUS
10
8.79689
20
-3.60901
11
8.80042
21
-3.59705
0
LINE
8
BLACK
6
CONTINUOUS
10
8.80042
20
-3.59705
11
8.80042
21
-3.59706
0
LINE
8
BLACK
6
CONTINUOUS
10
8.81447
20
-3.56464
11
8.81446
21
-3.56464
0
LINE
8
BLACK
6
CONTINUOUS
10
8.81446
20
-3.56464
11
8.81531
21
-3.56326
0
LINE
8
BLACK
6
CONTINUOUS
10
8.81531
20
-3.56326
11
8.81447
21
-3.56464
0
LINE
8
BLACK
6
CONTINUOUS
10
8.82606
20
-3.54701
11
8.82527
21
-3.54811
0
LINE
8
BLACK
6
CONTINUOUS
10
8.82527
20
-3.54811
11
8.82606
21
-3.54701
0
LINE
8
BLACK
6
CONTINUOUS
10
8.82606
20
-3.54701
11
8.82606
21
-3.54701
0
LINE
8
BLACK
6
CONTINUOUS
10
8.82625
20
-3.54675
11
8.82624
21
-3.54677
0
LINE
8
BLACK
6
CONTINUOUS
10
8.82624
20
-3.54677
11
8.82924
21
-3.54315
0
LINE
8
BLACK
6
CONTINUOUS
10
8.82924
20
-3.54315
11
8.82625
21
-3.54675
0
LINE
8
BLACK
6
CONTINUOUS
10
8.83974
20
-3.53165
11
8.83595
21
-3.53559
0
LINE
8
BLACK
6
CONTINUOUS
10
8.83595
20
-3.53559
11
8.83976
21
-3.53164
0
LINE
8
BLACK
6
CONTINUOUS
10
8.83976
20
-3.53164
11
8.83974
21
-3.53165
0
LINE
8
BLACK
6
CONTINUOUS
10
8.83989
20
-3.53151
11
8.83988
21
-3.53152
0
LINE
8
BLACK
6
CONTINUOUS
10
8.83988
20
-3.53152
11
8.83989
21
-3.53151
0
LINE
8
BLACK
6
CONTINUOUS
10
8.83989
20
-3.53151
11
8.84323
21
-3.52853
0
LINE
8
BLACK
6
CONTINUOUS
10
8.84323
20
-3.52853
11
8.83989
21
-3.53151
0
LINE
8
BLACK
6
CONTINUOUS
10
8.88166
20
-3.50358
11
8.87762
21
-3.50556
0
LINE
8
BLACK
6
CONTINUOUS
10
8.87762
20
-3.50556
11
8.88166
21
-3.50358
0
LINE
8
BLACK
6
CONTINUOUS
10
8.88166
20
-3.50358
11
8.88166
21
-3.50358
0
LINE
8
BLACK
6
CONTINUOUS
10
8.92259
20
-3.49
11
8.92258
21
-3.49
0
LINE
8
BLACK
6
CONTINUOUS
10
8.92258
20
-3.49
11
8.91197
21
-3.49269
0
LINE
8
BLACK
6
CONTINUOUS
10
8.91197
20
-3.49269
11
8.91197
21
-3.49269
0
LINE
8
BLACK
6
CONTINUOUS
10
8.91197
20
-3.49269
11
8.91196
21
-3.4927
0
LINE
8
BLACK
6
CONTINUOUS
10
8.91196
20
-3.4927
11
8.91197
21
-3.49269
0
LINE
8
BLACK
6
CONTINUOUS
10
8.91197
20
-3.49269
11
8.9226
21
-3.49
0
LINE
8
BLACK
6
CONTINUOUS
10
8.9226
20
-3.49
11
8.92259
21
-3.49
0
LINE
8
BLACK
6
CONTINUOUS
10
8.9337
20
-3.48765
11
8.92764
21
-3.48893
0
LINE
8
BLACK
6
CONTINUOUS
10
8.92764
20
-3.48893
11
8.93371
21
-3.48765
0
LINE
8
BLACK
6
CONTINUOUS
10
8.93371
20
-3.48765
11
8.9337
21
-3.48765
0
LINE
8
BLACK
6
CONTINUOUS
10
8.93398
20
-3.4876
11
8.93397
21
-3.4876
0
LINE
8
BLACK
6
CONTINUOUS
10
8.93397
20
-3.4876
11
8.94533
21
-3.48565
0
LINE
8
BLACK
6
CONTINUOUS
10
8.94533
20
-3.48565
11
8.94534
21
-3.48564
0
LINE
8
BLACK
6
CONTINUOUS
10
8.94534
20
-3.48564
11
8.93398
21
-3.4876
0
LINE
8
BLACK
6
CONTINUOUS
10
8.94547
20
-3.48562
11
8.94545
21
-3.48562
0
LINE
8
BLACK
6
CONTINUOUS
10
8.94545
20
-3.48562
11
8.94543
21
-3.48563
0
LINE
8
BLACK
6
CONTINUOUS
10
8.94543
20
-3.48563
11
8.94543
21
-3.48563
0
LINE
8
BLACK
6
CONTINUOUS
10
8.94543
20
-3.48563
11
8.94549
21
-3.48562
0
LINE
8
BLACK
6
CONTINUOUS
10
8.94549
20
-3.48562
11
8.94552
21
-3.48562
0
LINE
8
BLACK
6
CONTINUOUS
10
8.94552
20
-3.48562
11
8.95716
21
-3.48401
0
LINE
8
BLACK
6
CONTINUOUS
10
8.95716
20
-3.48401
11
8.95715
21
-3.48401
0
LINE
8
BLACK
6
CONTINUOUS
10
8.95715
20
-3.48401
11
8.94547
21
-3.48562
0
LINE
8
BLACK
6
CONTINUOUS
10
8.96946
20
-3.48267
11
8.96946
21
-3.48267
0
LINE
8
BLACK
6
CONTINUOUS
10
8.96946
20
-3.48267
11
8.95748
21
-3.48396
0
LINE
8
BLACK
6
CONTINUOUS
10
8.95748
20
-3.48396
11
8.95747
21
-3.48397
0
LINE
8
BLACK
6
CONTINUOUS
10
8.95747
20
-3.48397
11
8.96947
21
-3.48266
0
LINE
8
BLACK
6
CONTINUOUS
10
8.96947
20
-3.48266
11
8.96947
21
-3.48266
0
LINE
8
BLACK
6
CONTINUOUS
10
8.96947
20
-3.48266
11
8.96946
21
-3.48267
0
LINE
8
BLACK
6
CONTINUOUS
10
8.99498
20
-3.48086
11
8.99067
21
-3.48112
0
LINE
8
BLACK
6
CONTINUOUS
10
8.99067
20
-3.48112
11
8.99494
21
-3.48087
0
LINE
8
BLACK
6
CONTINUOUS
10
8.99494
20
-3.48087
11
8.99496
21
-3.48086
0
LINE
8
BLACK
6
CONTINUOUS
10
8.99496
20
-3.48086
11
8.99499
21
-3.48086
0
LINE
8
BLACK
6
CONTINUOUS
10
8.99499
20
-3.48086
11
8.99498
21
-3.48086
0
LINE
8
BLACK
6
CONTINUOUS
10
8.99507
20
-3.48086
11
8.99506
21
-3.48086
0
LINE
8
BLACK
6
CONTINUOUS
10
8.99506
20
-3.48086
11
8.99511
21
-3.48086
0
LINE
8
BLACK
6
CONTINUOUS
10
8.99511
20
-3.48086
11
8.99507
21
-3.48086
0
LINE
8
BLACK
6
CONTINUOUS
10
8.99514
20
-3.48085
11
8.99512
21
-3.48086
0
LINE
8
BLACK
6
CONTINUOUS
10
8.99512
20
-3.48086
11
8.99512
21
-3.48086
0
LINE
8
BLACK
6
CONTINUOUS
10
8.99512
20
-3.48086
11
8.99513
21
-3.48086
0
LINE
8
BLACK
6
CONTINUOUS
10
8.99513
20
-3.48086
11
9.00448
21
-3.48049
0
LINE
8
BLACK
6
CONTINUOUS
10
9.00448
20
-3.48049
11
8.99514
21
-3.48085
0
LINE
8
BLACK
6
CONTINUOUS
10
9.00837
20
-3.48034
11
9.00836
21
-3.48034
0
LINE
8
BLACK
6
CONTINUOUS
10
9.00836
20
-3.48034
11
9.00835
21
-3.48034
0
LINE
8
BLACK
6
CONTINUOUS
10
9.00835
20
-3.48034
11
9.00835
21
-3.48034
0
LINE
8
BLACK
6
CONTINUOUS
10
9.00835
20
-3.48034
11
9.00835
21
-3.48034
0
LINE
8
BLACK
6
CONTINUOUS
10
9.00835
20
-3.48034
11
9.02167
21
-3.48005
0
LINE
8
BLACK
6
CONTINUOUS
10
9.02167
20
-3.48005
11
9.02168
21
-3.48005
0
LINE
8
BLACK
6
CONTINUOUS
10
9.02168
20
-3.48005
11
9.00837
21
-3.48034
0
LINE
8
BLACK
6
CONTINUOUS
10
9.02176
20
-3.48005
11
9.02174
21
-3.48005
0
LINE
8
BLACK
6
CONTINUOUS
10
9.02174
20
-3.48005
11
9.02172
21
-3.48005
0
LINE
8
BLACK
6
CONTINUOUS
10
9.02172
20
-3.48005
11
9.02177
21
-3.48005
0
LINE
8
BLACK
6
CONTINUOUS
10
9.02177
20
-3.48005
11
9.02177
21
-3.48005
0
LINE
8
BLACK
6
CONTINUOUS
10
9.02177
20
-3.48005
11
9.02176
21
-3.48005
0
LINE
8
BLACK
6
CONTINUOUS
10
9.02186
20
-3.48005
11
9.02186
21
-3.48005
0
LINE
8
BLACK
6
CONTINUOUS
10
9.02186
20
-3.48005
11
9.03549
21
-3.47996
0
LINE
8
BLACK
6
CONTINUOUS
10
9.03549
20
-3.47996
11
9.03549
21
-3.47996
0
LINE
8
BLACK
6
CONTINUOUS
10
9.03549
20
-3.47996
11
9.03548
21
-3.47996
0
LINE
8
BLACK
6
CONTINUOUS
10
9.03548
20
-3.47996
11
9.02186
21
-3.48005
0
LINE
8
BLACK
6
CONTINUOUS
10
9.16314
20
-3.47976
11
9.17139
21
-3.47958
0
LINE
8
BLACK
6
CONTINUOUS
10
9.17139
20
-3.47958
11
9.1714
21
-3.47958
0
LINE
8
BLACK
6
CONTINUOUS
10
9.1714
20
-3.47958
11
9.17142
21
-3.47958
0
LINE
8
BLACK
6
CONTINUOUS
10
9.17142
20
-3.47958
11
9.17142
21
-3.47958
0
LINE
8
BLACK
6
CONTINUOUS
10
9.17142
20
-3.47958
11
9.16314
21
-3.47976
0
LINE
8
BLACK
6
CONTINUOUS
10
9.18909
20
-3.47862
11
9.18909
21
-3.47862
0
LINE
8
BLACK
6
CONTINUOUS
10
9.18909
20
-3.47862
11
9.19511
21
-3.47809
0
LINE
8
BLACK
6
CONTINUOUS
10
9.19511
20
-3.47809
11
9.18909
21
-3.47862
0
LINE
8
BLACK
6
CONTINUOUS
10
9.21926
20
-3.47545
11
9.22229
21
-3.47507
0
LINE
8
BLACK
6
CONTINUOUS
10
9.22229
20
-3.47507
11
9.22229
21
-3.47507
0
LINE
8
BLACK
6
CONTINUOUS
10
9.22229
20
-3.47507
11
9.21926
21
-3.47545
0
LINE
8
BLACK
6
CONTINUOUS
10
9.2226
20
-3.47503
11
9.22262
21
-3.47503
0
LINE
8
BLACK
6
CONTINUOUS
10
9.22262
20
-3.47503
11
9.23845
21
-3.47241
0
LINE
8
BLACK
6
CONTINUOUS
10
9.23845
20
-3.47241
11
9.23845
21
-3.4724
0
LINE
8
BLACK
6
CONTINUOUS
10
9.23845
20
-3.4724
11
9.2226
21
-3.47503
0
LINE
8
BLACK
6
CONTINUOUS
10
9.25411
20
-3.46915
11
9.23871
21
-3.47236
0
LINE
8
BLACK
6
CONTINUOUS
10
9.23871
20
-3.47236
11
9.23873
21
-3.47236
0
LINE
8
BLACK
6
CONTINUOUS
10
9.23873
20
-3.47236
11
9.25411
21
-3.46915
0
LINE
8
BLACK
6
CONTINUOUS
10
9.25411
20
-3.46915
11
9.25412
21
-3.46915
0
LINE
8
BLACK
6
CONTINUOUS
10
9.25412
20
-3.46915
11
9.25411
21
-3.46915
0
LINE
8
BLACK
6
CONTINUOUS
10
9.2543
20
-3.46911
11
9.2543
21
-3.46911
0
LINE
8
BLACK
6
CONTINUOUS
10
9.2543
20
-3.46911
11
9.26134
21
-3.46731
0
LINE
8
BLACK
6
CONTINUOUS
10
9.26134
20
-3.46731
11
9.2543
21
-3.46911
0
LINE
8
BLACK
6
CONTINUOUS
10
9.26948
20
-3.46524
11
9.26946
21
-3.46524
0
LINE
8
BLACK
6
CONTINUOUS
10
9.26946
20
-3.46524
11
9.26946
21
-3.46524
0
LINE
8
BLACK
6
CONTINUOUS
10
9.26946
20
-3.46524
11
9.28091
21
-3.46175
0
LINE
8
BLACK
6
CONTINUOUS
10
9.28091
20
-3.46175
11
9.26948
21
-3.46524
0
LINE
8
BLACK
6
CONTINUOUS
10
9.28419
20
-3.46075
11
9.28417
21
-3.46076
0
LINE
8
BLACK
6
CONTINUOUS
10
9.28417
20
-3.46076
11
9.28419
21
-3.46075
0
LINE
8
BLACK
6
CONTINUOUS
10
9.28419
20
-3.46075
11
9.29177
21
-3.45803
0
LINE
8
BLACK
6
CONTINUOUS
10
9.29177
20
-3.45803
11
9.28419
21
-3.46075
0
LINE
8
BLACK
6
CONTINUOUS
10
9.33814
20
-3.43637
11
9.33814
21
-3.43637
0
LINE
8
BLACK
6
CONTINUOUS
10
9.33814
20
-3.43637
11
9.34106
21
-3.43452
0
LINE
8
BLACK
6
CONTINUOUS
10
9.34106
20
-3.43452
11
9.33814
21
-3.43637
0
LINE
8
BLACK
6
CONTINUOUS
10
9.35033
20
-3.42863
11
9.35034
21
-3.42863
0
LINE
8
BLACK
6
CONTINUOUS
10
9.35034
20
-3.42863
11
9.3617
21
-3.42042
0
LINE
8
BLACK
6
CONTINUOUS
10
9.3617
20
-3.42042
11
9.36171
21
-3.42042
0
LINE
8
BLACK
6
CONTINUOUS
10
9.36171
20
-3.42042
11
9.35033
21
-3.42863
0
LINE
8
BLACK
6
CONTINUOUS
10
9.36445
20
-3.41818
11
9.37282
21
-3.41133
0
LINE
8
BLACK
6
CONTINUOUS
10
9.37282
20
-3.41133
11
9.37283
21
-3.41132
0
LINE
8
BLACK
6
CONTINUOUS
10
9.37283
20
-3.41132
11
9.36445
21
-3.41818
0
LINE
8
BLACK
6
CONTINUOUS
10
9.37308
20
-3.4111
11
9.37309
21
-3.41109
0
LINE
8
BLACK
6
CONTINUOUS
10
9.37309
20
-3.41109
11
9.38256
21
-3.40229
0
LINE
8
BLACK
6
CONTINUOUS
10
9.38256
20
-3.40229
11
9.37308
21
-3.4111
0
LINE
8
BLACK
6
CONTINUOUS
10
9.39345
20
-3.39095
11
9.38628
21
-3.3985
0
LINE
8
BLACK
6
CONTINUOUS
10
9.38628
20
-3.3985
11
9.39344
21
-3.39095
0
LINE
8
BLACK
6
CONTINUOUS
10
9.39344
20
-3.39095
11
9.39345
21
-3.39094
0
LINE
8
BLACK
6
CONTINUOUS
10
9.39345
20
-3.39094
11
9.39345
21
-3.39095
0
LINE
8
BLACK
6
CONTINUOUS
10
9.40287
20
-3.3797
11
9.40035
21
-3.38272
0
LINE
8
BLACK
6
CONTINUOUS
10
9.40035
20
-3.38272
11
9.40289
21
-3.37969
0
LINE
8
BLACK
6
CONTINUOUS
10
9.40289
20
-3.37969
11
9.40287
21
-3.3797
0
LINE
8
BLACK
6
CONTINUOUS
10
9.40299
20
-3.37955
11
9.40298
21
-3.37956
0
LINE
8
BLACK
6
CONTINUOUS
10
9.40298
20
-3.37956
11
9.40299
21
-3.37956
0
LINE
8
BLACK
6
CONTINUOUS
10
9.40299
20
-3.37956
11
9.40793
21
-3.37286
0
LINE
8
BLACK
6
CONTINUOUS
10
9.40793
20
-3.37286
11
9.40299
21
-3.37955
0
LINE
8
BLACK
6
CONTINUOUS
10
9.41997
20
-3.35499
11
9.41187
21
-3.36751
0
LINE
8
BLACK
6
CONTINUOUS
10
9.41187
20
-3.36751
11
9.41187
21
-3.3675
0
LINE
8
BLACK
6
CONTINUOUS
10
9.41187
20
-3.3675
11
9.41996
21
-3.35501
0
LINE
8
BLACK
6
CONTINUOUS
10
9.41996
20
-3.35501
11
9.41997
21
-3.355
0
LINE
8
BLACK
6
CONTINUOUS
10
9.41997
20
-3.355
11
9.41997
21
-3.35499
0
LINE
8
BLACK
6
CONTINUOUS
10
9.41997
20
-3.35499
11
9.41998
21
-3.35498
0
LINE
8
BLACK
6
CONTINUOUS
10
9.41998
20
-3.35498
11
9.41997
21
-3.35499
0
LINE
8
BLACK
6
CONTINUOUS
10
9.42007
20
-3.35483
11
9.42007
21
-3.35484
0
LINE
8
BLACK
6
CONTINUOUS
10
9.42007
20
-3.35484
11
9.42007
21
-3.35483
0
LINE
8
BLACK
6
CONTINUOUS
10
9.42007
20
-3.35483
11
9.42007
21
-3.35483
0
LINE
8
BLACK
6
CONTINUOUS
10
9.42007
20
-3.35483
11
9.42758
21
-3.34158
0
LINE
8
BLACK
6
CONTINUOUS
10
9.42758
20
-3.34158
11
9.42758
21
-3.34158
0
LINE
8
BLACK
6
CONTINUOUS
10
9.42758
20
-3.34158
11
9.42007
21
-3.35483
0
LINE
8
BLACK
6
CONTINUOUS
10
9.43466
20
-3.32725
11
9.4317
21
-3.33324
0
LINE
8
BLACK
6
CONTINUOUS
10
9.4317
20
-3.33324
11
9.43466
21
-3.32725
0
LINE
8
BLACK
6
CONTINUOUS
10
9.43466
20
-3.32725
11
9.43466
21
-3.32725
0
LINE
8
BLACK
6
CONTINUOUS
10
9.43466
20
-3.32725
11
9.43466
21
-3.32725
0
LINE
8
BLACK
6
CONTINUOUS
10
9.43474
20
-3.32708
11
9.43473
21
-3.32709
0
LINE
8
BLACK
6
CONTINUOUS
10
9.43473
20
-3.32709
11
9.43474
21
-3.32707
0
LINE
8
BLACK
6
CONTINUOUS
10
9.43474
20
-3.32707
11
9.44032
21
-3.31397
0
LINE
8
BLACK
6
CONTINUOUS
10
9.44032
20
-3.31397
11
9.43474
21
-3.32708
0
LINE
8
BLACK
6
CONTINUOUS
10
9.44114
20
-3.31204
11
9.44114
21
-3.31204
0
LINE
8
BLACK
6
CONTINUOUS
10
9.44114
20
-3.31204
11
9.44157
21
-3.31085
0
LINE
8
BLACK
6
CONTINUOUS
10
9.44157
20
-3.31085
11
9.44114
21
-3.31204
0
LINE
8
BLACK
6
CONTINUOUS
10
9.45199
20
-3.27977
11
9.45139
21
-3.28169
0
LINE
8
BLACK
6
CONTINUOUS
10
9.45139
20
-3.28169
11
9.45199
21
-3.27976
0
LINE
8
BLACK
6
CONTINUOUS
10
9.45199
20
-3.27976
11
9.45199
21
-3.27977
0
LINE
8
BLACK
6
CONTINUOUS
10
9.45204
20
-3.27958
11
9.45204
21
-3.27959
0
LINE
8
BLACK
6
CONTINUOUS
10
9.45204
20
-3.27959
11
9.45205
21
-3.27957
0
LINE
8
BLACK
6
CONTINUOUS
10
9.45205
20
-3.27957
11
9.45491
21
-3.2684
0
LINE
8
BLACK
6
CONTINUOUS
10
9.45491
20
-3.2684
11
9.45204
21
-3.27958
0
LINE
8
BLACK
6
CONTINUOUS
10
9.46034
20
-3.24385
11
9.46034
21
-3.24385
0
LINE
8
BLACK
6
CONTINUOUS
10
9.46034
20
-3.24385
11
9.46344
21
-3.22503
0
LINE
8
BLACK
6
CONTINUOUS
10
9.46344
20
-3.22503
11
9.46344
21
-3.22502
0
LINE
8
BLACK
6
CONTINUOUS
10
9.46344
20
-3.22502
11
9.46034
21
-3.24385
0
LINE
8
BLACK
6
CONTINUOUS
10
9.46592
20
-3.20504
11
9.46348
21
-3.22473
0
LINE
8
BLACK
6
CONTINUOUS
10
9.46348
20
-3.22473
11
9.46349
21
-3.22472
0
LINE
8
BLACK
6
CONTINUOUS
10
9.46349
20
-3.22472
11
9.46592
21
-3.20506
0
LINE
8
BLACK
6
CONTINUOUS
10
9.46592
20
-3.20506
11
9.46592
21
-3.20506
0
LINE
8
BLACK
6
CONTINUOUS
10
9.46592
20
-3.20506
11
9.46592
21
-3.20503
0
LINE
8
BLACK
6
CONTINUOUS
10
9.46592
20
-3.20503
11
9.46592
21
-3.20504
0
LINE
8
BLACK
6
CONTINUOUS
10
9.46594
20
-3.20481
11
9.46595
21
-3.20477
0
LINE
8
BLACK
6
CONTINUOUS
10
9.46595
20
-3.20477
11
9.46595
21
-3.20477
0
LINE
8
BLACK
6
CONTINUOUS
10
9.46595
20
-3.20477
11
9.46724
21
-3.18958
0
LINE
8
BLACK
6
CONTINUOUS
10
9.46724
20
-3.18958
11
9.46594
21
-3.20481
0
LINE
8
BLACK
6
CONTINUOUS
10
9.46913
20
-3.13996
11
9.46913
21
-3.14004
0
LINE
8
BLACK
6
CONTINUOUS
10
9.46913
20
-3.14004
11
9.46913
21
-3.14006
0
LINE
8
BLACK
6
CONTINUOUS
10
9.46913
20
-3.14006
11
9.46878
21
-3.1624
0
LINE
8
BLACK
6
CONTINUOUS
10
9.46878
20
-3.1624
11
9.46878
21
-3.1624
0
LINE
8
BLACK
6
CONTINUOUS
10
9.46878
20
-3.1624
11
9.46878
21
-3.16239
0
LINE
8
BLACK
6
CONTINUOUS
10
9.46878
20
-3.16239
11
9.46913
21
-3.14006
0
LINE
8
BLACK
6
CONTINUOUS
10
9.46913
20
-3.14006
11
9.46913
21
-3.13997
0
LINE
8
BLACK
6
CONTINUOUS
10
9.46913
20
-3.13997
11
9.46913
21
-3.13996
0
LINE
8
BLACK
6
CONTINUOUS
10
9.46913
20
-3.13996
11
9.46913
21
-3.13993
0
LINE
8
BLACK
6
CONTINUOUS
10
9.46913
20
-3.13993
11
9.46913
21
-3.13996
0
LINE
8
BLACK
6
CONTINUOUS
10
9.46913
20
-3.13986
11
9.46913
21
-3.13987
0
LINE
8
BLACK
6
CONTINUOUS
10
9.46913
20
-3.13987
11
9.47151
21
-2.27308
0
LINE
8
BLACK
6
CONTINUOUS
10
9.47151
20
-2.27308
11
9.46913
21
-3.13986
0
LINE
8
BLACK
6
CONTINUOUS
10
2.66197
20
-1.52364
11
2.66197
21
-1.52366
0
LINE
8
BLACK
6
CONTINUOUS
10
2.66197
20
-1.52366
11
2.66197
21
-1.52366
0
LINE
8
BLACK
6
CONTINUOUS
10
2.66197
20
-1.52366
11
2.66197
21
-1.52364
0
LINE
8
BLACK
6
CONTINUOUS
10
2.66197
20
-1.52364
11
2.66197
21
-1.52364
0
LINE
8
BLACK
6
CONTINUOUS
10
2.66244
20
-1.50183
11
2.66197
21
-1.52357
0
LINE
8
BLACK
6
CONTINUOUS
10
2.66197
20
-1.52357
11
2.66197
21
-1.52356
0
LINE
8
BLACK
6
CONTINUOUS
10
2.66197
20
-1.52356
11
2.66244
21
-1.50186
0
LINE
8
BLACK
6
CONTINUOUS
10
2.66244
20
-1.50186
11
2.66244
21
-1.50183
0
LINE
8
BLACK
6
CONTINUOUS
10
2.66244
20
-1.50183
11
2.66244
21
-1.50183
0
LINE
8
BLACK
6
CONTINUOUS
10
9.47358
20
-1.51875
11
9.47358
21
-1.51876
0
LINE
8
BLACK
6
CONTINUOUS
10
9.47358
20
-1.51876
11
9.47358
21
-1.51875
0
LINE
8
BLACK
6
CONTINUOUS
10
9.47358
20
-1.51875
11
9.47331
21
-1.49454
0
LINE
8
BLACK
6
CONTINUOUS
10
9.47331
20
-1.49454
11
9.47331
21
-1.49454
0
LINE
8
BLACK
6
CONTINUOUS
10
9.47331
20
-1.49454
11
9.47331
21
-1.49452
0
LINE
8
BLACK
6
CONTINUOUS
10
9.47331
20
-1.49452
11
9.47358
21
-1.51875
0
LINE
8
BLACK
6
CONTINUOUS
10
2.66244
20
-1.50167
11
2.66244
21
-1.50174
0
LINE
8
BLACK
6
CONTINUOUS
10
2.66244
20
-1.50174
11
2.66244
21
-1.50178
0
LINE
8
BLACK
6
CONTINUOUS
10
2.66244
20
-1.50178
11
2.66244
21
-1.50176
0
LINE
8
BLACK
6
CONTINUOUS
10
2.66244
20
-1.50176
11
2.66244
21
-1.50171
0
LINE
8
BLACK
6
CONTINUOUS
10
2.66244
20
-1.50171
11
2.66245
21
-1.50167
0
LINE
8
BLACK
6
CONTINUOUS
10
2.66245
20
-1.50167
11
2.66268
21
-1.49806
0
LINE
8
BLACK
6
CONTINUOUS
10
2.66268
20
-1.49806
11
2.66244
21
-1.50167
0
LINE
8
BLACK
6
CONTINUOUS
10
9.4733
20
-1.49415
11
9.4733
21
-1.49414
0
LINE
8
BLACK
6
CONTINUOUS
10
9.4733
20
-1.49414
11
9.47267
21
-1.47647
0
LINE
8
BLACK
6
CONTINUOUS
10
9.47267
20
-1.47647
11
9.4733
21
-1.49415
0
LINE
8
BLACK
6
CONTINUOUS
10
9.47246
20
-1.4706
11
9.47247
21
-1.47062
0
LINE
8
BLACK
6
CONTINUOUS
10
9.47247
20
-1.47062
11
9.47247
21
-1.4706
0
LINE
8
BLACK
6
CONTINUOUS
10
9.47247
20
-1.4706
11
9.47185
21
-1.46054
0
LINE
8
BLACK
6
CONTINUOUS
10
9.47185
20
-1.46054
11
9.47246
21
-1.4706
0
LINE
8
BLACK
6
CONTINUOUS
10
2.66618
20
-1.45924
11
2.66618
21
-1.45925
0
LINE
8
BLACK
6
CONTINUOUS
10
2.66618
20
-1.45925
11
2.66643
21
-1.45771
0
LINE
8
BLACK
6
CONTINUOUS
10
2.66643
20
-1.45771
11
2.66618
21
-1.45924
0
LINE
8
BLACK
6
CONTINUOUS
10
2.6786
20
-1.39971
11
2.67856
21
-1.39984
0
LINE
8
BLACK
6
CONTINUOUS
10
2.67856
20
-1.39984
11
2.67854
21
-1.39988
0
LINE
8
BLACK
6
CONTINUOUS
10
2.67854
20
-1.39988
11
2.67445
21
-1.4156
0
LINE
8
BLACK
6
CONTINUOUS
10
2.67445
20
-1.4156
11
2.6786
21
-1.39974
0
LINE
8
BLACK
6
CONTINUOUS
10
2.6786
20
-1.39974
11
2.6786
21
-1.3997
0
LINE
8
BLACK
6
CONTINUOUS
10
2.6786
20
-1.3997
11
2.6786
21
-1.39971
0
LINE
8
BLACK
6
CONTINUOUS
10
2.67867
20
-1.39945
11
2.67867
21
-1.39947
0
LINE
8
BLACK
6
CONTINUOUS
10
2.67867
20
-1.39947
11
2.67866
21
-1.39952
0
LINE
8
BLACK
6
CONTINUOUS
10
2.67866
20
-1.39952
11
2.67866
21
-1.39953
0
LINE
8
BLACK
6
CONTINUOUS
10
2.67866
20
-1.39953
11
2.68405
21
-1.3823
0
LINE
8
BLACK
6
CONTINUOUS
10
2.68405
20
-1.3823
11
2.67867
21
-1.39945
0
LINE
8
BLACK
6
CONTINUOUS
10
2.69126
20
-1.36267
11
2.69122
21
-1.36277
0
LINE
8
BLACK
6
CONTINUOUS
10
2.69122
20
-1.36277
11
2.69119
21
-1.36282
0
LINE
8
BLACK
6
CONTINUOUS
10
2.69119
20
-1.36282
11
2.68572
21
-1.37759
0
LINE
8
BLACK
6
CONTINUOUS
10
2.68572
20
-1.37759
11
2.69129
21
-1.36263
0
LINE
8
BLACK
6
CONTINUOUS
10
2.69129
20
-1.36263
11
2.69129
21
-1.36262
0
LINE
8
BLACK
6
CONTINUOUS
10
2.69129
20
-1.36262
11
2.69126
21
-1.36267
0
LINE
8
BLACK
6
CONTINUOUS
10
9.46081
20
-1.37135
11
9.45955
21
-1.36485
0
LINE
8
BLACK
6
CONTINUOUS
10
9.45955
20
-1.36485
11
9.45955
21
-1.36484
0
LINE
8
BLACK
6
CONTINUOUS
10
9.45955
20
-1.36484
11
9.46081
21
-1.37135
0
LINE
8
BLACK
6
CONTINUOUS
10
9.45948
20
-1.36454
11
9.45948
21
-1.36453
0
LINE
8
BLACK
6
CONTINUOUS
10
9.45948
20
-1.36453
11
9.45515
21
-1.34614
0
LINE
8
BLACK
6
CONTINUOUS
10
9.45515
20
-1.34614
11
9.45515
21
-1.34614
0
LINE
8
BLACK
6
CONTINUOUS
10
9.45515
20
-1.34614
11
9.45948
21
-1.36454
0
LINE
8
BLACK
6
CONTINUOUS
10
2.6914
20
-1.36229
11
2.6914
21
-1.36231
0
LINE
8
BLACK
6
CONTINUOUS
10
2.6914
20
-1.36231
11
2.69137
21
-1.36242
0
LINE
8
BLACK
6
CONTINUOUS
10
2.69137
20
-1.36242
11
2.69135
21
-1.36246
0
LINE
8
BLACK
6
CONTINUOUS
10
2.69135
20
-1.36246
11
2.69136
21
-1.36245
0
LINE
8
BLACK
6
CONTINUOUS
10
2.69136
20
-1.36245
11
2.69687
21
-1.34969
0
LINE
8
BLACK
6
CONTINUOUS
10
2.69687
20
-1.34969
11
2.6914
21
-1.36229
0
LINE
8
BLACK
6
CONTINUOUS
10
9.45509
20
-1.34589
11
9.45509
21
-1.3459
0
LINE
8
BLACK
6
CONTINUOUS
10
9.45509
20
-1.3459
11
9.45509
21
-1.34589
0
LINE
8
BLACK
6
CONTINUOUS
10
9.45509
20
-1.34589
11
9.45508
21
-1.34588
0
LINE
8
BLACK
6
CONTINUOUS
10
9.45508
20
-1.34588
11
9.4531
21
-1.33885
0
LINE
8
BLACK
6
CONTINUOUS
10
9.4531
20
-1.33885
11
9.45509
21
-1.34589
0
LINE
8
BLACK
6
CONTINUOUS
10
2.70755
20
-1.32758
11
2.70754
21
-1.32761
0
LINE
8
BLACK
6
CONTINUOUS
10
2.70754
20
-1.32761
11
2.70751
21
-1.32765
0
LINE
8
BLACK
6
CONTINUOUS
10
2.70751
20
-1.32765
11
2.70752
21
-1.32764
0
LINE
8
BLACK
6
CONTINUOUS
10
2.70752
20
-1.32764
11
2.71164
21
-1.32033
0
LINE
8
BLACK
6
CONTINUOUS
10
2.71164
20
-1.32033
11
2.70755
21
-1.32758
0
LINE
8
BLACK
6
CONTINUOUS
10
2.72684
20
-1.29549
11
2.72684
21
-1.2955
0
LINE
8
BLACK
6
CONTINUOUS
10
2.72684
20
-1.2955
11
2.72683
21
-1.29551
0
LINE
8
BLACK
6
CONTINUOUS
10
2.72683
20
-1.29551
11
2.72682
21
-1.29552
0
LINE
8
BLACK
6
CONTINUOUS
10
2.72682
20
-1.29552
11
2.72679
21
-1.29556
0
LINE
8
BLACK
6
CONTINUOUS
10
2.72679
20
-1.29556
11
2.71691
21
-1.311
0
LINE
8
BLACK
6
CONTINUOUS
10
2.71691
20
-1.311
11
2.71691
21
-1.31101
0
LINE
8
BLACK
6
CONTINUOUS
10
2.71691
20
-1.31101
11
2.72686
21
-1.29547
0
LINE
8
BLACK
6
CONTINUOUS
10
2.72686
20
-1.29547
11
2.72684
21
-1.29549
0
LINE
8
BLACK
6
CONTINUOUS
10
9.4443
20
-1.31074
11
9.4443
21
-1.31074
0
LINE
8
BLACK
6
CONTINUOUS
10
9.4443
20
-1.31074
11
9.43808
21
-1.2947
0
LINE
8
BLACK
6
CONTINUOUS
10
9.43808
20
-1.2947
11
9.43806
21
-1.29468
0
LINE
8
BLACK
6
CONTINUOUS
10
9.43806
20
-1.29468
11
9.43806
21
-1.29468
0
LINE
8
BLACK
6
CONTINUOUS
10
9.43806
20
-1.29468
11
9.4443
21
-1.31074
0
LINE
8
BLACK
6
CONTINUOUS
10
2.72709
20
-1.29514
11
2.72708
21
-1.29515
0
LINE
8
BLACK
6
CONTINUOUS
10
2.72708
20
-1.29515
11
2.72788
21
-1.29405
0
LINE
8
BLACK
6
CONTINUOUS
10
2.72788
20
-1.29405
11
2.72709
21
-1.29514
0
LINE
8
BLACK
6
CONTINUOUS
10
9.43105
20
-1.27912
11
9.43334
21
-1.2842
0
LINE
8
BLACK
6
CONTINUOUS
10
9.43334
20
-1.2842
11
9.43104
21
-1.2791
0
LINE
8
BLACK
6
CONTINUOUS
10
9.43104
20
-1.2791
11
9.43105
21
-1.27912
0
LINE
8
BLACK
6
CONTINUOUS
10
2.73806
20
-1.27989
11
2.73806
21
-1.27989
0
LINE
8
BLACK
6
CONTINUOUS
10
2.73806
20
-1.27989
11
2.73804
21
-1.27993
0
LINE
8
BLACK
6
CONTINUOUS
10
2.73804
20
-1.27993
11
2.74921
21
-1.26611
0
LINE
8
BLACK
6
CONTINUOUS
10
2.74921
20
-1.26611
11
2.73806
21
-1.27989
0
LINE
8
BLACK
6
CONTINUOUS
10
9.43096
20
-1.27894
11
9.43097
21
-1.27895
0
LINE
8
BLACK
6
CONTINUOUS
10
9.43097
20
-1.27895
11
9.43097
21
-1.27894
0
LINE
8
BLACK
6
CONTINUOUS
10
9.43097
20
-1.27894
11
9.42475
21
-1.26703
0
LINE
8
BLACK
6
CONTINUOUS
10
9.42475
20
-1.26703
11
9.43096
21
-1.27894
0
LINE
8
BLACK
6
CONTINUOUS
10
9.41499
20
-1.25041
11
9.41922
21
-1.25745
0
LINE
8
BLACK
6
CONTINUOUS
10
9.41922
20
-1.25745
11
9.41498
21
-1.25038
0
LINE
8
BLACK
6
CONTINUOUS
10
9.41498
20
-1.25038
11
9.41498
21
-1.25038
0
LINE
8
BLACK
6
CONTINUOUS
10
9.41498
20
-1.25038
11
9.41499
21
-1.25041
0
LINE
8
BLACK
6
CONTINUOUS
10
9.40593
20
-1.23723
11
9.41489
21
-1.25025
0
LINE
8
BLACK
6
CONTINUOUS
10
9.41489
20
-1.25025
11
9.4149
21
-1.25027
0
LINE
8
BLACK
6
CONTINUOUS
10
9.4149
20
-1.25027
11
9.4149
21
-1.25026
0
LINE
8
BLACK
6
CONTINUOUS
10
9.4149
20
-1.25026
11
9.40593
21
-1.23723
0
LINE
8
BLACK
6
CONTINUOUS
10
9.40593
20
-1.23723
11
9.40593
21
-1.23723
0
LINE
8
BLACK
6
CONTINUOUS
10
9.40593
20
-1.23723
11
9.40593
21
-1.23723
0
LINE
8
BLACK
6
CONTINUOUS
10
2.77557
20
-1.23834
11
2.77554
21
-1.23837
0
LINE
8
BLACK
6
CONTINUOUS
10
2.77554
20
-1.23837
11
2.76852
21
-1.24534
0
LINE
8
BLACK
6
CONTINUOUS
10
2.76852
20
-1.24534
11
2.77559
21
-1.23834
0
LINE
8
BLACK
6
CONTINUOUS
10
2.77559
20
-1.23834
11
2.77563
21
-1.2383
0
LINE
8
BLACK
6
CONTINUOUS
10
2.77563
20
-1.2383
11
2.77557
21
-1.23834
0
LINE
8
BLACK
6
CONTINUOUS
10
2.78979
20
-1.2257
11
2.78975
21
-1.22573
0
LINE
8
BLACK
6
CONTINUOUS
10
2.78975
20
-1.22573
11
2.78973
21
-1.22574
0
LINE
8
BLACK
6
CONTINUOUS
10
2.78973
20
-1.22574
11
2.78964
21
-1.22582
0
LINE
8
BLACK
6
CONTINUOUS
10
2.78964
20
-1.22582
11
2.78962
21
-1.22583
0
LINE
8
BLACK
6
CONTINUOUS
10
2.78962
20
-1.22583
11
2.77585
21
-1.23809
0
LINE
8
BLACK
6
CONTINUOUS
10
2.77585
20
-1.23809
11
2.77584
21
-1.23809
0
LINE
8
BLACK
6
CONTINUOUS
10
2.77584
20
-1.23809
11
2.77578
21
-1.23815
0
LINE
8
BLACK
6
CONTINUOUS
10
2.77578
20
-1.23815
11
2.77575
21
-1.23819
0
LINE
8
BLACK
6
CONTINUOUS
10
2.77575
20
-1.23819
11
2.78972
21
-1.22576
0
LINE
8
BLACK
6
CONTINUOUS
10
2.78972
20
-1.22576
11
2.78976
21
-1.22573
0
LINE
8
BLACK
6
CONTINUOUS
10
2.78976
20
-1.22573
11
2.78979
21
-1.2257
0
LINE
8
BLACK
6
CONTINUOUS
10
2.78979
20
-1.2257
11
2.78982
21
-1.22567
0
LINE
8
BLACK
6
CONTINUOUS
10
2.78982
20
-1.22567
11
2.78979
21
-1.2257
0
LINE
8
BLACK
6
CONTINUOUS
10
2.78998
20
-1.22553
11
2.78997
21
-1.22554
0
LINE
8
BLACK
6
CONTINUOUS
10
2.78997
20
-1.22554
11
2.78996
21
-1.22556
0
LINE
8
BLACK
6
CONTINUOUS
10
2.78996
20
-1.22556
11
2.78994
21
-1.22557
0
LINE
8
BLACK
6
CONTINUOUS
10
2.78994
20
-1.22557
11
2.78985
21
-1.22565
0
LINE
8
BLACK
6
CONTINUOUS
10
2.78985
20
-1.22565
11
2.78983
21
-1.22566
0
LINE
8
BLACK
6
CONTINUOUS
10
2.78983
20
-1.22566
11
2.78987
21
-1.22564
0
LINE
8
BLACK
6
CONTINUOUS
10
2.78987
20
-1.22564
11
2.79983
21
-1.2177
0
LINE
8
BLACK
6
CONTINUOUS
10
2.79983
20
-1.2177
11
2.78998
21
-1.22553
0
LINE
8
BLACK
6
CONTINUOUS
10
2.82019
20
-1.20277
11
2.81796
21
-1.20437
0
LINE
8
BLACK
6
CONTINUOUS
10
2.81796
20
-1.20437
11
2.8202
21
-1.20277
0
LINE
8
BLACK
6
CONTINUOUS
10
2.8202
20
-1.20277
11
2.82019
21
-1.20277
0
LINE
8
BLACK
6
CONTINUOUS
10
9.36248
20
-1.1923
11
9.36746
21
-1.1965
0
LINE
8
BLACK
6
CONTINUOUS
10
9.36746
20
-1.1965
11
9.36248
21
-1.1923
0
LINE
8
BLACK
6
CONTINUOUS
10
9.36248
20
-1.1923
11
9.36248
21
-1.1923
0
LINE
8
BLACK
6
CONTINUOUS
10
9.35422
20
-1.18626
11
9.34981
21
-1.18303
0
LINE
8
BLACK
6
CONTINUOUS
10
9.34981
20
-1.18303
11
9.3498
21
-1.18302
0
LINE
8
BLACK
6
CONTINUOUS
10
9.3498
20
-1.18302
11
9.35422
21
-1.18626
0
LINE
8
BLACK
6
CONTINUOUS
10
9.34954
20
-1.18285
11
9.34954
21
-1.18285
0
LINE
8
BLACK
6
CONTINUOUS
10
9.34954
20
-1.18285
11
9.34787
21
-1.18179
0
LINE
8
BLACK
6
CONTINUOUS
10
9.34787
20
-1.18179
11
9.34954
21
-1.18285
0
LINE
8
BLACK
6
CONTINUOUS
10
2.87158
20
-1.17376
11
2.87156
21
-1.17377
0
LINE
8
BLACK
6
CONTINUOUS
10
2.87156
20
-1.17377
11
2.87155
21
-1.17377
0
LINE
8
BLACK
6
CONTINUOUS
10
2.87155
20
-1.17377
11
2.85407
21
-1.18249
0
LINE
8
BLACK
6
CONTINUOUS
10
2.85407
20
-1.18249
11
2.85405
21
-1.1825
0
LINE
8
BLACK
6
CONTINUOUS
10
2.85405
20
-1.1825
11
2.8716
21
-1.17376
0
LINE
8
BLACK
6
CONTINUOUS
10
2.8716
20
-1.17376
11
2.87161
21
-1.17376
0
LINE
8
BLACK
6
CONTINUOUS
10
2.87161
20
-1.17376
11
2.87158
21
-1.17376
0
LINE
8
BLACK
6
CONTINUOUS
10
9.33613
20
-1.17436
11
9.33612
21
-1.17436
0
LINE
8
BLACK
6
CONTINUOUS
10
9.33612
20
-1.17436
11
9.32972
21
-1.17086
0
LINE
8
BLACK
6
CONTINUOUS
10
9.32972
20
-1.17086
11
9.33613
21
-1.17436
0
LINE
8
BLACK
6
CONTINUOUS
10
2.89013
20
-1.16565
11
2.88862
21
-1.16631
0
LINE
8
BLACK
6
CONTINUOUS
10
2.88862
20
-1.16631
11
2.89013
21
-1.16565
0
LINE
8
BLACK
6
CONTINUOUS
10
2.89013
20
-1.16565
11
2.89013
21
-1.16565
0
LINE
8
BLACK
6
CONTINUOUS
10
2.89042
20
-1.16552
11
2.89042
21
-1.16553
0
LINE
8
BLACK
6
CONTINUOUS
10
2.89042
20
-1.16553
11
2.89039
21
-1.16554
0
LINE
8
BLACK
6
CONTINUOUS
10
2.89039
20
-1.16554
11
2.897
21
-1.16302
0
LINE
8
BLACK
6
CONTINUOUS
10
2.897
20
-1.16302
11
2.89042
21
-1.16552
0
LINE
8
BLACK
6
CONTINUOUS
10
9.29342
20
-1.15427
11
9.29128
21
-1.15342
0
LINE
8
BLACK
6
CONTINUOUS
10
9.29128
20
-1.15342
11
9.29128
21
-1.15342
0
LINE
8
BLACK
6
CONTINUOUS
10
9.29128
20
-1.15342
11
9.29342
21
-1.15427
0
LINE
8
BLACK
6
CONTINUOUS
10
9.29098
20
-1.15331
11
9.29097
21
-1.15331
0
LINE
8
BLACK
6
CONTINUOUS
10
9.29097
20
-1.15331
11
9.27829
21
-1.1491
0
LINE
8
BLACK
6
CONTINUOUS
10
9.27829
20
-1.1491
11
9.29098
21
-1.15331
0
LINE
8
BLACK
6
CONTINUOUS
10
2.92962
20
-1.15169
11
2.92962
21
-1.15169
0
LINE
8
BLACK
6
CONTINUOUS
10
2.92962
20
-1.15169
11
2.92957
21
-1.15171
0
LINE
8
BLACK
6
CONTINUOUS
10
2.92957
20
-1.15171
11
2.93752
21
-1.14951
0
LINE
8
BLACK
6
CONTINUOUS
10
2.93752
20
-1.14951
11
2.92962
21
-1.15169
0
LINE
8
BLACK
6
CONTINUOUS
10
9.27432
20
-1.14779
11
9.27432
21
-1.14779
0
LINE
8
BLACK
6
CONTINUOUS
10
9.27432
20
-1.14779
11
9.25723
21
-1.14312
0
LINE
8
BLACK
6
CONTINUOUS
10
9.25723
20
-1.14312
11
9.25722
21
-1.14312
0
LINE
8
BLACK
6
CONTINUOUS
10
9.25722
20
-1.14312
11
9.27432
21
-1.14779
0
LINE
8
BLACK
6
CONTINUOUS
10
2.9712
20
-1.14122
11
2.9712
21
-1.14122
0
LINE
8
BLACK
6
CONTINUOUS
10
2.9712
20
-1.14122
11
2.97116
21
-1.14123
0
LINE
8
BLACK
6
CONTINUOUS
10
2.97116
20
-1.14123
11
2.97116
21
-1.14123
0
LINE
8
BLACK
6
CONTINUOUS
10
2.97116
20
-1.14123
11
2.97116
21
-1.14123
0
LINE
8
BLACK
6
CONTINUOUS
10
2.97116
20
-1.14123
11
2.97115
21
-1.14123
0
LINE
8
BLACK
6
CONTINUOUS
10
2.97115
20
-1.14123
11
2.95952
21
-1.14389
0
LINE
8
BLACK
6
CONTINUOUS
10
2.95952
20
-1.14389
11
2.9712
21
-1.14122
0
LINE
8
BLACK
6
CONTINUOUS
10
2.9712
20
-1.14122
11
2.97124
21
-1.14121
0
LINE
8
BLACK
6
CONTINUOUS
10
2.97124
20
-1.14121
11
2.9712
21
-1.14122
0
LINE
8
BLACK
6
CONTINUOUS
10
9.2569
20
-1.14304
11
9.2569
21
-1.14304
0
LINE
8
BLACK
6
CONTINUOUS
10
9.2569
20
-1.14304
11
9.24013
21
-1.13935
0
LINE
8
BLACK
6
CONTINUOUS
10
9.24013
20
-1.13935
11
9.2569
21
-1.14304
0
LINE
8
BLACK
6
CONTINUOUS
10
2.97128
20
-1.14121
11
2.9713
21
-1.1412
0
LINE
8
BLACK
6
CONTINUOUS
10
2.9713
20
-1.1412
11
2.97131
21
-1.1412
0
LINE
8
BLACK
6
CONTINUOUS
10
2.97131
20
-1.1412
11
2.97128
21
-1.14121
0
LINE
8
BLACK
6
CONTINUOUS
10
2.97138
20
-1.14119
11
2.97139
21
-1.14118
0
LINE
8
BLACK
6
CONTINUOUS
10
2.97139
20
-1.14118
11
2.97379
21
-1.14075
0
LINE
8
BLACK
6
CONTINUOUS
10
2.97379
20
-1.14075
11
2.97138
21
-1.14119
0
LINE
8
BLACK
6
CONTINUOUS
10
9.21986
20
-1.1358
11
9.23869
21
-1.13903
0
LINE
8
BLACK
6
CONTINUOUS
10
9.23869
20
-1.13903
11
9.23867
21
-1.13903
0
LINE
8
BLACK
6
CONTINUOUS
10
9.23867
20
-1.13903
11
9.21988
21
-1.1358
0
LINE
8
BLACK
6
CONTINUOUS
10
9.21988
20
-1.1358
11
9.21986
21
-1.1358
0
LINE
8
BLACK
6
CONTINUOUS
10
9.21957
20
-1.13575
11
9.21956
21
-1.13575
0
LINE
8
BLACK
6
CONTINUOUS
10
9.21956
20
-1.13575
11
9.20483
21
-1.13387
0
LINE
8
BLACK
6
CONTINUOUS
10
9.20483
20
-1.13387
11
9.21957
21
-1.13575
0
LINE
8
BLACK
6
CONTINUOUS
10
3.00929
20
-1.13496
11
3.0157
21
-1.13407
0
LINE
8
BLACK
6
CONTINUOUS
10
3.0157
20
-1.13407
11
3.01573
21
-1.13406
0
LINE
8
BLACK
6
CONTINUOUS
10
3.01573
20
-1.13406
11
3.00929
21
-1.13496
0
LINE
8
BLACK
6
CONTINUOUS
10
3.01596
20
-1.13403
11
3.01594
21
-1.13404
0
LINE
8
BLACK
6
CONTINUOUS
10
3.01594
20
-1.13404
11
3.01589
21
-1.13404
0
LINE
8
BLACK
6
CONTINUOUS
10
3.01589
20
-1.13404
11
3.01589
21
-1.13404
0
LINE
8
BLACK
6
CONTINUOUS
10
3.01589
20
-1.13404
11
3.0388
21
-1.13181
0
LINE
8
BLACK
6
CONTINUOUS
10
3.0388
20
-1.13181
11
3.0388
21
-1.13181
0
LINE
8
BLACK
6
CONTINUOUS
10
3.0388
20
-1.13181
11
3.01596
21
-1.13403
0
LINE
8
BLACK
6
CONTINUOUS
10
3.03911
20
-1.13178
11
3.03908
21
-1.13178
0
LINE
8
BLACK
6
CONTINUOUS
10
3.03908
20
-1.13178
11
3.03908
21
-1.13178
0
LINE
8
BLACK
6
CONTINUOUS
10
3.03908
20
-1.13178
11
3.05148
21
-1.13107
0
LINE
8
BLACK
6
CONTINUOUS
10
3.05148
20
-1.13107
11
3.03911
21
-1.13178
0
LINE
8
BLACK
6
CONTINUOUS
10
9.17909
20
-1.13142
11
9.18019
21
-1.13151
0
LINE
8
BLACK
6
CONTINUOUS
10
9.18019
20
-1.13151
11
9.17909
21
-1.13142
0
LINE
8
BLACK
6
CONTINUOUS
10
9.17909
20
-1.13142
11
9.17909
21
-1.13142
0
LINE
8
BLACK
6
CONTINUOUS
10
9.15732
20
-1.13032
11
9.15734
21
-1.13032
0
LINE
8
BLACK
6
CONTINUOUS
10
9.15734
20
-1.13032
11
9.1574
21
-1.13032
0
LINE
8
BLACK
6
CONTINUOUS
10
9.1574
20
-1.13032
11
9.15743
21
-1.13033
0
LINE
8
BLACK
6
CONTINUOUS
10
9.15743
20
-1.13033
11
9.1789
21
-1.1314
0
LINE
8
BLACK
6
CONTINUOUS
10
9.1789
20
-1.1314
11
9.17892
21
-1.1314
0
LINE
8
BLACK
6
CONTINUOUS
10
9.17892
20
-1.1314
11
9.17889
21
-1.1314
0
LINE
8
BLACK
6
CONTINUOUS
10
9.17889
20
-1.1314
11
9.17888
21
-1.1314
0
LINE
8
BLACK
6
CONTINUOUS
10
9.17888
20
-1.1314
11
9.1574
21
-1.13032
0
LINE
8
BLACK
6
CONTINUOUS
10
9.1574
20
-1.13032
11
9.15736
21
-1.13032
0
LINE
8
BLACK
6
CONTINUOUS
10
9.15736
20
-1.13032
11
9.15732
21
-1.13032
0
LINE
8
BLACK
6
CONTINUOUS
10
9.1349
20
-1.12996
11
9.15724
21
-1.13032
0
LINE
8
BLACK
6
CONTINUOUS
10
9.15724
20
-1.13032
11
9.15726
21
-1.13032
0
LINE
8
BLACK
6
CONTINUOUS
10
9.15726
20
-1.13032
11
9.15726
21
-1.13032
0
LINE
8
BLACK
6
CONTINUOUS
10
9.15726
20
-1.13032
11
9.1349
21
-1.12996
0
LINE
8
BLACK
6
CONTINUOUS
10
9.1349
20
-1.12996
11
9.1349
21
-1.12996
0
LINE
8
BLACK
6
CONTINUOUS
10
3.08118
20
-1.13007
11
3.08717
21
-1.12996
0
LINE
8
BLACK
6
CONTINUOUS
10
3.08717
20
-1.12996
11
3.08718
21
-1.12996
0
LINE
8
BLACK
6
CONTINUOUS
10
3.08718
20
-1.12996
11
3.08118
21
-1.13007
  0
ENDSEC
  0
EOF
