  0
SECTION
  2
HEADER
  9
$ANGBASE
  50
0.0
  9
$ANGDIR
  70
1
  9
$MEASUREMENT
  70
0
  0
ENDSEC
  0
SECTION
  2
TABLES
  0
TABLE
  2
LTYPE
  70
4
  0
LTYPE
  5
40F
  2
CONTINUOUS
  70
0
  3
Solid line
  72
65
  73
0
  40
0.0
  0
LTYPE
  5
410
  2
DASHDOT
 70
0
  3
Dash Dot ____ _ ____ _
 72
65
 73
4
 40
2.0
 49
1.25
 49
-0.25
 49
0.25
 49
-0.25
  0
LTYPE
  5
411
  2
DASHED
 70
0
  3
Dashed __ __ __ __ __
 72
65
 73
2
 40
0.75
 49
0.5
 49
-0.25
  0
LTYPE
  5
43B
  2
DOTTED
 70
0
  3
Dotted .  .  .  .
 72
65
 73
2
 40
0.2
 49
0.0
 49
-0.2
  0
ENDTAB
  0
TABLE
  2
STYLE
  70
4
  0
STYLE
  2
KICAD
  70
0
  40
0
  41
1
  42
1
  50
0
  71
0
  3
isocp.shx
  0
STYLE
  2
KICADB
  70
0
  40
0
  41
1
  42
1
  50
0
  71
0
  3
isocp.shx
  0
STYLE
  2
KICADI
  70
0
  40
0
  41
1
  42
1
  50
15
  71
0
  3
isocp.shx
  0
STYLE
  2
KICADBI
  70
0
  40
0
  41
1
  42
1
  50
15
  71
0
  3
isocp.shx
  0
ENDTAB
  0
TABLE
  2
LAYER
  70
1
  0
LAYER
  2
BLACK
  70
0
  62
7
  6
CONTINUOUS
  0
ENDTAB
  0
ENDSEC
  0
SECTION
  2
ENTITIES
0
LINE
8
BLACK
6
CONTINUOUS
10
8.5026
20
-5.80113
11
8.5026
21
-5.80116
0
LINE
8
BLACK
6
CONTINUOUS
10
8.5026
20
-5.80116
11
8.50259
21
-5.80123
0
LINE
8
BLACK
6
CONTINUOUS
10
8.50259
20
-5.80123
11
8.49849
21
-5.86371
0
LINE
8
BLACK
6
CONTINUOUS
10
8.49849
20
-5.86371
11
8.49849
21
-5.86371
0
LINE
8
BLACK
6
CONTINUOUS
10
8.49849
20
-5.86371
11
8.49849
21
-5.86372
0
LINE
8
BLACK
6
CONTINUOUS
10
8.49849
20
-5.86372
11
8.49848
21
-5.86383
0
LINE
8
BLACK
6
CONTINUOUS
10
8.49848
20
-5.86383
11
8.49847
21
-5.86387
0
LINE
8
BLACK
6
CONTINUOUS
10
8.49847
20
-5.86387
11
8.49847
21
-5.86391
0
LINE
8
BLACK
6
CONTINUOUS
10
8.49847
20
-5.86391
11
8.48817
21
-5.92567
0
LINE
8
BLACK
6
CONTINUOUS
10
8.48817
20
-5.92567
11
8.48815
21
-5.92579
0
LINE
8
BLACK
6
CONTINUOUS
10
8.48815
20
-5.92579
11
8.48814
21
-5.92583
0
LINE
8
BLACK
6
CONTINUOUS
10
8.48814
20
-5.92583
11
8.48813
21
-5.92587
0
LINE
8
BLACK
6
CONTINUOUS
10
8.48813
20
-5.92587
11
8.47176
21
-5.9863
0
LINE
8
BLACK
6
CONTINUOUS
10
8.47176
20
-5.9863
11
8.47172
21
-5.98641
0
LINE
8
BLACK
6
CONTINUOUS
10
8.47172
20
-5.98641
11
8.47171
21
-5.98645
0
LINE
8
BLACK
6
CONTINUOUS
10
8.47171
20
-5.98645
11
8.4717
21
-5.98649
0
LINE
8
BLACK
6
CONTINUOUS
10
8.4717
20
-5.98649
11
8.4494
21
-6.045
0
LINE
8
BLACK
6
CONTINUOUS
10
8.4494
20
-6.045
11
8.44936
21
-6.04511
0
LINE
8
BLACK
6
CONTINUOUS
10
8.44936
20
-6.04511
11
8.44934
21
-6.04514
0
LINE
8
BLACK
6
CONTINUOUS
10
8.44934
20
-6.04514
11
8.44932
21
-6.04518
0
LINE
8
BLACK
6
CONTINUOUS
10
8.44932
20
-6.04518
11
8.42132
21
-6.10119
0
LINE
8
BLACK
6
CONTINUOUS
10
8.42132
20
-6.10119
11
8.42127
21
-6.10129
0
LINE
8
BLACK
6
CONTINUOUS
10
8.42127
20
-6.10129
11
8.42125
21
-6.10133
0
LINE
8
BLACK
6
CONTINUOUS
10
8.42125
20
-6.10133
11
8.42123
21
-6.10136
0
LINE
8
BLACK
6
CONTINUOUS
10
8.42123
20
-6.10136
11
8.3878
21
-6.15431
0
LINE
8
BLACK
6
CONTINUOUS
10
8.3878
20
-6.15431
11
8.38774
21
-6.15441
0
LINE
8
BLACK
6
CONTINUOUS
10
8.38774
20
-6.15441
11
8.38772
21
-6.15444
0
LINE
8
BLACK
6
CONTINUOUS
10
8.38772
20
-6.15444
11
8.38769
21
-6.15447
0
LINE
8
BLACK
6
CONTINUOUS
10
8.38769
20
-6.15447
11
8.34918
21
-6.20384
0
LINE
8
BLACK
6
CONTINUOUS
10
8.34918
20
-6.20384
11
8.34917
21
-6.20384
0
LINE
8
BLACK
6
CONTINUOUS
10
8.34917
20
-6.20384
11
8.34917
21
-6.20384
0
LINE
8
BLACK
6
CONTINUOUS
10
8.34917
20
-6.20384
11
8.3491
21
-6.20393
0
LINE
8
BLACK
6
CONTINUOUS
10
8.3491
20
-6.20393
11
8.34907
21
-6.20396
0
LINE
8
BLACK
6
CONTINUOUS
10
8.34907
20
-6.20396
11
8.34905
21
-6.20399
0
LINE
8
BLACK
6
CONTINUOUS
10
8.34905
20
-6.20399
11
8.30582
21
-6.24929
0
LINE
8
BLACK
6
CONTINUOUS
10
8.30582
20
-6.24929
11
8.30574
21
-6.24937
0
LINE
8
BLACK
6
CONTINUOUS
10
8.30574
20
-6.24937
11
8.30571
21
-6.2494
0
LINE
8
BLACK
6
CONTINUOUS
10
8.30571
20
-6.2494
11
8.30568
21
-6.24943
0
LINE
8
BLACK
6
CONTINUOUS
10
8.30568
20
-6.24943
11
8.25816
21
-6.29021
0
LINE
8
BLACK
6
CONTINUOUS
10
8.25816
20
-6.29021
11
8.25807
21
-6.29028
0
LINE
8
BLACK
6
CONTINUOUS
10
8.25807
20
-6.29028
11
8.25804
21
-6.2903
0
LINE
8
BLACK
6
CONTINUOUS
10
8.25804
20
-6.2903
11
8.25801
21
-6.29033
0
LINE
8
BLACK
6
CONTINUOUS
10
8.25801
20
-6.29033
11
8.20668
21
-6.32619
0
LINE
8
BLACK
6
CONTINUOUS
10
8.20668
20
-6.32619
11
8.20658
21
-6.32625
0
LINE
8
BLACK
6
CONTINUOUS
10
8.20658
20
-6.32625
11
8.20654
21
-6.32627
0
LINE
8
BLACK
6
CONTINUOUS
10
8.20654
20
-6.32627
11
8.20651
21
-6.3263
0
LINE
8
BLACK
6
CONTINUOUS
10
8.20651
20
-6.3263
11
8.15187
21
-6.35688
0
LINE
8
BLACK
6
CONTINUOUS
10
8.15187
20
-6.35688
11
8.15177
21
-6.35694
0
LINE
8
BLACK
6
CONTINUOUS
10
8.15177
20
-6.35694
11
8.15173
21
-6.35695
0
LINE
8
BLACK
6
CONTINUOUS
10
8.15173
20
-6.35695
11
8.1517
21
-6.35697
0
LINE
8
BLACK
6
CONTINUOUS
10
8.1517
20
-6.35697
11
8.09429
21
-6.38198
0
LINE
8
BLACK
6
CONTINUOUS
10
8.09429
20
-6.38198
11
8.09418
21
-6.38202
0
LINE
8
BLACK
6
CONTINUOUS
10
8.09418
20
-6.38202
11
8.09414
21
-6.38203
0
LINE
8
BLACK
6
CONTINUOUS
10
8.09414
20
-6.38203
11
8.09411
21
-6.38205
0
LINE
8
BLACK
6
CONTINUOUS
10
8.09411
20
-6.38205
11
8.0345
21
-6.40123
0
LINE
8
BLACK
6
CONTINUOUS
10
8.0345
20
-6.40123
11
8.03439
21
-6.40126
0
LINE
8
BLACK
6
CONTINUOUS
10
8.03439
20
-6.40126
11
8.03435
21
-6.40127
0
LINE
8
BLACK
6
CONTINUOUS
10
8.03435
20
-6.40127
11
8.03431
21
-6.40128
0
LINE
8
BLACK
6
CONTINUOUS
10
8.03431
20
-6.40128
11
7.97309
21
-6.41445
0
LINE
8
BLACK
6
CONTINUOUS
10
7.97309
20
-6.41445
11
7.97309
21
-6.41445
0
LINE
8
BLACK
6
CONTINUOUS
10
7.97309
20
-6.41445
11
7.97309
21
-6.41445
0
LINE
8
BLACK
6
CONTINUOUS
10
7.97309
20
-6.41445
11
7.97298
21
-6.41447
0
LINE
8
BLACK
6
CONTINUOUS
10
7.97298
20
-6.41447
11
7.97294
21
-6.41448
0
LINE
8
BLACK
6
CONTINUOUS
10
7.97294
20
-6.41448
11
7.9729
21
-6.41448
0
LINE
8
BLACK
6
CONTINUOUS
10
7.9729
20
-6.41448
11
7.91068
21
-6.42151
0
LINE
8
BLACK
6
CONTINUOUS
10
7.91068
20
-6.42151
11
7.91068
21
-6.42151
0
LINE
8
BLACK
6
CONTINUOUS
10
7.91068
20
-6.42151
11
7.91068
21
-6.42151
0
LINE
8
BLACK
6
CONTINUOUS
10
7.91068
20
-6.42151
11
7.91056
21
-6.42152
0
LINE
8
BLACK
6
CONTINUOUS
10
7.91056
20
-6.42152
11
7.91052
21
-6.42152
0
LINE
8
BLACK
6
CONTINUOUS
10
7.91052
20
-6.42152
11
7.91048
21
-6.42152
0
LINE
8
BLACK
6
CONTINUOUS
10
7.91048
20
-6.42152
11
7.84787
21
-6.42233
0
LINE
8
BLACK
6
CONTINUOUS
10
7.84787
20
-6.42233
11
7.84787
21
-6.42233
0
LINE
8
BLACK
6
CONTINUOUS
10
7.84787
20
-6.42233
11
7.84776
21
-6.42233
0
LINE
8
BLACK
6
CONTINUOUS
10
7.84776
20
-6.42233
11
7.84772
21
-6.42232
0
LINE
8
BLACK
6
CONTINUOUS
10
7.84772
20
-6.42232
11
7.84767
21
-6.42232
0
LINE
8
BLACK
6
CONTINUOUS
10
7.84767
20
-6.42232
11
7.78529
21
-6.41691
0
LINE
8
BLACK
6
CONTINUOUS
10
7.78529
20
-6.41691
11
7.78518
21
-6.41689
0
LINE
8
BLACK
6
CONTINUOUS
10
7.78518
20
-6.41689
11
7.78514
21
-6.41689
0
LINE
8
BLACK
6
CONTINUOUS
10
7.78514
20
-6.41689
11
7.7851
21
-6.41688
0
LINE
8
BLACK
6
CONTINUOUS
10
7.7851
20
-6.41688
11
7.72356
21
-6.4053
0
LINE
8
BLACK
6
CONTINUOUS
10
7.72356
20
-6.4053
11
7.72345
21
-6.40527
0
LINE
8
BLACK
6
CONTINUOUS
10
7.72345
20
-6.40527
11
7.72341
21
-6.40526
0
LINE
8
BLACK
6
CONTINUOUS
10
7.72341
20
-6.40526
11
7.72337
21
-6.40525
0
LINE
8
BLACK
6
CONTINUOUS
10
7.72337
20
-6.40525
11
7.66329
21
-6.38761
0
LINE
8
BLACK
6
CONTINUOUS
10
7.66329
20
-6.38761
11
7.66318
21
-6.38758
0
LINE
8
BLACK
6
CONTINUOUS
10
7.66318
20
-6.38758
11
7.66314
21
-6.38756
0
LINE
8
BLACK
6
CONTINUOUS
10
7.66314
20
-6.38756
11
7.6631
21
-6.38755
0
LINE
8
BLACK
6
CONTINUOUS
10
7.6631
20
-6.38755
11
7.60507
21
-6.36403
0
LINE
8
BLACK
6
CONTINUOUS
10
7.60507
20
-6.36403
11
7.60497
21
-6.36399
0
LINE
8
BLACK
6
CONTINUOUS
10
7.60497
20
-6.36399
11
7.60493
21
-6.36397
0
LINE
8
BLACK
6
CONTINUOUS
10
7.60493
20
-6.36397
11
7.60489
21
-6.36395
0
LINE
8
BLACK
6
CONTINUOUS
10
7.60489
20
-6.36395
11
7.54948
21
-6.33478
0
LINE
8
BLACK
6
CONTINUOUS
10
7.54948
20
-6.33478
11
7.54938
21
-6.33473
0
LINE
8
BLACK
6
CONTINUOUS
10
7.54938
20
-6.33473
11
7.54938
21
-6.33472
0
LINE
8
BLACK
6
CONTINUOUS
10
7.54938
20
-6.33472
11
7.54937
21
-6.33472
0
LINE
8
BLACK
6
CONTINUOUS
10
7.54937
20
-6.33472
11
7.53001
21
-6.32279
0
LINE
8
BLACK
6
CONTINUOUS
10
7.53001
20
-6.32279
11
5.61483
21
-5.20262
0
LINE
8
BLACK
6
CONTINUOUS
10
5.61483
20
-5.20262
11
5.61482
21
-5.20262
0
LINE
8
BLACK
6
CONTINUOUS
10
5.61482
20
-5.20262
11
5.60879
21
-5.19901
0
LINE
8
BLACK
6
CONTINUOUS
10
5.60879
20
-5.19901
11
5.54505
21
-5.16485
0
LINE
8
BLACK
6
CONTINUOUS
10
5.54505
20
-5.16485
11
5.47861
21
-5.1364
0
LINE
8
BLACK
6
CONTINUOUS
10
5.47861
20
-5.1364
11
5.40995
21
-5.11385
0
LINE
8
BLACK
6
CONTINUOUS
10
5.40995
20
-5.11385
11
5.33958
21
-5.09737
0
LINE
8
BLACK
6
CONTINUOUS
10
5.33958
20
-5.09737
11
5.26804
21
-5.08708
0
LINE
8
BLACK
6
CONTINUOUS
10
5.26804
20
-5.08708
11
5.19585
21
-5.08307
0
LINE
8
BLACK
6
CONTINUOUS
10
5.19585
20
-5.08307
11
2.76477
21
-5.08071
0
LINE
8
BLACK
6
CONTINUOUS
10
2.76477
20
-5.08071
11
2.76477
21
-5.08071
0
LINE
8
BLACK
6
CONTINUOUS
10
2.76477
20
-5.08071
11
2.74036
21
-5.08043
0
LINE
8
BLACK
6
CONTINUOUS
10
2.74036
20
-5.08043
11
2.74033
21
-5.08043
0
LINE
8
BLACK
6
CONTINUOUS
10
2.74033
20
-5.08043
11
2.74032
21
-5.08043
0
LINE
8
BLACK
6
CONTINUOUS
10
2.74032
20
-5.08043
11
2.74031
21
-5.08043
0
LINE
8
BLACK
6
CONTINUOUS
10
2.74031
20
-5.08043
11
2.71665
21
-5.0796
0
LINE
8
BLACK
6
CONTINUOUS
10
2.71665
20
-5.0796
11
2.71662
21
-5.07959
0
LINE
8
BLACK
6
CONTINUOUS
10
2.71662
20
-5.07959
11
2.71661
21
-5.07959
0
LINE
8
BLACK
6
CONTINUOUS
10
2.71661
20
-5.07959
11
2.7166
21
-5.07959
0
LINE
8
BLACK
6
CONTINUOUS
10
2.7166
20
-5.07959
11
2.69376
21
-5.07819
0
LINE
8
BLACK
6
CONTINUOUS
10
2.69376
20
-5.07819
11
2.69373
21
-5.07818
0
LINE
8
BLACK
6
CONTINUOUS
10
2.69373
20
-5.07818
11
2.69372
21
-5.07818
0
LINE
8
BLACK
6
CONTINUOUS
10
2.69372
20
-5.07818
11
2.6937
21
-5.07818
0
LINE
8
BLACK
6
CONTINUOUS
10
2.6937
20
-5.07818
11
2.6717
21
-5.0762
0
LINE
8
BLACK
6
CONTINUOUS
10
2.6717
20
-5.0762
11
2.67167
21
-5.07619
0
LINE
8
BLACK
6
CONTINUOUS
10
2.67167
20
-5.07619
11
2.67165
21
-5.07619
0
LINE
8
BLACK
6
CONTINUOUS
10
2.67165
20
-5.07619
11
2.67163
21
-5.07619
0
LINE
8
BLACK
6
CONTINUOUS
10
2.67163
20
-5.07619
11
2.65045
21
-5.07361
0
LINE
8
BLACK
6
CONTINUOUS
10
2.65045
20
-5.07361
11
2.65042
21
-5.07361
0
LINE
8
BLACK
6
CONTINUOUS
10
2.65042
20
-5.07361
11
2.6504
21
-5.0736
0
LINE
8
BLACK
6
CONTINUOUS
10
2.6504
20
-5.0736
11
2.65038
21
-5.0736
0
LINE
8
BLACK
6
CONTINUOUS
10
2.65038
20
-5.0736
11
2.63001
21
-5.07042
0
LINE
8
BLACK
6
CONTINUOUS
10
2.63001
20
-5.07042
11
2.62998
21
-5.07042
0
LINE
8
BLACK
6
CONTINUOUS
10
2.62998
20
-5.07042
11
2.62996
21
-5.07041
0
LINE
8
BLACK
6
CONTINUOUS
10
2.62996
20
-5.07041
11
2.62994
21
-5.07041
0
LINE
8
BLACK
6
CONTINUOUS
10
2.62994
20
-5.07041
11
2.61038
21
-5.06662
0
LINE
8
BLACK
6
CONTINUOUS
10
2.61038
20
-5.06662
11
2.61035
21
-5.06661
0
LINE
8
BLACK
6
CONTINUOUS
10
2.61035
20
-5.06661
11
2.61033
21
-5.0666
0
LINE
8
BLACK
6
CONTINUOUS
10
2.61033
20
-5.0666
11
2.6103
21
-5.0666
0
LINE
8
BLACK
6
CONTINUOUS
10
2.6103
20
-5.0666
11
2.59156
21
-5.06218
0
LINE
8
BLACK
6
CONTINUOUS
10
2.59156
20
-5.06218
11
2.59153
21
-5.06218
0
LINE
8
BLACK
6
CONTINUOUS
10
2.59153
20
-5.06218
11
2.5915
21
-5.06217
0
LINE
8
BLACK
6
CONTINUOUS
10
2.5915
20
-5.06217
11
2.59148
21
-5.06216
0
LINE
8
BLACK
6
CONTINUOUS
10
2.59148
20
-5.06216
11
2.57354
21
-5.05711
0
LINE
8
BLACK
6
CONTINUOUS
10
2.57354
20
-5.05711
11
2.57351
21
-5.05711
0
LINE
8
BLACK
6
CONTINUOUS
10
2.57351
20
-5.05711
11
2.57348
21
-5.05709
0
LINE
8
BLACK
6
CONTINUOUS
10
2.57348
20
-5.05709
11
2.57345
21
-5.05709
0
LINE
8
BLACK
6
CONTINUOUS
10
2.57345
20
-5.05709
11
2.55631
21
-5.05139
0
LINE
8
BLACK
6
CONTINUOUS
10
2.55631
20
-5.05139
11
2.55629
21
-5.05139
0
LINE
8
BLACK
6
CONTINUOUS
10
2.55629
20
-5.05139
11
2.55625
21
-5.05137
0
LINE
8
BLACK
6
CONTINUOUS
10
2.55625
20
-5.05137
11
2.55622
21
-5.05136
0
LINE
8
BLACK
6
CONTINUOUS
10
2.55622
20
-5.05136
11
2.53988
21
-5.04501
0
LINE
8
BLACK
6
CONTINUOUS
10
2.53988
20
-5.04501
11
2.53986
21
-5.045
0
LINE
8
BLACK
6
CONTINUOUS
10
2.53986
20
-5.045
11
2.53982
21
-5.04499
0
LINE
8
BLACK
6
CONTINUOUS
10
2.53982
20
-5.04499
11
2.53979
21
-5.04497
0
LINE
8
BLACK
6
CONTINUOUS
10
2.53979
20
-5.04497
11
2.52424
21
-5.03796
0
LINE
8
BLACK
6
CONTINUOUS
10
2.52424
20
-5.03796
11
2.52422
21
-5.03795
0
LINE
8
BLACK
6
CONTINUOUS
10
2.52422
20
-5.03795
11
2.52418
21
-5.03793
0
LINE
8
BLACK
6
CONTINUOUS
10
2.52418
20
-5.03793
11
2.52414
21
-5.03791
0
LINE
8
BLACK
6
CONTINUOUS
10
2.52414
20
-5.03791
11
2.5094
21
-5.03022
0
LINE
8
BLACK
6
CONTINUOUS
10
2.5094
20
-5.03022
11
2.50937
21
-5.03021
0
LINE
8
BLACK
6
CONTINUOUS
10
2.50937
20
-5.03021
11
2.50933
21
-5.03018
0
LINE
8
BLACK
6
CONTINUOUS
10
2.50933
20
-5.03018
11
2.50929
21
-5.03016
0
LINE
8
BLACK
6
CONTINUOUS
10
2.50929
20
-5.03016
11
2.49534
21
-5.02179
0
LINE
8
BLACK
6
CONTINUOUS
10
2.49534
20
-5.02179
11
2.49531
21
-5.02178
0
LINE
8
BLACK
6
CONTINUOUS
10
2.49531
20
-5.02178
11
2.49527
21
-5.02175
0
LINE
8
BLACK
6
CONTINUOUS
10
2.49527
20
-5.02175
11
2.49523
21
-5.02172
0
LINE
8
BLACK
6
CONTINUOUS
10
2.49523
20
-5.02172
11
2.48206
21
-5.01265
0
LINE
8
BLACK
6
CONTINUOUS
10
2.48206
20
-5.01265
11
2.48204
21
-5.01264
0
LINE
8
BLACK
6
CONTINUOUS
10
2.48204
20
-5.01264
11
2.482
21
-5.0126
0
LINE
8
BLACK
6
CONTINUOUS
10
2.482
20
-5.0126
11
2.48196
21
-5.01258
0
LINE
8
BLACK
6
CONTINUOUS
10
2.48196
20
-5.01258
11
2.46956
21
-5.0028
0
LINE
8
BLACK
6
CONTINUOUS
10
2.46956
20
-5.0028
11
2.46954
21
-5.00278
0
LINE
8
BLACK
6
CONTINUOUS
10
2.46954
20
-5.00278
11
2.46951
21
-5.00274
0
LINE
8
BLACK
6
CONTINUOUS
10
2.46951
20
-5.00274
11
2.46946
21
-5.00271
0
LINE
8
BLACK
6
CONTINUOUS
10
2.46946
20
-5.00271
11
2.45785
21
-4.99221
0
LINE
8
BLACK
6
CONTINUOUS
10
2.45785
20
-4.99221
11
2.45783
21
-4.9922
0
LINE
8
BLACK
6
CONTINUOUS
10
2.45783
20
-4.9922
11
2.4578
21
-4.99216
0
LINE
8
BLACK
6
CONTINUOUS
10
2.4578
20
-4.99216
11
2.45775
21
-4.99212
0
LINE
8
BLACK
6
CONTINUOUS
10
2.45775
20
-4.99212
11
2.44692
21
-4.98089
0
LINE
8
BLACK
6
CONTINUOUS
10
2.44692
20
-4.98089
11
2.4469
21
-4.98087
0
LINE
8
BLACK
6
CONTINUOUS
10
2.4469
20
-4.98087
11
2.44687
21
-4.98083
0
LINE
8
BLACK
6
CONTINUOUS
10
2.44687
20
-4.98083
11
2.44683
21
-4.98079
0
LINE
8
BLACK
6
CONTINUOUS
10
2.44683
20
-4.98079
11
2.43676
21
-4.96883
0
LINE
8
BLACK
6
CONTINUOUS
10
2.43676
20
-4.96883
11
2.43674
21
-4.96881
0
LINE
8
BLACK
6
CONTINUOUS
10
2.43674
20
-4.96881
11
2.43671
21
-4.96876
0
LINE
8
BLACK
6
CONTINUOUS
10
2.43671
20
-4.96876
11
2.43668
21
-4.96872
0
LINE
8
BLACK
6
CONTINUOUS
10
2.43668
20
-4.96872
11
2.42738
21
-4.95601
0
LINE
8
BLACK
6
CONTINUOUS
10
2.42738
20
-4.95601
11
2.42736
21
-4.95599
0
LINE
8
BLACK
6
CONTINUOUS
10
2.42736
20
-4.95599
11
2.42734
21
-4.95594
0
LINE
8
BLACK
6
CONTINUOUS
10
2.42734
20
-4.95594
11
2.42731
21
-4.9559
0
LINE
8
BLACK
6
CONTINUOUS
10
2.42731
20
-4.9559
11
2.41877
21
-4.94243
0
LINE
8
BLACK
6
CONTINUOUS
10
2.41877
20
-4.94243
11
2.41876
21
-4.9424
0
LINE
8
BLACK
6
CONTINUOUS
10
2.41876
20
-4.9424
11
2.41873
21
-4.94236
0
LINE
8
BLACK
6
CONTINUOUS
10
2.41873
20
-4.94236
11
2.41871
21
-4.94232
0
LINE
8
BLACK
6
CONTINUOUS
10
2.41871
20
-4.94232
11
2.41093
21
-4.92807
0
LINE
8
BLACK
6
CONTINUOUS
10
2.41093
20
-4.92807
11
2.41092
21
-4.92805
0
LINE
8
BLACK
6
CONTINUOUS
10
2.41092
20
-4.92805
11
2.4109
21
-4.928
0
LINE
8
BLACK
6
CONTINUOUS
10
2.4109
20
-4.928
11
2.41088
21
-4.92796
0
LINE
8
BLACK
6
CONTINUOUS
10
2.41088
20
-4.92796
11
2.40386
21
-4.91293
0
LINE
8
BLACK
6
CONTINUOUS
10
2.40386
20
-4.91293
11
2.40385
21
-4.91291
0
LINE
8
BLACK
6
CONTINUOUS
10
2.40385
20
-4.91291
11
2.40383
21
-4.91287
0
LINE
8
BLACK
6
CONTINUOUS
10
2.40383
20
-4.91287
11
2.40381
21
-4.91283
0
LINE
8
BLACK
6
CONTINUOUS
10
2.40381
20
-4.91283
11
2.39755
21
-4.89701
0
LINE
8
BLACK
6
CONTINUOUS
10
2.39755
20
-4.89701
11
2.39754
21
-4.89698
0
LINE
8
BLACK
6
CONTINUOUS
10
2.39754
20
-4.89698
11
2.39753
21
-4.89694
0
LINE
8
BLACK
6
CONTINUOUS
10
2.39753
20
-4.89694
11
2.39751
21
-4.8969
0
LINE
8
BLACK
6
CONTINUOUS
10
2.39751
20
-4.8969
11
2.392
21
-4.88028
0
LINE
8
BLACK
6
CONTINUOUS
10
2.392
20
-4.88028
11
2.39199
21
-4.88026
0
LINE
8
BLACK
6
CONTINUOUS
10
2.39199
20
-4.88026
11
2.39198
21
-4.88022
0
LINE
8
BLACK
6
CONTINUOUS
10
2.39198
20
-4.88022
11
2.39197
21
-4.88018
0
LINE
8
BLACK
6
CONTINUOUS
10
2.39197
20
-4.88018
11
2.3872
21
-4.86275
0
LINE
8
BLACK
6
CONTINUOUS
10
2.3872
20
-4.86275
11
2.3872
21
-4.86272
0
LINE
8
BLACK
6
CONTINUOUS
10
2.3872
20
-4.86272
11
2.38719
21
-4.86269
0
LINE
8
BLACK
6
CONTINUOUS
10
2.38719
20
-4.86269
11
2.38718
21
-4.86265
0
LINE
8
BLACK
6
CONTINUOUS
10
2.38718
20
-4.86265
11
2.38316
21
-4.84439
0
LINE
8
BLACK
6
CONTINUOUS
10
2.38316
20
-4.84439
11
2.38315
21
-4.84437
0
LINE
8
BLACK
6
CONTINUOUS
10
2.38315
20
-4.84437
11
2.38315
21
-4.84433
0
LINE
8
BLACK
6
CONTINUOUS
10
2.38315
20
-4.84433
11
2.38314
21
-4.8443
0
LINE
8
BLACK
6
CONTINUOUS
10
2.38314
20
-4.8443
11
2.37986
21
-4.82521
0
LINE
8
BLACK
6
CONTINUOUS
10
2.37986
20
-4.82521
11
2.37985
21
-4.82519
0
LINE
8
BLACK
6
CONTINUOUS
10
2.37985
20
-4.82519
11
2.37985
21
-4.82516
0
LINE
8
BLACK
6
CONTINUOUS
10
2.37985
20
-4.82516
11
2.37984
21
-4.82513
0
LINE
8
BLACK
6
CONTINUOUS
10
2.37984
20
-4.82513
11
2.3773
21
-4.80519
0
LINE
8
BLACK
6
CONTINUOUS
10
2.3773
20
-4.80519
11
2.37729
21
-4.80516
0
LINE
8
BLACK
6
CONTINUOUS
10
2.37729
20
-4.80516
11
2.37729
21
-4.80514
0
LINE
8
BLACK
6
CONTINUOUS
10
2.37729
20
-4.80514
11
2.37729
21
-4.80511
0
LINE
8
BLACK
6
CONTINUOUS
10
2.37729
20
-4.80511
11
2.37547
21
-4.78432
0
LINE
8
BLACK
6
CONTINUOUS
10
2.37547
20
-4.78432
11
2.37547
21
-4.78429
0
LINE
8
BLACK
6
CONTINUOUS
10
2.37547
20
-4.78429
11
2.37547
21
-4.78427
0
LINE
8
BLACK
6
CONTINUOUS
10
2.37547
20
-4.78427
11
2.37547
21
-4.78425
0
LINE
8
BLACK
6
CONTINUOUS
10
2.37547
20
-4.78425
11
2.37438
21
-4.76259
0
LINE
8
BLACK
6
CONTINUOUS
10
2.37438
20
-4.76259
11
2.37438
21
-4.76256
0
LINE
8
BLACK
6
CONTINUOUS
10
2.37438
20
-4.76256
11
2.37438
21
-4.76255
0
LINE
8
BLACK
6
CONTINUOUS
10
2.37438
20
-4.76255
11
2.37438
21
-4.76253
0
LINE
8
BLACK
6
CONTINUOUS
10
2.37438
20
-4.76253
11
2.37402
21
-4.74007
0
LINE
8
BLACK
6
CONTINUOUS
10
2.37402
20
-4.74007
11
2.37402
21
-4.74006
0
LINE
8
BLACK
6
CONTINUOUS
10
2.37402
20
-4.74006
11
2.37402
21
-4.73997
0
LINE
8
BLACK
6
CONTINUOUS
10
2.37402
20
-4.73997
11
2.37402
21
-4.73996
0
LINE
8
BLACK
6
CONTINUOUS
10
2.37402
20
-4.73996
11
2.37402
21
-4.73996
0
LINE
8
BLACK
6
CONTINUOUS
10
2.37402
20
-4.73996
11
2.37402
21
-3.75112
0
LINE
8
BLACK
6
CONTINUOUS
10
2.37402
20
-3.75112
11
2.37372
21
-3.73382
0
LINE
8
BLACK
6
CONTINUOUS
10
2.37372
20
-3.73382
11
2.37285
21
-3.71746
0
LINE
8
BLACK
6
CONTINUOUS
10
2.37285
20
-3.71746
11
2.37141
21
-3.702
0
LINE
8
BLACK
6
CONTINUOUS
10
2.37141
20
-3.702
11
2.36943
21
-3.68741
0
LINE
8
BLACK
6
CONTINUOUS
10
2.36943
20
-3.68741
11
2.3669
21
-3.67367
0
LINE
8
BLACK
6
CONTINUOUS
10
2.3669
20
-3.67367
11
2.36383
21
-3.66075
0
LINE
8
BLACK
6
CONTINUOUS
10
2.36383
20
-3.66075
11
2.36025
21
-3.64864
0
LINE
8
BLACK
6
CONTINUOUS
10
2.36025
20
-3.64864
11
2.35616
21
-3.6373
0
LINE
8
BLACK
6
CONTINUOUS
10
2.35616
20
-3.6373
11
2.35156
21
-3.62671
0
LINE
8
BLACK
6
CONTINUOUS
10
2.35156
20
-3.62671
11
2.34648
21
-3.61685
0
LINE
8
BLACK
6
CONTINUOUS
10
2.34648
20
-3.61685
11
2.34091
21
-3.60769
0
LINE
8
BLACK
6
CONTINUOUS
10
2.34091
20
-3.60769
11
2.33487
21
-3.5992
0
LINE
8
BLACK
6
CONTINUOUS
10
2.33487
20
-3.5992
11
2.32837
21
-3.59136
0
LINE
8
BLACK
6
CONTINUOUS
10
2.32837
20
-3.59136
11
2.32141
21
-3.58413
0
LINE
8
BLACK
6
CONTINUOUS
10
2.32141
20
-3.58413
11
2.314
21
-3.57751
0
LINE
8
BLACK
6
CONTINUOUS
10
2.314
20
-3.57751
11
2.30616
21
-3.57145
0
LINE
8
BLACK
6
CONTINUOUS
10
2.30616
20
-3.57145
11
2.29787
21
-3.56594
0
LINE
8
BLACK
6
CONTINUOUS
10
2.29787
20
-3.56594
11
2.28916
21
-3.56095
0
LINE
8
BLACK
6
CONTINUOUS
10
2.28916
20
-3.56095
11
2.28003
21
-3.55646
0
LINE
8
BLACK
6
CONTINUOUS
10
2.28003
20
-3.55646
11
2.27049
21
-3.55245
0
LINE
8
BLACK
6
CONTINUOUS
10
2.27049
20
-3.55245
11
2.26054
21
-3.54889
0
LINE
8
BLACK
6
CONTINUOUS
10
2.26054
20
-3.54889
11
2.25019
21
-3.54576
0
LINE
8
BLACK
6
CONTINUOUS
10
2.25019
20
-3.54576
11
2.23946
21
-3.54303
0
LINE
8
BLACK
6
CONTINUOUS
10
2.23946
20
-3.54303
11
2.22835
21
-3.54069
0
LINE
8
BLACK
6
CONTINUOUS
10
2.22835
20
-3.54069
11
2.21687
21
-3.53872
0
LINE
8
BLACK
6
CONTINUOUS
10
2.21687
20
-3.53872
11
2.20503
21
-3.53708
0
LINE
8
BLACK
6
CONTINUOUS
10
2.20503
20
-3.53708
11
2.19285
21
-3.53576
0
LINE
8
BLACK
6
CONTINUOUS
10
2.19285
20
-3.53576
11
2.18032
21
-3.53473
0
LINE
8
BLACK
6
CONTINUOUS
10
2.18032
20
-3.53473
11
2.16746
21
-3.53397
0
LINE
8
BLACK
6
CONTINUOUS
10
2.16746
20
-3.53397
11
2.15429
21
-3.53345
0
LINE
8
BLACK
6
CONTINUOUS
10
2.15429
20
-3.53345
11
2.1408
21
-3.53316
0
LINE
8
BLACK
6
CONTINUOUS
10
2.1408
20
-3.53316
11
2.12701
21
-3.53307
0
LINE
8
BLACK
6
CONTINUOUS
10
2.12701
20
-3.53307
11
2.00881
21
-3.53307
0
LINE
8
BLACK
6
CONTINUOUS
10
2.00881
20
-3.53307
11
2.00879
21
-3.53307
0
LINE
8
BLACK
6
CONTINUOUS
10
2.00879
20
-3.53307
11
1.99104
21
-3.53268
0
LINE
8
BLACK
6
CONTINUOUS
10
1.99104
20
-3.53268
11
1.99101
21
-3.53268
0
LINE
8
BLACK
6
CONTINUOUS
10
1.99101
20
-3.53268
11
1.991
21
-3.53268
0
LINE
8
BLACK
6
CONTINUOUS
10
1.991
20
-3.53268
11
1.99098
21
-3.53268
0
LINE
8
BLACK
6
CONTINUOUS
10
1.99098
20
-3.53268
11
1.97357
21
-3.53174
0
LINE
8
BLACK
6
CONTINUOUS
10
1.97357
20
-3.53174
11
1.97354
21
-3.53174
0
LINE
8
BLACK
6
CONTINUOUS
10
1.97354
20
-3.53174
11
1.97352
21
-3.53174
0
LINE
8
BLACK
6
CONTINUOUS
10
1.97352
20
-3.53174
11
1.9735
21
-3.53174
0
LINE
8
BLACK
6
CONTINUOUS
10
1.9735
20
-3.53174
11
1.95652
21
-3.53023
0
LINE
8
BLACK
6
CONTINUOUS
10
1.95652
20
-3.53023
11
1.9565
21
-3.53023
0
LINE
8
BLACK
6
CONTINUOUS
10
1.9565
20
-3.53023
11
1.95647
21
-3.53023
0
LINE
8
BLACK
6
CONTINUOUS
10
1.95647
20
-3.53023
11
1.95645
21
-3.53023
0
LINE
8
BLACK
6
CONTINUOUS
10
1.95645
20
-3.53023
11
1.9399
21
-3.52815
0
LINE
8
BLACK
6
CONTINUOUS
10
1.9399
20
-3.52815
11
1.93988
21
-3.52814
0
LINE
8
BLACK
6
CONTINUOUS
10
1.93988
20
-3.52814
11
1.93985
21
-3.52814
0
LINE
8
BLACK
6
CONTINUOUS
10
1.93985
20
-3.52814
11
1.93983
21
-3.52814
0
LINE
8
BLACK
6
CONTINUOUS
10
1.93983
20
-3.52814
11
1.92372
21
-3.52547
0
LINE
8
BLACK
6
CONTINUOUS
10
1.92372
20
-3.52547
11
1.9237
21
-3.52547
0
LINE
8
BLACK
6
CONTINUOUS
10
1.9237
20
-3.52547
11
1.92367
21
-3.52546
0
LINE
8
BLACK
6
CONTINUOUS
10
1.92367
20
-3.52546
11
1.92364
21
-3.52546
0
LINE
8
BLACK
6
CONTINUOUS
10
1.92364
20
-3.52546
11
1.908
21
-3.5222
0
LINE
8
BLACK
6
CONTINUOUS
10
1.908
20
-3.5222
11
1.90797
21
-3.52219
0
LINE
8
BLACK
6
CONTINUOUS
10
1.90797
20
-3.52219
11
1.90794
21
-3.52219
0
LINE
8
BLACK
6
CONTINUOUS
10
1.90794
20
-3.52219
11
1.90791
21
-3.52218
0
LINE
8
BLACK
6
CONTINUOUS
10
1.90791
20
-3.52218
11
1.89273
21
-3.51832
0
LINE
8
BLACK
6
CONTINUOUS
10
1.89273
20
-3.51832
11
1.8927
21
-3.51831
0
LINE
8
BLACK
6
CONTINUOUS
10
1.8927
20
-3.51831
11
1.89267
21
-3.5183
0
LINE
8
BLACK
6
CONTINUOUS
10
1.89267
20
-3.5183
11
1.89264
21
-3.51829
0
LINE
8
BLACK
6
CONTINUOUS
10
1.89264
20
-3.51829
11
1.87793
21
-3.51381
0
LINE
8
BLACK
6
CONTINUOUS
10
1.87793
20
-3.51381
11
1.8779
21
-3.5138
0
LINE
8
BLACK
6
CONTINUOUS
10
1.8779
20
-3.5138
11
1.87787
21
-3.51379
0
LINE
8
BLACK
6
CONTINUOUS
10
1.87787
20
-3.51379
11
1.87784
21
-3.51378
0
LINE
8
BLACK
6
CONTINUOUS
10
1.87784
20
-3.51378
11
1.86361
21
-3.50867
0
LINE
8
BLACK
6
CONTINUOUS
10
1.86361
20
-3.50867
11
1.86359
21
-3.50866
0
LINE
8
BLACK
6
CONTINUOUS
10
1.86359
20
-3.50866
11
1.86355
21
-3.50864
0
LINE
8
BLACK
6
CONTINUOUS
10
1.86355
20
-3.50864
11
1.86352
21
-3.50863
0
LINE
8
BLACK
6
CONTINUOUS
10
1.86352
20
-3.50863
11
1.84979
21
-3.50288
0
LINE
8
BLACK
6
CONTINUOUS
10
1.84979
20
-3.50288
11
1.84976
21
-3.50287
0
LINE
8
BLACK
6
CONTINUOUS
10
1.84976
20
-3.50287
11
1.84973
21
-3.50285
0
LINE
8
BLACK
6
CONTINUOUS
10
1.84973
20
-3.50285
11
1.84969
21
-3.50284
0
LINE
8
BLACK
6
CONTINUOUS
10
1.84969
20
-3.50284
11
1.83646
21
-3.49644
0
LINE
8
BLACK
6
CONTINUOUS
10
1.83646
20
-3.49644
11
1.83644
21
-3.49643
0
LINE
8
BLACK
6
CONTINUOUS
10
1.83644
20
-3.49643
11
1.8364
21
-3.4964
0
LINE
8
BLACK
6
CONTINUOUS
10
1.8364
20
-3.4964
11
1.83636
21
-3.49639
0
LINE
8
BLACK
6
CONTINUOUS
10
1.83636
20
-3.49639
11
1.82365
21
-3.48933
0
LINE
8
BLACK
6
CONTINUOUS
10
1.82365
20
-3.48933
11
1.82362
21
-3.48931
0
LINE
8
BLACK
6
CONTINUOUS
10
1.82362
20
-3.48931
11
1.82359
21
-3.48929
0
LINE
8
BLACK
6
CONTINUOUS
10
1.82359
20
-3.48929
11
1.82355
21
-3.48927
0
LINE
8
BLACK
6
CONTINUOUS
10
1.82355
20
-3.48927
11
1.81136
21
-3.48154
0
LINE
8
BLACK
6
CONTINUOUS
10
1.81136
20
-3.48154
11
1.81134
21
-3.48152
0
LINE
8
BLACK
6
CONTINUOUS
10
1.81134
20
-3.48152
11
1.8113
21
-3.48149
0
LINE
8
BLACK
6
CONTINUOUS
10
1.8113
20
-3.48149
11
1.81126
21
-3.48147
0
LINE
8
BLACK
6
CONTINUOUS
10
1.81126
20
-3.48147
11
1.7996
21
-3.47306
0
LINE
8
BLACK
6
CONTINUOUS
10
1.7996
20
-3.47306
11
1.79958
21
-3.47304
0
LINE
8
BLACK
6
CONTINUOUS
10
1.79958
20
-3.47304
11
1.79955
21
-3.47301
0
LINE
8
BLACK
6
CONTINUOUS
10
1.79955
20
-3.47301
11
1.79951
21
-3.47298
0
LINE
8
BLACK
6
CONTINUOUS
10
1.79951
20
-3.47298
11
1.7884
21
-3.46388
0
LINE
8
BLACK
6
CONTINUOUS
10
1.7884
20
-3.46388
11
1.78837
21
-3.46386
0
LINE
8
BLACK
6
CONTINUOUS
10
1.78837
20
-3.46386
11
1.78834
21
-3.46383
0
LINE
8
BLACK
6
CONTINUOUS
10
1.78834
20
-3.46383
11
1.7883
21
-3.4638
0
LINE
8
BLACK
6
CONTINUOUS
10
1.7883
20
-3.4638
11
1.77774
21
-3.45399
0
LINE
8
BLACK
6
CONTINUOUS
10
1.77774
20
-3.45399
11
1.77772
21
-3.45397
0
LINE
8
BLACK
6
CONTINUOUS
10
1.77772
20
-3.45397
11
1.77769
21
-3.45393
0
LINE
8
BLACK
6
CONTINUOUS
10
1.77769
20
-3.45393
11
1.77766
21
-3.4539
0
LINE
8
BLACK
6
CONTINUOUS
10
1.77766
20
-3.4539
11
1.76766
21
-3.44338
0
LINE
8
BLACK
6
CONTINUOUS
10
1.76766
20
-3.44338
11
1.76764
21
-3.44336
0
LINE
8
BLACK
6
CONTINUOUS
10
1.76764
20
-3.44336
11
1.76761
21
-3.44332
0
LINE
8
BLACK
6
CONTINUOUS
10
1.76761
20
-3.44332
11
1.76758
21
-3.44329
0
LINE
8
BLACK
6
CONTINUOUS
10
1.76758
20
-3.44329
11
1.75815
21
-3.43204
0
LINE
8
BLACK
6
CONTINUOUS
10
1.75815
20
-3.43204
11
1.75814
21
-3.43201
0
LINE
8
BLACK
6
CONTINUOUS
10
1.75814
20
-3.43201
11
1.75811
21
-3.43198
0
LINE
8
BLACK
6
CONTINUOUS
10
1.75811
20
-3.43198
11
1.75808
21
-3.43194
0
LINE
8
BLACK
6
CONTINUOUS
10
1.75808
20
-3.43194
11
1.74924
21
-3.41996
0
LINE
8
BLACK
6
CONTINUOUS
10
1.74924
20
-3.41996
11
1.74922
21
-3.41993
0
LINE
8
BLACK
6
CONTINUOUS
10
1.74922
20
-3.41993
11
1.7492
21
-3.41989
0
LINE
8
BLACK
6
CONTINUOUS
10
1.7492
20
-3.41989
11
1.74917
21
-3.41986
0
LINE
8
BLACK
6
CONTINUOUS
10
1.74917
20
-3.41986
11
1.74092
21
-3.40713
0
LINE
8
BLACK
6
CONTINUOUS
10
1.74092
20
-3.40713
11
1.74091
21
-3.4071
0
LINE
8
BLACK
6
CONTINUOUS
10
1.74091
20
-3.4071
11
1.74089
21
-3.40706
0
LINE
8
BLACK
6
CONTINUOUS
10
1.74089
20
-3.40706
11
1.74086
21
-3.40703
0
LINE
8
BLACK
6
CONTINUOUS
10
1.74086
20
-3.40703
11
1.73322
21
-3.39354
0
LINE
8
BLACK
6
CONTINUOUS
10
1.73322
20
-3.39354
11
1.7332
21
-3.39351
0
LINE
8
BLACK
6
CONTINUOUS
10
1.7332
20
-3.39351
11
1.73319
21
-3.39347
0
LINE
8
BLACK
6
CONTINUOUS
10
1.73319
20
-3.39347
11
1.73317
21
-3.39344
0
LINE
8
BLACK
6
CONTINUOUS
10
1.73317
20
-3.39344
11
1.72613
21
-3.37918
0
LINE
8
BLACK
6
CONTINUOUS
10
1.72613
20
-3.37918
11
1.72612
21
-3.37915
0
LINE
8
BLACK
6
CONTINUOUS
10
1.72612
20
-3.37915
11
1.72611
21
-3.37912
0
LINE
8
BLACK
6
CONTINUOUS
10
1.72611
20
-3.37912
11
1.72609
21
-3.37908
0
LINE
8
BLACK
6
CONTINUOUS
10
1.72609
20
-3.37908
11
1.71968
21
-3.36404
0
LINE
8
BLACK
6
CONTINUOUS
10
1.71968
20
-3.36404
11
1.71967
21
-3.36402
0
LINE
8
BLACK
6
CONTINUOUS
10
1.71967
20
-3.36402
11
1.71966
21
-3.36398
0
LINE
8
BLACK
6
CONTINUOUS
10
1.71966
20
-3.36398
11
1.71964
21
-3.36395
0
LINE
8
BLACK
6
CONTINUOUS
10
1.71964
20
-3.36395
11
1.71386
21
-3.34812
0
LINE
8
BLACK
6
CONTINUOUS
10
1.71386
20
-3.34812
11
1.71386
21
-3.34809
0
LINE
8
BLACK
6
CONTINUOUS
10
1.71386
20
-3.34809
11
1.71385
21
-3.34806
0
LINE
8
BLACK
6
CONTINUOUS
10
1.71385
20
-3.34806
11
1.71383
21
-3.34802
0
LINE
8
BLACK
6
CONTINUOUS
10
1.71383
20
-3.34802
11
1.7087
21
-3.3314
0
LINE
8
BLACK
6
CONTINUOUS
10
1.7087
20
-3.3314
11
1.70869
21
-3.33137
0
LINE
8
BLACK
6
CONTINUOUS
10
1.70869
20
-3.33137
11
1.70869
21
-3.33134
0
LINE
8
BLACK
6
CONTINUOUS
10
1.70869
20
-3.33134
11
1.70867
21
-3.33131
0
LINE
8
BLACK
6
CONTINUOUS
10
1.70867
20
-3.33131
11
1.70419
21
-3.31387
0
LINE
8
BLACK
6
CONTINUOUS
10
1.70419
20
-3.31387
11
1.70419
21
-3.31384
0
LINE
8
BLACK
6
CONTINUOUS
10
1.70419
20
-3.31384
11
1.70418
21
-3.31381
0
LINE
8
BLACK
6
CONTINUOUS
10
1.70418
20
-3.31381
11
1.70417
21
-3.31378
0
LINE
8
BLACK
6
CONTINUOUS
10
1.70417
20
-3.31378
11
1.70035
21
-3.29552
0
LINE
8
BLACK
6
CONTINUOUS
10
1.70035
20
-3.29552
11
1.70035
21
-3.29549
0
LINE
8
BLACK
6
CONTINUOUS
10
1.70035
20
-3.29549
11
1.70034
21
-3.29546
0
LINE
8
BLACK
6
CONTINUOUS
10
1.70034
20
-3.29546
11
1.70034
21
-3.29544
0
LINE
8
BLACK
6
CONTINUOUS
10
1.70034
20
-3.29544
11
1.69719
21
-3.27634
0
LINE
8
BLACK
6
CONTINUOUS
10
1.69719
20
-3.27634
11
1.69719
21
-3.27632
0
LINE
8
BLACK
6
CONTINUOUS
10
1.69719
20
-3.27632
11
1.69718
21
-3.27629
0
LINE
8
BLACK
6
CONTINUOUS
10
1.69718
20
-3.27629
11
1.69718
21
-3.27626
0
LINE
8
BLACK
6
CONTINUOUS
10
1.69718
20
-3.27626
11
1.69471
21
-3.25633
0
LINE
8
BLACK
6
CONTINUOUS
10
1.69471
20
-3.25633
11
1.69471
21
-3.2563
0
LINE
8
BLACK
6
CONTINUOUS
10
1.69471
20
-3.2563
11
1.69471
21
-3.25628
0
LINE
8
BLACK
6
CONTINUOUS
10
1.69471
20
-3.25628
11
1.69471
21
-3.25625
0
LINE
8
BLACK
6
CONTINUOUS
10
1.69471
20
-3.25625
11
1.69293
21
-3.23546
0
LINE
8
BLACK
6
CONTINUOUS
10
1.69293
20
-3.23546
11
1.69293
21
-3.23543
0
LINE
8
BLACK
6
CONTINUOUS
10
1.69293
20
-3.23543
11
1.69293
21
-3.23541
0
LINE
8
BLACK
6
CONTINUOUS
10
1.69293
20
-3.23541
11
1.69293
21
-3.23539
0
LINE
8
BLACK
6
CONTINUOUS
10
1.69293
20
-3.23539
11
1.69186
21
-3.21373
0
LINE
8
BLACK
6
CONTINUOUS
10
1.69186
20
-3.21373
11
1.69186
21
-3.21371
0
LINE
8
BLACK
6
CONTINUOUS
10
1.69186
20
-3.21371
11
1.69186
21
-3.21369
0
LINE
8
BLACK
6
CONTINUOUS
10
1.69186
20
-3.21369
11
1.69186
21
-3.21367
0
LINE
8
BLACK
6
CONTINUOUS
10
1.69186
20
-3.21367
11
1.6915
21
-3.19122
0
LINE
8
BLACK
6
CONTINUOUS
10
1.6915
20
-3.19122
11
1.6915
21
-3.1912
0
LINE
8
BLACK
6
CONTINUOUS
10
1.6915
20
-3.1912
11
1.68705
21
-1.5699
0
LINE
8
BLACK
6
CONTINUOUS
10
1.68705
20
-1.5699
11
1.68705
21
-1.56989
0
LINE
8
BLACK
6
CONTINUOUS
10
1.68705
20
-1.56989
11
1.68732
21
-1.54547
0
LINE
8
BLACK
6
CONTINUOUS
10
1.68732
20
-1.54547
11
1.68732
21
-1.54545
0
LINE
8
BLACK
6
CONTINUOUS
10
1.68732
20
-1.54545
11
1.68732
21
-1.54544
0
LINE
8
BLACK
6
CONTINUOUS
10
1.68732
20
-1.54544
11
1.68732
21
-1.54543
0
LINE
8
BLACK
6
CONTINUOUS
10
1.68732
20
-1.54543
11
1.68816
21
-1.52176
0
LINE
8
BLACK
6
CONTINUOUS
10
1.68816
20
-1.52176
11
1.68816
21
-1.52174
0
LINE
8
BLACK
6
CONTINUOUS
10
1.68816
20
-1.52174
11
1.68816
21
-1.52173
0
LINE
8
BLACK
6
CONTINUOUS
10
1.68816
20
-1.52173
11
1.68816
21
-1.52171
0
LINE
8
BLACK
6
CONTINUOUS
10
1.68816
20
-1.52171
11
1.68957
21
-1.49888
0
LINE
8
BLACK
6
CONTINUOUS
10
1.68957
20
-1.49888
11
1.68957
21
-1.49885
0
LINE
8
BLACK
6
CONTINUOUS
10
1.68957
20
-1.49885
11
1.68957
21
-1.49884
0
LINE
8
BLACK
6
CONTINUOUS
10
1.68957
20
-1.49884
11
1.68957
21
-1.49882
0
LINE
8
BLACK
6
CONTINUOUS
10
1.68957
20
-1.49882
11
1.69156
21
-1.47681
0
LINE
8
BLACK
6
CONTINUOUS
10
1.69156
20
-1.47681
11
1.69156
21
-1.47679
0
LINE
8
BLACK
6
CONTINUOUS
10
1.69156
20
-1.47679
11
1.69157
21
-1.47677
0
LINE
8
BLACK
6
CONTINUOUS
10
1.69157
20
-1.47677
11
1.69157
21
-1.47675
0
LINE
8
BLACK
6
CONTINUOUS
10
1.69157
20
-1.47675
11
1.69414
21
-1.45556
0
LINE
8
BLACK
6
CONTINUOUS
10
1.69414
20
-1.45556
11
1.69415
21
-1.45554
0
LINE
8
BLACK
6
CONTINUOUS
10
1.69415
20
-1.45554
11
1.69415
21
-1.45552
0
LINE
8
BLACK
6
CONTINUOUS
10
1.69415
20
-1.45552
11
1.69415
21
-1.4555
0
LINE
8
BLACK
6
CONTINUOUS
10
1.69415
20
-1.4555
11
1.69733
21
-1.43513
0
LINE
8
BLACK
6
CONTINUOUS
10
1.69733
20
-1.43513
11
1.69734
21
-1.4351
0
LINE
8
BLACK
6
CONTINUOUS
10
1.69734
20
-1.4351
11
1.69734
21
-1.43508
0
LINE
8
BLACK
6
CONTINUOUS
10
1.69734
20
-1.43508
11
1.69735
21
-1.43506
0
LINE
8
BLACK
6
CONTINUOUS
10
1.69735
20
-1.43506
11
1.70114
21
-1.4155
0
LINE
8
BLACK
6
CONTINUOUS
10
1.70114
20
-1.4155
11
1.70114
21
-1.41547
0
LINE
8
BLACK
6
CONTINUOUS
10
1.70114
20
-1.41547
11
1.70115
21
-1.41545
0
LINE
8
BLACK
6
CONTINUOUS
10
1.70115
20
-1.41545
11
1.70116
21
-1.41542
0
LINE
8
BLACK
6
CONTINUOUS
10
1.70116
20
-1.41542
11
1.70557
21
-1.39668
0
LINE
8
BLACK
6
CONTINUOUS
10
1.70557
20
-1.39668
11
1.70558
21
-1.39665
0
LINE
8
BLACK
6
CONTINUOUS
10
1.70558
20
-1.39665
11
1.70559
21
-1.39662
0
LINE
8
BLACK
6
CONTINUOUS
10
1.70559
20
-1.39662
11
1.70559
21
-1.39659
0
LINE
8
BLACK
6
CONTINUOUS
10
1.70559
20
-1.39659
11
1.71064
21
-1.37865
0
LINE
8
BLACK
6
CONTINUOUS
10
1.71064
20
-1.37865
11
1.71065
21
-1.37863
0
LINE
8
BLACK
6
CONTINUOUS
10
1.71065
20
-1.37863
11
1.71066
21
-1.3786
0
LINE
8
BLACK
6
CONTINUOUS
10
1.71066
20
-1.3786
11
1.71067
21
-1.37857
0
LINE
8
BLACK
6
CONTINUOUS
10
1.71067
20
-1.37857
11
1.71636
21
-1.36143
0
LINE
8
BLACK
6
CONTINUOUS
10
1.71636
20
-1.36143
11
1.71637
21
-1.3614
0
LINE
8
BLACK
6
CONTINUOUS
10
1.71637
20
-1.3614
11
1.71638
21
-1.36137
0
LINE
8
BLACK
6
CONTINUOUS
10
1.71638
20
-1.36137
11
1.71639
21
-1.36134
0
LINE
8
BLACK
6
CONTINUOUS
10
1.71639
20
-1.36134
11
1.72274
21
-1.345
0
LINE
8
BLACK
6
CONTINUOUS
10
1.72274
20
-1.345
11
1.72275
21
-1.34497
0
LINE
8
BLACK
6
CONTINUOUS
10
1.72275
20
-1.34497
11
1.72277
21
-1.34494
0
LINE
8
BLACK
6
CONTINUOUS
10
1.72277
20
-1.34494
11
1.72278
21
-1.3449
0
LINE
8
BLACK
6
CONTINUOUS
10
1.72278
20
-1.3449
11
1.7298
21
-1.32936
0
LINE
8
BLACK
6
CONTINUOUS
10
1.7298
20
-1.32936
11
1.72981
21
-1.32934
0
LINE
8
BLACK
6
CONTINUOUS
10
1.72981
20
-1.32934
11
1.72983
21
-1.3293
0
LINE
8
BLACK
6
CONTINUOUS
10
1.72983
20
-1.3293
11
1.72984
21
-1.32926
0
LINE
8
BLACK
6
CONTINUOUS
10
1.72984
20
-1.32926
11
1.73753
21
-1.31451
0
LINE
8
BLACK
6
CONTINUOUS
10
1.73753
20
-1.31451
11
1.73755
21
-1.31449
0
LINE
8
BLACK
6
CONTINUOUS
10
1.73755
20
-1.31449
11
1.73757
21
-1.31445
0
LINE
8
BLACK
6
CONTINUOUS
10
1.73757
20
-1.31445
11
1.73759
21
-1.31441
0
LINE
8
BLACK
6
CONTINUOUS
10
1.73759
20
-1.31441
11
1.74597
21
-1.30045
0
LINE
8
BLACK
6
CONTINUOUS
10
1.74597
20
-1.30045
11
1.74598
21
-1.30043
0
LINE
8
BLACK
6
CONTINUOUS
10
1.74598
20
-1.30043
11
1.74601
21
-1.30039
0
LINE
8
BLACK
6
CONTINUOUS
10
1.74601
20
-1.30039
11
1.74603
21
-1.30035
0
LINE
8
BLACK
6
CONTINUOUS
10
1.74603
20
-1.30035
11
1.7551
21
-1.28718
0
LINE
8
BLACK
6
CONTINUOUS
10
1.7551
20
-1.28718
11
1.75512
21
-1.28715
0
LINE
8
BLACK
6
CONTINUOUS
10
1.75512
20
-1.28715
11
1.75515
21
-1.28712
0
LINE
8
BLACK
6
CONTINUOUS
10
1.75515
20
-1.28712
11
1.75518
21
-1.28707
0
LINE
8
BLACK
6
CONTINUOUS
10
1.75518
20
-1.28707
11
1.76496
21
-1.27468
0
LINE
8
BLACK
6
CONTINUOUS
10
1.76496
20
-1.27468
11
1.76498
21
-1.27466
0
LINE
8
BLACK
6
CONTINUOUS
10
1.76498
20
-1.27466
11
1.76501
21
-1.27462
0
LINE
8
BLACK
6
CONTINUOUS
10
1.76501
20
-1.27462
11
1.76504
21
-1.27458
0
LINE
8
BLACK
6
CONTINUOUS
10
1.76504
20
-1.27458
11
1.77554
21
-1.26297
0
LINE
8
BLACK
6
CONTINUOUS
10
1.77554
20
-1.26297
11
1.77556
21
-1.26295
0
LINE
8
BLACK
6
CONTINUOUS
10
1.77556
20
-1.26295
11
1.7756
21
-1.26291
0
LINE
8
BLACK
6
CONTINUOUS
10
1.7756
20
-1.26291
11
1.77563
21
-1.26287
0
LINE
8
BLACK
6
CONTINUOUS
10
1.77563
20
-1.26287
11
1.78686
21
-1.25203
0
LINE
8
BLACK
6
CONTINUOUS
10
1.78686
20
-1.25203
11
1.78688
21
-1.25202
0
LINE
8
BLACK
6
CONTINUOUS
10
1.78688
20
-1.25202
11
1.78692
21
-1.25198
0
LINE
8
BLACK
6
CONTINUOUS
10
1.78692
20
-1.25198
11
1.78696
21
-1.25194
0
LINE
8
BLACK
6
CONTINUOUS
10
1.78696
20
-1.25194
11
1.79893
21
-1.24188
0
LINE
8
BLACK
6
CONTINUOUS
10
1.79893
20
-1.24188
11
1.79895
21
-1.24186
0
LINE
8
BLACK
6
CONTINUOUS
10
1.79895
20
-1.24186
11
1.79899
21
-1.24183
0
LINE
8
BLACK
6
CONTINUOUS
10
1.79899
20
-1.24183
11
1.79903
21
-1.2418
0
LINE
8
BLACK
6
CONTINUOUS
10
1.79903
20
-1.2418
11
1.81175
21
-1.2325
0
LINE
8
BLACK
6
CONTINUOUS
10
1.81175
20
-1.2325
11
1.81177
21
-1.23248
0
LINE
8
BLACK
6
CONTINUOUS
10
1.81177
20
-1.23248
11
1.81181
21
-1.23246
0
LINE
8
BLACK
6
CONTINUOUS
10
1.81181
20
-1.23246
11
1.81185
21
-1.23242
0
LINE
8
BLACK
6
CONTINUOUS
10
1.81185
20
-1.23242
11
1.82533
21
-1.22389
0
LINE
8
BLACK
6
CONTINUOUS
10
1.82533
20
-1.22389
11
1.82535
21
-1.22387
0
LINE
8
BLACK
6
CONTINUOUS
10
1.82535
20
-1.22387
11
1.8254
21
-1.22385
0
LINE
8
BLACK
6
CONTINUOUS
10
1.8254
20
-1.22385
11
1.82544
21
-1.22382
0
LINE
8
BLACK
6
CONTINUOUS
10
1.82544
20
-1.22382
11
1.83968
21
-1.21605
0
LINE
8
BLACK
6
CONTINUOUS
10
1.83968
20
-1.21605
11
1.83971
21
-1.21604
0
LINE
8
BLACK
6
CONTINUOUS
10
1.83971
20
-1.21604
11
1.83975
21
-1.21602
0
LINE
8
BLACK
6
CONTINUOUS
10
1.83975
20
-1.21602
11
1.83979
21
-1.21599
0
LINE
8
BLACK
6
CONTINUOUS
10
1.83979
20
-1.21599
11
1.85482
21
-1.20898
0
LINE
8
BLACK
6
CONTINUOUS
10
1.85482
20
-1.20898
11
1.85485
21
-1.20897
0
LINE
8
BLACK
6
CONTINUOUS
10
1.85485
20
-1.20897
11
1.85489
21
-1.20895
0
LINE
8
BLACK
6
CONTINUOUS
10
1.85489
20
-1.20895
11
1.85493
21
-1.20893
0
LINE
8
BLACK
6
CONTINUOUS
10
1.85493
20
-1.20893
11
1.87075
21
-1.20267
0
LINE
8
BLACK
6
CONTINUOUS
10
1.87075
20
-1.20267
11
1.87077
21
-1.20266
0
LINE
8
BLACK
6
CONTINUOUS
10
1.87077
20
-1.20266
11
1.87081
21
-1.20265
0
LINE
8
BLACK
6
CONTINUOUS
10
1.87081
20
-1.20265
11
1.87085
21
-1.20263
0
LINE
8
BLACK
6
CONTINUOUS
10
1.87085
20
-1.20263
11
1.88747
21
-1.19712
0
LINE
8
BLACK
6
CONTINUOUS
10
1.88747
20
-1.19712
11
1.8875
21
-1.19711
0
LINE
8
BLACK
6
CONTINUOUS
10
1.8875
20
-1.19711
11
1.88754
21
-1.1971
0
LINE
8
BLACK
6
CONTINUOUS
10
1.88754
20
-1.1971
11
1.88757
21
-1.19709
0
LINE
8
BLACK
6
CONTINUOUS
10
1.88757
20
-1.19709
11
1.90501
21
-1.19232
0
LINE
8
BLACK
6
CONTINUOUS
10
1.90501
20
-1.19232
11
1.90504
21
-1.19231
0
LINE
8
BLACK
6
CONTINUOUS
10
1.90504
20
-1.19231
11
1.90507
21
-1.19231
0
LINE
8
BLACK
6
CONTINUOUS
10
1.90507
20
-1.19231
11
1.9051
21
-1.1923
0
LINE
8
BLACK
6
CONTINUOUS
10
1.9051
20
-1.1923
11
1.92336
21
-1.18828
0
LINE
8
BLACK
6
CONTINUOUS
10
1.92336
20
-1.18828
11
1.92339
21
-1.18827
0
LINE
8
BLACK
6
CONTINUOUS
10
1.92339
20
-1.18827
11
1.92342
21
-1.18827
0
LINE
8
BLACK
6
CONTINUOUS
10
1.92342
20
-1.18827
11
1.92345
21
-1.18826
0
LINE
8
BLACK
6
CONTINUOUS
10
1.92345
20
-1.18826
11
1.94254
21
-1.18497
0
LINE
8
BLACK
6
CONTINUOUS
10
1.94254
20
-1.18497
11
1.94257
21
-1.18497
0
LINE
8
BLACK
6
CONTINUOUS
10
1.94257
20
-1.18497
11
1.9426
21
-1.18497
0
LINE
8
BLACK
6
CONTINUOUS
10
1.9426
20
-1.18497
11
1.94263
21
-1.18496
0
LINE
8
BLACK
6
CONTINUOUS
10
1.94263
20
-1.18496
11
1.96256
21
-1.18241
0
LINE
8
BLACK
6
CONTINUOUS
10
1.96256
20
-1.18241
11
1.96259
21
-1.18241
0
LINE
8
BLACK
6
CONTINUOUS
10
1.96259
20
-1.18241
11
1.96262
21
-1.18241
0
LINE
8
BLACK
6
CONTINUOUS
10
1.96262
20
-1.18241
11
1.96264
21
-1.1824
0
LINE
8
BLACK
6
CONTINUOUS
10
1.96264
20
-1.1824
11
1.98343
21
-1.18059
0
LINE
8
BLACK
6
CONTINUOUS
10
1.98343
20
-1.18059
11
1.98346
21
-1.18059
0
LINE
8
BLACK
6
CONTINUOUS
10
1.98346
20
-1.18059
11
1.98348
21
-1.18059
0
LINE
8
BLACK
6
CONTINUOUS
10
1.98348
20
-1.18059
11
1.98351
21
-1.18058
0
LINE
8
BLACK
6
CONTINUOUS
10
1.98351
20
-1.18058
11
2.00516
21
-1.1795
0
LINE
8
BLACK
6
CONTINUOUS
10
2.00516
20
-1.1795
11
2.00519
21
-1.1795
0
LINE
8
BLACK
6
CONTINUOUS
10
2.00519
20
-1.1795
11
2.00521
21
-1.1795
0
LINE
8
BLACK
6
CONTINUOUS
10
2.00521
20
-1.1795
11
2.00523
21
-1.1795
0
LINE
8
BLACK
6
CONTINUOUS
10
2.00523
20
-1.1795
11
2.02776
21
-1.17913
0
LINE
8
BLACK
6
CONTINUOUS
10
2.02776
20
-1.17913
11
2.02779
21
-1.17913
0
LINE
8
BLACK
6
CONTINUOUS
10
2.02779
20
-1.17913
11
2.02779
21
-1.17913
0
LINE
8
BLACK
6
CONTINUOUS
10
2.02779
20
-1.17913
11
2.0278
21
-1.17913
0
LINE
8
BLACK
6
CONTINUOUS
10
2.0278
20
-1.17913
11
2.15505
21
-1.17913
0
LINE
8
BLACK
6
CONTINUOUS
10
2.15505
20
-1.17913
11
8.04343
21
-1.17913
0
LINE
8
BLACK
6
CONTINUOUS
10
8.04343
20
-1.17913
11
8.07535
21
-1.17913
0
LINE
8
BLACK
6
CONTINUOUS
10
8.07535
20
-1.17913
11
8.07538
21
-1.17913
0
LINE
8
BLACK
6
CONTINUOUS
10
8.07538
20
-1.17913
11
8.07538
21
-1.17913
0
LINE
8
BLACK
6
CONTINUOUS
10
8.07538
20
-1.17913
11
8.07539
21
-1.17913
0
LINE
8
BLACK
6
CONTINUOUS
10
8.07539
20
-1.17913
11
8.09982
21
-1.17959
0
LINE
8
BLACK
6
CONTINUOUS
10
8.09982
20
-1.17959
11
8.09985
21
-1.17959
0
LINE
8
BLACK
6
CONTINUOUS
10
8.09985
20
-1.17959
11
8.09988
21
-1.1796
0
LINE
8
BLACK
6
CONTINUOUS
10
8.09988
20
-1.1796
11
8.0999
21
-1.1796
0
LINE
8
BLACK
6
CONTINUOUS
10
8.0999
20
-1.1796
11
8.12373
21
-1.18096
0
LINE
8
BLACK
6
CONTINUOUS
10
8.12373
20
-1.18096
11
8.12375
21
-1.18097
0
LINE
8
BLACK
6
CONTINUOUS
10
8.12375
20
-1.18097
11
8.12378
21
-1.18097
0
LINE
8
BLACK
6
CONTINUOUS
10
8.12378
20
-1.18097
11
8.1238
21
-1.18097
0
LINE
8
BLACK
6
CONTINUOUS
10
8.1238
20
-1.18097
11
8.14701
21
-1.18323
0
LINE
8
BLACK
6
CONTINUOUS
10
8.14701
20
-1.18323
11
8.14704
21
-1.18324
0
LINE
8
BLACK
6
CONTINUOUS
10
8.14704
20
-1.18324
11
8.14706
21
-1.18324
0
LINE
8
BLACK
6
CONTINUOUS
10
8.14706
20
-1.18324
11
8.14709
21
-1.18324
0
LINE
8
BLACK
6
CONTINUOUS
10
8.14709
20
-1.18324
11
8.16966
21
-1.18639
0
LINE
8
BLACK
6
CONTINUOUS
10
8.16966
20
-1.18639
11
8.16969
21
-1.18639
0
LINE
8
BLACK
6
CONTINUOUS
10
8.16969
20
-1.18639
11
8.16971
21
-1.1864
0
LINE
8
BLACK
6
CONTINUOUS
10
8.16971
20
-1.1864
11
8.16974
21
-1.1864
0
LINE
8
BLACK
6
CONTINUOUS
10
8.16974
20
-1.1864
11
8.19167
21
-1.19041
0
LINE
8
BLACK
6
CONTINUOUS
10
8.19167
20
-1.19041
11
8.1917
21
-1.19041
0
LINE
8
BLACK
6
CONTINUOUS
10
8.1917
20
-1.19041
11
8.19173
21
-1.19042
0
LINE
8
BLACK
6
CONTINUOUS
10
8.19173
20
-1.19042
11
8.19175
21
-1.19042
0
LINE
8
BLACK
6
CONTINUOUS
10
8.19175
20
-1.19042
11
8.21303
21
-1.19528
0
LINE
8
BLACK
6
CONTINUOUS
10
8.21303
20
-1.19528
11
8.21305
21
-1.19529
0
LINE
8
BLACK
6
CONTINUOUS
10
8.21305
20
-1.19529
11
8.21308
21
-1.1953
0
LINE
8
BLACK
6
CONTINUOUS
10
8.21308
20
-1.1953
11
8.21311
21
-1.1953
0
LINE
8
BLACK
6
CONTINUOUS
10
8.21311
20
-1.1953
11
8.23372
21
-1.201
0
LINE
8
BLACK
6
CONTINUOUS
10
8.23372
20
-1.201
11
8.23375
21
-1.20101
0
LINE
8
BLACK
6
CONTINUOUS
10
8.23375
20
-1.20101
11
8.23378
21
-1.20102
0
LINE
8
BLACK
6
CONTINUOUS
10
8.23378
20
-1.20102
11
8.23381
21
-1.20103
0
LINE
8
BLACK
6
CONTINUOUS
10
8.23381
20
-1.20103
11
8.25374
21
-1.20754
0
LINE
8
BLACK
6
CONTINUOUS
10
8.25374
20
-1.20754
11
8.25377
21
-1.20755
0
LINE
8
BLACK
6
CONTINUOUS
10
8.25377
20
-1.20755
11
8.2538
21
-1.20757
0
LINE
8
BLACK
6
CONTINUOUS
10
8.2538
20
-1.20757
11
8.25383
21
-1.20758
0
LINE
8
BLACK
6
CONTINUOUS
10
8.25383
20
-1.20758
11
8.27307
21
-1.2149
0
LINE
8
BLACK
6
CONTINUOUS
10
8.27307
20
-1.2149
11
8.2731
21
-1.21491
0
LINE
8
BLACK
6
CONTINUOUS
10
8.2731
20
-1.21491
11
8.27313
21
-1.21493
0
LINE
8
BLACK
6
CONTINUOUS
10
8.27313
20
-1.21493
11
8.27316
21
-1.21494
0
LINE
8
BLACK
6
CONTINUOUS
10
8.27316
20
-1.21494
11
8.29171
21
-1.22305
0
LINE
8
BLACK
6
CONTINUOUS
10
8.29171
20
-1.22305
11
8.29173
21
-1.22307
0
LINE
8
BLACK
6
CONTINUOUS
10
8.29173
20
-1.22307
11
8.29177
21
-1.22308
0
LINE
8
BLACK
6
CONTINUOUS
10
8.29177
20
-1.22308
11
8.2918
21
-1.2231
0
LINE
8
BLACK
6
CONTINUOUS
10
8.2918
20
-1.2231
11
8.30964
21
-1.23199
0
LINE
8
BLACK
6
CONTINUOUS
10
8.30964
20
-1.23199
11
8.30966
21
-1.23201
0
LINE
8
BLACK
6
CONTINUOUS
10
8.30966
20
-1.23201
11
8.30969
21
-1.23203
0
LINE
8
BLACK
6
CONTINUOUS
10
8.30969
20
-1.23203
11
8.30973
21
-1.23204
0
LINE
8
BLACK
6
CONTINUOUS
10
8.30973
20
-1.23204
11
8.32685
21
-1.2417
0
LINE
8
BLACK
6
CONTINUOUS
10
8.32685
20
-1.2417
11
8.32687
21
-1.24172
0
LINE
8
BLACK
6
CONTINUOUS
10
8.32687
20
-1.24172
11
8.3269
21
-1.24174
0
LINE
8
BLACK
6
CONTINUOUS
10
8.3269
20
-1.24174
11
8.32693
21
-1.24175
0
LINE
8
BLACK
6
CONTINUOUS
10
8.32693
20
-1.24175
11
8.34332
21
-1.25216
0
LINE
8
BLACK
6
CONTINUOUS
10
8.34332
20
-1.25216
11
8.34335
21
-1.25218
0
LINE
8
BLACK
6
CONTINUOUS
10
8.34335
20
-1.25218
11
8.34338
21
-1.2522
0
LINE
8
BLACK
6
CONTINUOUS
10
8.34338
20
-1.2522
11
8.34341
21
-1.25222
0
LINE
8
BLACK
6
CONTINUOUS
10
8.34341
20
-1.25222
11
8.35906
21
-1.26337
0
LINE
8
BLACK
6
CONTINUOUS
10
8.35906
20
-1.26337
11
8.35908
21
-1.26338
0
LINE
8
BLACK
6
CONTINUOUS
10
8.35908
20
-1.26338
11
8.35911
21
-1.26341
0
LINE
8
BLACK
6
CONTINUOUS
10
8.35911
20
-1.26341
11
8.35914
21
-1.26343
0
LINE
8
BLACK
6
CONTINUOUS
10
8.35914
20
-1.26343
11
8.37404
21
-1.2753
0
LINE
8
BLACK
6
CONTINUOUS
10
8.37404
20
-1.2753
11
8.37406
21
-1.27532
0
LINE
8
BLACK
6
CONTINUOUS
10
8.37406
20
-1.27532
11
8.37409
21
-1.27534
0
LINE
8
BLACK
6
CONTINUOUS
10
8.37409
20
-1.27534
11
8.37412
21
-1.27537
0
LINE
8
BLACK
6
CONTINUOUS
10
8.37412
20
-1.27537
11
8.38826
21
-1.28794
0
LINE
8
BLACK
6
CONTINUOUS
10
8.38826
20
-1.28794
11
8.38828
21
-1.28796
0
LINE
8
BLACK
6
CONTINUOUS
10
8.38828
20
-1.28796
11
8.3883
21
-1.28799
0
LINE
8
BLACK
6
CONTINUOUS
10
8.3883
20
-1.28799
11
8.38834
21
-1.28801
0
LINE
8
BLACK
6
CONTINUOUS
10
8.38834
20
-1.28801
11
8.4017
21
-1.30128
0
LINE
8
BLACK
6
CONTINUOUS
10
8.4017
20
-1.30128
11
8.40172
21
-1.3013
0
LINE
8
BLACK
6
CONTINUOUS
10
8.40172
20
-1.3013
11
8.40174
21
-1.30133
0
LINE
8
BLACK
6
CONTINUOUS
10
8.40174
20
-1.30133
11
8.40177
21
-1.30136
0
LINE
8
BLACK
6
CONTINUOUS
10
8.40177
20
-1.30136
11
8.41435
21
-1.3153
0
LINE
8
BLACK
6
CONTINUOUS
10
8.41435
20
-1.3153
11
8.41437
21
-1.31532
0
LINE
8
BLACK
6
CONTINUOUS
10
8.41437
20
-1.31532
11
8.41439
21
-1.31535
0
LINE
8
BLACK
6
CONTINUOUS
10
8.41439
20
-1.31535
11
8.41442
21
-1.31538
0
LINE
8
BLACK
6
CONTINUOUS
10
8.41442
20
-1.31538
11
8.4262
21
-1.32999
0
LINE
8
BLACK
6
CONTINUOUS
10
8.4262
20
-1.32999
11
8.42622
21
-1.33001
0
LINE
8
BLACK
6
CONTINUOUS
10
8.42622
20
-1.33001
11
8.42624
21
-1.33004
0
LINE
8
BLACK
6
CONTINUOUS
10
8.42624
20
-1.33004
11
8.42627
21
-1.33007
0
LINE
8
BLACK
6
CONTINUOUS
10
8.42627
20
-1.33007
11
8.43725
21
-1.34532
0
LINE
8
BLACK
6
CONTINUOUS
10
8.43725
20
-1.34532
11
8.43726
21
-1.34535
0
LINE
8
BLACK
6
CONTINUOUS
10
8.43726
20
-1.34535
11
8.43728
21
-1.34538
0
LINE
8
BLACK
6
CONTINUOUS
10
8.43728
20
-1.34538
11
8.43731
21
-1.34541
0
LINE
8
BLACK
6
CONTINUOUS
10
8.43731
20
-1.34541
11
8.44747
21
-1.3613
0
LINE
8
BLACK
6
CONTINUOUS
10
8.44747
20
-1.3613
11
8.44748
21
-1.36132
0
LINE
8
BLACK
6
CONTINUOUS
10
8.44748
20
-1.36132
11
8.4475
21
-1.36136
0
LINE
8
BLACK
6
CONTINUOUS
10
8.4475
20
-1.36136
11
8.44752
21
-1.36139
0
LINE
8
BLACK
6
CONTINUOUS
10
8.44752
20
-1.36139
11
8.45686
21
-1.3779
0
LINE
8
BLACK
6
CONTINUOUS
10
8.45686
20
-1.3779
11
8.45687
21
-1.37792
0
LINE
8
BLACK
6
CONTINUOUS
10
8.45687
20
-1.37792
11
8.45689
21
-1.37796
0
LINE
8
BLACK
6
CONTINUOUS
10
8.45689
20
-1.37796
11
8.45691
21
-1.37799
0
LINE
8
BLACK
6
CONTINUOUS
10
8.45691
20
-1.37799
11
8.4654
21
-1.3951
0
LINE
8
BLACK
6
CONTINUOUS
10
8.4654
20
-1.3951
11
8.46542
21
-1.39513
0
LINE
8
BLACK
6
CONTINUOUS
10
8.46542
20
-1.39513
11
8.46543
21
-1.39516
0
LINE
8
BLACK
6
CONTINUOUS
10
8.46543
20
-1.39516
11
8.46545
21
-1.3952
0
LINE
8
BLACK
6
CONTINUOUS
10
8.46545
20
-1.3952
11
8.4731
21
-1.4129
0
LINE
8
BLACK
6
CONTINUOUS
10
8.4731
20
-1.4129
11
8.47311
21
-1.41292
0
LINE
8
BLACK
6
CONTINUOUS
10
8.47311
20
-1.41292
11
8.47312
21
-1.41296
0
LINE
8
BLACK
6
CONTINUOUS
10
8.47312
20
-1.41296
11
8.47313
21
-1.41299
0
LINE
8
BLACK
6
CONTINUOUS
10
8.47313
20
-1.41299
11
8.47992
21
-1.43127
0
LINE
8
BLACK
6
CONTINUOUS
10
8.47992
20
-1.43127
11
8.47993
21
-1.4313
0
LINE
8
BLACK
6
CONTINUOUS
10
8.47993
20
-1.4313
11
8.47994
21
-1.43133
0
LINE
8
BLACK
6
CONTINUOUS
10
8.47994
20
-1.43133
11
8.47996
21
-1.43136
0
LINE
8
BLACK
6
CONTINUOUS
10
8.47996
20
-1.43136
11
8.48587
21
-1.4502
0
LINE
8
BLACK
6
CONTINUOUS
10
8.48587
20
-1.4502
11
8.48588
21
-1.45023
0
LINE
8
BLACK
6
CONTINUOUS
10
8.48588
20
-1.45023
11
8.48589
21
-1.45026
0
LINE
8
BLACK
6
CONTINUOUS
10
8.48589
20
-1.45026
11
8.4859
21
-1.4503
0
LINE
8
BLACK
6
CONTINUOUS
10
8.4859
20
-1.4503
11
8.49094
21
-1.46968
0
LINE
8
BLACK
6
CONTINUOUS
10
8.49094
20
-1.46968
11
8.49095
21
-1.46971
0
LINE
8
BLACK
6
CONTINUOUS
10
8.49095
20
-1.46971
11
8.49095
21
-1.46974
0
LINE
8
BLACK
6
CONTINUOUS
10
8.49095
20
-1.46974
11
8.49096
21
-1.46978
0
LINE
8
BLACK
6
CONTINUOUS
10
8.49096
20
-1.46978
11
8.49511
21
-1.4897
0
LINE
8
BLACK
6
CONTINUOUS
10
8.49511
20
-1.4897
11
8.49511
21
-1.48972
0
LINE
8
BLACK
6
CONTINUOUS
10
8.49511
20
-1.48972
11
8.49512
21
-1.48976
0
LINE
8
BLACK
6
CONTINUOUS
10
8.49512
20
-1.48976
11
8.49512
21
-1.48979
0
LINE
8
BLACK
6
CONTINUOUS
10
8.49512
20
-1.48979
11
8.49837
21
-1.51022
0
LINE
8
BLACK
6
CONTINUOUS
10
8.49837
20
-1.51022
11
8.49837
21
-1.51025
0
LINE
8
BLACK
6
CONTINUOUS
10
8.49837
20
-1.51025
11
8.49837
21
-1.51028
0
LINE
8
BLACK
6
CONTINUOUS
10
8.49837
20
-1.51028
11
8.49838
21
-1.51031
0
LINE
8
BLACK
6
CONTINUOUS
10
8.49838
20
-1.51031
11
8.50071
21
-1.53125
0
LINE
8
BLACK
6
CONTINUOUS
10
8.50071
20
-1.53125
11
8.50071
21
-1.53128
0
LINE
8
BLACK
6
CONTINUOUS
10
8.50071
20
-1.53128
11
8.50071
21
-1.53131
0
LINE
8
BLACK
6
CONTINUOUS
10
8.50071
20
-1.53131
11
8.50072
21
-1.53134
0
LINE
8
BLACK
6
CONTINUOUS
10
8.50072
20
-1.53134
11
8.50212
21
-1.55277
0
LINE
8
BLACK
6
CONTINUOUS
10
8.50212
20
-1.55277
11
8.50212
21
-1.5528
0
LINE
8
BLACK
6
CONTINUOUS
10
8.50212
20
-1.5528
11
8.50212
21
-1.55283
0
LINE
8
BLACK
6
CONTINUOUS
10
8.50212
20
-1.55283
11
8.50213
21
-1.55286
0
LINE
8
BLACK
6
CONTINUOUS
10
8.50213
20
-1.55286
11
8.5026
21
-1.57476
0
LINE
8
BLACK
6
CONTINUOUS
10
8.5026
20
-1.57476
11
8.5026
21
-1.57479
0
LINE
8
BLACK
6
CONTINUOUS
10
8.5026
20
-1.57479
11
8.5026
21
-1.5748
0
LINE
8
BLACK
6
CONTINUOUS
10
8.5026
20
-1.5748
11
8.5026
21
-1.5748
0
LINE
8
BLACK
6
CONTINUOUS
10
8.5026
20
-1.5748
11
8.5026
21
-5.8011
0
LINE
8
BLACK
6
CONTINUOUS
10
8.5026
20
-5.8011
11
8.5026
21
-5.80113
0
LINE
8
BLACK
6
CONTINUOUS
10
8.49819
20
-1.55299
11
8.49679
21
-1.53164
0
LINE
8
BLACK
6
CONTINUOUS
10
8.49679
20
-1.53164
11
8.49447
21
-1.5108
0
LINE
8
BLACK
6
CONTINUOUS
10
8.49447
20
-1.5108
11
8.49124
21
-1.49045
0
LINE
8
BLACK
6
CONTINUOUS
10
8.49124
20
-1.49045
11
8.48712
21
-1.47063
0
LINE
8
BLACK
6
CONTINUOUS
10
8.48712
20
-1.47063
11
8.4821
21
-1.45134
0
LINE
8
BLACK
6
CONTINUOUS
10
8.4821
20
-1.45134
11
8.47622
21
-1.43259
0
LINE
8
BLACK
6
CONTINUOUS
10
8.47622
20
-1.43259
11
8.46946
21
-1.41441
0
LINE
8
BLACK
6
CONTINUOUS
10
8.46946
20
-1.41441
11
8.46185
21
-1.39681
0
LINE
8
BLACK
6
CONTINUOUS
10
8.46185
20
-1.39681
11
8.4534
21
-1.37979
0
LINE
8
BLACK
6
CONTINUOUS
10
8.4534
20
-1.37979
11
8.44412
21
-1.36338
0
LINE
8
BLACK
6
CONTINUOUS
10
8.44412
20
-1.36338
11
8.43402
21
-1.34758
0
LINE
8
BLACK
6
CONTINUOUS
10
8.43402
20
-1.34758
11
8.4231
21
-1.33242
0
LINE
8
BLACK
6
CONTINUOUS
10
8.4231
20
-1.33242
11
8.41139
21
-1.3179
0
LINE
8
BLACK
6
CONTINUOUS
10
8.41139
20
-1.3179
11
8.39888
21
-1.30403
0
LINE
8
BLACK
6
CONTINUOUS
10
8.39888
20
-1.30403
11
8.3856
21
-1.29085
0
LINE
8
BLACK
6
CONTINUOUS
10
8.3856
20
-1.29085
11
8.37155
21
-1.27834
0
LINE
8
BLACK
6
CONTINUOUS
10
8.37155
20
-1.27834
11
8.35673
21
-1.26655
0
LINE
8
BLACK
6
CONTINUOUS
10
8.35673
20
-1.26655
11
8.34117
21
-1.25546
0
LINE
8
BLACK
6
CONTINUOUS
10
8.34117
20
-1.25546
11
8.32487
21
-1.24511
0
LINE
8
BLACK
6
CONTINUOUS
10
8.32487
20
-1.24511
11
8.30783
21
-1.23549
0
LINE
8
BLACK
6
CONTINUOUS
10
8.30783
20
-1.23549
11
8.29009
21
-1.22664
0
LINE
8
BLACK
6
CONTINUOUS
10
8.29009
20
-1.22664
11
8.27163
21
-1.21856
0
LINE
8
BLACK
6
CONTINUOUS
10
8.27163
20
-1.21856
11
8.25247
21
-1.21127
0
LINE
8
BLACK
6
CONTINUOUS
10
8.25247
20
-1.21127
11
8.23263
21
-1.20478
0
LINE
8
BLACK
6
CONTINUOUS
10
8.23263
20
-1.20478
11
8.21211
21
-1.19911
0
LINE
8
BLACK
6
CONTINUOUS
10
8.21211
20
-1.19911
11
8.19092
21
-1.19427
0
LINE
8
BLACK
6
CONTINUOUS
10
8.19092
20
-1.19427
11
8.16908
21
-1.19028
0
LINE
8
BLACK
6
CONTINUOUS
10
8.16908
20
-1.19028
11
8.14659
21
-1.18715
0
LINE
8
BLACK
6
CONTINUOUS
10
8.14659
20
-1.18715
11
8.12346
21
-1.18489
0
LINE
8
BLACK
6
CONTINUOUS
10
8.12346
20
-1.18489
11
8.09971
21
-1.18353
0
LINE
8
BLACK
6
CONTINUOUS
10
8.09971
20
-1.18353
11
8.07533
21
-1.18307
0
LINE
8
BLACK
6
CONTINUOUS
10
8.07533
20
-1.18307
11
8.04343
21
-1.18307
0
LINE
8
BLACK
6
CONTINUOUS
10
8.04343
20
-1.18307
11
2.15505
21
-1.18307
0
LINE
8
BLACK
6
CONTINUOUS
10
2.15505
20
-1.18307
11
2.02781
21
-1.18307
0
LINE
8
BLACK
6
CONTINUOUS
10
2.02781
20
-1.18307
11
2.00533
21
-1.18343
0
LINE
8
BLACK
6
CONTINUOUS
10
2.00533
20
-1.18343
11
1.98374
21
-1.18451
0
LINE
8
BLACK
6
CONTINUOUS
10
1.98374
20
-1.18451
11
1.96302
21
-1.18632
0
LINE
8
BLACK
6
CONTINUOUS
10
1.96302
20
-1.18632
11
1.94317
21
-1.18886
0
LINE
8
BLACK
6
CONTINUOUS
10
1.94317
20
-1.18886
11
1.92416
21
-1.19213
0
LINE
8
BLACK
6
CONTINUOUS
10
1.92416
20
-1.19213
11
1.906
21
-1.19613
0
LINE
8
BLACK
6
CONTINUOUS
10
1.906
20
-1.19613
11
1.88866
21
-1.20087
0
LINE
8
BLACK
6
CONTINUOUS
10
1.88866
20
-1.20087
11
1.87215
21
-1.20635
0
LINE
8
BLACK
6
CONTINUOUS
10
1.87215
20
-1.20635
11
1.85643
21
-1.21257
0
LINE
8
BLACK
6
CONTINUOUS
10
1.85643
20
-1.21257
11
1.84152
21
-1.21954
0
LINE
8
BLACK
6
CONTINUOUS
10
1.84152
20
-1.21954
11
1.82738
21
-1.22725
0
LINE
8
BLACK
6
CONTINUOUS
10
1.82738
20
-1.22725
11
1.81402
21
-1.23571
0
LINE
8
BLACK
6
CONTINUOUS
10
1.81402
20
-1.23571
11
1.80141
21
-1.24493
0
LINE
8
BLACK
6
CONTINUOUS
10
1.80141
20
-1.24493
11
1.78955
21
-1.25491
0
LINE
8
BLACK
6
CONTINUOUS
10
1.78955
20
-1.25491
11
1.77842
21
-1.26566
0
LINE
8
BLACK
6
CONTINUOUS
10
1.77842
20
-1.26566
11
1.76801
21
-1.27717
0
LINE
8
BLACK
6
CONTINUOUS
10
1.76801
20
-1.27717
11
1.75831
21
-1.28946
0
LINE
8
BLACK
6
CONTINUOUS
10
1.75831
20
-1.28946
11
1.74931
21
-1.30253
0
LINE
8
BLACK
6
CONTINUOUS
10
1.74931
20
-1.30253
11
1.741
21
-1.31639
0
LINE
8
BLACK
6
CONTINUOUS
10
1.741
20
-1.31639
11
1.73336
21
-1.33103
0
LINE
8
BLACK
6
CONTINUOUS
10
1.73336
20
-1.33103
11
1.72639
21
-1.34647
0
LINE
8
BLACK
6
CONTINUOUS
10
1.72639
20
-1.34647
11
1.72008
21
-1.36272
0
LINE
8
BLACK
6
CONTINUOUS
10
1.72008
20
-1.36272
11
1.71442
21
-1.37976
0
LINE
8
BLACK
6
CONTINUOUS
10
1.71442
20
-1.37976
11
1.70939
21
-1.39762
0
LINE
8
BLACK
6
CONTINUOUS
10
1.70939
20
-1.39762
11
1.705
21
-1.41629
0
LINE
8
BLACK
6
CONTINUOUS
10
1.705
20
-1.41629
11
1.70122
21
-1.43577
0
LINE
8
BLACK
6
CONTINUOUS
10
1.70122
20
-1.43577
11
1.69805
21
-1.45607
0
LINE
8
BLACK
6
CONTINUOUS
10
1.69805
20
-1.45607
11
1.69548
21
-1.4772
0
LINE
8
BLACK
6
CONTINUOUS
10
1.69548
20
-1.4772
11
1.6935
21
-1.49915
0
LINE
8
BLACK
6
CONTINUOUS
10
1.6935
20
-1.49915
11
1.69209
21
-1.52193
0
LINE
8
BLACK
6
CONTINUOUS
10
1.69209
20
-1.52193
11
1.69126
21
-1.54554
0
LINE
8
BLACK
6
CONTINUOUS
10
1.69126
20
-1.54554
11
1.69098
21
-1.57
0
LINE
8
BLACK
6
CONTINUOUS
10
1.69098
20
-1.57
11
1.69543
21
-3.19108
0
LINE
8
BLACK
6
CONTINUOUS
10
1.69543
20
-3.19108
11
1.69579
21
-3.21357
0
LINE
8
BLACK
6
CONTINUOUS
10
1.69579
20
-3.21357
11
1.69686
21
-3.23516
0
LINE
8
BLACK
6
CONTINUOUS
10
1.69686
20
-3.23516
11
1.69863
21
-3.25588
0
LINE
8
BLACK
6
CONTINUOUS
10
1.69863
20
-3.25588
11
1.70108
21
-3.27574
0
LINE
8
BLACK
6
CONTINUOUS
10
1.70108
20
-3.27574
11
1.70421
21
-3.29475
0
LINE
8
BLACK
6
CONTINUOUS
10
1.70421
20
-3.29475
11
1.70802
21
-3.31293
0
LINE
8
BLACK
6
CONTINUOUS
10
1.70802
20
-3.31293
11
1.71247
21
-3.33028
0
LINE
8
BLACK
6
CONTINUOUS
10
1.71247
20
-3.33028
11
1.71758
21
-3.34682
0
LINE
8
BLACK
6
CONTINUOUS
10
1.71758
20
-3.34682
11
1.72332
21
-3.36255
0
LINE
8
BLACK
6
CONTINUOUS
10
1.72332
20
-3.36255
11
1.72969
21
-3.37749
0
LINE
8
BLACK
6
CONTINUOUS
10
1.72969
20
-3.37749
11
1.73667
21
-3.39164
0
LINE
8
BLACK
6
CONTINUOUS
10
1.73667
20
-3.39164
11
1.74426
21
-3.40503
0
LINE
8
BLACK
6
CONTINUOUS
10
1.74426
20
-3.40503
11
1.75244
21
-3.41767
0
LINE
8
BLACK
6
CONTINUOUS
10
1.75244
20
-3.41767
11
1.76121
21
-3.42955
0
LINE
8
BLACK
6
CONTINUOUS
10
1.76121
20
-3.42955
11
1.77056
21
-3.44071
0
LINE
8
BLACK
6
CONTINUOUS
10
1.77056
20
-3.44071
11
1.78047
21
-3.45114
0
LINE
8
BLACK
6
CONTINUOUS
10
1.78047
20
-3.45114
11
1.79094
21
-3.46087
0
LINE
8
BLACK
6
CONTINUOUS
10
1.79094
20
-3.46087
11
1.80196
21
-3.4699
0
LINE
8
BLACK
6
CONTINUOUS
10
1.80196
20
-3.4699
11
1.81352
21
-3.47824
0
LINE
8
BLACK
6
CONTINUOUS
10
1.81352
20
-3.47824
11
1.82561
21
-3.48591
0
LINE
8
BLACK
6
CONTINUOUS
10
1.82561
20
-3.48591
11
1.83822
21
-3.49292
0
LINE
8
BLACK
6
CONTINUOUS
10
1.83822
20
-3.49292
11
1.85136
21
-3.49927
0
LINE
8
BLACK
6
CONTINUOUS
10
1.85136
20
-3.49927
11
1.86499
21
-3.50498
0
LINE
8
BLACK
6
CONTINUOUS
10
1.86499
20
-3.50498
11
1.87912
21
-3.51006
0
LINE
8
BLACK
6
CONTINUOUS
10
1.87912
20
-3.51006
11
1.89374
21
-3.51451
0
LINE
8
BLACK
6
CONTINUOUS
10
1.89374
20
-3.51451
11
1.90884
21
-3.51835
0
LINE
8
BLACK
6
CONTINUOUS
10
1.90884
20
-3.51835
11
1.92441
21
-3.5216
0
LINE
8
BLACK
6
CONTINUOUS
10
1.92441
20
-3.5216
11
1.94043
21
-3.52425
0
LINE
8
BLACK
6
CONTINUOUS
10
1.94043
20
-3.52425
11
1.95691
21
-3.52631
0
LINE
8
BLACK
6
CONTINUOUS
10
1.95691
20
-3.52631
11
1.97382
21
-3.52781
0
LINE
8
BLACK
6
CONTINUOUS
10
1.97382
20
-3.52781
11
1.99116
21
-3.52875
0
LINE
8
BLACK
6
CONTINUOUS
10
1.99116
20
-3.52875
11
2.00893
21
-3.52913
0
LINE
8
BLACK
6
CONTINUOUS
10
2.00893
20
-3.52913
11
2.12711
21
-3.52913
0
LINE
8
BLACK
6
CONTINUOUS
10
2.12711
20
-3.52913
11
2.12712
21
-3.52913
0
LINE
8
BLACK
6
CONTINUOUS
10
2.12712
20
-3.52913
11
2.14084
21
-3.52923
0
LINE
8
BLACK
6
CONTINUOUS
10
2.14084
20
-3.52923
11
2.14087
21
-3.52923
0
LINE
8
BLACK
6
CONTINUOUS
10
2.14087
20
-3.52923
11
2.14087
21
-3.52923
0
LINE
8
BLACK
6
CONTINUOUS
10
2.14087
20
-3.52923
11
2.14087
21
-3.52923
0
LINE
8
BLACK
6
CONTINUOUS
10
2.14087
20
-3.52923
11
2.15439
21
-3.52952
0
LINE
8
BLACK
6
CONTINUOUS
10
2.15439
20
-3.52952
11
2.15442
21
-3.52952
0
LINE
8
BLACK
6
CONTINUOUS
10
2.15442
20
-3.52952
11
2.15442
21
-3.52952
0
LINE
8
BLACK
6
CONTINUOUS
10
2.15442
20
-3.52952
11
2.15442
21
-3.52952
0
LINE
8
BLACK
6
CONTINUOUS
10
2.15442
20
-3.52952
11
2.16764
21
-3.53003
0
LINE
8
BLACK
6
CONTINUOUS
10
2.16764
20
-3.53003
11
2.16766
21
-3.53003
0
LINE
8
BLACK
6
CONTINUOUS
10
2.16766
20
-3.53003
11
2.16767
21
-3.53004
0
LINE
8
BLACK
6
CONTINUOUS
10
2.16767
20
-3.53004
11
2.16768
21
-3.53004
0
LINE
8
BLACK
6
CONTINUOUS
10
2.16768
20
-3.53004
11
2.18057
21
-3.5308
0
LINE
8
BLACK
6
CONTINUOUS
10
2.18057
20
-3.5308
11
2.1806
21
-3.5308
0
LINE
8
BLACK
6
CONTINUOUS
10
2.1806
20
-3.5308
11
2.18061
21
-3.5308
0
LINE
8
BLACK
6
CONTINUOUS
10
2.18061
20
-3.5308
11
2.18062
21
-3.5308
0
LINE
8
BLACK
6
CONTINUOUS
10
2.18062
20
-3.5308
11
2.19319
21
-3.53183
0
LINE
8
BLACK
6
CONTINUOUS
10
2.19319
20
-3.53183
11
2.19322
21
-3.53184
0
LINE
8
BLACK
6
CONTINUOUS
10
2.19322
20
-3.53184
11
2.19323
21
-3.53184
0
LINE
8
BLACK
6
CONTINUOUS
10
2.19323
20
-3.53184
11
2.19325
21
-3.53184
0
LINE
8
BLACK
6
CONTINUOUS
10
2.19325
20
-3.53184
11
2.20549
21
-3.53317
0
LINE
8
BLACK
6
CONTINUOUS
10
2.20549
20
-3.53317
11
2.20551
21
-3.53317
0
LINE
8
BLACK
6
CONTINUOUS
10
2.20551
20
-3.53317
11
2.20553
21
-3.53317
0
LINE
8
BLACK
6
CONTINUOUS
10
2.20553
20
-3.53317
11
2.20554
21
-3.53317
0
LINE
8
BLACK
6
CONTINUOUS
10
2.20554
20
-3.53317
11
2.21744
21
-3.53482
0
LINE
8
BLACK
6
CONTINUOUS
10
2.21744
20
-3.53482
11
2.21747
21
-3.53482
0
LINE
8
BLACK
6
CONTINUOUS
10
2.21747
20
-3.53482
11
2.21749
21
-3.53483
0
LINE
8
BLACK
6
CONTINUOUS
10
2.21749
20
-3.53483
11
2.21751
21
-3.53483
0
LINE
8
BLACK
6
CONTINUOUS
10
2.21751
20
-3.53483
11
2.22905
21
-3.53682
0
LINE
8
BLACK
6
CONTINUOUS
10
2.22905
20
-3.53682
11
2.22908
21
-3.53682
0
LINE
8
BLACK
6
CONTINUOUS
10
2.22908
20
-3.53682
11
2.2291
21
-3.53683
0
LINE
8
BLACK
6
CONTINUOUS
10
2.2291
20
-3.53683
11
2.22912
21
-3.53683
0
LINE
8
BLACK
6
CONTINUOUS
10
2.22912
20
-3.53683
11
2.24031
21
-3.53919
0
LINE
8
BLACK
6
CONTINUOUS
10
2.24031
20
-3.53919
11
2.24034
21
-3.53919
0
LINE
8
BLACK
6
CONTINUOUS
10
2.24034
20
-3.53919
11
2.24036
21
-3.5392
0
LINE
8
BLACK
6
CONTINUOUS
10
2.24036
20
-3.5392
11
2.24039
21
-3.53921
0
LINE
8
BLACK
6
CONTINUOUS
10
2.24039
20
-3.53921
11
2.2512
21
-3.54195
0
LINE
8
BLACK
6
CONTINUOUS
10
2.2512
20
-3.54195
11
2.25123
21
-3.54196
0
LINE
8
BLACK
6
CONTINUOUS
10
2.25123
20
-3.54196
11
2.25126
21
-3.54197
0
LINE
8
BLACK
6
CONTINUOUS
10
2.25126
20
-3.54197
11
2.25129
21
-3.54197
0
LINE
8
BLACK
6
CONTINUOUS
10
2.25129
20
-3.54197
11
2.26173
21
-3.54513
0
LINE
8
BLACK
6
CONTINUOUS
10
2.26173
20
-3.54513
11
2.26175
21
-3.54514
0
LINE
8
BLACK
6
CONTINUOUS
10
2.26175
20
-3.54514
11
2.26178
21
-3.54516
0
LINE
8
BLACK
6
CONTINUOUS
10
2.26178
20
-3.54516
11
2.26182
21
-3.54516
0
LINE
8
BLACK
6
CONTINUOUS
10
2.26182
20
-3.54516
11
2.27186
21
-3.54876
0
LINE
8
BLACK
6
CONTINUOUS
10
2.27186
20
-3.54876
11
2.27189
21
-3.54877
0
LINE
8
BLACK
6
CONTINUOUS
10
2.27189
20
-3.54877
11
2.27193
21
-3.54879
0
LINE
8
BLACK
6
CONTINUOUS
10
2.27193
20
-3.54879
11
2.27196
21
-3.5488
0
LINE
8
BLACK
6
CONTINUOUS
10
2.27196
20
-3.5488
11
2.28161
21
-3.55286
0
LINE
8
BLACK
6
CONTINUOUS
10
2.28161
20
-3.55286
11
2.28164
21
-3.55287
0
LINE
8
BLACK
6
CONTINUOUS
10
2.28164
20
-3.55287
11
2.28167
21
-3.55289
0
LINE
8
BLACK
6
CONTINUOUS
10
2.28167
20
-3.55289
11
2.28172
21
-3.55291
0
LINE
8
BLACK
6
CONTINUOUS
10
2.28172
20
-3.55291
11
2.29096
21
-3.55745
0
LINE
8
BLACK
6
CONTINUOUS
10
2.29096
20
-3.55745
11
2.29098
21
-3.55746
0
LINE
8
BLACK
6
CONTINUOUS
10
2.29098
20
-3.55746
11
2.29102
21
-3.55749
0
LINE
8
BLACK
6
CONTINUOUS
10
2.29102
20
-3.55749
11
2.29107
21
-3.55751
0
LINE
8
BLACK
6
CONTINUOUS
10
2.29107
20
-3.55751
11
2.29989
21
-3.56256
0
LINE
8
BLACK
6
CONTINUOUS
10
2.29989
20
-3.56256
11
2.29991
21
-3.56257
0
LINE
8
BLACK
6
CONTINUOUS
10
2.29991
20
-3.56257
11
2.29995
21
-3.5626
0
LINE
8
BLACK
6
CONTINUOUS
10
2.29995
20
-3.5626
11
2.3
21
-3.56263
0
LINE
8
BLACK
6
CONTINUOUS
10
2.3
20
-3.56263
11
2.30839
21
-3.56821
0
LINE
8
BLACK
6
CONTINUOUS
10
2.30839
20
-3.56821
11
2.30842
21
-3.56823
0
LINE
8
BLACK
6
CONTINUOUS
10
2.30842
20
-3.56823
11
2.30846
21
-3.56826
0
LINE
8
BLACK
6
CONTINUOUS
10
2.30846
20
-3.56826
11
2.30851
21
-3.56829
0
LINE
8
BLACK
6
CONTINUOUS
10
2.30851
20
-3.56829
11
2.31647
21
-3.57444
0
LINE
8
BLACK
6
CONTINUOUS
10
2.31647
20
-3.57444
11
2.31649
21
-3.57445
0
LINE
8
BLACK
6
CONTINUOUS
10
2.31649
20
-3.57445
11
2.31653
21
-3.57449
0
LINE
8
BLACK
6
CONTINUOUS
10
2.31653
20
-3.57449
11
2.31658
21
-3.57453
0
LINE
8
BLACK
6
CONTINUOUS
10
2.31658
20
-3.57453
11
2.32409
21
-3.58125
0
LINE
8
BLACK
6
CONTINUOUS
10
2.32409
20
-3.58125
11
2.32411
21
-3.58127
0
LINE
8
BLACK
6
CONTINUOUS
10
2.32411
20
-3.58127
11
2.32415
21
-3.58131
0
LINE
8
BLACK
6
CONTINUOUS
10
2.32415
20
-3.58131
11
2.3242
21
-3.58135
0
LINE
8
BLACK
6
CONTINUOUS
10
2.3242
20
-3.58135
11
2.33125
21
-3.58868
0
LINE
8
BLACK
6
CONTINUOUS
10
2.33125
20
-3.58868
11
2.33127
21
-3.5887
0
LINE
8
BLACK
6
CONTINUOUS
10
2.33127
20
-3.5887
11
2.33131
21
-3.58874
0
LINE
8
BLACK
6
CONTINUOUS
10
2.33131
20
-3.58874
11
2.33135
21
-3.58879
0
LINE
8
BLACK
6
CONTINUOUS
10
2.33135
20
-3.58879
11
2.33795
21
-3.59674
0
LINE
8
BLACK
6
CONTINUOUS
10
2.33795
20
-3.59674
11
2.33797
21
-3.59676
0
LINE
8
BLACK
6
CONTINUOUS
10
2.33797
20
-3.59676
11
2.338
21
-3.59681
0
LINE
8
BLACK
6
CONTINUOUS
10
2.338
20
-3.59681
11
2.33804
21
-3.59686
0
LINE
8
BLACK
6
CONTINUOUS
10
2.33804
20
-3.59686
11
2.34416
21
-3.60546
0
LINE
8
BLACK
6
CONTINUOUS
10
2.34416
20
-3.60546
11
2.34417
21
-3.60548
0
LINE
8
BLACK
6
CONTINUOUS
10
2.34417
20
-3.60548
11
2.3442
21
-3.60554
0
LINE
8
BLACK
6
CONTINUOUS
10
2.3442
20
-3.60554
11
2.34424
21
-3.60558
0
LINE
8
BLACK
6
CONTINUOUS
10
2.34424
20
-3.60558
11
2.34988
21
-3.61486
0
LINE
8
BLACK
6
CONTINUOUS
10
2.34988
20
-3.61486
11
2.34989
21
-3.61489
0
LINE
8
BLACK
6
CONTINUOUS
10
2.34989
20
-3.61489
11
2.34991
21
-3.61494
0
LINE
8
BLACK
6
CONTINUOUS
10
2.34991
20
-3.61494
11
2.34994
21
-3.61498
0
LINE
8
BLACK
6
CONTINUOUS
10
2.34994
20
-3.61498
11
2.35509
21
-3.62496
0
LINE
8
BLACK
6
CONTINUOUS
10
2.35509
20
-3.62496
11
2.3551
21
-3.62499
0
LINE
8
BLACK
6
CONTINUOUS
10
2.3551
20
-3.62499
11
2.35512
21
-3.62504
0
LINE
8
BLACK
6
CONTINUOUS
10
2.35512
20
-3.62504
11
2.35515
21
-3.62508
0
LINE
8
BLACK
6
CONTINUOUS
10
2.35515
20
-3.62508
11
2.35979
21
-3.63579
0
LINE
8
BLACK
6
CONTINUOUS
10
2.35979
20
-3.63579
11
2.3598
21
-3.63581
0
LINE
8
BLACK
6
CONTINUOUS
10
2.3598
20
-3.63581
11
2.35982
21
-3.63586
0
LINE
8
BLACK
6
CONTINUOUS
10
2.35982
20
-3.63586
11
2.35984
21
-3.6359
0
LINE
8
BLACK
6
CONTINUOUS
10
2.35984
20
-3.6359
11
2.36397
21
-3.64735
0
LINE
8
BLACK
6
CONTINUOUS
10
2.36397
20
-3.64735
11
2.36398
21
-3.64738
0
LINE
8
BLACK
6
CONTINUOUS
10
2.36398
20
-3.64738
11
2.36399
21
-3.64742
0
LINE
8
BLACK
6
CONTINUOUS
10
2.36399
20
-3.64742
11
2.36401
21
-3.64746
0
LINE
8
BLACK
6
CONTINUOUS
10
2.36401
20
-3.64746
11
2.36763
21
-3.65969
0
LINE
8
BLACK
6
CONTINUOUS
10
2.36763
20
-3.65969
11
2.36763
21
-3.65971
0
LINE
8
BLACK
6
CONTINUOUS
10
2.36763
20
-3.65971
11
2.36764
21
-3.65975
0
LINE
8
BLACK
6
CONTINUOUS
10
2.36764
20
-3.65975
11
2.36765
21
-3.65979
0
LINE
8
BLACK
6
CONTINUOUS
10
2.36765
20
-3.65979
11
2.37074
21
-3.67281
0
LINE
8
BLACK
6
CONTINUOUS
10
2.37074
20
-3.67281
11
2.37075
21
-3.67284
0
LINE
8
BLACK
6
CONTINUOUS
10
2.37075
20
-3.67284
11
2.37075
21
-3.67287
0
LINE
8
BLACK
6
CONTINUOUS
10
2.37075
20
-3.67287
11
2.37076
21
-3.67291
0
LINE
8
BLACK
6
CONTINUOUS
10
2.37076
20
-3.67291
11
2.37331
21
-3.68674
0
LINE
8
BLACK
6
CONTINUOUS
10
2.37331
20
-3.68674
11
2.37331
21
-3.68677
0
LINE
8
BLACK
6
CONTINUOUS
10
2.37331
20
-3.68677
11
2.37331
21
-3.6868
0
LINE
8
BLACK
6
CONTINUOUS
10
2.37331
20
-3.6868
11
2.37332
21
-3.68683
0
LINE
8
BLACK
6
CONTINUOUS
10
2.37332
20
-3.68683
11
2.37532
21
-3.70151
0
LINE
8
BLACK
6
CONTINUOUS
10
2.37532
20
-3.70151
11
2.37532
21
-3.70154
0
LINE
8
BLACK
6
CONTINUOUS
10
2.37532
20
-3.70154
11
2.37532
21
-3.70157
0
LINE
8
BLACK
6
CONTINUOUS
10
2.37532
20
-3.70157
11
2.37533
21
-3.70159
0
LINE
8
BLACK
6
CONTINUOUS
10
2.37533
20
-3.70159
11
2.37677
21
-3.71714
0
LINE
8
BLACK
6
CONTINUOUS
10
2.37677
20
-3.71714
11
2.37677
21
-3.71717
0
LINE
8
BLACK
6
CONTINUOUS
10
2.37677
20
-3.71717
11
2.37677
21
-3.71719
0
LINE
8
BLACK
6
CONTINUOUS
10
2.37677
20
-3.71719
11
2.37678
21
-3.71722
0
LINE
8
BLACK
6
CONTINUOUS
10
2.37678
20
-3.71722
11
2.37765
21
-3.73365
0
LINE
8
BLACK
6
CONTINUOUS
10
2.37765
20
-3.73365
11
2.37765
21
-3.73368
0
LINE
8
BLACK
6
CONTINUOUS
10
2.37765
20
-3.73368
11
2.37765
21
-3.7337
0
LINE
8
BLACK
6
CONTINUOUS
10
2.37765
20
-3.7337
11
2.37765
21
-3.73372
0
LINE
8
BLACK
6
CONTINUOUS
10
2.37765
20
-3.73372
11
2.37795
21
-3.75099
0
LINE
8
BLACK
6
CONTINUOUS
10
2.37795
20
-3.75099
11
2.37795
21
-3.75101
0
LINE
8
BLACK
6
CONTINUOUS
10
2.37795
20
-3.75101
11
2.37795
21
-4.73994
0
LINE
8
BLACK
6
CONTINUOUS
10
2.37795
20
-4.73994
11
2.37831
21
-4.76243
0
LINE
8
BLACK
6
CONTINUOUS
10
2.37831
20
-4.76243
11
2.3794
21
-4.78402
0
LINE
8
BLACK
6
CONTINUOUS
10
2.3794
20
-4.78402
11
2.38121
21
-4.80473
0
LINE
8
BLACK
6
CONTINUOUS
10
2.38121
20
-4.80473
11
2.38374
21
-4.82459
0
LINE
8
BLACK
6
CONTINUOUS
10
2.38374
20
-4.82459
11
2.38701
21
-4.84359
0
LINE
8
BLACK
6
CONTINUOUS
10
2.38701
20
-4.84359
11
2.39101
21
-4.86176
0
LINE
8
BLACK
6
CONTINUOUS
10
2.39101
20
-4.86176
11
2.39575
21
-4.87909
0
LINE
8
BLACK
6
CONTINUOUS
10
2.39575
20
-4.87909
11
2.40123
21
-4.89561
0
LINE
8
BLACK
6
CONTINUOUS
10
2.40123
20
-4.89561
11
2.40745
21
-4.91132
0
LINE
8
BLACK
6
CONTINUOUS
10
2.40745
20
-4.91132
11
2.41442
21
-4.92624
0
LINE
8
BLACK
6
CONTINUOUS
10
2.41442
20
-4.92624
11
2.42213
21
-4.94037
0
LINE
8
BLACK
6
CONTINUOUS
10
2.42213
20
-4.94037
11
2.4306
21
-4.95374
0
LINE
8
BLACK
6
CONTINUOUS
10
2.4306
20
-4.95374
11
2.43982
21
-4.96635
0
LINE
8
BLACK
6
CONTINUOUS
10
2.43982
20
-4.96635
11
2.4498
21
-4.97821
0
LINE
8
BLACK
6
CONTINUOUS
10
2.4498
20
-4.97821
11
2.46054
21
-4.98934
0
LINE
8
BLACK
6
CONTINUOUS
10
2.46054
20
-4.98934
11
2.47205
21
-4.99975
0
LINE
8
BLACK
6
CONTINUOUS
10
2.47205
20
-4.99975
11
2.48434
21
-5.00944
0
LINE
8
BLACK
6
CONTINUOUS
10
2.48434
20
-5.00944
11
2.49741
21
-5.01845
0
LINE
8
BLACK
6
CONTINUOUS
10
2.49741
20
-5.01845
11
2.51127
21
-5.02676
0
LINE
8
BLACK
6
CONTINUOUS
10
2.51127
20
-5.02676
11
2.52592
21
-5.03439
0
LINE
8
BLACK
6
CONTINUOUS
10
2.52592
20
-5.03439
11
2.54136
21
-5.04136
0
LINE
8
BLACK
6
CONTINUOUS
10
2.54136
20
-5.04136
11
2.5576
21
-5.04767
0
LINE
8
BLACK
6
CONTINUOUS
10
2.5576
20
-5.04767
11
2.57465
21
-5.05334
0
LINE
8
BLACK
6
CONTINUOUS
10
2.57465
20
-5.05334
11
2.5925
21
-5.05836
0
LINE
8
BLACK
6
CONTINUOUS
10
2.5925
20
-5.05836
11
2.61117
21
-5.06276
0
LINE
8
BLACK
6
CONTINUOUS
10
2.61117
20
-5.06276
11
2.63065
21
-5.06654
0
LINE
8
BLACK
6
CONTINUOUS
10
2.63065
20
-5.06654
11
2.65095
21
-5.06971
0
LINE
8
BLACK
6
CONTINUOUS
10
2.65095
20
-5.06971
11
2.67208
21
-5.07228
0
LINE
8
BLACK
6
CONTINUOUS
10
2.67208
20
-5.07228
11
2.69403
21
-5.07426
0
LINE
8
BLACK
6
CONTINUOUS
10
2.69403
20
-5.07426
11
2.71681
21
-5.07566
0
LINE
8
BLACK
6
CONTINUOUS
10
2.71681
20
-5.07566
11
2.74042
21
-5.0765
0
LINE
8
BLACK
6
CONTINUOUS
10
2.74042
20
-5.0765
11
2.76489
21
-5.07677
0
LINE
8
BLACK
6
CONTINUOUS
10
2.76489
20
-5.07677
11
5.196
21
-5.07913
0
LINE
8
BLACK
6
CONTINUOUS
10
5.196
20
-5.07913
11
5.19606
21
-5.07914
0
LINE
8
BLACK
6
CONTINUOUS
10
5.19606
20
-5.07914
11
5.26835
21
-5.08316
0
LINE
8
BLACK
6
CONTINUOUS
10
5.26835
20
-5.08316
11
5.26852
21
-5.08318
0
LINE
8
BLACK
6
CONTINUOUS
10
5.26852
20
-5.08318
11
5.34023
21
-5.09349
0
LINE
8
BLACK
6
CONTINUOUS
10
5.34023
20
-5.09349
11
5.3404
21
-5.09352
0
LINE
8
BLACK
6
CONTINUOUS
10
5.3404
20
-5.09352
11
5.3404
21
-5.09352
0
LINE
8
BLACK
6
CONTINUOUS
10
5.3404
20
-5.09352
11
5.41093
21
-5.11004
0
LINE
8
BLACK
6
CONTINUOUS
10
5.41093
20
-5.11004
11
5.41093
21
-5.11004
0
LINE
8
BLACK
6
CONTINUOUS
10
5.41093
20
-5.11004
11
5.41101
21
-5.11006
0
LINE
8
BLACK
6
CONTINUOUS
10
5.41101
20
-5.11006
11
5.4111
21
-5.11008
0
LINE
8
BLACK
6
CONTINUOUS
10
5.4111
20
-5.11008
11
5.4111
21
-5.11008
0
LINE
8
BLACK
6
CONTINUOUS
10
5.4111
20
-5.11008
11
5.47992
21
-5.13269
0
LINE
8
BLACK
6
CONTINUOUS
10
5.47992
20
-5.13269
11
5.47992
21
-5.13269
0
LINE
8
BLACK
6
CONTINUOUS
10
5.47992
20
-5.13269
11
5.48008
21
-5.13275
0
LINE
8
BLACK
6
CONTINUOUS
10
5.48008
20
-5.13275
11
5.54668
21
-5.16127
0
LINE
8
BLACK
6
CONTINUOUS
10
5.54668
20
-5.16127
11
5.54683
21
-5.16134
0
LINE
8
BLACK
6
CONTINUOUS
10
5.54683
20
-5.16134
11
5.61069
21
-5.19556
0
LINE
8
BLACK
6
CONTINUOUS
10
5.61069
20
-5.19556
11
5.61073
21
-5.19558
0
LINE
8
BLACK
6
CONTINUOUS
10
5.61073
20
-5.19558
11
5.61077
21
-5.1956
0
LINE
8
BLACK
6
CONTINUOUS
10
5.61077
20
-5.1956
11
5.61691
21
-5.19928
0
LINE
8
BLACK
6
CONTINUOUS
10
5.61691
20
-5.19928
11
7.5321
21
-6.31945
0
LINE
8
BLACK
6
CONTINUOUS
10
7.5321
20
-6.31945
11
7.53212
21
-6.31947
0
LINE
8
BLACK
6
CONTINUOUS
10
7.53212
20
-6.31947
11
7.55138
21
-6.33133
0
LINE
8
BLACK
6
CONTINUOUS
10
7.55138
20
-6.33133
11
7.60664
21
-6.36042
0
LINE
8
BLACK
6
CONTINUOUS
10
7.60664
20
-6.36042
11
7.66449
21
-6.38386
0
LINE
8
BLACK
6
CONTINUOUS
10
7.66449
20
-6.38386
11
7.72439
21
-6.40145
0
LINE
8
BLACK
6
CONTINUOUS
10
7.72439
20
-6.40145
11
7.78573
21
-6.41299
0
LINE
8
BLACK
6
CONTINUOUS
10
7.78573
20
-6.41299
11
7.84792
21
-6.41839
0
LINE
8
BLACK
6
CONTINUOUS
10
7.84792
20
-6.41839
11
7.91033
21
-6.41758
0
LINE
8
BLACK
6
CONTINUOUS
10
7.91033
20
-6.41758
11
7.97236
21
-6.41058
0
LINE
8
BLACK
6
CONTINUOUS
10
7.97236
20
-6.41058
11
8.03339
21
-6.39745
0
LINE
8
BLACK
6
CONTINUOUS
10
8.03339
20
-6.39745
11
8.09281
21
-6.37833
0
LINE
8
BLACK
6
CONTINUOUS
10
8.09281
20
-6.37833
11
8.15003
21
-6.3534
0
LINE
8
BLACK
6
CONTINUOUS
10
8.15003
20
-6.3534
11
8.2045
21
-6.32291
0
LINE
8
BLACK
6
CONTINUOUS
10
8.2045
20
-6.32291
11
8.25567
21
-6.28716
0
LINE
8
BLACK
6
CONTINUOUS
10
8.25567
20
-6.28716
11
8.30304
21
-6.2465
0
LINE
8
BLACK
6
CONTINUOUS
10
8.30304
20
-6.2465
11
8.34613
21
-6.20134
0
LINE
8
BLACK
6
CONTINUOUS
10
8.34613
20
-6.20134
11
8.38453
21
-6.15213
0
LINE
8
BLACK
6
CONTINUOUS
10
8.38453
20
-6.15213
11
8.41784
21
-6.09934
0
LINE
8
BLACK
6
CONTINUOUS
10
8.41784
20
-6.09934
11
8.44576
21
-6.04351
0
LINE
8
BLACK
6
CONTINUOUS
10
8.44576
20
-6.04351
11
8.46798
21
-5.98518
0
LINE
8
BLACK
6
CONTINUOUS
10
8.46798
20
-5.98518
11
8.48431
21
-5.92493
0
LINE
8
BLACK
6
CONTINUOUS
10
8.48431
20
-5.92493
11
8.49457
21
-5.86336
0
LINE
8
BLACK
6
CONTINUOUS
10
8.49457
20
-5.86336
11
8.49866
21
-5.80104
0
LINE
8
BLACK
6
CONTINUOUS
10
8.49866
20
-5.80104
11
8.49866
21
-1.57482
0
LINE
8
BLACK
6
CONTINUOUS
10
8.49866
20
-1.57482
11
8.49819
21
-1.55299
  0
ENDSEC
  0
EOF
